track pitch start end duration velocity
0 F#2 2.2305 2.3002 0.0697 84
0 F#2 2.7881 2.8903 0.1022 64
0 F#2 3.3457 3.4340 0.0883 64
0 F#2 3.9033 3.9591 0.0558 64
0 C#3 26.6341 26.6832 0.0492 86
0 B1 26.6341 26.7119 0.0779 106
0 F#3 27.1259 27.1832 0.0574 46
0 B1 27.1259 27.1832 0.0574 106
0 B1 27.6177 27.6791 0.0615 106
0 B1 28.1095 28.1751 0.0656 106
0 F#3 28.1095 28.1791 0.0697 46
0 B1 28.6013 28.6669 0.0656 106
0 F#3 29.0931 29.1464 0.0533 46
0 B1 29.0931 29.1546 0.0615 106
0 B1 29.5849 29.6464 0.0615 106
0 B1 30.0767 30.1341 0.0574 106
0 F#3 30.0767 30.1423 0.0656 46
0 B1 30.5685 30.6259 0.0574 106
0 F#3 31.0603 31.1177 0.0574 46
0 B1 31.0603 31.1218 0.0615 106
0 B1 31.5521 31.6177 0.0656 106
0 B1 32.0439 32.1054 0.0615 106
0 F#3 32.0439 32.1136 0.0697 46
0 B1 32.5357 32.5931 0.0574 106
0 B1 33.0275 33.0849 0.0574 106
0 F#3 33.0275 33.0931 0.0656 46
0 B1 33.5193 33.5767 0.0574 106
0 B1 34.0111 34.0644 0.0533 106
0 F#3 34.0111 34.0726 0.0615 46
0 D#2 34.0111 34.0726 0.0615 70
0 D#2 34.2570 34.3062 0.0492 70
0 C#3 34.5029 34.5521 0.0492 86
0 F#3 34.5029 34.5808 0.0779 29
0 B1 34.5029 34.5808 0.0779 106
0 A#4 34.6259 34.7242 0.0984 45
0 F#2 34.7488 34.7939 0.0451 30
0 F#3 34.7488 34.8267 0.0779 48
0 A#5 34.7488 34.8472 0.0984 45
0 A#4 34.8718 34.9619 0.0902 45
0 F#2 34.9947 35.0439 0.0492 78
0 B1 34.9947 35.0521 0.0574 106
0 D#2 34.9947 35.0562 0.0615 70
0 D2 34.9947 35.0726 0.0779 90
0 F#3 34.9947 35.0808 0.0861 29
0 A#4 35.1177 35.1955 0.0779 45
0 F#2 35.2406 35.2898 0.0492 30
0 F#3 35.2406 35.3267 0.0861 48
0 A#5 35.2406 35.3308 0.0902 45
0 A#4 35.3636 35.4414 0.0779 45
0 F#2 35.4865 35.5316 0.0451 78
0 B1 35.4865 35.5480 0.0615 106
0 F#3 35.4865 35.5685 0.0820 29
0 A#4 35.6095 35.6832 0.0738 45
0 F#2 35.7324 35.7775 0.0451 30
0 F#3 35.7324 35.8144 0.0820 48
0 A#5 35.7324 35.8267 0.0943 45
0 A#4 35.8554 35.9128 0.0574 45
0 F#2 35.9783 36.0193 0.0410 78
0 D#2 35.9783 36.0398 0.0615 70
0 B1 35.9783 36.0439 0.0656 106
0 D2 35.9783 36.0644 0.0861 90
0 F#3 35.9783 36.0849 0.1066 29
0 A#4 36.1013 36.1709 0.0697 45
0 F#2 36.2242 36.2652 0.0410 30
0 A#5 36.2242 36.2980 0.0738 45
0 F#3 36.2242 36.3308 0.1066 48
0 A#4 36.3472 36.3800 0.0328 45
0 F#2 36.4701 36.5152 0.0451 78
0 B1 36.4701 36.5357 0.0656 106
0 F#3 36.4701 36.5685 0.0984 29
0 A#4 36.5931 36.6750 0.0820 45
0 F#2 36.7160 36.7652 0.0492 30
0 F#3 36.7160 36.8144 0.0984 48
0 A#5 36.7160 36.8267 0.1107 45
0 A#4 36.8390 36.9209 0.0820 45
0 F#2 36.9619 37.0029 0.0410 78
0 D#2 36.9619 37.0234 0.0615 70
0 B1 36.9619 37.0234 0.0615 106
0 D2 36.9619 37.0316 0.0697 90
0 F#3 36.9619 37.0603 0.0984 29
0 A#4 37.0849 37.1668 0.0820 45
0 F#2 37.2078 37.2611 0.0533 30
0 F#3 37.2078 37.3062 0.0984 48
0 A#5 37.2078 37.3185 0.1107 45
0 A#4 37.3308 37.4087 0.0779 45
0 F#2 37.4537 37.4988 0.0451 78
0 B1 37.4537 37.5152 0.0615 106
0 F#3 37.4537 37.5685 0.1148 29
0 A#4 37.5767 37.6668 0.0902 45
0 F#2 37.6996 37.7488 0.0492 30
0 A#5 37.6996 37.8062 0.1066 45
0 F#3 37.6996 37.8144 0.1148 48
0 A#4 37.8226 37.8964 0.0738 45
0 F#2 37.9455 37.9742 0.0287 78
0 B1 37.9455 38.0029 0.0574 106
0 D#2 37.9455 38.0070 0.0615 70
0 D2 37.9455 38.0316 0.0861 90
0 F#3 37.9455 38.0685 0.1230 29
0 A#4 38.0685 38.1464 0.0779 45
0 D#2 38.1832 38.2488 0.0656 70
0 A#2 38.1914 38.2816 0.0902 65
0 A#5 38.1914 38.2857 0.0943 45
0 F#3 38.1914 38.3144 0.1230 48
0 A#4 38.3144 38.3841 0.0697 45
0 F#2 38.4373 38.5029 0.0656 78
0 F#3 38.4373 38.5152 0.0779 29
0 B1 38.4373 38.5152 0.0779 106
0 A#4 38.5603 38.6587 0.0984 45
0 F#2 38.6832 38.7283 0.0451 30
0 F#3 38.6832 38.7611 0.0779 48
0 A#5 38.6832 38.7816 0.0984 45
0 A#4 38.8062 38.8964 0.0902 45
0 F#2 38.9291 38.9783 0.0492 78
0 B1 38.9291 38.9865 0.0574 106
0 D#2 38.9291 38.9906 0.0615 70
0 D2 38.9291 39.0070 0.0779 90
0 F#3 38.9291 39.0152 0.0861 29
0 A#4 39.0521 39.1300 0.0779 45
0 F#2 39.1750 39.2242 0.0492 30
0 F#3 39.1750 39.2611 0.0861 48
0 A#5 39.1750 39.2652 0.0902 45
0 A#4 39.2980 39.3759 0.0779 45
0 F#2 39.4209 39.4660 0.0451 78
0 B1 39.4209 39.4824 0.0615 106
0 F#3 39.4209 39.5029 0.0820 29
0 A#4 39.5439 39.6177 0.0738 45
0 F#2 39.6668 39.7119 0.0451 30
0 F#3 39.6668 39.7488 0.0820 48
0 A#5 39.6668 39.7611 0.0943 45
0 A#4 39.7898 39.8472 0.0574 45
0 F#2 39.9127 39.9537 0.0410 78
0 D#2 39.9127 39.9742 0.0615 70
0 B1 39.9127 39.9783 0.0656 106
0 D2 39.9127 39.9988 0.0861 90
0 F#3 39.9127 40.0193 0.1066 29
0 A#4 40.0357 40.1054 0.0697 45
0 F#2 40.1587 40.1996 0.0410 30
0 A#5 40.1587 40.2324 0.0738 45
0 F#3 40.1587 40.2652 0.1066 48
0 A#4 40.2816 40.3144 0.0328 45
0 F#2 40.4046 40.4496 0.0451 78
0 B1 40.4046 40.4701 0.0656 106
0 F#3 40.4046 40.5029 0.0984 29
0 A#4 40.5275 40.6095 0.0820 45
0 F#2 40.6505 40.6996 0.0492 30
0 F#3 40.6505 40.7488 0.0984 48
0 A#5 40.6505 40.7611 0.1107 45
0 A#4 40.7734 40.8554 0.0820 45
0 F#2 40.8964 40.9373 0.0410 78
0 D#2 40.8964 40.9578 0.0615 70
0 B1 40.8964 40.9578 0.0615 106
0 D2 40.8964 40.9660 0.0697 90
0 F#3 40.8964 40.9947 0.0984 29
0 A#4 41.0193 41.1013 0.0820 45
0 F#2 41.1423 41.1955 0.0533 30
0 F#3 41.1423 41.2406 0.0984 48
0 A#5 41.1423 41.2529 0.1107 45
0 A#4 41.2652 41.3431 0.0779 45
0 F#2 41.3882 41.4332 0.0451 78
0 B1 41.3882 41.4496 0.0615 106
0 F#3 41.3882 41.5029 0.1148 29
0 A#4 41.5111 41.6013 0.0902 45
0 F#2 41.6341 41.6832 0.0492 30
0 A#5 41.6341 41.7406 0.1066 45
0 F#3 41.6341 41.7488 0.1148 48
0 A#4 41.7570 41.8308 0.0738 45
0 F#2 41.8800 41.9086 0.0287 78
0 B1 41.8800 41.9373 0.0574 106
0 D#2 41.8800 41.9414 0.0615 70
0 D2 41.8800 41.9660 0.0861 90
0 F#3 41.8800 42.0029 0.1230 29
0 A#4 42.0029 42.0808 0.0779 45
0 D#2 42.1259 42.1873 0.0615 70
0 F#2 42.1259 42.2160 0.0902 30
0 A#5 42.1259 42.2201 0.0943 45
0 F#3 42.1259 42.2488 0.1230 48
0 A#4 42.2488 42.3185 0.0697 45
0 C#3 42.3718 42.4209 0.0492 86
0 B1 42.3718 42.4373 0.0656 106
0 B1 42.8636 42.9250 0.0615 106
0 B1 43.3554 43.4168 0.0615 106
0 B1 43.8472 43.9046 0.0574 106
0 B1 44.3390 44.3964 0.0574 106
0 B1 44.8308 44.8923 0.0615 106
0 B1 45.3226 45.3882 0.0656 106
0 B1 45.8144 45.8759 0.0615 106
0 B1 46.3062 46.3718 0.0656 106
0 B1 46.7980 46.8595 0.0615 106
0 B1 47.2898 47.3513 0.0615 106
0 B1 47.7816 47.8390 0.0574 106
0 B1 48.2734 48.3308 0.0574 106
0 B1 48.7652 48.8267 0.0615 106
0 B1 49.2570 49.3226 0.0656 106
0 B1 49.7488 49.8103 0.0615 106
0 B1 50.2406 50.3185 0.0779 106
0 F#3 50.7324 50.7898 0.0574 46
0 B1 50.7324 50.7898 0.0574 106
0 B1 51.2242 51.2857 0.0615 106
0 B1 51.7160 51.7816 0.0656 106
0 F#3 51.7160 51.7857 0.0697 46
0 B1 52.2078 52.2734 0.0656 106
0 F#3 52.6996 52.7529 0.0533 46
0 B1 52.6996 52.7611 0.0615 106
0 B1 53.1914 53.2529 0.0615 106
0 B1 53.6832 53.7406 0.0574 106
0 F#3 53.6832 53.7488 0.0656 46
0 B1 54.1750 54.2324 0.0574 106
0 F#3 54.6668 54.7242 0.0574 46
0 B1 54.6668 54.7283 0.0615 106
0 B1 55.1586 55.2242 0.0656 106
0 B1 55.6504 55.7119 0.0615 106
0 F#3 55.6504 55.7201 0.0697 46
0 B1 56.1422 56.1996 0.0574 106
0 B1 56.6341 56.6914 0.0574 106
0 F#3 56.6341 56.6996 0.0656 46
0 B1 57.1259 57.1832 0.0574 106
0 B1 57.6177 57.6709 0.0533 106
0 F#3 57.6177 57.6791 0.0615 46
0 C#3 58.1095 58.1504 0.0410 85
0 B1 58.1095 58.1873 0.0779 106
0 F#3 58.6013 58.6586 0.0574 46
0 B1 58.6013 58.6586 0.0574 106
0 F#2 58.6013 58.6586 0.0574 40
0 D2 58.6013 58.6791 0.0779 90
0 B1 59.0931 59.1545 0.0615 106
0 F#2 59.5849 59.6422 0.0574 40
0 B1 59.5849 59.6504 0.0656 106
0 F#3 59.5849 59.6545 0.0697 46
0 D2 59.5849 59.6709 0.0861 90
0 B1 60.0767 60.1422 0.0656 106
0 F#2 60.5685 60.6177 0.0492 40
0 F#3 60.5685 60.6218 0.0533 46
0 B1 60.5685 60.6300 0.0615 106
0 D2 60.5685 60.6381 0.0697 90
0 B1 61.0603 61.1218 0.0615 106
0 D2 61.3062 61.3922 0.0861 90
0 F#2 61.5521 61.5972 0.0451 40
0 B1 61.5521 61.6095 0.0574 106
0 F#3 61.5521 61.6177 0.0656 46
0 D2 61.5521 61.6381 0.0861 90
0 B1 62.0439 62.1013 0.0574 106
0 F#2 62.5357 62.5849 0.0492 40
0 F#3 62.5357 62.5931 0.0574 46
0 B1 62.5357 62.5972 0.0615 106
0 D2 62.5357 62.6136 0.0779 90
0 B1 63.0275 63.0931 0.0656 106
0 F#2 63.5193 63.5726 0.0533 40
0 B1 63.5193 63.5808 0.0615 106
0 F#3 63.5193 63.5890 0.0697 46
0 D2 63.5193 63.6054 0.0861 90
0 D2 63.8881 63.9742 0.0861 74
0 B1 64.0111 64.0685 0.0574 106
0 F#2 64.5029 64.5521 0.0492 40
0 B1 64.5029 64.5603 0.0574 106
0 F#3 64.5029 64.5685 0.0656 46
0 D2 64.5029 64.5726 0.0697 90
0 B1 64.9947 65.0521 0.0574 106
0 D2 65.3636 65.4824 0.1189 81
0 F#2 65.4865 65.5398 0.0533 40
0 B1 65.4865 65.5398 0.0533 106
0 F#3 65.4865 65.5480 0.0615 46
0 D2 65.4865 65.5726 0.0861 90
0 C#3 65.9783 66.0193 0.0410 85
0 B1 65.9783 66.0562 0.0779 106
0 F#2 65.9783 66.0644 0.0861 44
0 A#2 66.2242 66.3021 0.0779 46
0 A4 66.2242 66.3636 0.1393 44
0 F#3 66.4701 66.5275 0.0574 46
0 B1 66.4701 66.5275 0.0574 106
0 D2 66.4701 66.5480 0.0779 90
0 F#2 66.4701 66.5685 0.0984 44
0 A#5 66.4701 66.5931 0.1230 44
0 A4 66.7160 66.8267 0.1107 36
0 B1 66.9619 67.0234 0.0615 106
0 F#2 66.9619 67.0439 0.0820 44
0 A#2 67.2078 67.2980 0.0902 46
0 A4 67.2078 67.3554 0.1475 44
0 B1 67.4537 67.5193 0.0656 106
0 F#3 67.4537 67.5234 0.0697 46
0 F#2 67.4537 67.5357 0.0820 44
0 D2 67.4537 67.5398 0.0861 90
0 A#5 67.4537 67.6217 0.1680 44
0 A4 67.6996 67.7734 0.0738 36
0 B1 67.9455 68.0111 0.0656 106
0 F#2 67.9455 68.0357 0.0902 44
0 A#2 68.1914 68.2816 0.0902 46
0 A4 68.1914 68.3390 0.1475 44
0 F#3 68.4373 68.4906 0.0533 46
0 B1 68.4373 68.4988 0.0615 106
0 D2 68.4373 68.5070 0.0697 90
0 F#2 68.4373 68.5275 0.0902 44
0 A#5 68.4373 68.5767 0.1393 44
0 A4 68.6832 68.7857 0.1025 36
0 B1 68.9291 68.9906 0.0615 106
0 F#2 68.9291 68.9988 0.0697 44
0 A#2 69.1750 69.2529 0.0779 46
0 D2 69.1750 69.2611 0.0861 90
0 A4 69.1750 69.3267 0.1516 44
0 B1 69.4209 69.4783 0.0574 106
0 F#3 69.4209 69.4865 0.0656 46
0 F#2 69.4209 69.4947 0.0738 44
0 D2 69.4209 69.5070 0.0861 90
0 A#5 69.4209 69.5521 0.1311 44
0 A4 69.6668 69.7652 0.0984 36
0 B1 69.9127 69.9701 0.0574 106
0 F#2 69.9127 69.9988 0.0861 44
0 A#2 70.1586 70.2406 0.0820 46
0 A4 70.1586 70.2980 0.1393 44
0 F#3 70.4045 70.4619 0.0574 46
0 B1 70.4045 70.4660 0.0615 106
0 F#2 70.4045 70.4742 0.0697 44
0 D2 70.4045 70.4824 0.0779 90
0 A#5 70.4045 70.5439 0.1393 44
0 A4 70.6504 70.7570 0.1066 36
0 F#2 70.8963 70.9537 0.0574 44
0 B1 70.8963 70.9619 0.0656 106
0 A#2 71.1422 71.2078 0.0656 46
0 A4 71.1422 71.2980 0.1557 44
0 B1 71.3881 71.4496 0.0615 106
0 F#3 71.3881 71.4578 0.0697 46
0 F#2 71.3881 71.4619 0.0738 44
0 D2 71.3881 71.4742 0.0861 90
0 A#5 71.3881 71.5316 0.1434 44
0 A4 71.6340 71.7611 0.1270 36
0 B1 71.8799 71.9373 0.0574 106
0 F#2 71.8799 71.9496 0.0697 44
0 A#2 72.1258 72.1996 0.0738 46
0 A4 72.1258 72.2857 0.1598 44
0 B1 72.3717 72.4291 0.0574 106
0 F#3 72.3717 72.4373 0.0656 46
0 F#2 72.3717 72.4414 0.0697 44
0 D2 72.3717 72.4414 0.0697 90
0 A#5 72.3717 72.5111 0.1393 44
0 A4 72.6176 72.6996 0.0820 36
0 B1 72.8636 72.9209 0.0574 106
0 F#2 72.8636 72.9332 0.0697 44
0 A#2 73.1095 73.1791 0.0697 46
0 A4 73.1095 73.2816 0.1721 44
0 D2 73.2324 73.3513 0.1189 81
0 F#2 73.3554 73.4045 0.0492 44
0 B1 73.3554 73.4086 0.0533 106
0 F#3 73.3554 73.4168 0.0615 46
0 D2 73.3554 73.4414 0.0861 90
0 A#5 73.3554 73.4742 0.1189 44
0 F#3 73.6013 73.6627 0.0615 26
0 A4 73.6013 73.7037 0.1025 36
0 F#3 73.7242 73.7857 0.0615 46
0 F#3 73.8472 73.9045 0.0574 46
0 B1 73.8472 73.9045 0.0574 106
0 F#2 73.8472 73.9332 0.0861 44
0 A#2 74.0931 74.1750 0.0820 46
0 A4 74.0931 74.2324 0.1393 44
0 F#3 74.3390 74.3963 0.0574 46
0 B1 74.3390 74.4004 0.0615 106
0 F#2 74.3390 74.4086 0.0697 44
0 D2 74.3390 74.4168 0.0779 90
0 A#5 74.3390 74.4783 0.1393 44
0 A4 74.5849 74.7201 0.1352 36
0 F#2 74.8308 74.8881 0.0574 44
0 B1 74.8308 74.8963 0.0656 106
0 A#2 75.0767 75.1422 0.0656 46
0 A4 75.0767 75.2324 0.1557 44
0 B1 75.3226 75.3840 0.0615 106
0 F#3 75.3226 75.3922 0.0697 46
0 F#2 75.3226 75.3963 0.0738 44
0 D2 75.3226 75.4086 0.0861 90
0 A#5 75.3226 75.4660 0.1434 44
0 A4 75.5685 75.6791 0.1107 36
0 F#3 75.6914 75.7611 0.0697 46
0 B1 75.8144 75.8717 0.0574 106
0 F#2 75.8144 75.9004 0.0861 44
0 A#2 76.0603 76.1422 0.0820 46
0 A4 76.0603 76.1996 0.1393 44
0 F#3 76.3062 76.3635 0.0574 46
0 B1 76.3062 76.3676 0.0615 106
0 F#2 76.3062 76.3758 0.0697 44
0 D2 76.3062 76.3840 0.0779 90
0 A#5 76.3062 76.4455 0.1393 44
0 A4 76.5521 76.6586 0.1066 36
0 F#2 76.7980 76.8554 0.0574 44
0 B1 76.7980 76.8635 0.0656 106
0 A#2 77.0439 77.1094 0.0656 46
0 A4 77.0439 77.1996 0.1557 44
0 B1 77.2898 77.3513 0.0615 106
0 F#3 77.2898 77.3594 0.0697 46
0 F#2 77.2898 77.3635 0.0738 44
0 D2 77.2898 77.3758 0.0861 90
0 A#5 77.2898 77.4332 0.1434 44
0 B1 81.7160 81.7734 0.0574 106
0 C#3 81.7160 81.8021 0.0861 85
0 A#2 81.9619 82.0439 0.0820 46
0 A4 81.9619 82.1012 0.1393 44
0 F#3 82.2078 82.2652 0.0574 46
0 B1 82.2078 82.2693 0.0615 106
0 F#2 82.2078 82.2775 0.0697 44
0 D2 82.2078 82.2857 0.0779 90
0 A#5 82.2078 82.3472 0.1393 44
0 A#2 82.4537 82.5357 0.0820 46
0 A4 82.4537 82.5603 0.1066 36
0 F#2 82.6996 82.7570 0.0574 44
0 B1 82.6996 82.7652 0.0656 106
0 A#2 82.9455 83.0111 0.0656 46
0 A4 82.9455 83.1012 0.1557 44
0 B1 83.1914 83.2529 0.0615 106
0 F#3 83.1914 83.2611 0.0697 46
0 F#2 83.1914 83.2652 0.0738 44
0 D2 83.1914 83.2775 0.0861 90
0 A#5 83.1914 83.3349 0.1434 44
0 A#2 83.4373 83.5193 0.0820 46
0 A4 83.4373 83.5644 0.1270 36
0 B1 83.6832 83.7406 0.0574 106
0 F#2 83.6832 83.7693 0.0861 44
0 A#2 83.9291 84.0111 0.0820 46
0 A4 83.9291 84.0685 0.1393 44
0 F#3 84.1750 84.2324 0.0574 46
0 B1 84.1750 84.2365 0.0615 106
0 F#2 84.1750 84.2447 0.0697 44
0 D2 84.1750 84.2529 0.0779 90
0 A#5 84.1750 84.3144 0.1393 44
0 A#2 84.4209 84.5029 0.0820 46
0 A4 84.4209 84.5275 0.1066 36
0 F#2 84.6668 84.7242 0.0574 44
0 B1 84.6668 84.7324 0.0656 106
0 A#2 84.9127 84.9783 0.0656 46
0 A4 84.9127 85.0685 0.1557 44
0 B1 85.1586 85.2201 0.0615 106
0 F#3 85.1586 85.2283 0.0697 46
0 F#2 85.1586 85.2324 0.0738 44
0 D2 85.1586 85.2447 0.0861 90
0 A#5 85.1586 85.3021 0.1434 44
0 A#2 85.4045 85.4865 0.0820 46
0 A4 85.4045 85.5316 0.1270 36
0 B1 85.6504 85.7078 0.0574 106
0 F#2 85.6504 85.7365 0.0861 44
0 A#2 85.8963 85.9783 0.0820 46
0 A4 85.8963 86.0357 0.1393 44
0 F#3 86.1422 86.1996 0.0574 46
0 B1 86.1422 86.2037 0.0615 106
0 F#2 86.1422 86.2119 0.0697 44
0 D2 86.1422 86.2201 0.0779 90
0 A#5 86.1422 86.2816 0.1393 44
0 A#2 86.3881 86.4701 0.0820 46
0 A4 86.3881 86.4947 0.1066 36
0 F#2 86.6340 86.6914 0.0574 44
0 B1 86.6340 86.6996 0.0656 106
0 A#2 86.8799 86.9455 0.0656 46
0 A4 86.8799 87.0357 0.1557 44
0 B1 87.1258 87.1873 0.0615 106
0 F#3 87.1258 87.1955 0.0697 46
0 F#2 87.1258 87.1996 0.0738 44
0 D2 87.1258 87.2119 0.0861 90
0 A#5 87.1258 87.2693 0.1434 44
0 A#2 87.3717 87.4537 0.0820 46
0 A4 87.3717 87.4988 0.1270 36
0 B1 87.6176 87.6750 0.0574 106
0 F#2 87.6176 87.7037 0.0861 44
0 A#2 87.8635 87.9455 0.0820 46
0 A4 87.8635 88.0029 0.1393 44
0 F#3 88.1094 88.1668 0.0574 46
0 B1 88.1094 88.1709 0.0615 106
0 F#2 88.1094 88.1791 0.0697 44
0 D2 88.1094 88.1873 0.0779 90
0 A#5 88.1094 88.2488 0.1393 44
0 A#2 88.3553 88.4373 0.0820 46
0 A4 88.3553 88.4619 0.1066 36
0 F#2 88.6012 88.6586 0.0574 44
0 B1 88.6012 88.6668 0.0656 106
0 A#2 88.8471 88.9127 0.0656 46
0 D2 88.8471 88.9332 0.0861 90
0 A4 88.8471 89.0029 0.1557 44
0 B1 89.0930 89.1545 0.0615 106
0 F#3 89.0930 89.1627 0.0697 46
0 F#2 89.0930 89.1668 0.0738 44
0 D2 89.0930 89.1791 0.0861 90
0 A#5 89.0930 89.2365 0.1434 44
0 A#2 89.3390 89.4209 0.0820 46
0 D2 89.3390 89.4250 0.0861 90
0 A4 89.3390 89.4660 0.1270 36
0 D2 89.4619 89.5480 0.0861 90
0 B1 89.5849 89.6422 0.0574 106
0 C#3 89.5849 89.6709 0.0861 85
0 A#2 89.8308 89.9127 0.0820 46
0 A4 89.8308 89.9701 0.1393 44
0 F#2 89.9537 90.0111 0.0574 42
0 F#3 90.0767 90.1340 0.0574 46
0 B1 90.0767 90.1381 0.0615 106
0 F#2 90.0767 90.1463 0.0697 44
0 D2 90.0767 90.1545 0.0779 90
0 A#5 90.0767 90.2160 0.1393 44
0 A#2 90.3226 90.4045 0.0820 46
0 A4 90.3226 90.4291 0.1066 36
0 F#2 90.4455 90.5029 0.0574 42
0 F#2 90.5685 90.6258 0.0574 44
0 B1 90.5685 90.6340 0.0656 106
0 A#2 90.8144 90.8799 0.0656 46
0 A4 90.8144 90.9701 0.1557 44
0 F#2 90.9373 90.9988 0.0615 42
0 B1 91.0603 91.1217 0.0615 106
0 F#3 91.0603 91.1299 0.0697 46
0 F#2 91.0603 91.1340 0.0738 44
0 D2 91.0603 91.1463 0.0861 90
0 A#5 91.0603 91.2037 0.1434 44
0 A#2 91.3062 91.3881 0.0820 46
0 A4 91.3062 91.4332 0.1270 36
0 F#2 91.4291 91.4865 0.0574 42
0 B1 91.5521 91.6094 0.0574 106
0 F#2 91.5521 91.6381 0.0861 44
0 A#2 91.7980 91.8799 0.0820 46
0 A4 91.7980 91.9373 0.1393 44
0 F#2 91.9209 91.9783 0.0574 42
0 F#3 92.0439 92.1012 0.0574 46
0 B1 92.0439 92.1053 0.0615 106
0 F#2 92.0439 92.1135 0.0697 44
0 D2 92.0439 92.1217 0.0779 90
0 A#5 92.0439 92.1832 0.1393 44
0 A#2 92.2898 92.3717 0.0820 46
0 A4 92.2898 92.3963 0.1066 36
0 F#2 92.4127 92.4701 0.0574 42
0 F#2 92.5357 92.5930 0.0574 44
0 B1 92.5357 92.6012 0.0656 106
0 A#2 92.7816 92.8471 0.0656 46
0 A4 92.7816 92.9373 0.1557 44
0 F#2 92.9045 92.9660 0.0615 42
0 D2 92.9045 92.9906 0.0861 79
0 B1 93.0275 93.0889 0.0615 106
0 F#3 93.0275 93.0971 0.0697 46
0 F#2 93.0275 93.1012 0.0738 44
0 D2 93.0275 93.1135 0.0861 90
0 A#5 93.0275 93.1709 0.1434 44
0 A#2 93.2734 93.3553 0.0820 46
0 A4 93.2734 93.4004 0.1270 36
0 F#2 93.3963 93.4537 0.0574 42
0 B1 93.5193 93.5767 0.0574 106
0 F#2 93.5193 93.6053 0.0861 44
0 A#2 93.7652 93.8471 0.0820 46
0 A4 93.7652 93.9045 0.1393 44
0 F#2 93.8881 93.9455 0.0574 42
0 F#3 94.0111 94.0685 0.0574 46
0 B1 94.0111 94.0726 0.0615 106
0 F#2 94.0111 94.0808 0.0697 44
0 D2 94.0111 94.0889 0.0779 90
0 A#5 94.0111 94.1504 0.1393 44
0 A#2 94.2570 94.3389 0.0820 46
0 A4 94.2570 94.3635 0.1066 36
0 F#2 94.3799 94.4373 0.0574 42
0 F#2 94.5029 94.5603 0.0574 44
0 B1 94.5029 94.5685 0.0656 106
0 A#2 94.7488 94.8144 0.0656 46
0 A4 94.7488 94.9045 0.1557 44
0 F#2 94.8717 94.9332 0.0615 42
0 B1 94.9947 95.0562 0.0615 106
0 F#3 94.9947 95.0644 0.0697 46
0 F#2 94.9947 95.0685 0.0738 44
0 D2 94.9947 95.0808 0.0861 90
0 A#5 94.9947 95.1381 0.1434 44
0 A#2 95.2406 95.3226 0.0820 46
0 A4 95.2406 95.3676 0.1270 36
0 F#2 95.3635 95.4209 0.0574 42
0 B1 95.4865 95.5439 0.0574 106
0 F#2 95.4865 95.5726 0.0861 44
0 A#2 95.7324 95.8144 0.0820 46
0 A4 95.7324 95.8717 0.1393 44
0 F#2 95.8553 95.9127 0.0574 42
0 F#3 95.9783 96.0357 0.0574 46
0 B1 95.9783 96.0398 0.0615 106
0 F#2 95.9783 96.0480 0.0697 44
0 D2 95.9783 96.0562 0.0779 90
0 A#5 95.9783 96.1176 0.1393 44
0 A#2 96.2242 96.3062 0.0820 46
0 A4 96.2242 96.3308 0.1066 36
0 F#2 96.3471 96.4045 0.0574 42
0 F#2 96.4701 96.5275 0.0574 44
0 B1 96.4701 96.5357 0.0656 106
0 A#2 96.7160 96.7816 0.0656 46
0 A4 96.7160 96.8717 0.1557 44
0 F#2 96.8389 96.9004 0.0615 42
0 B1 96.9619 97.0234 0.0615 106
0 F#3 96.9619 97.0316 0.0697 46
0 F#2 96.9619 97.0357 0.0738 44
0 D2 96.9619 97.0480 0.0861 90
0 A#5 96.9619 97.1053 0.1434 44
0 A#2 97.2078 97.2898 0.0820 46
0 D2 97.2078 97.2939 0.0861 90
0 A4 97.2078 97.3348 0.1270 36
0 F#2 97.3307 97.3881 0.0574 42
0 D2 97.3307 97.4168 0.0861 90
0 B1 97.4537 97.5111 0.0574 106
0 F#3 97.4537 97.5316 0.0779 49
0 C#3 97.4537 97.5398 0.0861 85
0 F#3 97.5767 97.6545 0.0779 18
0 A#4 97.5767 97.6750 0.0984 45
0 F#3 97.6996 97.7775 0.0779 23
0 A#2 97.6996 97.7816 0.0820 46
0 A#5 97.6996 97.7980 0.0984 45
0 F#2 97.8226 97.8799 0.0574 42
0 F#3 97.8226 97.9004 0.0779 18
0 A#4 97.8226 97.9127 0.0902 45
0 B1 97.9455 98.0070 0.0615 106
0 F#2 97.9455 98.0152 0.0697 44
0 F#3 97.9455 98.0234 0.0779 47
0 D2 97.9455 98.0234 0.0779 90
0 A#4 98.0685 98.1463 0.0779 45
0 F#3 98.0685 98.1463 0.0779 18
0 F#3 98.1914 98.2693 0.0779 23
0 A#2 98.1914 98.2734 0.0820 46
0 A#5 98.1914 98.2816 0.0902 45
0 F#2 98.3144 98.3717 0.0574 42
0 F#3 98.3144 98.3922 0.0779 18
0 A#4 98.3144 98.3922 0.0779 45
0 F#2 98.4373 98.4947 0.0574 44
0 B1 98.4373 98.5029 0.0656 106
0 F#3 98.4373 98.5152 0.0779 49
0 A#4 98.5603 98.6340 0.0738 45
0 F#3 98.5603 98.6381 0.0779 18
0 A#2 98.6832 98.7488 0.0656 46
0 F#3 98.6832 98.7611 0.0779 23
0 A#5 98.6832 98.7775 0.0943 45
0 A#4 98.8062 98.8635 0.0574 45
0 F#2 98.8062 98.8676 0.0615 42
0 F#3 98.8062 98.8840 0.0779 18
0 B1 98.9291 98.9906 0.0615 106
0 F#2 98.9291 99.0029 0.0738 44
0 F#3 98.9291 99.0070 0.0779 47
0 D2 98.9291 99.0152 0.0861 90
0 A#4 99.0521 99.1217 0.0697 45
0 F#3 99.0521 99.1299 0.0779 18
0 A#5 99.1750 99.2488 0.0738 45
0 F#3 99.1750 99.2529 0.0779 23
0 A#2 99.1750 99.2570 0.0820 46
0 A#4 99.2980 99.3307 0.0328 45
0 F#2 99.2980 99.3553 0.0574 42
0 F#3 99.2980 99.3758 0.0779 18
0 B1 99.4209 99.4783 0.0574 106
0 F#3 99.4209 99.4988 0.0779 49
0 F#2 99.4209 99.5070 0.0861 44
0 F#3 99.5439 99.6217 0.0779 18
0 A#4 99.5439 99.6258 0.0820 45
0 F#3 99.6668 99.7447 0.0779 23
0 A#2 99.6668 99.7488 0.0820 46
0 A#5 99.6668 99.7775 0.1107 45
0 F#2 99.7898 99.8471 0.0574 42
0 F#3 99.7898 99.8676 0.0779 18
0 A#4 99.7898 99.8717 0.0820 45
0 B1 99.9127 99.9742 0.0615 106
0 F#2 99.9127 99.9824 0.0697 44
0 F#3 99.9127 99.9906 0.0779 47
0 D2 99.9127 99.9906 0.0779 90
0 F#3 100.0357 100.1135 0.0779 18
0 A#4 100.0357 100.1176 0.0820 45
0 F#3 100.1586 100.2365 0.0779 23
0 A#2 100.1586 100.2406 0.0820 46
0 A#5 100.1586 100.2693 0.1107 45
0 F#2 100.2816 100.3389 0.0574 42
0 F#3 100.2816 100.3594 0.0779 18
0 A#4 100.2816 100.3594 0.0779 45
0 F#2 100.4045 100.4619 0.0574 44
0 B1 100.4045 100.4701 0.0656 106
0 F#3 100.4045 100.4824 0.0779 49
0 F#3 100.5275 100.6053 0.0779 18
0 A#4 100.5275 100.6176 0.0902 45
0 A#2 100.6504 100.7160 0.0656 46
0 F#3 100.6504 100.7283 0.0779 23
0 A#5 100.6504 100.7570 0.1066 45
0 F#2 100.7734 100.8348 0.0615 42
0 A#4 100.7734 100.8471 0.0738 45
0 F#3 100.7734 100.8512 0.0779 18
0 D2 100.7734 100.8594 0.0861 79
0 B1 100.8963 100.9578 0.0615 106
0 F#2 100.8963 100.9701 0.0738 44
0 F#3 100.8963 100.9742 0.0779 47
0 D2 100.8963 100.9824 0.0861 90
0 A#4 101.0193 101.0971 0.0779 45
0 F#3 101.0193 101.0971 0.0779 18
0 F#3 101.1422 101.2201 0.0779 23
0 A#2 101.1422 101.2242 0.0820 46
0 A#5 101.1422 101.2365 0.0943 45
0 F#2 101.2652 101.3226 0.0574 42
0 A#4 101.2652 101.3348 0.0697 45
0 F#3 101.2652 101.3430 0.0779 18
0 B1 101.3881 101.4455 0.0574 106
0 F#3 101.3881 101.4660 0.0779 49
0 F#2 101.3881 101.4742 0.0861 44
0 F#3 101.5111 101.5889 0.0779 18
0 A#4 101.5111 101.6094 0.0984 45
0 F#3 101.6340 101.7119 0.0779 23
0 A#2 101.6340 101.7160 0.0820 46
0 A#5 101.6340 101.7324 0.0984 45
0 F#2 101.7570 101.8144 0.0574 42
0 F#3 101.7570 101.8348 0.0779 18
0 A#4 101.7570 101.8471 0.0902 45
0 B1 101.8799 101.9414 0.0615 106
0 F#2 101.8799 101.9496 0.0697 44
0 D2 101.8799 101.9578 0.0779 90
0 F#3 101.8799 101.9578 0.0779 47
0 F#3 102.0029 102.0807 0.0779 18
0 A#4 102.0029 102.0807 0.0779 45
0 F#3 102.1258 102.2037 0.0779 23
0 A#2 102.1258 102.2078 0.0820 46
0 A#5 102.1258 102.2160 0.0902 45
0 F#2 102.2488 102.3062 0.0574 42
0 F#3 102.2488 102.3266 0.0779 18
0 A#4 102.2488 102.3266 0.0779 45
0 F#2 102.3717 102.4291 0.0574 44
0 B1 102.3717 102.4373 0.0656 106
0 F#3 102.3717 102.4496 0.0779 49
0 A#4 102.4947 102.5685 0.0738 45
0 F#3 102.4947 102.5725 0.0779 18
0 A#2 102.6176 102.6832 0.0656 46
0 F#3 102.6176 102.6955 0.0779 23
0 A#5 102.6176 102.7119 0.0943 45
0 A#4 102.7406 102.7980 0.0574 45
0 F#2 102.7406 102.8021 0.0615 42
0 F#3 102.7406 102.8185 0.0779 18
0 B1 102.8635 102.9250 0.0615 106
0 F#2 102.8635 102.9373 0.0738 44
0 F#3 102.8635 102.9414 0.0779 47
0 D2 102.8635 102.9496 0.0861 90
0 A#4 102.9865 103.0562 0.0697 45
0 F#3 102.9865 103.0644 0.0779 18
0 A#5 103.1094 103.1832 0.0738 45
0 F#3 103.1094 103.1873 0.0779 23
0 A#2 103.1094 103.1914 0.0820 46
0 A#4 103.2324 103.2652 0.0328 45
0 F#2 103.2324 103.2898 0.0574 42
0 F#3 103.2324 103.3103 0.0779 18
0 B1 103.3553 103.4127 0.0574 106
0 F#3 103.3553 103.4332 0.0779 49
0 F#2 103.3553 103.4414 0.0861 44
0 F#3 103.4783 103.5562 0.0779 18
0 A#4 103.4783 103.5603 0.0820 45
0 F#3 103.6012 103.6791 0.0779 23
0 A#2 103.6012 103.6832 0.0820 46
0 A#5 103.6012 103.7119 0.1107 45
0 F#2 103.7242 103.7816 0.0574 42
0 F#3 103.7242 103.8021 0.0779 18
0 A#4 103.7242 103.8062 0.0820 45
0 B1 103.8471 103.9086 0.0615 106
0 F#2 103.8471 103.9168 0.0697 44
0 D2 103.8471 103.9250 0.0779 90
0 F#3 103.8471 103.9250 0.0779 47
0 F#3 103.9701 104.0480 0.0779 18
0 A#4 103.9701 104.0521 0.0820 45
0 F#3 104.0930 104.1709 0.0779 23
0 A#2 104.0930 104.1750 0.0820 46
0 A#5 104.0930 104.2037 0.1107 45
0 F#2 104.2160 104.2734 0.0574 42
0 F#3 104.2160 104.2939 0.0779 18
0 A#4 104.2160 104.2939 0.0779 45
0 F#2 104.3389 104.3963 0.0574 44
0 B1 104.3389 104.4045 0.0656 106
0 F#3 104.3389 104.4168 0.0779 49
0 F#3 104.4619 104.5398 0.0779 18
0 A#4 104.4619 104.5521 0.0902 45
0 A#2 104.5848 104.6504 0.0656 46
0 F#3 104.5848 104.6627 0.0779 23
0 D2 104.5848 104.6709 0.0861 90
0 A#5 104.5848 104.6914 0.1066 45
0 F#2 104.7078 104.7693 0.0615 42
0 A#4 104.7078 104.7816 0.0738 45
0 F#3 104.7078 104.7857 0.0779 18
0 B1 104.8307 104.8922 0.0615 106
0 F#2 104.8307 104.9045 0.0738 44
0 F#3 104.8307 104.9086 0.0779 47
0 D2 104.8307 104.9168 0.0861 90
0 A#4 104.9537 105.0316 0.0779 45
0 F#3 104.9537 105.0316 0.0779 18
0 F#3 105.0766 105.1545 0.0779 23
0 A#2 105.0766 105.1586 0.0820 46
0 D2 105.0766 105.1627 0.0861 90
0 A#5 105.0766 105.1709 0.0943 45
0 F#2 105.1996 105.2570 0.0574 42
0 A#4 105.1996 105.2693 0.0697 45
0 F#3 105.1996 105.2775 0.0779 18
0 D2 105.1996 105.2857 0.0861 90
0 B1 105.3225 105.3799 0.0574 106
0 F#3 105.3225 105.4004 0.0779 49
0 C#3 105.3225 105.4086 0.0861 85
0 F#3 105.4455 105.5234 0.0779 18
0 A#4 105.4455 105.5439 0.0984 45
0 F#3 105.5684 105.6463 0.0779 23
0 A#2 105.5684 105.6504 0.0820 46
0 A#5 105.5684 105.6668 0.0984 45
0 F#2 105.6914 105.7488 0.0574 42
0 F#3 105.6914 105.7693 0.0779 18
0 A#4 105.6914 105.7816 0.0902 45
0 B1 105.8144 105.8758 0.0615 106
0 F#2 105.8144 105.8840 0.0697 44
0 D2 105.8144 105.8922 0.0779 90
0 F#3 105.8144 105.8922 0.0779 47
0 A#4 105.9373 106.0152 0.0779 45
0 F#3 105.9373 106.0152 0.0779 18
0 F#3 106.0603 106.1381 0.0779 23
0 A#2 106.0603 106.1422 0.0820 46
0 A#5 106.0603 106.1504 0.0902 45
0 F#2 106.1832 106.2406 0.0574 42
0 F#3 106.1832 106.2611 0.0779 18
0 A#4 106.1832 106.2611 0.0779 45
0 F#2 106.3062 106.3635 0.0574 44
0 B1 106.3062 106.3717 0.0656 106
0 F#3 106.3062 106.3840 0.0779 49
0 A#4 106.4291 106.5029 0.0738 45
0 F#3 106.4291 106.5070 0.0779 18
0 A#2 106.5521 106.6176 0.0656 46
0 F#3 106.5521 106.6299 0.0779 23
0 A#5 106.5521 106.6463 0.0943 45
0 A#4 106.6750 106.7324 0.0574 45
0 F#2 106.6750 106.7365 0.0615 42
0 F#3 106.6750 106.7529 0.0779 18
0 B1 106.7980 106.8594 0.0615 106
0 F#2 106.7980 106.8717 0.0738 44
0 F#3 106.7980 106.8758 0.0779 47
0 D2 106.7980 106.8840 0.0861 90
0 A#4 106.9209 106.9906 0.0697 45
0 F#3 106.9209 106.9988 0.0779 18
0 A#5 107.0439 107.1176 0.0738 45
0 F#3 107.0439 107.1217 0.0779 23
0 A#2 107.0439 107.1258 0.0820 46
0 A#4 107.1668 107.1996 0.0328 45
0 F#2 107.1668 107.2242 0.0574 42
0 F#3 107.1668 107.2447 0.0779 18
0 B1 107.2898 107.3471 0.0574 106
0 F#3 107.2898 107.3676 0.0779 49
0 F#2 107.2898 107.3758 0.0861 44
0 F#3 107.4127 107.4906 0.0779 18
0 A#4 107.4127 107.4947 0.0820 45
0 F#3 107.5357 107.6135 0.0779 23
0 A#2 107.5357 107.6176 0.0820 46
0 A#5 107.5357 107.6463 0.1107 45
0 F#2 107.6586 107.7160 0.0574 42
0 F#3 107.6586 107.7365 0.0779 18
0 A#4 107.6586 107.7406 0.0820 45
0 B1 107.7816 107.8430 0.0615 106
0 F#2 107.7816 107.8512 0.0697 44
0 F#3 107.7816 107.8594 0.0779 47
0 D2 107.7816 107.8594 0.0779 90
0 F#3 107.9045 107.9824 0.0779 18
0 A#4 107.9045 107.9865 0.0820 45
0 F#3 108.0275 108.1053 0.0779 23
0 A#2 108.0275 108.1094 0.0820 46
0 A#5 108.0275 108.1381 0.1107 45
0 F#2 108.1504 108.2078 0.0574 42
0 F#3 108.1504 108.2283 0.0779 18
0 A#4 108.1504 108.2283 0.0779 45
0 F#2 108.2734 108.3307 0.0574 44
0 B1 108.2734 108.3389 0.0656 106
0 F#3 108.2734 108.3512 0.0779 49
0 F#3 108.3963 108.4742 0.0779 18
0 A#4 108.3963 108.4865 0.0902 45
0 A#2 108.5193 108.5848 0.0656 46
0 F#3 108.5193 108.5971 0.0779 23
0 A#5 108.5193 108.6258 0.1066 45
0 F#2 108.6422 108.7037 0.0615 42
0 A#4 108.6422 108.7160 0.0738 45
0 F#3 108.6422 108.7201 0.0779 18
0 D2 108.6422 108.7283 0.0861 79
0 B1 108.7652 108.8266 0.0615 106
0 F#2 108.7652 108.8389 0.0738 44
0 F#3 108.7652 108.8430 0.0779 47
0 D2 108.7652 108.8512 0.0861 90
0 A#4 108.8881 108.9660 0.0779 45
0 F#3 108.8881 108.9660 0.0779 18
0 F#3 109.0111 109.0889 0.0779 23
0 A#2 109.0111 109.0930 0.0820 46
0 A#5 109.0111 109.1053 0.0943 45
0 F#2 109.1340 109.1914 0.0574 42
0 A#4 109.1340 109.2037 0.0697 45
0 F#3 109.1340 109.2119 0.0779 18
0 B1 109.2570 109.3143 0.0574 106
0 F#3 109.2570 109.3348 0.0779 49
0 F#2 109.2570 109.3430 0.0861 44
0 F#3 109.3799 109.4578 0.0779 18
0 A#4 109.3799 109.4783 0.0984 45
0 F#3 109.5029 109.5807 0.0779 23
0 A#2 109.5029 109.5848 0.0820 46
0 A#5 109.5029 109.6012 0.0984 45
0 F#2 109.6258 109.6832 0.0574 42
0 F#3 109.6258 109.7037 0.0779 18
0 A#4 109.6258 109.7160 0.0902 45
0 B1 109.7488 109.8103 0.0615 106
0 F#2 109.7488 109.8184 0.0697 44
0 F#3 109.7488 109.8266 0.0779 47
0 D2 109.7488 109.8266 0.0779 90
0 A#4 109.8717 109.9496 0.0779 45
0 F#3 109.8717 109.9496 0.0779 18
0 F#3 109.9947 110.0725 0.0779 23
0 A#2 109.9947 110.0766 0.0820 46
0 A#5 109.9947 110.0848 0.0902 45
0 F#2 110.1176 110.1750 0.0574 42
0 F#3 110.1176 110.1955 0.0779 18
0 A#4 110.1176 110.1955 0.0779 45
0 F#2 110.2406 110.2980 0.0574 44
0 B1 110.2406 110.3062 0.0656 106
0 F#3 110.2406 110.3184 0.0779 49
0 A#4 110.3635 110.4373 0.0738 45
0 F#3 110.3635 110.4414 0.0779 18
0 A#2 110.4865 110.5521 0.0656 46
0 F#3 110.4865 110.5643 0.0779 23
0 A#5 110.4865 110.5807 0.0943 45
0 A#4 110.6094 110.6668 0.0574 45
0 F#2 110.6094 110.6709 0.0615 42
0 F#3 110.6094 110.6873 0.0779 18
0 B1 110.7324 110.7939 0.0615 106
0 F#2 110.7324 110.8062 0.0738 44
0 F#3 110.7324 110.8103 0.0779 47
0 D2 110.7324 110.8184 0.0861 90
0 A#4 110.8553 110.9250 0.0697 45
0 F#3 110.8553 110.9332 0.0779 18
0 A#5 110.9783 111.0521 0.0738 45
0 F#3 110.9783 111.0562 0.0779 23
0 A#2 110.9783 111.0602 0.0820 46
0 A#4 111.1012 111.1340 0.0328 45
0 F#2 111.1012 111.1586 0.0574 42
0 F#3 111.1012 111.1791 0.0779 18
0 B1 111.2242 111.2816 0.0574 106
0 F#3 111.2242 111.3021 0.0779 49
0 F#2 111.2242 111.3102 0.0861 44
0 F#3 111.3471 111.4250 0.0779 18
0 A#4 111.3471 111.4291 0.0820 45
0 F#3 111.4701 111.5480 0.0779 23
0 A#2 111.4701 111.5521 0.0820 46
0 A#5 111.4701 111.5807 0.1107 45
0 F#2 111.5930 111.6504 0.0574 42
0 F#3 111.5930 111.6709 0.0779 18
0 A#4 111.5930 111.6750 0.0820 45
0 B1 111.7160 111.7775 0.0615 106
0 F#2 111.7160 111.7857 0.0697 44
0 F#3 111.7160 111.7939 0.0779 47
0 D2 111.7160 111.7939 0.0779 90
0 F#3 111.8389 111.9168 0.0779 18
0 A#4 111.8389 111.9209 0.0820 45
0 F#3 111.9619 112.0398 0.0779 23
0 A#2 111.9619 112.0439 0.0820 46
0 A#5 111.9619 112.0725 0.1107 45
0 F#2 112.0848 112.1422 0.0574 42
0 F#3 112.0848 112.1627 0.0779 18
0 A#4 112.0848 112.1627 0.0779 45
0 F#2 112.2078 112.2652 0.0574 44
0 B1 112.2078 112.2734 0.0656 106
0 F#3 112.2078 112.2857 0.0779 49
0 F#3 112.3307 112.4086 0.0779 18
0 A#4 112.3307 112.4209 0.0902 45
0 A#2 112.4537 112.5193 0.0656 46
0 F#3 112.4537 112.5316 0.0779 23
0 A#5 112.4537 112.5602 0.1066 45
0 F#2 112.5766 112.6381 0.0615 42
0 A#4 112.5766 112.6504 0.0738 45
0 F#3 112.5766 112.6545 0.0779 18
0 B1 112.6996 112.7611 0.0615 106
0 F#2 112.6996 112.7734 0.0738 44
0 F#3 112.6996 112.7775 0.0779 47
0 D2 112.6996 112.7857 0.0861 90
0 A#4 112.8225 112.9004 0.0779 45
0 F#3 112.8225 112.9004 0.0779 18
0 F#3 112.9455 113.0234 0.0779 23
0 A#2 112.9455 113.0275 0.0820 46
0 D2 112.9455 113.0316 0.0861 90
0 A#5 112.9455 113.0398 0.0943 45
0 F#2 113.0684 113.1258 0.0574 42
0 A#4 113.0684 113.1381 0.0697 45
0 F#3 113.0684 113.1463 0.0779 18
0 D2 113.0684 113.1545 0.0861 90
0 C#3 113.1914 113.2406 0.0492 86
0 B1 113.1914 113.2693 0.0779 106
0 A#4 113.3143 113.4127 0.0984 45
0 F#2 113.4373 113.4824 0.0451 30
0 A#5 113.4373 113.5357 0.0984 45
0 A#4 113.5602 113.6504 0.0902 45
0 F#2 113.6832 113.7324 0.0492 78
0 F#3 113.6832 113.7406 0.0574 46
0 B1 113.6832 113.7406 0.0574 106
0 D2 113.6832 113.7611 0.0779 90
0 A#4 113.8062 113.8840 0.0779 45
0 F#2 113.9291 113.9783 0.0492 30
0 A#5 113.9291 114.0193 0.0902 45
0 A#4 114.0521 114.1299 0.0779 45
0 F#2 114.1750 114.2201 0.0451 78
0 B1 114.1750 114.2365 0.0615 106
0 A#4 114.2980 114.3717 0.0738 45
0 F#2 114.4209 114.4660 0.0451 30
0 A#5 114.4209 114.5152 0.0943 45
0 A#4 114.5439 114.6012 0.0574 45
0 F#2 114.6668 114.7078 0.0410 78
0 B1 114.6668 114.7324 0.0656 106
0 F#3 114.6668 114.7365 0.0697 46
0 D2 114.6668 114.7529 0.0861 90
0 A#4 114.7898 114.8594 0.0697 45
0 F#2 114.9127 114.9537 0.0410 30
0 A#5 114.9127 114.9865 0.0738 45
0 A#4 115.0357 115.0684 0.0328 45
0 D2 115.0357 115.1135 0.0779 90
0 F#2 115.1586 115.2037 0.0451 78
0 B1 115.1586 115.2242 0.0656 106
0 A#4 115.2816 115.3635 0.0820 45
0 F#2 115.4045 115.4537 0.0492 30
0 A#5 115.4045 115.5152 0.1107 45
0 A#4 115.5275 115.6094 0.0820 45
0 F#2 115.6504 115.6914 0.0410 78
0 F#3 115.6504 115.7037 0.0533 46
0 B1 115.6504 115.7119 0.0615 106
0 D2 115.6504 115.7201 0.0697 90
0 A#4 115.7734 115.8553 0.0820 45
0 F#2 115.8963 115.9496 0.0533 30
0 A#5 115.8963 116.0070 0.1107 45
0 A#4 116.0193 116.0971 0.0779 45
0 F#2 116.1422 116.1873 0.0451 78
0 B1 116.1422 116.2037 0.0615 106
0 A#4 116.2652 116.3553 0.0902 45
0 F#2 116.3881 116.4373 0.0492 30
0 A#5 116.3881 116.4947 0.1066 45
0 A#4 116.5111 116.5848 0.0738 45
0 D2 116.5111 116.5889 0.0779 90
0 F#2 116.6340 116.6627 0.0287 78
0 B1 116.6340 116.6914 0.0574 106
0 F#3 116.6340 116.6996 0.0656 46
0 D2 116.6340 116.7201 0.0861 90
0 A#4 116.7570 116.8348 0.0779 45
0 F#2 116.8799 116.9701 0.0902 42
0 A#5 116.8799 116.9742 0.0943 45
0 A#4 117.0029 117.0725 0.0697 45
0 F#2 117.1258 117.1914 0.0656 78
0 B1 117.1258 117.2037 0.0779 106
0 A#4 117.2488 117.3471 0.0984 45
0 F#2 117.3717 117.4168 0.0451 30
0 A#5 117.3717 117.4701 0.0984 45
0 A#4 117.4947 117.5848 0.0902 45
0 F#2 117.6176 117.6668 0.0492 78
0 F#3 117.6176 117.6750 0.0574 46
0 B1 117.6176 117.6750 0.0574 106
0 D2 117.6176 117.6955 0.0779 90
0 A#4 117.7406 117.8184 0.0779 45
0 F#2 117.8635 117.9127 0.0492 30
0 A#5 117.8635 117.9537 0.0902 45
0 A#4 117.9865 118.0643 0.0779 45
0 F#2 118.1094 118.1545 0.0451 78
0 B1 118.1094 118.1709 0.0615 106
0 A#4 118.2324 118.3061 0.0738 45
0 F#2 118.3553 118.4004 0.0451 30
0 A#5 118.3553 118.4496 0.0943 45
0 A#4 118.4783 118.5357 0.0574 45
0 F#2 118.6012 118.6422 0.0410 78
0 B1 118.6012 118.6668 0.0656 106
0 F#3 118.6012 118.6709 0.0697 46
0 D2 118.6012 118.6873 0.0861 90
0 A#4 118.7242 118.7939 0.0697 45
0 F#2 118.8471 118.8881 0.0410 30
0 A#5 118.8471 118.9209 0.0738 45
0 A#4 118.9701 119.0029 0.0328 45
0 D2 118.9701 119.0480 0.0779 90
0 F#2 119.0930 119.1381 0.0451 78
0 B1 119.0930 119.1586 0.0656 106
0 A#4 119.2160 119.2980 0.0820 45
0 F#2 119.3389 119.3881 0.0492 30
0 A#5 119.3389 119.4496 0.1107 45
0 A#4 119.4619 119.5439 0.0820 45
0 F#2 119.5848 119.6258 0.0410 78
0 B1 119.5848 119.6463 0.0615 106
0 F#3 119.5848 119.6504 0.0656 46
0 D2 119.5848 119.6545 0.0697 90
0 A#4 119.7078 119.7898 0.0820 45
0 F#2 119.8307 119.8840 0.0533 30
0 A#5 119.8307 119.9414 0.1107 45
0 A#4 119.9537 120.0316 0.0779 45
0 F#2 120.0766 120.1217 0.0451 78
0 B1 120.0766 120.1381 0.0615 106
0 A#4 120.1996 120.2898 0.0902 45
0 F#2 120.3225 120.3717 0.0492 30
0 A#5 120.3225 120.4291 0.1066 45
0 A#4 120.4455 120.5193 0.0738 45
0 F#2 120.5684 120.5971 0.0287 78
0 B1 120.5684 120.6258 0.0574 106
0 F#3 120.5684 120.6299 0.0615 46
0 D2 120.5684 120.6545 0.0861 90
0 A#4 120.6914 120.7693 0.0779 45
0 D2 120.8143 120.8922 0.0779 90
0 F#2 120.8143 120.9045 0.0902 30
0 A#5 120.8143 120.9086 0.0943 45
0 A#4 120.9373 121.0070 0.0697 45
0 D2 120.9373 121.0152 0.0779 90
0 D#2 121.0602 121.1012 0.0410 70
0 C#3 121.0602 121.1135 0.0533 75
0 D#2 121.5520 121.5889 0.0369 70
0 D#2 122.0439 122.0930 0.0492 70
0 D#2 122.5357 122.5889 0.0533 70
0 D#2 123.0275 123.0766 0.0492 70
0 D#2 123.5193 123.5684 0.0492 70
0 D#2 124.0111 124.0684 0.0574 70
0 D#2 124.5029 124.5479 0.0451 70
0 D#2 124.9947 125.0438 0.0492 70
0 D#2 125.4865 125.5357 0.0492 70
0 D#2 125.9783 126.0316 0.0533 70
0 D#2 126.4701 126.5193 0.0492 70
0 D#2 126.9619 127.0193 0.0574 70
0 D#2 127.4537 127.5070 0.0533 70
0 D2 128.1914 128.2570 0.0656 87
0 D#2 128.1914 128.2611 0.0697 73
0 D2 128.4373 128.4947 0.0574 89
0 D#2 128.4373 128.5111 0.0738 73
0 C#3 128.9291 128.9701 0.0410 85
0 B1 128.9291 129.0070 0.0779 106
0 F#3 129.4209 129.4783 0.0574 46
0 F#2 129.4209 129.4783 0.0574 40
0 B1 129.4209 129.4783 0.0574 106
0 D2 129.4209 129.4988 0.0779 90
0 B1 129.9127 129.9742 0.0615 106
0 F#2 130.4045 130.4619 0.0574 40
0 B1 130.4045 130.4701 0.0656 106
0 F#3 130.4045 130.4742 0.0697 46
0 D2 130.4045 130.4906 0.0861 90
0 B1 130.8963 130.9619 0.0656 106
0 F#2 131.3881 131.4373 0.0492 40
0 F#3 131.3881 131.4414 0.0533 46
0 B1 131.3881 131.4496 0.0615 106
0 D2 131.3881 131.4578 0.0697 90
0 B1 131.8799 131.9414 0.0615 106
0 D2 132.1258 132.2119 0.0861 90
0 F#2 132.3717 132.4168 0.0451 40
0 B1 132.3717 132.4291 0.0574 106
0 F#3 132.3717 132.4373 0.0656 46
0 D2 132.3717 132.4578 0.0861 90
0 D2 132.6176 132.7037 0.0861 90
0 B1 132.8635 132.9209 0.0574 106
0 F#2 133.3553 133.4045 0.0492 40
0 F#3 133.3553 133.4127 0.0574 46
0 B1 133.3553 133.4168 0.0615 106
0 D2 133.3553 133.4332 0.0779 90
0 B1 133.8471 133.9127 0.0656 106
0 F#2 134.3389 134.3922 0.0533 40
0 B1 134.3389 134.4004 0.0615 106
0 F#3 134.3389 134.4086 0.0697 46
0 D2 134.3389 134.4250 0.0861 90
0 B1 134.8307 134.8881 0.0574 106
0 F#2 135.3225 135.3717 0.0492 40
0 B1 135.3225 135.3799 0.0574 106
0 F#3 135.3225 135.3881 0.0656 46
0 D2 135.3225 135.3922 0.0697 90
0 B1 135.8143 135.8717 0.0574 106
0 D2 136.1832 136.3020 0.1189 81
0 F#2 136.3061 136.3594 0.0533 40
0 B1 136.3061 136.3594 0.0533 106
0 F#3 136.3061 136.3676 0.0615 46
0 D2 136.3061 136.3922 0.0861 90
0 C#3 136.7979 136.8389 0.0410 85
0 B1 136.7979 136.8758 0.0779 106
0 F#2 136.7979 136.8840 0.0861 44
0 A#2 137.0438 137.1217 0.0779 46
0 A4 137.0438 137.1832 0.1393 44
0 F#3 137.2897 137.3471 0.0574 46
0 B1 137.2897 137.3471 0.0574 106
0 D2 137.2897 137.3676 0.0779 90
0 F#2 137.2897 137.3881 0.0984 44
0 A#5 137.2897 137.4127 0.1230 44
0 A4 137.5356 137.6463 0.1107 36
0 B1 137.7815 137.8430 0.0615 106
0 F#2 137.7815 137.8635 0.0820 44
0 A#2 138.0274 138.1176 0.0902 46
0 A4 138.0274 138.1750 0.1475 44
0 B1 138.2733 138.3389 0.0656 106
0 F#3 138.2733 138.3430 0.0697 46
0 F#2 138.2733 138.3553 0.0820 44
0 D2 138.2733 138.3594 0.0861 90
0 A#5 138.2733 138.4414 0.1680 44
0 A4 138.5193 138.5930 0.0738 36
0 B1 138.7652 138.8307 0.0656 106
0 F#2 138.7652 138.8553 0.0902 44
0 A#2 139.0111 139.1012 0.0902 46
0 A4 139.0111 139.1586 0.1475 44
0 F#3 139.2570 139.3102 0.0533 46
0 B1 139.2570 139.3184 0.0615 106
0 D2 139.2570 139.3266 0.0697 90
0 F#2 139.2570 139.3471 0.0902 44
0 A#5 139.2570 139.3963 0.1393 44
0 A4 139.5029 139.6053 0.1025 36
0 B1 139.7488 139.8102 0.0615 106
0 F#2 139.7488 139.8184 0.0697 44
0 A#2 139.9947 140.0725 0.0779 46
0 D2 139.9947 140.0807 0.0861 90
0 A4 139.9947 140.1463 0.1516 44
0 B1 140.2406 140.2979 0.0574 106
0 F#3 140.2406 140.3061 0.0656 46
0 F#2 140.2406 140.3143 0.0738 44
0 D2 140.2406 140.3266 0.0861 90
0 A#5 140.2406 140.3717 0.1311 44
0 A4 140.4865 140.5848 0.0984 36
0 B1 140.7324 140.7897 0.0574 106
0 F#2 140.7324 140.8184 0.0861 44
0 A#2 140.9783 141.0602 0.0820 46
0 A4 140.9783 141.1176 0.1393 44
0 F#3 141.2242 141.2815 0.0574 46
0 B1 141.2242 141.2856 0.0615 106
0 F#2 141.2242 141.2938 0.0697 44
0 D2 141.2242 141.3020 0.0779 90
0 A#5 141.2242 141.3635 0.1393 44
0 A4 141.4701 141.5766 0.1066 36
0 F#2 141.7160 141.7733 0.0574 44
0 B1 141.7160 141.7815 0.0656 106
0 A#2 141.9619 142.0274 0.0656 46
0 A4 141.9619 142.1176 0.1557 44
0 B1 142.2078 142.2692 0.0615 106
0 F#3 142.2078 142.2774 0.0697 46
0 F#2 142.2078 142.2815 0.0738 44
0 D2 142.2078 142.2938 0.0861 90
0 A#5 142.2078 142.3512 0.1434 44
0 A4 142.4537 142.5807 0.1270 36
0 D2 142.5766 142.6627 0.0861 90
0 B1 142.6996 142.7570 0.0574 106
0 F#2 142.6996 142.7692 0.0697 44
0 A#2 142.9455 143.0192 0.0738 46
0 A4 142.9455 143.1053 0.1598 44
0 B1 143.1914 143.2488 0.0574 106
0 F#3 143.1914 143.2570 0.0656 46
0 F#2 143.1914 143.2611 0.0697 44
0 D2 143.1914 143.2611 0.0697 90
0 A#5 143.1914 143.3307 0.1393 44
0 A4 143.4373 143.5192 0.0820 36
0 B1 143.6832 143.7406 0.0574 106
0 F#2 143.6832 143.7529 0.0697 44
0 A#2 143.9291 143.9988 0.0697 46
0 A4 143.9291 144.1012 0.1721 44
0 D2 144.0520 144.1709 0.1189 81
0 F#2 144.1750 144.2242 0.0492 44
0 B1 144.1750 144.2283 0.0533 106
0 F#3 144.1750 144.2365 0.0615 46
0 D2 144.1750 144.2611 0.0861 90
0 A#5 144.1750 144.2938 0.1189 44
0 F#3 144.4209 144.4824 0.0615 26
0 A4 144.4209 144.5233 0.1025 36
0 F#3 144.5438 144.6053 0.0615 46
0 F#3 144.6668 144.7242 0.0574 46
0 B1 144.6668 144.7242 0.0574 106
0 F#2 144.6668 144.7529 0.0861 44
0 A#2 144.9127 144.9947 0.0820 46
0 A4 144.9127 145.0520 0.1393 44
0 F#3 145.1586 145.2160 0.0574 46
0 B1 145.1586 145.2201 0.0615 106
0 F#2 145.1586 145.2283 0.0697 44
0 D2 145.1586 145.2365 0.0779 90
0 A#5 145.1586 145.2979 0.1393 44
0 A4 145.4045 145.5397 0.1352 36
0 F#2 145.6504 145.7078 0.0574 44
0 B1 145.6504 145.7160 0.0656 106
0 A#2 145.8963 145.9619 0.0656 46
0 A4 145.8963 146.0520 0.1557 44
0 B1 146.1422 146.2037 0.0615 106
0 F#3 146.1422 146.2119 0.0697 46
0 F#2 146.1422 146.2160 0.0738 44
0 D2 146.1422 146.2283 0.0861 90
0 A#5 146.1422 146.2856 0.1434 44
0 A4 146.3881 146.4988 0.1107 36
0 F#3 146.5110 146.5807 0.0697 46
0 B1 146.6340 146.6914 0.0574 106
0 F#2 146.6340 146.7201 0.0861 44
0 A#2 146.8799 146.9619 0.0820 46
0 A4 146.8799 147.0192 0.1393 44
0 F#3 147.1258 147.1832 0.0574 46
0 B1 147.1258 147.1873 0.0615 106
0 F#2 147.1258 147.1955 0.0697 44
0 D2 147.1258 147.2037 0.0779 90
0 A#5 147.1258 147.2651 0.1393 44
0 A4 147.3717 147.4783 0.1066 36
0 F#2 147.6176 147.6750 0.0574 44
0 B1 147.6176 147.6832 0.0656 106
0 A#2 147.8635 147.9291 0.0656 46
0 A4 147.8635 148.0192 0.1557 44
0 B1 148.1094 148.1709 0.0615 106
0 F#3 148.1094 148.1791 0.0697 46
0 F#2 148.1094 148.1832 0.0738 44
0 D2 148.1094 148.1955 0.0861 90
0 A#5 148.1094 148.2529 0.1434 44
0 D2 148.3553 148.4414 0.0861 90
0 B1 152.5356 152.5930 0.0574 106
0 C#3 152.5356 152.6217 0.0861 85
0 A#2 152.7815 152.8635 0.0820 46
0 A4 152.7815 152.9209 0.1393 44
0 F#3 153.0274 153.0848 0.0574 46
0 B1 153.0274 153.0889 0.0615 106
0 F#2 153.0274 153.0971 0.0697 44
0 D2 153.0274 153.1053 0.0779 90
0 A#5 153.0274 153.1668 0.1393 44
0 A#2 153.2733 153.3553 0.0820 46
0 A4 153.2733 153.3799 0.1066 36
0 F#2 153.5192 153.5766 0.0574 44
0 B1 153.5192 153.5848 0.0656 106
0 A#2 153.7651 153.8307 0.0656 46
0 A4 153.7651 153.9209 0.1557 44
0 B1 154.0110 154.0725 0.0615 106
0 F#3 154.0110 154.0807 0.0697 46
0 F#2 154.0110 154.0848 0.0738 44
0 D2 154.0110 154.0971 0.0861 90
0 A#5 154.0110 154.1545 0.1434 44
0 A#2 154.2569 154.3389 0.0820 46
0 A4 154.2569 154.3840 0.1270 36
0 B1 154.5028 154.5602 0.0574 106
0 F#2 154.5028 154.5889 0.0861 44
0 A#2 154.7487 154.8307 0.0820 46
0 A4 154.7487 154.8881 0.1393 44
0 F#3 154.9947 155.0520 0.0574 46
0 B1 154.9947 155.0561 0.0615 106
0 F#2 154.9947 155.0643 0.0697 44
0 D2 154.9947 155.0725 0.0779 90
0 A#5 154.9947 155.1340 0.1393 44
0 A#2 155.2406 155.3225 0.0820 46
0 A4 155.2406 155.3471 0.1066 36
0 F#2 155.4865 155.5438 0.0574 44
0 B1 155.4865 155.5520 0.0656 106
0 A#2 155.7324 155.7979 0.0656 46
0 A4 155.7324 155.8881 0.1557 44
0 D2 155.8553 155.9414 0.0861 73
0 B1 155.9783 156.0397 0.0615 106
0 F#3 155.9783 156.0479 0.0697 46
0 F#2 155.9783 156.0520 0.0738 44
0 D2 155.9783 156.0643 0.0861 90
0 A#5 155.9783 156.1217 0.1434 44
0 A#2 156.2242 156.3061 0.0820 46
0 D2 156.2242 156.3102 0.0861 90
0 A4 156.2242 156.3512 0.1270 36
0 B1 156.4701 156.5274 0.0574 106
0 F#2 156.4701 156.5561 0.0861 44
0 A#2 156.7160 156.7979 0.0820 46
0 A4 156.7160 156.8553 0.1393 44
0 F#3 156.9619 157.0192 0.0574 46
0 B1 156.9619 157.0233 0.0615 106
0 F#2 156.9619 157.0315 0.0697 44
0 D2 156.9619 157.0397 0.0779 90
0 A#5 156.9619 157.1012 0.1393 44
0 A#2 157.2078 157.2897 0.0820 46
0 A4 157.2078 157.3143 0.1066 36
0 F#2 157.4537 157.5110 0.0574 44
0 B1 157.4537 157.5192 0.0656 106
0 A#2 157.6996 157.7651 0.0656 46
0 A4 157.6996 157.8553 0.1557 44
0 B1 157.9455 158.0069 0.0615 106
0 F#3 157.9455 158.0151 0.0697 46
0 F#2 157.9455 158.0192 0.0738 44
0 D2 157.9455 158.0315 0.0861 90
0 A#5 157.9455 158.0889 0.1434 44
0 A#2 158.1914 158.2733 0.0820 46
0 A4 158.1914 158.3184 0.1270 36
0 B1 158.4373 158.4946 0.0574 106
0 F#2 158.4373 158.5233 0.0861 44
0 A#2 158.6832 158.7651 0.0820 46
0 A4 158.6832 158.8225 0.1393 44
0 F#3 158.9291 158.9865 0.0574 46
0 B1 158.9291 158.9906 0.0615 106
0 F#2 158.9291 158.9987 0.0697 44
0 D2 158.9291 159.0069 0.0779 90
0 A#5 158.9291 159.0684 0.1393 44
0 A#2 159.1750 159.2569 0.0820 46
0 A4 159.1750 159.2815 0.1066 36
0 F#2 159.4209 159.4783 0.0574 44
0 B1 159.4209 159.4865 0.0656 106
0 A#2 159.6668 159.7324 0.0656 46
0 D2 159.6668 159.7528 0.0861 90
0 A4 159.6668 159.8225 0.1557 44
0 B1 159.9127 159.9742 0.0615 106
0 F#3 159.9127 159.9824 0.0697 46
0 F#2 159.9127 159.9865 0.0738 44
0 D2 159.9127 159.9987 0.0861 90
0 A#5 159.9127 160.0561 0.1434 44
0 A#2 160.1586 160.2405 0.0820 46
0 D2 160.1586 160.2446 0.0861 90
0 A4 160.1586 160.2856 0.1270 36
0 D2 160.2815 160.3676 0.0861 90
0 B1 160.4045 160.4619 0.0574 106
0 C#3 160.4045 160.4905 0.0861 85
0 A#2 160.6504 160.7324 0.0820 46
0 A4 160.6504 160.7897 0.1393 44
0 F#2 160.7733 160.8307 0.0574 42
0 F#3 160.8963 160.9537 0.0574 46
0 B1 160.8963 160.9578 0.0615 106
0 F#2 160.8963 160.9660 0.0697 44
0 D2 160.8963 160.9742 0.0779 90
0 A#5 160.8963 161.0356 0.1393 44
0 A#2 161.1422 161.2242 0.0820 46
0 A4 161.1422 161.2487 0.1066 36
0 F#2 161.2651 161.3225 0.0574 42
0 F#2 161.3881 161.4455 0.0574 44
0 B1 161.3881 161.4537 0.0656 106
0 A#2 161.6340 161.6996 0.0656 46
0 A4 161.6340 161.7897 0.1557 44
0 F#2 161.7569 161.8184 0.0615 42
0 B1 161.8799 161.9414 0.0615 106
0 F#3 161.8799 161.9496 0.0697 46
0 F#2 161.8799 161.9537 0.0738 44
0 D2 161.8799 161.9660 0.0861 90
0 A#5 161.8799 162.0233 0.1434 44
0 A#2 162.1258 162.2078 0.0820 46
0 A4 162.1258 162.2528 0.1270 36
0 F#2 162.2487 162.3061 0.0574 42
0 B1 162.3717 162.4291 0.0574 106
0 F#2 162.3717 162.4578 0.0861 44
0 A#2 162.6176 162.6996 0.0820 46
0 A4 162.6176 162.7569 0.1393 44
0 F#2 162.7405 162.7979 0.0574 42
0 F#3 162.8635 162.9209 0.0574 46
0 B1 162.8635 162.9250 0.0615 106
0 F#2 162.8635 162.9332 0.0697 44
0 D2 162.8635 162.9414 0.0779 90
0 A#5 162.8635 163.0028 0.1393 44
0 A#2 163.1094 163.1914 0.0820 46
0 A4 163.1094 163.2160 0.1066 36
0 F#2 163.2324 163.2897 0.0574 42
0 F#2 163.3553 163.4127 0.0574 44
0 B1 163.3553 163.4209 0.0656 106
0 A#2 163.6012 163.6668 0.0656 46
0 A4 163.6012 163.7569 0.1557 44
0 F#2 163.7242 163.7856 0.0615 42
0 D2 163.7242 163.8102 0.0861 79
0 B1 163.8471 163.9086 0.0615 106
0 F#3 163.8471 163.9168 0.0697 46
0 F#2 163.8471 163.9209 0.0738 44
0 D2 163.8471 163.9332 0.0861 90
0 A#5 163.8471 163.9905 0.1434 44
0 A#2 164.0930 164.1750 0.0820 46
0 A4 164.0930 164.2201 0.1270 36
0 F#2 164.2160 164.2733 0.0574 42
0 B1 164.3389 164.3963 0.0574 106
0 F#2 164.3389 164.4250 0.0861 44
0 A#2 164.5848 164.6668 0.0820 46
0 A4 164.5848 164.7242 0.1393 44
0 F#2 164.7078 164.7651 0.0574 42
0 F#3 164.8307 164.8881 0.0574 46
0 B1 164.8307 164.8922 0.0615 106
0 F#2 164.8307 164.9004 0.0697 44
0 D2 164.8307 164.9086 0.0779 90
0 A#5 164.8307 164.9701 0.1393 44
0 A#2 165.0766 165.1586 0.0820 46
0 A4 165.0766 165.1832 0.1066 36
0 F#2 165.1996 165.2569 0.0574 42
0 F#2 165.3225 165.3799 0.0574 44
0 B1 165.3225 165.3881 0.0656 106
0 A#2 165.5684 165.6340 0.0656 46
0 A4 165.5684 165.7242 0.1557 44
0 F#2 165.6914 165.7528 0.0615 42
0 B1 165.8143 165.8758 0.0615 106
0 F#3 165.8143 165.8840 0.0697 46
0 F#2 165.8143 165.8881 0.0738 44
0 D2 165.8143 165.9004 0.0861 90
0 A#5 165.8143 165.9578 0.1434 44
0 A#2 166.0602 166.1422 0.0820 46
0 A4 166.0602 166.1873 0.1270 36
0 F#2 166.1832 166.2405 0.0574 42
0 B1 166.3061 166.3635 0.0574 106
0 F#2 166.3061 166.3922 0.0861 44
0 A#2 166.5520 166.6340 0.0820 46
0 A4 166.5520 166.6914 0.1393 44
0 F#2 166.6750 166.7323 0.0574 42
0 F#3 166.7979 166.8553 0.0574 46
0 B1 166.7979 166.8594 0.0615 106
0 F#2 166.7979 166.8676 0.0697 44
0 D2 166.7979 166.8758 0.0779 90
0 A#5 166.7979 166.9373 0.1393 44
0 A#2 167.0438 167.1258 0.0820 46
0 A4 167.0438 167.1504 0.1066 36
0 F#2 167.1668 167.2242 0.0574 42
0 F#2 167.2897 167.3471 0.0574 44
0 B1 167.2897 167.3553 0.0656 106
0 A#2 167.5356 167.6012 0.0656 46
0 A4 167.5356 167.6914 0.1557 44
0 F#2 167.6586 167.7201 0.0615 42
0 B1 167.7815 167.8430 0.0615 106
0 F#3 167.7815 167.8512 0.0697 46
0 F#2 167.7815 167.8553 0.0738 44
0 D2 167.7815 167.8676 0.0861 90
0 A#5 167.7815 167.9250 0.1434 44
0 A#2 168.0274 168.1094 0.0820 46
0 D2 168.0274 168.1135 0.0861 90
0 A4 168.0274 168.1545 0.1270 36
0 F#2 168.1504 168.2078 0.0574 42
0 D2 168.1504 168.2364 0.0861 90
0 B1 168.2733 168.3307 0.0574 106
0 F#3 168.2733 168.3512 0.0779 49
0 C#3 168.2733 168.3594 0.0861 85
0 F#3 168.3963 168.4742 0.0779 18
0 A#4 168.3963 168.4946 0.0984 45
0 F#3 168.5192 168.5971 0.0779 23
0 A#2 168.5192 168.6012 0.0820 46
0 A#5 168.5192 168.6176 0.0984 45
0 F#2 168.6422 168.6996 0.0574 42
0 F#3 168.6422 168.7201 0.0779 18
0 A#4 168.6422 168.7323 0.0902 45
0 B1 168.7651 168.8266 0.0615 106
0 F#2 168.7651 168.8348 0.0697 44
0 D2 168.7651 168.8430 0.0779 90
0 F#3 168.7651 168.8430 0.0779 47
0 A#4 168.8881 168.9660 0.0779 45
0 F#3 168.8881 168.9660 0.0779 18
0 F#3 169.0110 169.0889 0.0779 23
0 A#2 169.0110 169.0930 0.0820 46
0 A#5 169.0110 169.1012 0.0902 45
0 F#2 169.1340 169.1914 0.0574 42
0 F#3 169.1340 169.2119 0.0779 18
0 A#4 169.1340 169.2119 0.0779 45
0 F#2 169.2569 169.3143 0.0574 44
0 B1 169.2569 169.3225 0.0656 106
0 F#3 169.2569 169.3348 0.0779 49
0 A#4 169.3799 169.4537 0.0738 45
0 F#3 169.3799 169.4578 0.0779 18
0 A#2 169.5028 169.5684 0.0656 46
0 F#3 169.5028 169.5807 0.0779 23
0 A#5 169.5028 169.5971 0.0943 45
0 A#4 169.6258 169.6832 0.0574 45
0 F#2 169.6258 169.6873 0.0615 42
0 F#3 169.6258 169.7037 0.0779 18
0 B1 169.7487 169.8102 0.0615 106
0 F#2 169.7487 169.8225 0.0738 44
0 F#3 169.7487 169.8266 0.0779 47
0 D2 169.7487 169.8348 0.0861 90
0 A#4 169.8717 169.9414 0.0697 45
0 F#3 169.8717 169.9496 0.0779 18
0 A#5 169.9946 170.0684 0.0738 45
0 F#3 169.9946 170.0725 0.0779 23
0 A#2 169.9946 170.0766 0.0820 46
0 A#4 170.1176 170.1504 0.0328 45
0 F#2 170.1176 170.1750 0.0574 42
0 F#3 170.1176 170.1955 0.0779 18
0 B1 170.2405 170.2979 0.0574 106
0 F#3 170.2405 170.3184 0.0779 49
0 F#2 170.2405 170.3266 0.0861 44
0 F#3 170.3635 170.4414 0.0779 18
0 A#4 170.3635 170.4455 0.0820 45
0 F#3 170.4864 170.5643 0.0779 23
0 A#2 170.4864 170.5684 0.0820 46
0 A#5 170.4864 170.5971 0.1107 45
0 F#2 170.6094 170.6668 0.0574 42
0 F#3 170.6094 170.6873 0.0779 18
0 A#4 170.6094 170.6914 0.0820 45
0 B1 170.7323 170.7938 0.0615 106
0 F#2 170.7323 170.8020 0.0697 44
0 D2 170.7323 170.8102 0.0779 90
0 F#3 170.7323 170.8102 0.0779 47
0 F#3 170.8553 170.9332 0.0779 18
0 A#4 170.8553 170.9373 0.0820 45
0 F#3 170.9782 171.0561 0.0779 23
0 A#2 170.9782 171.0602 0.0820 46
0 A#5 170.9782 171.0889 0.1107 45
0 F#2 171.1012 171.1586 0.0574 42
0 F#3 171.1012 171.1791 0.0779 18
0 A#4 171.1012 171.1791 0.0779 45
0 F#2 171.2242 171.2815 0.0574 44
0 B1 171.2242 171.2897 0.0656 106
0 F#3 171.2242 171.3020 0.0779 49
0 F#3 171.3471 171.4250 0.0779 18
0 A#4 171.3471 171.4373 0.0902 45
0 A#2 171.4701 171.5356 0.0656 46
0 F#3 171.4701 171.5479 0.0779 23
0 A#5 171.4701 171.5766 0.1066 45
0 F#2 171.5930 171.6545 0.0615 42
0 A#4 171.5930 171.6668 0.0738 45
0 F#3 171.5930 171.6709 0.0779 18
0 D2 171.5930 171.6791 0.0861 79
0 B1 171.7160 171.7774 0.0615 106
0 F#2 171.7160 171.7897 0.0738 44
0 F#3 171.7160 171.7938 0.0779 47
0 D2 171.7160 171.8020 0.0861 90
0 A#4 171.8389 171.9168 0.0779 45
0 F#3 171.8389 171.9168 0.0779 18
0 F#3 171.9619 172.0397 0.0779 23
0 A#2 171.9619 172.0438 0.0820 46
0 A#5 171.9619 172.0561 0.0943 45
0 F#2 172.0848 172.1422 0.0574 42
0 A#4 172.0848 172.1545 0.0697 45
0 F#3 172.0848 172.1627 0.0779 18
0 B1 172.2078 172.2651 0.0574 106
0 F#3 172.2078 172.2856 0.0779 49
0 F#2 172.2078 172.2938 0.0861 44
0 F#3 172.3307 172.4086 0.0779 18
0 A#4 172.3307 172.4291 0.0984 45
0 F#3 172.4537 172.5315 0.0779 23
0 A#2 172.4537 172.5356 0.0820 46
0 A#5 172.4537 172.5520 0.0984 45
0 F#2 172.5766 172.6340 0.0574 42
0 F#3 172.5766 172.6545 0.0779 18
0 A#4 172.5766 172.6668 0.0902 45
0 B1 172.6996 172.7610 0.0615 106
0 F#2 172.6996 172.7692 0.0697 44
0 D2 172.6996 172.7774 0.0779 90
0 F#3 172.6996 172.7774 0.0779 47
0 A#4 172.8225 172.9004 0.0779 45
0 F#3 172.8225 172.9004 0.0779 18
0 F#3 172.9455 173.0233 0.0779 23
0 A#2 172.9455 173.0274 0.0820 46
0 A#5 172.9455 173.0356 0.0902 45
0 F#2 173.0684 173.1258 0.0574 42
0 F#3 173.0684 173.1463 0.0779 18
0 A#4 173.0684 173.1463 0.0779 45
0 F#2 173.1914 173.2487 0.0574 44
0 B1 173.1914 173.2569 0.0656 106
0 F#3 173.1914 173.2692 0.0779 49
0 A#4 173.3143 173.3881 0.0738 45
0 F#3 173.3143 173.3922 0.0779 18
0 A#2 173.4373 173.5028 0.0656 46
0 F#3 173.4373 173.5151 0.0779 23
0 A#5 173.4373 173.5315 0.0943 45
0 A#4 173.5602 173.6176 0.0574 45
0 F#2 173.5602 173.6217 0.0615 42
0 F#3 173.5602 173.6381 0.0779 18
0 B1 173.6832 173.7446 0.0615 106
0 F#2 173.6832 173.7569 0.0738 44
0 F#3 173.6832 173.7610 0.0779 47
0 D2 173.6832 173.7692 0.0861 90
0 A#4 173.8061 173.8758 0.0697 45
0 F#3 173.8061 173.8840 0.0779 18
0 A#5 173.9291 174.0028 0.0738 45
0 F#3 173.9291 174.0069 0.0779 23
0 A#2 173.9291 174.0110 0.0820 46
0 A#4 174.0520 174.0848 0.0328 45
0 F#2 174.0520 174.1094 0.0574 42
0 F#3 174.0520 174.1299 0.0779 18
0 B1 174.1750 174.2323 0.0574 106
0 F#3 174.1750 174.2528 0.0779 49
0 F#2 174.1750 174.2610 0.0861 44
0 F#3 174.2979 174.3758 0.0779 18
0 A#4 174.2979 174.3799 0.0820 45
0 F#3 174.4209 174.4987 0.0779 23
0 A#2 174.4209 174.5028 0.0820 46
0 A#5 174.4209 174.5315 0.1107 45
0 F#2 174.5438 174.6012 0.0574 42
0 F#3 174.5438 174.6217 0.0779 18
0 A#4 174.5438 174.6258 0.0820 45
0 B1 174.6668 174.7282 0.0615 106
0 F#2 174.6668 174.7364 0.0697 44
0 D2 174.6668 174.7446 0.0779 90
0 F#3 174.6668 174.7446 0.0779 47
0 F#3 174.7897 174.8676 0.0779 18
0 A#4 174.7897 174.8717 0.0820 45
0 F#3 174.9127 174.9905 0.0779 23
0 A#2 174.9127 174.9946 0.0820 46
0 A#5 174.9127 175.0233 0.1107 45
0 F#2 175.0356 175.0930 0.0574 42
0 F#3 175.0356 175.1135 0.0779 18
0 A#4 175.0356 175.1135 0.0779 45
0 F#2 175.1586 175.2160 0.0574 44
0 B1 175.1586 175.2241 0.0656 106
0 F#3 175.1586 175.2364 0.0779 49
0 F#3 175.2815 175.3594 0.0779 18
0 A#4 175.2815 175.3717 0.0902 45
0 A#2 175.4045 175.4700 0.0656 46
0 F#3 175.4045 175.4823 0.0779 23
0 D2 175.4045 175.4905 0.0861 90
0 A#5 175.4045 175.5110 0.1066 45
0 F#2 175.5274 175.5889 0.0615 42
0 A#4 175.5274 175.6012 0.0738 45
0 F#3 175.5274 175.6053 0.0779 18
0 B1 175.6504 175.7119 0.0615 106
0 F#2 175.6504 175.7241 0.0738 44
0 F#3 175.6504 175.7282 0.0779 47
0 D2 175.6504 175.7364 0.0861 90
0 A#4 175.7733 175.8512 0.0779 45
0 F#3 175.7733 175.8512 0.0779 18
0 F#3 175.8963 175.9741 0.0779 23
0 A#2 175.8963 175.9782 0.0820 46
0 D2 175.8963 175.9823 0.0861 90
0 A#5 175.8963 175.9905 0.0943 45
0 F#2 176.0192 176.0766 0.0574 42
0 A#4 176.0192 176.0889 0.0697 45
0 F#3 176.0192 176.0971 0.0779 18
0 D2 176.0192 176.1053 0.0861 90
0 B1 176.1422 176.1996 0.0574 106
0 F#3 176.1422 176.2200 0.0779 49
0 C#3 176.1422 176.2282 0.0861 85
0 F#3 176.2651 176.3430 0.0779 18
0 A#4 176.2651 176.3635 0.0984 45
0 F#3 176.3881 176.4660 0.0779 23
0 A#2 176.3881 176.4700 0.0820 46
0 A#5 176.3881 176.4864 0.0984 45
0 F#2 176.5110 176.5684 0.0574 42
0 F#3 176.5110 176.5889 0.0779 18
0 A#4 176.5110 176.6012 0.0902 45
0 B1 176.6340 176.6955 0.0615 106
0 F#2 176.6340 176.7037 0.0697 44
0 D2 176.6340 176.7119 0.0779 90
0 F#3 176.6340 176.7119 0.0779 47
0 A#4 176.7569 176.8348 0.0779 45
0 F#3 176.7569 176.8348 0.0779 18
0 F#3 176.8799 176.9578 0.0779 23
0 A#2 176.8799 176.9619 0.0820 46
0 A#5 176.8799 176.9700 0.0902 45
0 F#2 177.0028 177.0602 0.0574 42
0 F#3 177.0028 177.0807 0.0779 18
0 A#4 177.0028 177.0807 0.0779 45
0 F#2 177.1258 177.1832 0.0574 44
0 B1 177.1258 177.1914 0.0656 106
0 F#3 177.1258 177.2037 0.0779 49
0 A#4 177.2487 177.3225 0.0738 45
0 F#3 177.2487 177.3266 0.0779 18
0 A#2 177.3717 177.4373 0.0656 46
0 F#3 177.3717 177.4496 0.0779 23
0 A#5 177.3717 177.4660 0.0943 45
0 A#4 177.4946 177.5520 0.0574 45
0 F#2 177.4946 177.5561 0.0615 42
0 F#3 177.4946 177.5725 0.0779 18
0 B1 177.6176 177.6791 0.0615 106
0 F#2 177.6176 177.6914 0.0738 44
0 F#3 177.6176 177.6955 0.0779 47
0 D2 177.6176 177.7037 0.0861 90
0 A#4 177.7405 177.8102 0.0697 45
0 F#3 177.7405 177.8184 0.0779 18
0 A#5 177.8635 177.9373 0.0738 45
0 F#3 177.8635 177.9414 0.0779 23
0 A#2 177.8635 177.9455 0.0820 46
0 A#4 177.9864 178.0192 0.0328 45
0 F#2 177.9864 178.0438 0.0574 42
0 F#3 177.9864 178.0643 0.0779 18
0 B1 178.1094 178.1668 0.0574 106
0 F#3 178.1094 178.1873 0.0779 49
0 F#2 178.1094 178.1955 0.0861 44
0 F#3 178.2323 178.3102 0.0779 18
0 A#4 178.2323 178.3143 0.0820 45
0 F#3 178.3553 178.4332 0.0779 23
0 A#2 178.3553 178.4373 0.0820 46
0 A#5 178.3553 178.4659 0.1107 45
0 F#2 178.4782 178.5356 0.0574 42
0 F#3 178.4782 178.5561 0.0779 18
0 A#4 178.4782 178.5602 0.0820 45
0 B1 178.6012 178.6627 0.0615 106
0 F#2 178.6012 178.6709 0.0697 44
0 D2 178.6012 178.6791 0.0779 90
0 F#3 178.6012 178.6791 0.0779 47
0 F#3 178.7241 178.8020 0.0779 18
0 A#4 178.7241 178.8061 0.0820 45
0 F#3 178.8471 178.9250 0.0779 23
0 A#2 178.8471 178.9291 0.0820 46
0 A#5 178.8471 178.9578 0.1107 45
0 F#2 178.9700 179.0274 0.0574 42
0 F#3 178.9700 179.0479 0.0779 18
0 A#4 178.9700 179.0479 0.0779 45
0 F#2 179.0930 179.1504 0.0574 44
0 B1 179.0930 179.1586 0.0656 106
0 F#3 179.0930 179.1709 0.0779 49
0 F#3 179.2159 179.2938 0.0779 18
0 A#4 179.2159 179.3061 0.0902 45
0 A#2 179.3389 179.4045 0.0656 46
0 F#3 179.3389 179.4168 0.0779 23
0 A#5 179.3389 179.4455 0.1066 45
0 F#2 179.4619 179.5233 0.0615 42
0 A#4 179.4619 179.5356 0.0738 45
0 F#3 179.4619 179.5397 0.0779 18
0 D2 179.4619 179.5479 0.0861 79
0 B1 179.5848 179.6463 0.0615 106
0 F#2 179.5848 179.6586 0.0738 44
0 F#3 179.5848 179.6627 0.0779 47
0 D2 179.5848 179.6709 0.0861 90
0 A#4 179.7078 179.7856 0.0779 45
0 F#3 179.7078 179.7856 0.0779 18
0 F#3 179.8307 179.9086 0.0779 23
0 A#2 179.8307 179.9127 0.0820 46
0 A#5 179.8307 179.9250 0.0943 45
0 F#2 179.9537 180.0110 0.0574 42
0 A#4 179.9537 180.0233 0.0697 45
0 F#3 179.9537 180.0315 0.0779 18
0 B1 180.0766 180.1340 0.0574 106
0 F#3 180.0766 180.1545 0.0779 49
0 F#2 180.0766 180.1627 0.0861 44
0 F#3 180.1996 180.2774 0.0779 18
0 A#4 180.1996 180.2979 0.0984 45
0 F#3 180.3225 180.4004 0.0779 23
0 A#2 180.3225 180.4045 0.0820 46
0 A#5 180.3225 180.4209 0.0984 45
0 F#2 180.4455 180.5028 0.0574 42
0 F#3 180.4455 180.5233 0.0779 18
0 A#4 180.4455 180.5356 0.0902 45
0 B1 180.5684 180.6299 0.0615 106
0 F#2 180.5684 180.6381 0.0697 44
0 D2 180.5684 180.6463 0.0779 90
0 F#3 180.5684 180.6463 0.0779 47
0 A#4 180.6914 180.7692 0.0779 45
0 F#3 180.6914 180.7692 0.0779 18
0 F#3 180.8143 180.8922 0.0779 23
0 A#2 180.8143 180.8963 0.0820 46
0 A#5 180.8143 180.9045 0.0902 45
0 F#2 180.9373 180.9946 0.0574 42
0 F#3 180.9373 181.0151 0.0779 18
0 A#4 180.9373 181.0151 0.0779 45
0 F#2 181.0602 181.1176 0.0574 44
0 B1 181.0602 181.1258 0.0656 106
0 F#3 181.0602 181.1381 0.0779 49
0 A#4 181.1832 181.2569 0.0738 45
0 F#3 181.1832 181.2610 0.0779 18
0 A#2 181.3061 181.3717 0.0656 46
0 F#3 181.3061 181.3840 0.0779 23
0 A#5 181.3061 181.4004 0.0943 45
0 A#4 181.4291 181.4864 0.0574 45
0 F#2 181.4291 181.4905 0.0615 42
0 F#3 181.4291 181.5069 0.0779 18
0 B1 181.5520 181.6135 0.0615 106
0 F#2 181.5520 181.6258 0.0738 44
0 F#3 181.5520 181.6299 0.0779 47
0 D2 181.5520 181.6381 0.0861 90
0 A#4 181.6750 181.7446 0.0697 45
0 F#3 181.6750 181.7528 0.0779 18
0 A#5 181.7979 181.8717 0.0738 45
0 F#3 181.7979 181.8758 0.0779 23
0 A#2 181.7979 181.8799 0.0820 46
0 A#4 181.9209 181.9537 0.0328 45
0 F#2 181.9209 181.9782 0.0574 42
0 F#3 181.9209 181.9987 0.0779 18
0 B1 182.0438 182.1012 0.0574 106
0 F#3 182.0438 182.1217 0.0779 49
0 F#2 182.0438 182.1299 0.0861 44
0 F#3 182.1668 182.2446 0.0779 18
0 A#4 182.1668 182.2487 0.0820 45
0 F#3 182.2897 182.3676 0.0779 23
0 A#2 182.2897 182.3717 0.0820 46
0 A#5 182.2897 182.4004 0.1107 45
0 F#2 182.4127 182.4700 0.0574 42
0 F#3 182.4127 182.4905 0.0779 18
0 A#4 182.4127 182.4946 0.0820 45
0 B1 182.5356 182.5971 0.0615 106
0 F#2 182.5356 182.6053 0.0697 44
0 F#3 182.5356 182.6135 0.0779 47
0 D2 182.5356 182.6135 0.0779 90
0 F#3 182.6586 182.7364 0.0779 18
0 A#4 182.6586 182.7405 0.0820 45
0 F#3 182.7815 182.8594 0.0779 23
0 A#2 182.7815 182.8635 0.0820 46
0 A#5 182.7815 182.8922 0.1107 45
0 F#2 182.9045 182.9618 0.0574 42
0 A#4 182.9045 182.9823 0.0779 45
0 F#3 182.9045 182.9823 0.0779 18
0 F#2 183.0274 183.0848 0.0574 44
0 B1 183.0274 183.0930 0.0656 106
0 F#3 183.0274 183.1053 0.0779 49
0 F#3 183.1504 183.2282 0.0779 18
0 A#4 183.1504 183.2405 0.0902 45
0 A#2 183.2733 183.3389 0.0656 46
0 F#3 183.2733 183.3512 0.0779 23
0 A#5 183.2733 183.3799 0.1066 45
0 F#2 183.3963 183.4577 0.0615 42
0 A#4 183.3963 183.4700 0.0738 45
0 F#3 183.3963 183.4741 0.0779 18
0 B1 183.5192 183.5807 0.0615 106
0 F#2 183.5192 183.5930 0.0738 44
0 F#3 183.5192 183.5971 0.0779 47
0 D2 183.5192 183.6053 0.0861 90
0 A#4 183.6422 183.7200 0.0779 45
0 F#3 183.6422 183.7200 0.0779 18
0 F#3 183.7651 183.8430 0.0779 23
0 A#2 183.7651 183.8471 0.0820 46
0 D2 183.7651 183.8512 0.0861 90
0 A#5 183.7651 183.8594 0.0943 45
0 F#2 183.8881 183.9455 0.0574 42
0 A#4 183.8881 183.9577 0.0697 45
0 F#3 183.8881 183.9659 0.0779 18
0 D2 183.8881 183.9741 0.0861 90
0 D#2 184.0110 184.0643 0.0533 70
0 F#3 184.0110 184.0889 0.0779 49
0 F#3 184.1340 184.2118 0.0779 18
0 F#3 184.2569 184.3348 0.0779 23
0 F#3 184.3799 184.4577 0.0779 18
0 D#2 184.5028 184.5438 0.0410 70
0 F#2 184.5028 184.5602 0.0574 70
0 F#3 184.5028 184.5807 0.0779 47
0 F#3 184.6258 184.7037 0.0779 18
0 F#3 184.7487 184.8266 0.0779 23
0 F#3 184.8717 184.9496 0.0779 18
0 D#2 184.9946 185.0397 0.0451 70
0 F#3 184.9946 185.0725 0.0779 49
0 F#3 185.1176 185.1955 0.0779 18
0 F#3 185.2405 185.3184 0.0779 23
0 F#3 185.3635 185.4414 0.0779 18
0 D#2 185.4864 185.5233 0.0369 70
0 F#2 185.4864 185.5315 0.0451 70
0 F#3 185.4864 185.5643 0.0779 47
0 F#3 185.6094 185.6873 0.0779 18
0 F#3 185.7323 185.8102 0.0779 23
0 F#3 185.8553 185.9332 0.0779 18
0 D#2 185.9782 186.0192 0.0410 70
0 F#3 185.9782 186.0561 0.0779 49
0 F#3 186.1012 186.1791 0.0779 18
0 F#3 186.2241 186.3020 0.0779 23
0 F#3 186.3471 186.4250 0.0779 18
0 D#2 186.4700 186.5028 0.0328 70
0 F#2 186.4700 186.5356 0.0656 70
0 F#3 186.4700 186.5479 0.0779 47
0 F#3 186.5930 186.6709 0.0779 18
0 F#3 186.7159 186.7938 0.0779 23
0 F#3 186.8389 186.9168 0.0779 18
0 D#2 186.9618 187.0028 0.0410 70
0 F#3 186.9618 187.0397 0.0779 49
0 F#3 187.0848 187.1627 0.0779 18
0 F#3 187.2077 187.2856 0.0779 23
0 F#3 187.3307 187.4086 0.0779 18
0 D#2 187.4536 187.5028 0.0492 70
0 F#2 187.4536 187.5110 0.0574 70
0 F#3 187.4536 187.5315 0.0779 47
0 F#3 187.5766 187.6545 0.0779 18
0 F#3 187.6996 187.7774 0.0779 23
0 F#3 187.8225 187.9004 0.0779 18
0 D#2 187.9455 187.9864 0.0410 70
0 F#3 187.9455 188.0233 0.0779 49
0 F#3 188.0684 188.1463 0.0779 18
0 F#3 188.1914 188.2692 0.0779 23
0 F#3 188.3143 188.3922 0.0779 18
0 D#2 188.4373 188.4823 0.0451 70
0 F#2 188.4373 188.4864 0.0492 70
0 F#3 188.4373 188.5151 0.0779 47
0 F#3 188.5602 188.6381 0.0779 18
0 F#3 188.6832 188.7610 0.0779 23
0 F#3 188.8061 188.8840 0.0779 18
0 D#2 188.9291 188.9782 0.0492 70
0 F#3 188.9291 189.0069 0.0779 49
0 F#3 189.0520 189.1299 0.0779 18
0 F#3 189.1750 189.2528 0.0779 23
0 F#3 189.2979 189.3758 0.0779 18
0 D#2 189.4209 189.4618 0.0410 70
0 F#2 189.4209 189.4782 0.0574 70
0 F#3 189.4209 189.4987 0.0779 47
0 F#3 189.5438 189.6217 0.0779 18
0 F#3 189.6668 189.7446 0.0779 23
0 F#3 189.7897 189.8676 0.0779 18
0 D#2 189.9127 189.9577 0.0451 70
0 F#3 189.9127 189.9905 0.0779 49
0 F#3 190.0356 190.1135 0.0779 18
0 F#3 190.1586 190.2364 0.0779 23
0 F#3 190.2815 190.3594 0.0779 18
0 D#2 190.4045 190.4536 0.0492 70
0 F#2 190.4045 190.4618 0.0574 70
0 F#3 190.4045 190.4823 0.0779 47
0 F#3 190.5274 190.6053 0.0779 18
0 F#3 190.6504 190.7282 0.0779 23
0 F#3 190.7733 190.8512 0.0779 18
0 D#2 190.8963 190.9373 0.0410 70
0 F#3 190.8963 190.9741 0.0779 49
0 F#3 191.0192 191.0971 0.0779 18
0 F#3 191.1422 191.2200 0.0779 23
0 F#3 191.2651 191.3430 0.0779 18
0 D#2 191.3881 191.4332 0.0451 70
0 F#3 191.3881 191.4659 0.0779 47
0 F#2 191.3881 191.4782 0.0902 70
0 F#3 191.5110 191.5889 0.0779 18
0 F#2 191.6340 191.6832 0.0492 55
0 F#3 191.6340 191.7118 0.0779 23
0 F#2 191.7569 191.8143 0.0574 70
0 F#3 191.7569 191.8348 0.0779 18
0 D#2 191.8799 191.9332 0.0533 70
0 F#3 191.8799 191.9577 0.0779 49
0 F#3 192.0028 192.0807 0.0779 18
0 F#3 192.1258 192.2036 0.0779 23
0 F#3 192.2487 192.3266 0.0779 18
0 D#2 192.3717 192.4168 0.0451 70
0 F#2 192.3717 192.4495 0.0779 70
0 F#3 192.3717 192.4495 0.0779 47
0 F#3 192.4946 192.5725 0.0779 18
0 F#3 192.6176 192.6954 0.0779 23
0 F#3 192.7405 192.8184 0.0779 18
0 D#2 192.8635 192.8840 0.0205 70
0 F#3 192.8635 192.9414 0.0779 49
0 F#3 192.9864 193.0643 0.0779 18
0 F#3 193.1094 193.1873 0.0779 23
0 F#3 193.2323 193.3102 0.0779 18
0 D#2 193.3553 193.4004 0.0451 70
0 F#3 193.3553 193.4332 0.0779 47
0 F#2 193.3553 193.4332 0.0779 70
0 F#3 193.4782 193.5561 0.0779 18
0 F#3 193.6012 193.6791 0.0779 23
0 F#3 193.7241 193.8020 0.0779 18
0 D#2 193.8471 193.8840 0.0369 70
0 F#3 193.8471 193.9250 0.0779 49
0 F#3 193.9700 194.0479 0.0779 18
0 F#3 194.0930 194.1709 0.0779 23
0 F#3 194.2159 194.2938 0.0779 18
0 D#2 194.3389 194.3758 0.0369 70
0 F#3 194.3389 194.4168 0.0779 47
0 F#2 194.3389 194.4209 0.0820 70
0 F#3 194.4618 194.5397 0.0779 18
0 F#3 194.5848 194.6627 0.0779 23
0 F#3 194.7077 194.7856 0.0779 18
0 D#2 194.8307 194.8717 0.0410 70
0 F#3 194.8307 194.9086 0.0779 49
0 F#3 194.9536 195.0315 0.0779 18
0 F#3 195.0766 195.1545 0.0779 23
0 F#3 195.1995 195.2774 0.0779 18
0 D#2 195.3225 195.3553 0.0328 70
0 F#2 195.3225 195.3881 0.0656 70
0 F#3 195.3225 195.4004 0.0779 47
0 F#3 195.4454 195.5233 0.0779 18
0 F#2 195.5684 195.6299 0.0615 54
0 F#3 195.5684 195.6463 0.0779 23
0 F#2 195.6913 195.7323 0.0410 70
0 F#3 195.6913 195.7692 0.0779 18
0 D#2 195.8143 195.8594 0.0451 70
0 B1 195.8143 195.8717 0.0574 105
0 F#3 195.8143 195.8922 0.0779 49
0 F#2 195.8143 195.9045 0.0902 70
0 F#3 195.9373 196.0151 0.0779 18
0 D#2 196.0602 196.1176 0.0574 47
0 A#2 196.0602 196.1217 0.0615 50
0 F#3 196.0602 196.1381 0.0779 23
0 F#3 196.1832 196.2610 0.0779 18
0 D#2 196.3061 196.3553 0.0492 70
0 F#3 196.3061 196.3840 0.0779 47
0 F#2 196.3061 196.4004 0.0943 70
0 F#3 196.4291 196.5069 0.0779 18
0 D#2 196.5520 196.6053 0.0533 47
0 A#2 196.5520 196.6217 0.0697 50
0 F#3 196.5520 196.6299 0.0779 23
0 F#3 196.6750 196.7528 0.0779 18
0 D#2 196.7979 196.8471 0.0492 70
0 B1 196.7979 196.8512 0.0533 105
0 F#3 196.7979 196.8758 0.0779 49
0 F#2 196.7979 196.8922 0.0943 70
0 F#3 196.9209 196.9987 0.0779 18
0 D#2 197.0438 197.1012 0.0574 47
0 A#2 197.0438 197.1176 0.0738 50
0 F#3 197.0438 197.1217 0.0779 23
0 F#3 197.1668 197.2446 0.0779 18
0 D#2 197.2897 197.3348 0.0451 70
0 F#3 197.2897 197.3676 0.0779 47
0 F#2 197.2897 197.3799 0.0902 70
0 F#3 197.4127 197.4905 0.0779 18
0 D#2 197.5356 197.5930 0.0574 47
0 F#3 197.5356 197.6135 0.0779 23
0 A#2 197.5356 197.6135 0.0779 50
0 F#3 197.6586 197.7364 0.0779 18
0 D#2 197.7815 197.8307 0.0492 70
0 B1 197.7815 197.8348 0.0533 105
0 F#3 197.7815 197.8594 0.0779 49
0 F#2 197.7815 197.8717 0.0902 70
0 F#3 197.9045 197.9823 0.0779 18
0 D#2 198.0274 198.0848 0.0574 47
0 F#3 198.0274 198.1053 0.0779 23
0 A#2 198.0274 198.1094 0.0820 50
0 F#3 198.1504 198.2282 0.0779 18
0 D#2 198.2733 198.3184 0.0451 70
0 F#3 198.2733 198.3512 0.0779 47
0 F#2 198.2733 198.3717 0.0984 70
0 F#3 198.3963 198.4741 0.0779 18
0 D#2 198.5192 198.5766 0.0574 47
0 F#3 198.5192 198.5971 0.0779 23
0 A#2 198.5192 198.6053 0.0861 50
0 F#3 198.6422 198.7200 0.0779 18
0 D#2 198.7651 198.8143 0.0492 70
0 B1 198.7651 198.8225 0.0574 105
0 F#3 198.7651 198.8430 0.0779 49
0 F#2 198.7651 198.8635 0.0984 70
0 F#3 198.8881 198.9659 0.0779 18
0 D#2 199.0110 199.0684 0.0574 47
0 F#3 199.0110 199.0889 0.0779 23
0 A#2 199.0110 199.1012 0.0902 50
0 F#3 199.1340 199.2118 0.0779 18
0 D#2 199.2569 199.3061 0.0492 70
0 F#3 199.2569 199.3348 0.0779 47
0 F#2 199.2569 199.3553 0.0984 70
0 F#3 199.3799 199.4577 0.0779 18
0 D#2 199.5028 199.5520 0.0492 47
0 F#3 199.5028 199.5807 0.0779 23
0 A#2 199.5028 199.5889 0.0861 50
0 F#3 199.6258 199.7036 0.0779 18
0 B1 199.7487 199.7979 0.0492 105
0 D#2 199.7487 199.8020 0.0533 70
0 F#3 199.7487 199.8266 0.0779 49
0 F#2 199.7487 199.8553 0.1066 70
0 F#3 199.8717 199.9495 0.0779 18
0 D#2 199.9946 200.0438 0.0492 47
0 F#3 199.9946 200.0725 0.0779 23
0 A#2 199.9946 200.0848 0.0902 50
0 F#3 200.1176 200.1954 0.0779 18
0 D#2 200.2405 200.2938 0.0533 70
0 B1 200.2405 200.2938 0.0533 105
0 F#3 200.2405 200.3184 0.0779 47
0 F#2 200.2405 200.3471 0.1066 70
0 F#3 200.3635 200.4413 0.0779 18
0 D#2 200.4864 200.5438 0.0574 47
0 F#3 200.4864 200.5643 0.0779 23
0 A#2 200.4864 200.5807 0.0943 50
0 F#3 200.6094 200.6872 0.0779 18
0 D#2 200.7323 200.7815 0.0492 70
0 B1 200.7323 200.7815 0.0492 105
0 F#3 200.7323 200.8102 0.0779 49
0 F#2 200.7323 200.8348 0.1025 70
0 F#3 200.8553 200.9331 0.0779 18
0 D#2 200.9782 201.0274 0.0492 47
0 F#3 200.9782 201.0561 0.0779 23
0 A#2 200.9782 201.0684 0.0902 50
0 F#3 201.1012 201.1791 0.0779 18
0 D#2 201.2241 201.2774 0.0533 70
0 B1 201.2241 201.2774 0.0533 105
0 F#3 201.2241 201.3020 0.0779 47
0 F#2 201.2241 201.3266 0.1025 70
0 F#3 201.3471 201.4250 0.0779 18
0 D#2 201.4700 201.5192 0.0492 47
0 F#3 201.4700 201.5479 0.0779 23
0 A#2 201.4700 201.5602 0.0902 50
0 F#3 201.5930 201.6709 0.0779 18
0 D#2 201.7159 201.7733 0.0574 70
0 B1 201.7159 201.7815 0.0656 105
0 F#3 201.7159 201.7938 0.0779 49
0 F#2 201.7159 201.8184 0.1025 70
0 F#3 201.8389 201.9168 0.0779 18
0 D#2 201.9618 202.0151 0.0533 47
0 F#3 201.9618 202.0397 0.0779 23
0 B1 201.9618 202.0397 0.0779 105
0 A#2 201.9618 202.0479 0.0861 50
0 F#3 202.0848 202.1627 0.0779 18
0 D#2 202.2077 202.2569 0.0492 70
0 B1 202.2077 202.2774 0.0697 105
0 F#3 202.2077 202.2856 0.0779 47
0 F#2 202.2077 202.3061 0.0984 70
0 F#3 202.3307 202.4086 0.0779 18
0 D#2 202.4536 202.5069 0.0533 47
0 B1 202.4536 202.5192 0.0656 105
0 F#3 202.4536 202.5315 0.0779 23
0 A#2 202.4536 202.5397 0.0861 50
0 F#3 202.5766 202.6545 0.0779 18
0 D#2 202.6995 202.7487 0.0492 70
0 B1 202.6995 202.7651 0.0656 105
0 F#3 202.6995 202.7774 0.0779 49
0 F#2 202.6995 202.8143 0.1148 70
0 F#3 202.8225 202.9004 0.0779 18
0 D#2 202.9454 202.9987 0.0533 47
0 B1 202.9454 203.0069 0.0615 105
0 F#3 202.9454 203.0233 0.0779 23
0 A#2 202.9454 203.0438 0.0984 50
0 F#3 203.0684 203.1463 0.0779 18
0 D#2 203.1913 203.2487 0.0574 70
0 B1 203.1913 203.2651 0.0738 105
0 F#3 203.1913 203.2692 0.0779 47
0 F#2 203.1913 203.3594 0.1680 70
0 B1 203.3143 203.3799 0.0656 105
0 F#3 203.3143 203.3922 0.0779 18
0 D#2 203.4372 203.4823 0.0451 47
0 B1 203.4372 203.4905 0.0533 105
0 F#3 203.4372 203.5151 0.0779 23
0 A#2 203.4372 203.5356 0.0984 50
0 B1 203.5602 203.6094 0.0492 105
0 F#3 203.5602 203.6381 0.0779 18
0 F#2 203.5602 203.6422 0.0820 70
0 C#3 203.6831 203.7364 0.0533 76
0 B1 210.5684 210.6258 0.0574 106
0 C#3 210.5684 210.6545 0.0861 85
0 A#2 210.8143 210.8963 0.0820 46
0 A4 210.8143 210.9536 0.1393 44
0 F#3 211.0602 211.1176 0.0574 46
0 B1 211.0602 211.1217 0.0615 106
0 F#2 211.0602 211.1299 0.0697 44
0 D2 211.0602 211.1381 0.0779 90
0 A#5 211.0602 211.1995 0.1393 44
0 A#2 211.3061 211.3881 0.0820 46
0 A4 211.3061 211.4127 0.1066 36
0 F#2 211.5520 211.6094 0.0574 44
0 B1 211.5520 211.6176 0.0656 106
0 A#2 211.7979 211.8635 0.0656 46
0 A4 211.7979 211.9536 0.1557 44
0 B1 212.0438 212.1053 0.0615 106
0 F#3 212.0438 212.1135 0.0697 46
0 F#2 212.0438 212.1176 0.0738 44
0 D2 212.0438 212.1299 0.0861 90
0 A#5 212.0438 212.1872 0.1434 44
0 A#2 212.2897 212.3717 0.0820 46
0 A4 212.2897 212.4167 0.1270 36
0 B1 212.5356 212.5930 0.0574 106
0 F#2 212.5356 212.6217 0.0861 44
0 A#2 212.7815 212.8635 0.0820 46
0 A4 212.7815 212.9208 0.1393 44
0 F#3 213.0274 213.0848 0.0574 46
0 B1 213.0274 213.0889 0.0615 106
0 F#2 213.0274 213.0971 0.0697 44
0 D2 213.0274 213.1053 0.0779 90
0 A#5 213.0274 213.1667 0.1393 44
0 A#2 213.2733 213.3553 0.0820 46
0 A4 213.2733 213.3799 0.1066 36
0 F#2 213.5192 213.5766 0.0574 44
0 B1 213.5192 213.5848 0.0656 106
0 A#2 213.7651 213.8307 0.0656 46
0 A4 213.7651 213.9208 0.1557 44
0 D2 213.8881 213.9741 0.0861 73
0 B1 214.0110 214.0725 0.0615 106
0 F#3 214.0110 214.0807 0.0697 46
0 F#2 214.0110 214.0848 0.0738 44
0 D2 214.0110 214.0971 0.0861 90
0 A#5 214.0110 214.1545 0.1434 44
0 A#2 214.2569 214.3389 0.0820 46
0 D2 214.2569 214.3430 0.0861 90
0 A4 214.2569 214.3840 0.1270 36
0 B1 214.5028 214.5602 0.0574 106
0 F#2 214.5028 214.5889 0.0861 44
0 A#2 214.7487 214.8307 0.0820 46
0 A4 214.7487 214.8881 0.1393 44
0 F#3 214.9946 215.0520 0.0574 46
0 B1 214.9946 215.0561 0.0615 106
0 F#2 214.9946 215.0643 0.0697 44
0 D2 214.9946 215.0725 0.0779 90
0 A#5 214.9946 215.1340 0.1393 44
0 A#2 215.2405 215.3225 0.0820 46
0 A4 215.2405 215.3471 0.1066 36
0 F#2 215.4864 215.5438 0.0574 44
0 B1 215.4864 215.5520 0.0656 106
0 A#2 215.7323 215.7979 0.0656 46
0 A4 215.7323 215.8881 0.1557 44
0 B1 215.9782 216.0397 0.0615 106
0 F#3 215.9782 216.0479 0.0697 46
0 F#2 215.9782 216.0520 0.0738 44
0 D2 215.9782 216.0643 0.0861 90
0 A#5 215.9782 216.1217 0.1434 44
0 A#2 216.2241 216.3061 0.0820 46
0 A4 216.2241 216.3512 0.1270 36
0 B1 216.4700 216.5274 0.0574 106
0 F#2 216.4700 216.5561 0.0861 44
0 A#2 216.7159 216.7979 0.0820 46
0 A4 216.7159 216.8553 0.1393 44
0 F#3 216.9618 217.0192 0.0574 46
0 B1 216.9618 217.0233 0.0615 106
0 F#2 216.9618 217.0315 0.0697 44
0 D2 216.9618 217.0397 0.0779 90
0 A#5 216.9618 217.1012 0.1393 44
0 A#2 217.2077 217.2897 0.0820 46
0 A4 217.2077 217.3143 0.1066 36
0 F#2 217.4536 217.5110 0.0574 44
0 B1 217.4536 217.5192 0.0656 106
0 A#2 217.6995 217.7651 0.0656 46
0 D2 217.6995 217.7856 0.0861 90
0 A4 217.6995 217.8553 0.1557 44
0 B1 217.9454 218.0069 0.0615 106
0 F#3 217.9454 218.0151 0.0697 46
0 F#2 217.9454 218.0192 0.0738 44
0 D2 217.9454 218.0315 0.0861 90
0 A#5 217.9454 218.0889 0.1434 44
0 A#2 218.1913 218.2733 0.0820 46
0 D2 218.1913 218.2774 0.0861 90
0 A4 218.1913 218.3184 0.1270 36
0 D2 218.3143 218.4004 0.0861 90
0 B1 218.4372 218.4946 0.0574 106
0 C#3 218.4372 218.5233 0.0861 85
0 A#2 218.6831 218.7651 0.0820 46
0 A4 218.6831 218.8225 0.1393 44
0 F#2 218.8061 218.8635 0.0574 42
0 F#3 218.9290 218.9864 0.0574 46
0 B1 218.9290 218.9905 0.0615 106
0 F#2 218.9290 218.9987 0.0697 44
0 D2 218.9290 219.0069 0.0779 90
0 A#5 218.9290 219.0684 0.1393 44
0 A#2 219.1749 219.2569 0.0820 46
0 A4 219.1749 219.2815 0.1066 36
0 F#2 219.2979 219.3553 0.0574 42
0 F#2 219.4208 219.4782 0.0574 44
0 B1 219.4208 219.4864 0.0656 106
0 A#2 219.6667 219.7323 0.0656 46
0 A4 219.6667 219.8225 0.1557 44
0 F#2 219.7897 219.8512 0.0615 42
0 B1 219.9126 219.9741 0.0615 106
0 F#3 219.9126 219.9823 0.0697 46
0 F#2 219.9126 219.9864 0.0738 44
0 D2 219.9126 219.9987 0.0861 90
0 A#5 219.9126 220.0561 0.1434 44
0 A#2 220.1585 220.2405 0.0820 46
0 A4 220.1585 220.2856 0.1270 36
0 F#2 220.2815 220.3389 0.0574 42
0 B1 220.4045 220.4618 0.0574 106
0 F#2 220.4045 220.4905 0.0861 44
0 A#2 220.6504 220.7323 0.0820 46
0 A4 220.6504 220.7897 0.1393 44
0 F#2 220.7733 220.8307 0.0574 42
0 F#3 220.8963 220.9536 0.0574 46
0 B1 220.8963 220.9577 0.0615 106
0 F#2 220.8963 220.9659 0.0697 44
0 D2 220.8963 220.9741 0.0779 90
0 A#5 220.8963 221.0356 0.1393 44
0 A#2 221.1422 221.2241 0.0820 46
0 A4 221.1422 221.2487 0.1066 36
0 F#2 221.2651 221.3225 0.0574 42
0 F#2 221.3881 221.4454 0.0574 44
0 B1 221.3881 221.4536 0.0656 106
0 A#2 221.6340 221.6995 0.0656 46
0 A4 221.6340 221.7897 0.1557 44
0 F#2 221.7569 221.8184 0.0615 42
0 D2 221.7569 221.8430 0.0861 79
0 B1 221.8799 221.9413 0.0615 106
0 F#3 221.8799 221.9495 0.0697 46
0 F#2 221.8799 221.9536 0.0738 44
0 D2 221.8799 221.9659 0.0861 90
0 A#5 221.8799 222.0233 0.1434 44
0 A#2 222.1258 222.2077 0.0820 46
0 A4 222.1258 222.2528 0.1270 36
0 F#2 222.2487 222.3061 0.0574 42
0 B1 222.3717 222.4290 0.0574 106
0 F#2 222.3717 222.4577 0.0861 44
0 A#2 222.6176 222.6995 0.0820 46
0 A4 222.6176 222.7569 0.1393 44
0 F#2 222.7405 222.7979 0.0574 42
0 F#3 222.8635 222.9208 0.0574 46
0 B1 222.8635 222.9249 0.0615 106
0 F#2 222.8635 222.9331 0.0697 44
0 D2 222.8635 222.9413 0.0779 90
0 A#5 222.8635 223.0028 0.1393 44
0 A#2 223.1094 223.1913 0.0820 46
0 A4 223.1094 223.2159 0.1066 36
0 F#2 223.2323 223.2897 0.0574 42
0 F#2 223.3553 223.4126 0.0574 44
0 B1 223.3553 223.4208 0.0656 106
0 A#2 223.6012 223.6667 0.0656 46
0 A4 223.6012 223.7569 0.1557 44
0 F#2 223.7241 223.7856 0.0615 42
0 B1 223.8471 223.9085 0.0615 106
0 F#3 223.8471 223.9167 0.0697 46
0 F#2 223.8471 223.9208 0.0738 44
0 D2 223.8471 223.9331 0.0861 90
0 A#5 223.8471 223.9905 0.1434 44
0 A#2 224.0930 224.1749 0.0820 46
0 A4 224.0930 224.2200 0.1270 36
0 F#2 224.2159 224.2733 0.0574 42
0 B1 224.3389 224.3963 0.0574 106
0 F#2 224.3389 224.4249 0.0861 44
0 A#2 224.5848 224.6667 0.0820 46
0 A4 224.5848 224.7241 0.1393 44
0 F#2 224.7077 224.7651 0.0574 42
0 F#3 224.8307 224.8881 0.0574 46
0 B1 224.8307 224.8922 0.0615 106
0 F#2 224.8307 224.9003 0.0697 44
0 D2 224.8307 224.9085 0.0779 90
0 A#5 224.8307 224.9700 0.1393 44
0 A#2 225.0766 225.1585 0.0820 46
0 A4 225.0766 225.1831 0.1066 36
0 F#2 225.1995 225.2569 0.0574 42
0 F#2 225.3225 225.3799 0.0574 44
0 B1 225.3225 225.3881 0.0656 106
0 A#2 225.5684 225.6340 0.0656 46
0 A4 225.5684 225.7241 0.1557 44
0 F#2 225.6913 225.7528 0.0615 42
0 B1 225.8143 225.8758 0.0615 106
0 F#3 225.8143 225.8840 0.0697 46
0 F#2 225.8143 225.8881 0.0738 44
0 D2 225.8143 225.9003 0.0861 90
0 A#5 225.8143 225.9577 0.1434 44
0 A#2 226.0602 226.1422 0.0820 46
0 D2 226.0602 226.1463 0.0861 90
0 A4 226.0602 226.1872 0.1270 36
0 F#2 226.1831 226.2405 0.0574 42
0 D2 226.1831 226.2692 0.0861 90
0 B1 226.3061 226.3635 0.0574 106
0 F#3 226.3061 226.3840 0.0779 49
0 C#3 226.3061 226.3922 0.0861 85
0 F#3 226.4290 226.5069 0.0779 18
0 A#4 226.4290 226.5274 0.0984 45
0 F#3 226.5520 226.6299 0.0779 23
0 A#2 226.5520 226.6340 0.0820 46
0 A#5 226.5520 226.6503 0.0984 45
0 F#2 226.6749 226.7323 0.0574 42
0 F#3 226.6749 226.7528 0.0779 18
0 A#4 226.6749 226.7651 0.0902 45
0 B1 226.7979 226.8594 0.0615 106
0 F#2 226.7979 226.8676 0.0697 44
0 D2 226.7979 226.8758 0.0779 90
0 F#3 226.7979 226.8758 0.0779 47
0 A#4 226.9208 226.9987 0.0779 45
0 F#3 226.9208 226.9987 0.0779 18
0 F#3 227.0438 227.1217 0.0779 23
0 A#2 227.0438 227.1258 0.0820 46
0 A#5 227.0438 227.1340 0.0902 45
0 F#2 227.1667 227.2241 0.0574 42
0 F#3 227.1667 227.2446 0.0779 18
0 A#4 227.1667 227.2446 0.0779 45
0 F#2 227.2897 227.3471 0.0574 44
0 B1 227.2897 227.3553 0.0656 106
0 F#3 227.2897 227.3676 0.0779 49
0 A#4 227.4126 227.4864 0.0738 45
0 F#3 227.4126 227.4905 0.0779 18
0 A#2 227.5356 227.6012 0.0656 46
0 F#3 227.5356 227.6135 0.0779 23
0 A#5 227.5356 227.6299 0.0943 45
0 A#4 227.6585 227.7159 0.0574 45
0 F#2 227.6585 227.7200 0.0615 42
0 F#3 227.6585 227.7364 0.0779 18
0 B1 227.7815 227.8430 0.0615 106
0 F#2 227.7815 227.8553 0.0738 44
0 F#3 227.7815 227.8594 0.0779 47
0 D2 227.7815 227.8676 0.0861 90
0 A#4 227.9044 227.9741 0.0697 45
0 F#3 227.9044 227.9823 0.0779 18
0 A#5 228.0274 228.1012 0.0738 45
0 F#3 228.0274 228.1053 0.0779 23
0 A#2 228.0274 228.1094 0.0820 46
0 A#4 228.1503 228.1831 0.0328 45
0 F#2 228.1503 228.2077 0.0574 42
0 F#3 228.1503 228.2282 0.0779 18
0 B1 228.2733 228.3307 0.0574 106
0 F#3 228.2733 228.3512 0.0779 49
0 F#2 228.2733 228.3594 0.0861 44
0 F#3 228.3962 228.4741 0.0779 18
0 A#4 228.3962 228.4782 0.0820 45
0 F#3 228.5192 228.5971 0.0779 23
0 A#2 228.5192 228.6012 0.0820 46
0 A#5 228.5192 228.6299 0.1107 45
0 F#2 228.6422 228.6995 0.0574 42
0 F#3 228.6422 228.7200 0.0779 18
0 A#4 228.6422 228.7241 0.0820 45
0 B1 228.7651 228.8266 0.0615 106
0 F#2 228.7651 228.8348 0.0697 44
0 D2 228.7651 228.8430 0.0779 90
0 F#3 228.7651 228.8430 0.0779 47
0 F#3 228.8881 228.9659 0.0779 18
0 A#4 228.8881 228.9700 0.0820 45
0 F#3 229.0110 229.0889 0.0779 23
0 A#2 229.0110 229.0930 0.0820 46
0 A#5 229.0110 229.1217 0.1107 45
0 F#2 229.1340 229.1913 0.0574 42
0 F#3 229.1340 229.2118 0.0779 18
0 A#4 229.1340 229.2118 0.0779 45
0 F#2 229.2569 229.3143 0.0574 44
0 B1 229.2569 229.3225 0.0656 106
0 F#3 229.2569 229.3348 0.0779 49
0 F#3 229.3799 229.4577 0.0779 18
0 A#4 229.3799 229.4700 0.0902 45
0 A#2 229.5028 229.5684 0.0656 46
0 F#3 229.5028 229.5807 0.0779 23
0 A#5 229.5028 229.6094 0.1066 45
0 F#2 229.6258 229.6872 0.0615 42
0 A#4 229.6258 229.6995 0.0738 45
0 F#3 229.6258 229.7036 0.0779 18
0 D2 229.6258 229.7118 0.0861 79
0 B1 229.7487 229.8102 0.0615 106
0 F#2 229.7487 229.8225 0.0738 44
0 F#3 229.7487 229.8266 0.0779 47
0 D2 229.7487 229.8348 0.0861 90
0 A#4 229.8717 229.9495 0.0779 45
0 F#3 229.8717 229.9495 0.0779 18
0 F#3 229.9946 230.0725 0.0779 23
0 A#2 229.9946 230.0766 0.0820 46
0 A#5 229.9946 230.0889 0.0943 45
0 F#2 230.1176 230.1749 0.0574 42
0 A#4 230.1176 230.1872 0.0697 45
0 F#3 230.1176 230.1954 0.0779 18
0 B1 230.2405 230.2979 0.0574 106
0 F#3 230.2405 230.3184 0.0779 49
0 F#2 230.2405 230.3266 0.0861 44
0 F#3 230.3635 230.4413 0.0779 18
0 A#4 230.3635 230.4618 0.0984 45
0 F#3 230.4864 230.5643 0.0779 23
0 A#2 230.4864 230.5684 0.0820 46
0 A#5 230.4864 230.5848 0.0984 45
0 F#2 230.6094 230.6667 0.0574 42
0 F#3 230.6094 230.6872 0.0779 18
0 A#4 230.6094 230.6995 0.0902 45
0 B1 230.7323 230.7938 0.0615 106
0 F#2 230.7323 230.8020 0.0697 44
0 D2 230.7323 230.8102 0.0779 90
0 F#3 230.7323 230.8102 0.0779 47
0 A#4 230.8553 230.9331 0.0779 45
0 F#3 230.8553 230.9331 0.0779 18
0 F#3 230.9782 231.0561 0.0779 23
0 A#2 230.9782 231.0602 0.0820 46
0 A#5 230.9782 231.0684 0.0902 45
0 F#2 231.1012 231.1585 0.0574 42
0 F#3 231.1012 231.1790 0.0779 18
0 A#4 231.1012 231.1790 0.0779 45
0 F#2 231.2241 231.2815 0.0574 44
0 B1 231.2241 231.2897 0.0656 106
0 F#3 231.2241 231.3020 0.0779 49
0 A#4 231.3471 231.4208 0.0738 45
0 F#3 231.3471 231.4249 0.0779 18
0 A#2 231.4700 231.5356 0.0656 46
0 F#3 231.4700 231.5479 0.0779 23
0 A#5 231.4700 231.5643 0.0943 45
0 A#4 231.5930 231.6503 0.0574 45
0 F#2 231.5930 231.6544 0.0615 42
0 F#3 231.5930 231.6708 0.0779 18
0 B1 231.7159 231.7774 0.0615 106
0 F#2 231.7159 231.7897 0.0738 44
0 F#3 231.7159 231.7938 0.0779 47
0 D2 231.7159 231.8020 0.0861 90
0 A#4 231.8389 231.9085 0.0697 45
0 F#3 231.8389 231.9167 0.0779 18
0 A#5 231.9618 232.0356 0.0738 45
0 F#3 231.9618 232.0397 0.0779 23
0 A#2 231.9618 232.0438 0.0820 46
0 A#4 232.0848 232.1176 0.0328 45
0 F#2 232.0848 232.1421 0.0574 42
0 F#3 232.0848 232.1626 0.0779 18
0 B1 232.2077 232.2651 0.0574 106
0 F#3 232.2077 232.2856 0.0779 49
0 F#2 232.2077 232.2938 0.0861 44
0 F#3 232.3307 232.4085 0.0779 18
0 A#4 232.3307 232.4126 0.0820 45
0 F#3 232.4536 232.5315 0.0779 23
0 A#2 232.4536 232.5356 0.0820 46
0 A#5 232.4536 232.5643 0.1107 45
0 F#2 232.5766 232.6340 0.0574 42
0 F#3 232.5766 232.6544 0.0779 18
0 A#4 232.5766 232.6585 0.0820 45
0 B1 232.6995 232.7610 0.0615 106
0 F#2 232.6995 232.7692 0.0697 44
0 D2 232.6995 232.7774 0.0779 90
0 F#3 232.6995 232.7774 0.0779 47
0 F#3 232.8225 232.9003 0.0779 18
0 A#4 232.8225 232.9044 0.0820 45
0 F#3 232.9454 233.0233 0.0779 23
0 A#2 232.9454 233.0274 0.0820 46
0 A#5 232.9454 233.0561 0.1107 45
0 F#2 233.0684 233.1258 0.0574 42
0 F#3 233.0684 233.1462 0.0779 18
0 A#4 233.0684 233.1462 0.0779 45
0 F#2 233.1913 233.2487 0.0574 44
0 B1 233.1913 233.2569 0.0656 106
0 F#3 233.1913 233.2692 0.0779 49
0 F#3 233.3143 233.3921 0.0779 18
0 A#4 233.3143 233.4044 0.0902 45
0 A#2 233.4372 233.5028 0.0656 46
0 F#3 233.4372 233.5151 0.0779 23
0 D2 233.4372 233.5233 0.0861 90
0 A#5 233.4372 233.5438 0.1066 45
0 F#2 233.5602 233.6217 0.0615 42
0 A#4 233.5602 233.6340 0.0738 45
0 F#3 233.5602 233.6380 0.0779 18
0 B1 233.6831 233.7446 0.0615 106
0 F#2 233.6831 233.7569 0.0738 44
0 F#3 233.6831 233.7610 0.0779 47
0 D2 233.6831 233.7692 0.0861 90
0 A#4 233.8061 233.8840 0.0779 45
0 F#3 233.8061 233.8840 0.0779 18
0 F#3 233.9290 234.0069 0.0779 23
0 A#2 233.9290 234.0110 0.0820 46
0 D2 233.9290 234.0151 0.0861 90
0 A#5 233.9290 234.0233 0.0943 45
0 F#2 234.0520 234.1094 0.0574 42
0 A#4 234.0520 234.1217 0.0697 45
0 F#3 234.0520 234.1299 0.0779 18
0 D2 234.0520 234.1380 0.0861 90
0 B1 234.1749 234.2323 0.0574 106
0 F#3 234.1749 234.2528 0.0779 49
0 C#3 234.1749 234.2610 0.0861 85
0 F#3 234.2979 234.3758 0.0779 18
0 A#4 234.2979 234.3962 0.0984 45
0 F#3 234.4208 234.4987 0.0779 23
0 A#2 234.4208 234.5028 0.0820 46
0 A#5 234.4208 234.5192 0.0984 45
0 F#2 234.5438 234.6012 0.0574 42
0 F#3 234.5438 234.6217 0.0779 18
0 A#4 234.5438 234.6340 0.0902 45
0 B1 234.6667 234.7282 0.0615 106
0 F#2 234.6667 234.7364 0.0697 44
0 D2 234.6667 234.7446 0.0779 90
0 F#3 234.6667 234.7446 0.0779 47
0 A#4 234.7897 234.8676 0.0779 45
0 F#3 234.7897 234.8676 0.0779 18
0 F#3 234.9126 234.9905 0.0779 23
0 A#2 234.9126 234.9946 0.0820 46
0 A#5 234.9126 235.0028 0.0902 45
0 F#2 235.0356 235.0930 0.0574 42
0 F#3 235.0356 235.1135 0.0779 18
0 A#4 235.0356 235.1135 0.0779 45
0 F#2 235.1585 235.2159 0.0574 44
0 B1 235.1585 235.2241 0.0656 106
0 F#3 235.1585 235.2364 0.0779 49
0 A#4 235.2815 235.3553 0.0738 45
0 F#3 235.2815 235.3594 0.0779 18
0 A#2 235.4044 235.4700 0.0656 46
0 F#3 235.4044 235.4823 0.0779 23
0 A#5 235.4044 235.4987 0.0943 45
0 A#4 235.5274 235.5848 0.0574 45
0 F#2 235.5274 235.5889 0.0615 42
0 F#3 235.5274 235.6053 0.0779 18
0 B1 235.6503 235.7118 0.0615 106
0 F#2 235.6503 235.7241 0.0738 44
0 F#3 235.6503 235.7282 0.0779 47
0 D2 235.6503 235.7364 0.0861 90
0 A#4 235.7733 235.8430 0.0697 45
0 F#3 235.7733 235.8512 0.0779 18
0 A#5 235.8962 235.9700 0.0738 45
0 F#3 235.8962 235.9741 0.0779 23
0 A#2 235.8962 235.9782 0.0820 46
0 A#4 236.0192 236.0520 0.0328 45
0 F#2 236.0192 236.0766 0.0574 42
0 F#3 236.0192 236.0971 0.0779 18
0 B1 236.1421 236.1995 0.0574 106
0 F#3 236.1421 236.2200 0.0779 49
0 F#2 236.1421 236.2282 0.0861 44
0 F#3 236.2651 236.3430 0.0779 18
0 A#4 236.2651 236.3471 0.0820 45
0 F#3 236.3880 236.4659 0.0779 23
0 A#2 236.3880 236.4700 0.0820 46
0 A#5 236.3880 236.4987 0.1107 45
0 F#2 236.5110 236.5684 0.0574 42
0 F#3 236.5110 236.5889 0.0779 18
0 A#4 236.5110 236.5930 0.0820 45
0 B1 236.6339 236.6954 0.0615 106
0 F#2 236.6339 236.7036 0.0697 44
0 D2 236.6339 236.7118 0.0779 90
0 F#3 236.6339 236.7118 0.0779 47
0 F#3 236.7569 236.8348 0.0779 18
0 A#4 236.7569 236.8389 0.0820 45
0 F#3 236.8799 236.9577 0.0779 23
0 A#2 236.8799 236.9618 0.0820 46
0 A#5 236.8799 236.9905 0.1107 45
0 F#2 237.0028 237.0602 0.0574 42
0 F#3 237.0028 237.0807 0.0779 18
0 A#4 237.0028 237.0807 0.0779 45
0 F#2 237.1258 237.1831 0.0574 44
0 B1 237.1258 237.1913 0.0656 106
0 F#3 237.1258 237.2036 0.0779 49
0 F#3 237.2487 237.3266 0.0779 18
0 A#4 237.2487 237.3389 0.0902 45
0 A#2 237.3717 237.4372 0.0656 46
0 F#3 237.3717 237.4495 0.0779 23
0 A#5 237.3717 237.4782 0.1066 45
0 F#2 237.4946 237.5561 0.0615 42
0 A#4 237.4946 237.5684 0.0738 45
0 F#3 237.4946 237.5725 0.0779 18
0 D2 237.4946 237.5807 0.0861 79
0 B1 237.6176 237.6790 0.0615 106
0 F#2 237.6176 237.6913 0.0738 44
0 F#3 237.6176 237.6954 0.0779 47
0 D2 237.6176 237.7036 0.0861 90
0 A#4 237.7405 237.8184 0.0779 45
0 F#3 237.7405 237.8184 0.0779 18
0 F#3 237.8635 237.9413 0.0779 23
0 A#2 237.8635 237.9454 0.0820 46
0 A#5 237.8635 237.9577 0.0943 45
0 F#2 237.9864 238.0438 0.0574 42
0 A#4 237.9864 238.0561 0.0697 45
0 F#3 237.9864 238.0643 0.0779 18
0 B1 238.1094 238.1667 0.0574 106
0 F#3 238.1094 238.1872 0.0779 49
0 F#2 238.1094 238.1954 0.0861 44
0 F#3 238.2323 238.3102 0.0779 18
0 A#4 238.2323 238.3307 0.0984 45
0 F#3 238.3553 238.4331 0.0779 23
0 A#2 238.3553 238.4372 0.0820 46
0 A#5 238.3553 238.4536 0.0984 45
0 F#2 238.4782 238.5356 0.0574 42
0 F#3 238.4782 238.5561 0.0779 18
0 A#4 238.4782 238.5684 0.0902 45
0 B1 238.6012 238.6626 0.0615 106
0 F#2 238.6012 238.6708 0.0697 44
0 D2 238.6012 238.6790 0.0779 90
0 F#3 238.6012 238.6790 0.0779 47
0 A#4 238.7241 238.8020 0.0779 45
0 F#3 238.7241 238.8020 0.0779 18
0 F#3 238.8471 238.9249 0.0779 23
0 A#2 238.8471 238.9290 0.0820 46
0 A#5 238.8471 238.9372 0.0902 45
0 F#2 238.9700 239.0274 0.0574 42
0 F#3 238.9700 239.0479 0.0779 18
0 A#4 238.9700 239.0479 0.0779 45
0 F#2 239.0930 239.1503 0.0574 44
0 B1 239.0930 239.1585 0.0656 106
0 F#3 239.0930 239.1708 0.0779 49
0 A#4 239.2159 239.2897 0.0738 45
0 F#3 239.2159 239.2938 0.0779 18
0 A#2 239.3389 239.4044 0.0656 46
0 F#3 239.3389 239.4167 0.0779 23
0 A#5 239.3389 239.4331 0.0943 45
0 A#4 239.4618 239.5192 0.0574 45
0 F#2 239.4618 239.5233 0.0615 42
0 F#3 239.4618 239.5397 0.0779 18
0 B1 239.5848 239.6462 0.0615 106
0 F#2 239.5848 239.6585 0.0738 44
0 F#3 239.5848 239.6626 0.0779 47
0 D2 239.5848 239.6708 0.0861 90
0 A#4 239.7077 239.7774 0.0697 45
0 F#3 239.7077 239.7856 0.0779 18
0 A#5 239.8307 239.9044 0.0738 45
0 F#3 239.8307 239.9085 0.0779 23
0 A#2 239.8307 239.9126 0.0820 46
0 A#4 239.9536 239.9864 0.0328 45
0 F#2 239.9536 240.0110 0.0574 42
0 F#3 239.9536 240.0315 0.0779 18
0 B1 240.0766 240.1339 0.0574 106
0 F#3 240.0766 240.1544 0.0779 49
0 F#2 240.0766 240.1626 0.0861 44
0 F#3 240.1995 240.2774 0.0779 18
0 A#4 240.1995 240.2815 0.0820 45
0 F#3 240.3225 240.4003 0.0779 23
0 A#2 240.3225 240.4044 0.0820 46
0 A#5 240.3225 240.4331 0.1107 45
0 F#2 240.4454 240.5028 0.0574 42
0 F#3 240.4454 240.5233 0.0779 18
0 A#4 240.4454 240.5274 0.0820 45
0 B1 240.5684 240.6298 0.0615 106
0 F#2 240.5684 240.6380 0.0697 44
0 F#3 240.5684 240.6462 0.0779 47
0 D2 240.5684 240.6462 0.0779 90
0 F#3 240.6913 240.7692 0.0779 18
0 A#4 240.6913 240.7733 0.0820 45
0 F#3 240.8143 240.8921 0.0779 23
0 A#2 240.8143 240.8962 0.0820 46
0 A#5 240.8143 240.9249 0.1107 45
0 F#2 240.9372 240.9946 0.0574 42
0 A#4 240.9372 241.0151 0.0779 45
0 F#3 240.9372 241.0151 0.0779 18
0 F#2 241.0602 241.1176 0.0574 44
0 B1 241.0602 241.1258 0.0656 106
0 F#3 241.0602 241.1380 0.0779 49
0 F#3 241.1831 241.2610 0.0779 18
0 A#4 241.1831 241.2733 0.0902 45
0 A#2 241.3061 241.3717 0.0656 46
0 F#3 241.3061 241.3839 0.0779 23
0 A#5 241.3061 241.4126 0.1066 45
0 F#2 241.4290 241.4905 0.0615 42
0 A#4 241.4290 241.5028 0.0738 45
0 F#3 241.4290 241.5069 0.0779 18
0 B1 241.5520 241.6135 0.0615 106
0 F#2 241.5520 241.6257 0.0738 44
0 F#3 241.5520 241.6298 0.0779 47
0 D2 241.5520 241.6380 0.0861 90
0 A#4 241.6749 241.7528 0.0779 45
0 F#3 241.6749 241.7528 0.0779 18
0 F#3 241.7979 241.8757 0.0779 23
0 A#2 241.7979 241.8798 0.0820 46
0 D2 241.7979 241.8839 0.0861 90
0 A#5 241.7979 241.8921 0.0943 45
0 F#2 241.9208 241.9782 0.0574 42
0 A#4 241.9208 241.9905 0.0697 45
0 F#3 241.9208 241.9987 0.0779 18
0 D2 241.9208 242.0069 0.0861 90
0 B1 242.0438 242.1012 0.0574 106
0 F#3 242.0438 242.1217 0.0779 49
0 C#3 242.0438 242.1298 0.0861 85
0 F#3 242.1667 242.2446 0.0779 18
0 A#4 242.1667 242.2651 0.0984 45
0 F#3 242.2897 242.3676 0.0779 23
0 A#2 242.2897 242.3717 0.0820 46
0 A#5 242.2897 242.3880 0.0984 45
0 F#2 242.4126 242.4700 0.0574 42
0 F#3 242.4126 242.4905 0.0779 18
0 A#4 242.4126 242.5028 0.0902 45
0 B1 242.5356 242.5971 0.0615 106
0 F#2 242.5356 242.6053 0.0697 44
0 D2 242.5356 242.6135 0.0779 90
0 F#3 242.5356 242.6135 0.0779 47
0 A#4 242.6585 242.7364 0.0779 45
0 F#3 242.6585 242.7364 0.0779 18
0 F#3 242.7815 242.8594 0.0779 23
0 A#2 242.7815 242.8635 0.0820 46
0 A#5 242.7815 242.8717 0.0902 45
0 F#2 242.9044 242.9618 0.0574 42
0 F#3 242.9044 242.9823 0.0779 18
0 A#4 242.9044 242.9823 0.0779 45
0 F#2 243.0274 243.0848 0.0574 44
0 B1 243.0274 243.0930 0.0656 106
0 F#3 243.0274 243.1053 0.0779 49
0 A#4 243.1503 243.2241 0.0738 45
0 F#3 243.1503 243.2282 0.0779 18
0 A#2 243.2733 243.3389 0.0656 46
0 F#3 243.2733 243.3512 0.0779 23
0 A#5 243.2733 243.3676 0.0943 45
0 A#4 243.3962 243.4536 0.0574 45
0 F#2 243.3962 243.4577 0.0615 42
0 F#3 243.3962 243.4741 0.0779 18
0 B1 243.5192 243.5807 0.0615 106
0 F#2 243.5192 243.5930 0.0738 44
0 F#3 243.5192 243.5971 0.0779 47
0 D2 243.5192 243.6053 0.0861 90
0 A#4 243.6421 243.7118 0.0697 45
0 F#3 243.6421 243.7200 0.0779 18
0 A#5 243.7651 243.8389 0.0738 45
0 F#3 243.7651 243.8430 0.0779 23
0 A#2 243.7651 243.8471 0.0820 46
0 A#4 243.8880 243.9208 0.0328 45
0 F#2 243.8880 243.9454 0.0574 42
0 F#3 243.8880 243.9659 0.0779 18
0 B1 244.0110 244.0684 0.0574 106
0 F#3 244.0110 244.0889 0.0779 49
0 F#2 244.0110 244.0971 0.0861 44
0 F#3 244.1339 244.2118 0.0779 18
0 A#4 244.1339 244.2159 0.0820 45
0 F#3 244.2569 244.3348 0.0779 23
0 A#2 244.2569 244.3389 0.0820 46
0 A#5 244.2569 244.3676 0.1107 45
0 F#2 244.3798 244.4372 0.0574 42
0 F#3 244.3798 244.4577 0.0779 18
0 A#4 244.3798 244.4618 0.0820 45
0 B1 244.5028 244.5643 0.0615 106
0 F#2 244.5028 244.5725 0.0697 44
0 D2 244.5028 244.5807 0.0779 90
0 F#3 244.5028 244.5807 0.0779 47
0 F#3 244.6257 244.7036 0.0779 18
0 A#4 244.6257 244.7077 0.0820 45
0 F#3 244.7487 244.8266 0.0779 23
0 A#2 244.7487 244.8307 0.0820 46
0 A#5 244.7487 244.8594 0.1107 45
0 F#2 244.8716 244.9290 0.0574 42
0 F#3 244.8716 244.9495 0.0779 18
0 A#4 244.8716 244.9495 0.0779 45
0 F#2 244.9946 245.0520 0.0574 44
0 B1 244.9946 245.0602 0.0656 106
0 F#3 244.9946 245.0725 0.0779 49
0 F#3 245.1176 245.1954 0.0779 18
0 A#4 245.1176 245.2077 0.0902 45
0 A#2 245.2405 245.3061 0.0656 46
0 F#3 245.2405 245.3184 0.0779 23
0 A#5 245.2405 245.3471 0.1066 45
0 F#2 245.3635 245.4249 0.0615 42
0 A#4 245.3635 245.4372 0.0738 45
0 F#3 245.3635 245.4413 0.0779 18
0 D2 245.3635 245.4495 0.0861 79
0 B1 245.4864 245.5479 0.0615 106
0 F#2 245.4864 245.5602 0.0738 44
0 F#3 245.4864 245.5643 0.0779 47
0 D2 245.4864 245.5725 0.0861 90
0 A#4 245.6094 245.6872 0.0779 45
0 F#3 245.6094 245.6872 0.0779 18
0 F#3 245.7323 245.8102 0.0779 23
0 A#2 245.7323 245.8143 0.0820 46
0 D2 245.7323 245.8184 0.0861 79
0 A#5 245.7323 245.8266 0.0943 45
0 F#2 245.8553 245.9126 0.0574 42
0 A#4 245.8553 245.9249 0.0697 45
0 F#3 245.8553 245.9331 0.0779 18
0 D2 245.8553 245.9413 0.0861 79
0 B1 245.9782 246.0356 0.0574 106
0 F#3 245.9782 246.0561 0.0779 49
0 F#2 245.9782 246.0643 0.0861 44
0 F#3 246.1012 246.1790 0.0779 18
0 A#4 246.1012 246.1995 0.0984 45
0 F#3 246.2241 246.3020 0.0779 23
0 A#2 246.2241 246.3061 0.0820 46
0 A#5 246.2241 246.3225 0.0984 45
0 F#2 246.3471 246.4044 0.0574 42
0 F#3 246.3471 246.4249 0.0779 18
0 A#4 246.3471 246.4372 0.0902 45
0 B1 246.4700 246.5315 0.0615 106
0 F#2 246.4700 246.5397 0.0697 44
0 F#3 246.4700 246.5479 0.0779 47
0 D2 246.4700 246.5479 0.0779 90
0 A#4 246.5930 246.6708 0.0779 45
0 F#3 246.5930 246.6708 0.0779 18
0 F#3 246.7159 246.7938 0.0779 23
0 A#2 246.7159 246.7979 0.0820 46
0 A#5 246.7159 246.8061 0.0902 45
0 F#2 246.8389 246.8962 0.0574 42
0 F#3 246.8389 246.9167 0.0779 18
0 A#4 246.8389 246.9167 0.0779 45
0 F#2 246.9618 247.0192 0.0574 44
0 B1 246.9618 247.0274 0.0656 106
0 F#3 246.9618 247.0397 0.0779 49
0 A#4 247.0848 247.1585 0.0738 45
0 F#3 247.0848 247.1626 0.0779 18
0 A#2 247.2077 247.2733 0.0656 46
0 F#3 247.2077 247.2856 0.0779 23
0 A#5 247.2077 247.3020 0.0943 45
0 A#4 247.3307 247.3880 0.0574 45
0 F#2 247.3307 247.3921 0.0615 42
0 F#3 247.3307 247.4085 0.0779 18
0 B1 247.4536 247.5151 0.0615 106
0 F#2 247.4536 247.5274 0.0738 44
0 F#3 247.4536 247.5315 0.0779 47
0 D2 247.4536 247.5397 0.0861 90
0 A#4 247.5766 247.6462 0.0697 45
0 F#3 247.5766 247.6544 0.0779 18
0 A#5 247.6995 247.7733 0.0738 45
0 F#3 247.6995 247.7774 0.0779 23
0 A#2 247.6995 247.7815 0.0820 46
0 A#4 247.8225 247.8553 0.0328 45
0 F#2 247.8225 247.8798 0.0574 42
0 F#3 247.8225 247.9003 0.0779 18
0 B1 247.9454 248.0028 0.0574 106
0 F#3 247.9454 248.0233 0.0779 49
0 F#2 247.9454 248.0315 0.0861 44
0 F#3 248.0684 248.1462 0.0779 18
0 A#4 248.0684 248.1503 0.0820 45
0 F#3 248.1913 248.2692 0.0779 23
0 A#2 248.1913 248.2733 0.0820 46
0 A#5 248.1913 248.3020 0.1107 45
0 F#2 248.3143 248.3716 0.0574 42
0 F#3 248.3143 248.3921 0.0779 18
0 A#4 248.3143 248.3962 0.0820 45
0 B1 248.4372 248.4987 0.0615 106
0 F#2 248.4372 248.5069 0.0697 44
0 D2 248.4372 248.5151 0.0779 90
0 F#3 248.4372 248.5151 0.0779 47
0 F#3 248.5602 248.6380 0.0779 18
0 A#4 248.5602 248.6421 0.0820 45
0 F#3 248.6831 248.7610 0.0779 23
0 A#2 248.6831 248.7651 0.0820 46
0 A#5 248.6831 248.7938 0.1107 45
0 F#2 248.8061 248.8635 0.0574 42
0 F#3 248.8061 248.8839 0.0779 18
0 A#4 248.8061 248.8839 0.0779 45
0 F#2 248.9290 248.9864 0.0574 44
0 B1 248.9290 248.9946 0.0656 106
0 F#3 248.9290 249.0069 0.0779 49
0 F#3 249.0520 249.1298 0.0779 18
0 A#4 249.0520 249.1421 0.0902 45
0 A#2 249.1749 249.2405 0.0656 46
0 F#3 249.1749 249.2528 0.0779 23
0 D2 249.1749 249.2610 0.0861 90
0 A#5 249.1749 249.2815 0.1066 45
0 F#2 249.2979 249.3594 0.0615 42
0 A#4 249.2979 249.3716 0.0738 45
0 F#3 249.2979 249.3757 0.0779 18
0 B1 249.4208 249.4823 0.0615 106
0 F#2 249.4208 249.4946 0.0738 44
0 F#3 249.4208 249.4987 0.0779 47
0 D2 249.4208 249.5069 0.0861 90
0 A#4 249.5438 249.6216 0.0779 45
0 F#3 249.5438 249.6216 0.0779 18
0 F#3 249.6667 249.7446 0.0779 23
0 A#2 249.6667 249.7487 0.0820 46
0 D2 249.6667 249.7528 0.0861 90
0 A#5 249.6667 249.7610 0.0943 45
0 F#2 249.7897 249.8471 0.0574 42
0 A#4 249.7897 249.8594 0.0697 45
0 F#3 249.7897 249.8675 0.0779 18
0 D2 249.7897 249.8757 0.0861 90
0 B1 249.9126 249.9700 0.0574 106
0 F#3 249.9126 249.9905 0.0779 49
0 C#3 249.9126 249.9987 0.0861 85
0 F#3 250.0356 250.1134 0.0779 18
0 A#4 250.0356 250.1339 0.0984 45
0 F#3 250.1585 250.2364 0.0779 23
0 A#2 250.1585 250.2405 0.0820 46
0 A#5 250.1585 250.2569 0.0984 45
0 F#2 250.2815 250.3389 0.0574 42
0 F#3 250.2815 250.3594 0.0779 18
0 A#4 250.2815 250.3716 0.0902 45
0 B1 250.4044 250.4659 0.0615 106
0 F#2 250.4044 250.4741 0.0697 44
0 F#3 250.4044 250.4823 0.0779 47
0 D2 250.4044 250.4823 0.0779 90
0 A#4 250.5274 250.6053 0.0779 45
0 F#3 250.5274 250.6053 0.0779 18
0 F#3 250.6503 250.7282 0.0779 23
0 A#2 250.6503 250.7323 0.0820 46
0 A#5 250.6503 250.7405 0.0902 45
0 F#2 250.7733 250.8307 0.0574 42
0 F#3 250.7733 250.8512 0.0779 18
0 A#4 250.7733 250.8512 0.0779 45
0 F#2 250.8962 250.9536 0.0574 44
0 B1 250.8962 250.9618 0.0656 106
0 F#3 250.8962 250.9741 0.0779 49
0 A#4 251.0192 251.0930 0.0738 45
0 F#3 251.0192 251.0971 0.0779 18
0 A#2 251.1421 251.2077 0.0656 46
0 F#3 251.1421 251.2200 0.0779 23
0 A#5 251.1421 251.2364 0.0943 45
0 A#4 251.2651 251.3225 0.0574 45
0 F#2 251.2651 251.3266 0.0615 42
0 F#3 251.2651 251.3430 0.0779 18
0 B1 251.3880 251.4495 0.0615 106
0 F#2 251.3880 251.4618 0.0738 44
0 F#3 251.3880 251.4659 0.0779 47
0 D2 251.3880 251.4741 0.0861 90
0 A#4 251.5110 251.5807 0.0697 45
0 F#3 251.5110 251.5889 0.0779 18
0 A#5 251.6339 251.7077 0.0738 45
0 F#3 251.6339 251.7118 0.0779 23
0 A#2 251.6339 251.7159 0.0820 46
0 A#4 251.7569 251.7897 0.0328 45
0 F#2 251.7569 251.8143 0.0574 42
0 F#3 251.7569 251.8348 0.0779 18
0 B1 251.8798 251.9372 0.0574 106
0 F#3 251.8798 251.9577 0.0779 49
0 F#2 251.8798 251.9659 0.0861 44
0 F#3 252.0028 252.0807 0.0779 18
0 A#4 252.0028 252.0848 0.0820 45
0 F#3 252.1257 252.2036 0.0779 23
0 A#2 252.1257 252.2077 0.0820 46
0 A#5 252.1257 252.2364 0.1107 45
0 F#2 252.2487 252.3061 0.0574 42
0 F#3 252.2487 252.3266 0.0779 18
0 A#4 252.2487 252.3307 0.0820 45
0 B1 252.3716 252.4331 0.0615 106
0 F#2 252.3716 252.4413 0.0697 44
0 D2 252.3716 252.4495 0.0779 90
0 F#3 252.3716 252.4495 0.0779 47
0 F#3 252.4946 252.5725 0.0779 18
0 A#4 252.4946 252.5766 0.0820 45
0 F#3 252.6175 252.6954 0.0779 23
0 A#2 252.6175 252.6995 0.0820 46
0 A#5 252.6175 252.7282 0.1107 45
0 F#2 252.7405 252.7979 0.0574 42
0 F#3 252.7405 252.8184 0.0779 18
0 A#4 252.7405 252.8184 0.0779 45
0 F#2 252.8634 252.9208 0.0574 44
0 B1 252.8634 252.9290 0.0656 106
0 F#3 252.8634 252.9413 0.0779 49
0 F#3 252.9864 253.0643 0.0779 18
0 A#4 252.9864 253.0766 0.0902 45
0 A#2 253.1093 253.1749 0.0656 46
0 F#3 253.1093 253.1872 0.0779 23
0 A#5 253.1093 253.2159 0.1066 45
0 F#2 253.2323 253.2938 0.0615 42
0 A#4 253.2323 253.3061 0.0738 45
0 F#3 253.2323 253.3102 0.0779 18
0 D2 253.2323 253.3184 0.0861 79
0 B1 253.3553 253.4167 0.0615 106
0 F#2 253.3553 253.4290 0.0738 44
0 F#3 253.3553 253.4331 0.0779 47
0 D2 253.3553 253.4413 0.0861 90
0 A#4 253.4782 253.5561 0.0779 45
0 F#3 253.4782 253.5561 0.0779 18
0 F#3 253.6012 253.6790 0.0779 23
0 A#2 253.6012 253.6831 0.0820 46
0 D2 253.6012 253.6872 0.0861 79
0 A#5 253.6012 253.6954 0.0943 45
0 F#2 253.7241 253.7815 0.0574 42
0 A#4 253.7241 253.7938 0.0697 45
0 F#3 253.7241 253.8020 0.0779 18
0 D2 253.7241 253.8102 0.0861 79
0 B1 253.8471 253.9044 0.0574 106
0 F#3 253.8471 253.9249 0.0779 49
0 F#2 253.8471 253.9331 0.0861 44
0 F#3 253.9700 254.0479 0.0779 18
0 A#4 253.9700 254.0684 0.0984 45
0 F#3 254.0930 254.1708 0.0779 23
0 A#2 254.0930 254.1749 0.0820 46
0 A#5 254.0930 254.1913 0.0984 45
0 F#2 254.2159 254.2733 0.0574 42
0 F#3 254.2159 254.2938 0.0779 18
0 A#4 254.2159 254.3061 0.0902 45
0 B1 254.3389 254.4003 0.0615 106
0 F#2 254.3389 254.4085 0.0697 44
0 F#3 254.3389 254.4167 0.0779 47
0 D2 254.3389 254.4167 0.0779 90
0 A#4 254.4618 254.5397 0.0779 45
0 F#3 254.4618 254.5397 0.0779 18
0 F#3 254.5848 254.6626 0.0779 23
0 A#2 254.5848 254.6667 0.0820 46
0 A#5 254.5848 254.6749 0.0902 45
0 F#2 254.7077 254.7651 0.0574 42
0 F#3 254.7077 254.7856 0.0779 18
0 A#4 254.7077 254.7856 0.0779 45
0 F#2 254.8307 254.8880 0.0574 44
0 B1 254.8307 254.8962 0.0656 106
0 F#3 254.8307 254.9085 0.0779 49
0 A#4 254.9536 255.0274 0.0738 45
0 F#3 254.9536 255.0315 0.0779 18
0 A#2 255.0766 255.1421 0.0656 46
0 F#3 255.0766 255.1544 0.0779 23
0 A#5 255.0766 255.1708 0.0943 45
0 A#4 255.1995 255.2569 0.0574 45
0 F#2 255.1995 255.2610 0.0615 42
0 F#3 255.1995 255.2774 0.0779 18
0 B1 255.3225 255.3839 0.0615 106
0 F#2 255.3225 255.3962 0.0738 44
0 F#3 255.3225 255.4003 0.0779 47
0 D2 255.3225 255.4085 0.0861 90
0 A#4 255.4454 255.5151 0.0697 45
0 F#3 255.4454 255.5233 0.0779 18
0 A#5 255.5684 255.6421 0.0738 45
0 F#3 255.5684 255.6462 0.0779 23
0 A#2 255.5684 255.6503 0.0820 46
0 A#4 255.6913 255.7241 0.0328 45
0 F#2 255.6913 255.7487 0.0574 42
0 F#3 255.6913 255.7692 0.0779 18
0 B1 255.8143 255.8716 0.0574 106
0 F#3 255.8143 255.8921 0.0779 49
0 F#2 255.8143 255.9003 0.0861 44
0 F#3 255.9372 256.0151 0.0779 18
0 A#4 255.9372 256.0192 0.0820 45
1 F#3 4.4610 4.8745 0.4136 111
1 G#3 5.0186 5.5251 0.5065 104
1 B3 5.5762 6.0688 0.4926 112
1 G#3 6.1338 6.6496 0.5158 116
1 F#3 6.6915 6.9424 0.2509 111
1 G#3 6.9703 7.0818 0.1115 111
1 F#3 7.2491 7.3699 0.1208 116
1 E3 7.3885 7.5418 0.1533 107
1 G#3 7.6673 8.6431 0.9758 116
1 F#3 9.2007 9.3959 0.1952 120
1 F#3 9.4796 9.6794 0.1998 107
1 G#3 9.7584 9.8606 0.1022 111
1 A3 9.8978 10.2509 0.3532 112
1 G#3 10.3160 10.5437 0.2277 101
1 F#3 10.5948 10.8504 0.2556 111
1 E3 10.8736 11.1431 0.2695 107
1 G#3 11.1524 11.6682 0.5158 116
1 C#3 11.7100 12.2073 0.4972 116
1 E3 12.2677 13.0669 0.7993 109
1 C#3 13.1041 13.2481 0.1441 104
1 F#3 13.3829 13.9080 0.5251 104
1 G#3 13.9405 14.4099 0.4693 107
1 B3 14.4981 15.0465 0.5483 107
1 G#3 15.0558 15.5158 0.4600 101
1 F#3 15.6134 15.8597 0.2463 116
1 G#3 15.8922 16.0502 0.1580 101
1 F#3 16.1710 16.2825 0.1115 116
1 E3 16.3104 16.5288 0.2184 103
1 G#3 16.5892 17.7323 1.1431 112
1 F#3 18.1227 18.2389 0.1162 107
1 F#3 18.4015 18.6385 0.2370 111
1 G#3 18.6803 18.8429 0.1626 107
1 A3 18.9591 19.2333 0.2742 112
1 G#3 19.2379 19.4610 0.2230 107
1 F#3 19.5167 19.6283 0.1115 104
1 E3 19.6561 20.0093 0.3532 112
1 G#3 20.0744 20.3253 0.2509 113
1 F#3 20.3532 20.5065 0.1533 101
1 F#3 20.6320 20.8783 0.2463 120
1 C#3 20.9108 21.1385 0.2277 98
1 E3 21.1896 22.0725 0.8829 111
1 A2 23.1413 23.4154 0.2742 109
1 G#3 23.4201 23.6803 0.2602 107
1 F#3 23.6989 23.8801 0.1812 115
1 F#3 23.9777 24.2100 0.2323 113
1 E3 24.2565 24.9257 0.6691 116
1 E3 25.4786 25.7622 0.2835 110
1 C#3 25.7828 26.7775 0.9947 106
1 G#3 41.6341 41.7324 0.0984 116
1 G#3 41.8800 42.0562 0.1762 114
1 G#3 42.1259 42.2160 0.0902 111
1 G#3 42.3718 42.7775 0.4057 113
1 G#3 43.1095 43.1873 0.0779 116
1 F#3 43.2324 43.3021 0.0697 96
1 G#3 43.3554 43.4209 0.0656 98
1 G#3 43.4783 43.5767 0.0984 115
1 G#3 43.7242 44.1791 0.4549 110
1 G#3 44.3390 44.4168 0.0779 104
1 G#3 44.5849 44.6832 0.0984 116
1 G#3 44.8308 45.1873 0.3566 111
1 G#3 45.1996 45.2529 0.0533 120
1 B3 45.3226 45.4496 0.1270 101
1 B3 45.5685 45.6505 0.0820 101
1 F#3 45.6914 46.2365 0.5451 113
1 G#3 46.3062 46.4291 0.1230 120
1 F#3 46.5521 46.6996 0.1475 104
1 E3 46.7980 47.0275 0.2295 109
1 C#3 47.0439 47.1832 0.1393 107
1 G#3 47.2898 47.4332 0.1434 116
1 F#3 47.5357 47.6627 0.1270 111
1 F#3 47.7816 48.1996 0.4180 107
1 G#3 48.5193 48.5972 0.0779 116
1 F#3 48.6423 48.7160 0.0738 111
1 E3 48.7652 49.0070 0.2418 115
1 C#3 49.0111 49.2529 0.2418 96
1 G#3 49.2570 49.3759 0.1189 107
1 F#3 49.5029 49.6095 0.1066 92
1 F#3 49.7488 50.1504 0.4016 111
1 G#3 50.2406 50.7160 0.4754 111
1 G#3 50.9783 51.0480 0.0697 116
1 F#3 51.1013 51.1750 0.0738 104
1 G#3 51.2242 51.3554 0.1311 110
1 G#3 51.4701 51.5849 0.1148 120
1 G#3 51.7160 52.1709 0.4549 116
1 G#3 52.2078 52.6627 0.4549 120
1 G#3 52.9455 53.0070 0.0615 111
1 F#3 53.0685 53.1422 0.0738 92
1 G#3 53.1914 53.3062 0.1148 112
1 G#3 53.4373 53.5480 0.1107 118
1 G#3 53.6832 54.1136 0.4303 116
1 G#3 54.1750 54.3677 0.1926 114
1 F#3 54.4209 54.5398 0.1189 104
1 E3 54.6668 54.8349 0.1680 105
1 C#3 54.9127 55.0603 0.1475 111
1 G#3 55.1586 55.2611 0.1025 120
1 F#3 55.4045 55.5070 0.1025 107
1 F#3 55.6504 55.9988 0.3484 117
1 C#3 56.2652 56.3226 0.0574 107
1 G#3 56.3881 56.5480 0.1598 107
1 F#3 56.6341 56.7488 0.1148 89
1 C#3 56.7570 56.9865 0.2295 112
1 F#3 57.1259 57.2201 0.0943 116
1 F#3 57.3718 57.4660 0.0943 98
1 F#3 57.6177 58.0439 0.4262 115
1 C#4 58.6013 58.9660 0.3648 116
1 B3 58.9701 59.0439 0.0738 120
1 C#4 59.0931 59.3349 0.2418 120
1 E4 59.3390 59.5603 0.2213 108
1 C#5 59.5849 59.8185 0.2336 116
1 B4 59.8308 60.4373 0.6066 114
1 F#4 60.5685 61.0275 0.4590 117
1 E4 61.0603 61.1504 0.0902 112
1 F#4 61.3062 61.4209 0.1148 104
1 G#4 61.5521 62.0029 0.4508 116
1 F#4 62.0439 62.6095 0.5656 116
1 D#4 63.0275 63.2447 0.2172 107
1 C#4 63.2734 63.4783 0.2049 104
1 D#4 63.5193 63.7078 0.1885 96
1 E4 63.7652 64.0070 0.2418 112
1 D#4 64.0111 64.2447 0.2336 101
1 C#4 64.2570 65.4701 1.2131 117
1 C#4 66.4701 66.8349 0.3648 116
1 B3 66.8390 66.9127 0.0738 120
1 C#4 66.9619 67.2037 0.2418 120
1 E4 67.2078 67.4291 0.2213 108
1 C#5 67.4537 67.6873 0.2336 116
1 B4 67.6996 68.3062 0.6066 114
1 F#4 68.4373 68.8963 0.4590 117
1 E4 68.9291 69.0193 0.0902 112
1 F#4 69.1750 69.2898 0.1148 104
1 G#4 69.4209 69.8717 0.4508 116
1 F#4 69.9127 70.4783 0.5656 116
1 D#4 70.8963 71.1136 0.2172 107
1 C#4 71.1422 71.3472 0.2049 104
1 D#4 71.3881 71.5767 0.1885 96
1 E4 71.6340 71.8758 0.2418 112
1 D#4 71.8799 72.1136 0.2336 101
1 C#4 72.1258 73.3390 1.2131 117
1 B3 74.0931 74.2119 0.1189 115
1 C#4 74.3390 74.6709 0.3320 107
1 B3 74.7078 74.7775 0.0697 109
1 C#4 74.8308 75.2406 0.4098 89
1 C#4 75.3226 75.6504 0.3279 104
1 B3 75.6914 75.7529 0.0615 95
1 C#4 75.8144 76.1996 0.3852 111
1 C#4 76.3062 76.6463 0.3402 107
1 B3 76.6750 76.7488 0.0738 103
1 C#4 76.7980 77.0357 0.2377 120
1 B3 77.0439 77.4332 0.3893 105
1 C#4 77.7816 78.2488 0.4672 116
1 B3 78.2734 78.7324 0.4590 101
1 F#3 78.7652 79.2529 0.4877 111
1 E3 79.2570 79.7119 0.4549 105
1 F#3 79.7488 80.1750 0.4262 104
1 G#3 80.2406 80.6094 0.3689 116
1 F#3 80.7324 80.9168 0.1844 111
1 E3 80.9783 81.2078 0.2295 99
1 C#3 81.2242 81.4578 0.2336 98
1 B2 81.4701 81.5562 0.0861 99
1 C#3 81.5931 81.7119 0.1189 114
1 F#3 81.7160 82.0808 0.3648 111
1 G#3 82.2078 82.6545 0.4467 104
1 B3 82.6996 83.1340 0.4344 112
1 G#3 83.1914 83.6463 0.4549 116
1 F#3 83.6832 83.9045 0.2213 111
1 G#3 83.9291 84.0275 0.0984 111
1 F#3 84.1750 84.2816 0.1066 116
1 E3 84.2980 84.4332 0.1352 107
1 G#3 84.5439 85.4045 0.8607 116
1 F#3 85.8963 86.0685 0.1721 120
1 F#3 86.1422 86.3185 0.1762 107
1 G#3 86.3881 86.4783 0.0902 111
1 A3 86.5111 86.8226 0.3115 112
1 G#3 86.8799 87.0808 0.2008 101
1 F#3 87.1258 87.3512 0.2254 111
1 E3 87.3717 87.6094 0.2377 107
1 G#3 87.6176 88.0726 0.4549 116
1 C#3 88.1094 88.5480 0.4385 116
1 E3 88.6012 89.3062 0.7049 109
1 C#3 89.3390 89.4660 0.1270 104
1 F#3 89.5849 90.0480 0.4631 104
1 G#3 90.0767 90.4906 0.4139 107
1 B3 90.5685 91.0521 0.4836 107
1 G#3 91.0603 91.4660 0.4057 101
1 F#3 91.5521 91.7693 0.2172 116
1 G#3 91.7980 91.9373 0.1393 101
1 F#3 92.0439 92.1422 0.0984 116
1 E3 92.1668 92.3594 0.1926 103
1 G#3 92.4127 93.4209 1.0082 112
1 F#3 93.7652 93.8676 0.1025 107
1 F#3 94.0111 94.2201 0.2090 111
1 G#3 94.2570 94.4004 0.1434 107
1 A3 94.5029 94.7447 0.2418 112
1 G#3 94.7488 94.9455 0.1967 107
1 F#3 94.9947 95.0930 0.0984 104
1 E3 95.1176 95.4291 0.3115 112
1 G#3 95.4865 95.7078 0.2213 113
1 F#3 95.7324 95.8676 0.1352 101
1 F#3 95.9783 96.1955 0.2172 120
1 C#3 96.2242 96.4250 0.2008 98
1 E3 96.4701 97.2488 0.7787 111
1 F#4 97.4537 97.8185 0.3648 111
1 G#4 97.9455 98.3922 0.4467 104
1 B4 98.4373 98.8717 0.4344 112
1 G#4 98.9291 99.3840 0.4549 116
1 F#4 99.4209 99.6422 0.2213 111
1 G#4 99.6668 99.7652 0.0984 111
1 F#4 99.9127 100.0193 0.1066 116
1 E4 100.0357 100.1709 0.1352 107
1 G#4 100.2816 101.1422 0.8607 116
1 F#4 101.6340 101.8062 0.1721 120
1 F#4 101.8799 102.0562 0.1762 107
1 G#4 102.1258 102.2160 0.0902 111
1 A4 102.2488 102.5603 0.3115 112
1 G#4 102.6176 102.8185 0.2008 101
1 F#4 102.8635 103.0889 0.2254 111
1 E4 103.1094 103.3471 0.2377 107
1 G#4 103.3553 103.8103 0.4549 116
1 C#4 103.8471 104.2857 0.4385 116
1 E4 104.3389 105.0439 0.7049 109
1 C#4 105.0766 105.2037 0.1270 104
1 F#4 105.3225 105.7857 0.4631 104
1 G#4 105.8144 106.2283 0.4139 107
1 B4 106.3062 106.7898 0.4836 107
1 G#4 106.7980 107.2037 0.4057 101
1 F#4 107.2898 107.5070 0.2172 116
1 G#4 107.5357 107.6750 0.1393 101
1 F#4 107.7816 107.8799 0.0984 116
1 E4 107.9045 108.0971 0.1926 103
1 G#4 108.1504 109.1586 1.0082 112
1 F#4 109.5029 109.6053 0.1025 107
1 F#4 109.7488 109.9578 0.2090 111
1 G#4 109.9947 110.1381 0.1434 107
1 A4 110.2406 110.4824 0.2418 112
1 G#4 110.4865 110.6832 0.1967 107
1 F#4 110.7324 110.8307 0.0984 104
1 E4 110.8553 111.1668 0.3115 112
1 G#4 111.2242 111.4332 0.2090 120
1 F#4 111.4701 111.7037 0.2336 96
1 G#4 112.2078 112.4373 0.2295 120
1 F#4 112.4537 112.6299 0.1762 107
1 F#4 112.6996 112.9086 0.2090 120
1 E4 112.9455 113.1340 0.1885 120
1 C#4 113.1914 114.2898 1.0984 120
1 C#4 115.1586 115.2775 0.1189 78
1 B3 115.2816 115.4004 0.1189 89
1 G#3 115.4045 115.5193 0.1148 92
1 B3 115.5275 115.6258 0.0984 109
1 F#3 115.6504 116.6258 0.9754 96
1 E3 116.6340 117.1217 0.4877 112
1 D#3 117.1258 117.8512 0.7254 89
1 G#3 120.3225 120.4209 0.0984 116
1 G#3 120.5684 120.7447 0.1762 114
1 G#3 120.8143 120.9045 0.0902 111
1 G#3 121.0602 121.4660 0.4057 113
1 G#3 121.7979 121.8758 0.0779 116
1 F#3 121.9209 121.9906 0.0697 96
1 G#3 122.0439 122.1094 0.0656 98
1 G#3 122.1668 122.2652 0.0984 115
1 G#3 122.4127 122.8676 0.4549 110
1 G#3 123.0275 123.1053 0.0779 104
1 G#3 123.2734 123.3717 0.0984 116
1 G#3 123.5193 123.6135 0.0943 111
1 G#3 123.6422 123.8225 0.1803 120
1 B3 124.0111 124.1381 0.1270 101
1 B3 124.2570 124.3389 0.0820 101
1 F#3 124.3799 124.9250 0.5451 113
1 G#3 124.9947 125.1176 0.1230 120
1 F#3 125.2406 125.3881 0.1475 104
1 E3 125.4865 125.7160 0.2295 109
1 C#3 125.7324 125.8717 0.1393 107
1 G#3 125.9783 126.0971 0.1189 116
1 F#3 126.1012 126.3758 0.2746 111
1 F#3 126.4701 126.8881 0.4180 107
1 G#3 126.9619 127.0889 0.1270 118
1 F#3 127.2078 127.3758 0.1680 94
1 E3 127.4537 127.5479 0.0943 107
1 C#3 127.5766 127.8348 0.2582 107
1 G#3 127.9455 128.0643 0.1189 107
1 F#3 128.1914 128.2979 0.1066 92
1 F#3 128.4373 128.8389 0.4016 111
1 G#3 128.9291 129.4045 0.4754 111
1 G#3 129.6668 129.7365 0.0697 116
1 F#3 129.7897 129.8635 0.0738 104
1 G#3 129.9127 130.0438 0.1311 110
1 G#3 130.1586 130.2734 0.1148 120
1 G#3 130.4045 130.8594 0.4549 116
1 G#3 130.8963 131.3512 0.4549 120
1 G#3 131.6340 131.6955 0.0615 111
1 F#3 131.7570 131.8307 0.0738 92
1 G#3 131.8799 131.9947 0.1148 112
1 G#3 132.1258 132.2365 0.1107 118
1 G#3 132.3717 132.8020 0.4303 116
1 G#3 132.8635 133.0561 0.1926 114
1 F#3 133.1094 133.2283 0.1189 104
1 E3 133.3553 133.5234 0.1680 105
1 C#3 133.6012 133.7488 0.1475 111
1 G#3 133.8471 133.9496 0.1025 120
1 F#3 134.0930 134.1955 0.1025 107
1 F#3 134.3389 134.6873 0.3484 117
1 C#3 134.9537 135.0111 0.0574 107
1 G#3 135.0766 135.2365 0.1598 107
1 F#3 135.3225 135.4373 0.1148 89
1 C#3 135.4455 135.6750 0.2295 112
1 F#3 135.8143 135.9086 0.0943 116
1 F#3 136.0602 136.1545 0.0943 98
1 F#3 136.3061 136.7324 0.4262 115
1 C#4 137.2897 137.6545 0.3648 116
1 B3 137.6586 137.7324 0.0738 120
1 C#4 137.7815 138.0233 0.2418 120
1 E4 138.0274 138.2488 0.2213 108
1 C#5 138.2733 138.5070 0.2336 116
1 B4 138.5193 139.1258 0.6066 114
1 F#4 139.2570 139.7160 0.4590 117
1 E4 139.7488 139.8389 0.0902 112
1 F#4 139.9947 140.1094 0.1148 104
1 G#4 140.2406 140.6914 0.4508 116
1 F#4 140.7324 141.2979 0.5656 116
1 D#4 141.7160 141.9332 0.2172 107
1 C#4 141.9619 142.1668 0.2049 104
1 D#4 142.2078 142.3963 0.1885 96
1 E4 142.4537 142.6955 0.2418 112
1 D#4 142.6996 142.9332 0.2336 101
1 C#4 142.9455 144.1586 1.2131 117
1 B3 144.9127 145.0315 0.1189 115
1 C#4 145.1586 145.4906 0.3320 107
1 B3 145.5274 145.5971 0.0697 109
1 C#4 145.6504 146.0602 0.4098 89
1 C#4 146.1422 146.4701 0.3279 104
1 B3 146.5110 146.5725 0.0615 95
1 C#4 146.6340 147.0192 0.3852 111
1 C#4 147.1258 147.4660 0.3402 107
1 B3 147.4947 147.5684 0.0738 103
1 C#4 147.6176 147.8553 0.2377 120
1 B3 147.8635 148.2529 0.3893 105
1 C#4 148.6012 149.0684 0.4672 116
1 B3 149.0930 149.5520 0.4590 101
1 F#3 149.5848 150.0725 0.4877 111
1 E3 150.0766 150.5315 0.4549 105
1 F#3 150.5684 150.9947 0.4262 104
1 G#3 151.0602 151.4291 0.3689 116
1 F#3 151.5520 151.7365 0.1844 111
1 E3 151.7979 152.0274 0.2295 99
1 C#3 152.0438 152.2774 0.2336 98
1 B2 152.2897 152.3758 0.0861 99
1 C#3 152.4127 152.5315 0.1189 114
1 F#3 152.5356 152.9004 0.3648 111
1 G#3 153.0274 153.4742 0.4467 104
1 B3 153.5192 153.9537 0.4344 112
1 G#3 154.0110 154.4660 0.4549 116
1 F#3 154.5028 154.7242 0.2213 111
1 G#3 154.7487 154.8471 0.0984 111
1 F#3 154.9947 155.1012 0.1066 116
1 E3 155.1176 155.2528 0.1352 107
1 G#3 155.3635 156.2242 0.8607 116
1 F#3 156.7160 156.8881 0.1721 120
1 F#3 156.9619 157.1381 0.1762 107
1 G#3 157.2078 157.2979 0.0902 111
1 A3 157.3307 157.6422 0.3115 112
1 G#3 157.6996 157.9004 0.2008 101
1 F#3 157.9455 158.1709 0.2254 111
1 E3 158.1914 158.4291 0.2377 107
1 G#3 158.4373 158.8922 0.4549 116
1 C#3 158.9291 159.3676 0.4385 116
1 E3 159.4209 160.1258 0.7049 109
1 C#3 160.1586 160.2856 0.1270 104
1 F#3 160.4045 160.8676 0.4631 104
1 G#3 160.8963 161.3102 0.4139 107
1 B3 161.3881 161.8717 0.4836 107
1 G#3 161.8799 162.2856 0.4057 101
1 F#3 162.3717 162.5889 0.2172 116
1 G#3 162.6176 162.7569 0.1393 101
1 F#3 162.8635 162.9619 0.0984 116
1 E3 162.9865 163.1791 0.1926 103
1 G#3 163.2324 164.2405 1.0082 112
1 F#3 164.5848 164.6873 0.1025 107
1 F#3 164.8307 165.0397 0.2090 111
1 G#3 165.0766 165.2201 0.1434 107
1 A3 165.3225 165.5643 0.2418 112
1 G#3 165.5684 165.7651 0.1967 107
1 F#3 165.8143 165.9127 0.0984 104
1 E3 165.9373 166.2487 0.3115 112
1 G#3 166.3061 166.5274 0.2213 113
1 F#3 166.5520 166.6873 0.1352 101
1 F#3 166.7979 167.0151 0.2172 120
1 C#3 167.0438 167.2446 0.2008 98
1 E3 167.2897 168.0684 0.7787 111
1 F#4 168.2733 168.6381 0.3648 111
1 G#4 168.7651 169.2119 0.4467 104
1 B4 169.2569 169.6914 0.4344 112
1 G#4 169.7487 170.2037 0.4549 116
1 F#4 170.2405 170.4619 0.2213 111
1 G#4 170.4864 170.5848 0.0984 111
1 F#4 170.7323 170.8389 0.1066 116
1 E4 170.8553 170.9905 0.1352 107
1 G#4 171.1012 171.9619 0.8607 116
1 F#4 172.4537 172.6258 0.1721 120
1 F#4 172.6996 172.8758 0.1762 107
1 G#4 172.9455 173.0356 0.0902 111
1 A4 173.0684 173.3799 0.3115 112
1 G#4 173.4373 173.6381 0.2008 101
1 F#4 173.6832 173.9086 0.2254 111
1 E4 173.9291 174.1668 0.2377 107
1 G#4 174.1750 174.6299 0.4549 116
1 C#4 174.6668 175.1053 0.4385 116
1 E4 175.1586 175.8635 0.7049 109
1 C#4 175.8963 176.0233 0.1270 104
1 F#4 176.1422 176.6053 0.4631 104
1 G#4 176.6340 177.0479 0.4139 107
1 B4 177.1258 177.6094 0.4836 107
1 G#4 177.6176 178.0233 0.4057 101
1 F#4 178.1094 178.3266 0.2172 116
1 G#4 178.3553 178.4946 0.1393 101
1 F#4 178.6012 178.6996 0.0984 116
1 E4 178.7241 178.9168 0.1926 103
1 G#4 178.9700 179.9782 1.0082 112
1 F#4 180.3225 180.4250 0.1025 107
1 F#4 180.5684 180.7774 0.2090 111
1 G#4 180.8143 180.9578 0.1434 107
1 A4 181.0602 181.3020 0.2418 112
1 G#4 181.3061 181.5028 0.1967 107
1 F#4 181.5520 181.6504 0.0984 104
1 E4 181.6750 181.9864 0.3115 112
1 G#4 182.0438 182.2528 0.2090 120
1 F#4 182.2897 182.5233 0.2336 96
1 G#4 183.0274 183.2569 0.2295 120
1 F#4 183.2733 183.4496 0.1762 107
1 F#4 183.5192 183.7282 0.2090 120
1 E4 183.7651 183.9537 0.1885 120
1 C#4 184.0110 185.1094 1.0984 120
1 C#4 186.7323 186.8676 0.1352 94
1 B3 186.8840 187.0479 0.1639 103
1 G#3 187.0520 187.2282 0.1762 83
1 B3 187.2323 187.5520 0.3197 105
1 C#4 187.5561 187.9414 0.3852 86
1 E4 187.9455 188.1340 0.1885 109
1 D#4 188.1914 188.3102 0.1189 118
1 C#4 188.4373 188.5561 0.1189 99
1 B3 188.5602 188.7323 0.1721 115
1 E4 188.8061 188.9332 0.1270 108
1 D#4 189.0520 189.1791 0.1270 113
1 C#4 189.2979 189.6791 0.3811 111
1 E4 189.7897 190.1053 0.3156 120
1 D#4 190.1586 190.2241 0.0656 101
1 D#4 190.2815 190.3512 0.0697 111
1 C#4 190.4045 190.4782 0.0738 112
1 C#4 190.5274 190.6176 0.0902 113
1 B3 190.6504 190.7323 0.0820 116
1 E4 190.7733 190.9004 0.1270 120
1 E4 191.0192 191.1217 0.1025 117
1 D#4 191.1422 191.3389 0.1967 110
1 C#4 191.3881 191.7159 0.3279 114
1 E4 191.8799 192.0684 0.1885 109
1 D#4 192.1258 192.2446 0.1189 118
1 C#4 192.3717 192.4905 0.1189 99
1 B3 192.4946 192.6668 0.1721 115
1 E4 192.7405 192.8676 0.1270 108
1 D#4 192.9864 193.1135 0.1270 113
1 C#4 193.2323 193.6135 0.3811 111
1 E4 193.7241 194.0397 0.3156 120
1 D#4 194.0930 194.1586 0.0656 101
1 D#4 194.2159 194.2856 0.0697 111
1 C#4 194.3389 194.4127 0.0738 112
1 C#4 194.4618 194.5520 0.0902 113
1 B3 194.5848 194.6668 0.0820 116
1 E4 194.7077 194.8348 0.1270 120
1 E4 194.9536 195.0561 0.1025 117
1 D#4 195.0766 195.2733 0.1967 110
1 C#4 195.3225 195.6504 0.3279 114
1 E4 195.8143 196.0028 0.1885 109
1 D#4 196.0602 196.1791 0.1189 118
1 C#4 196.3061 196.4250 0.1189 99
1 B3 196.4291 196.6012 0.1721 115
1 E4 196.6750 196.8020 0.1270 108
1 D#4 196.9209 197.0479 0.1270 113
1 C#4 197.1668 197.5479 0.3811 111
1 E4 197.6586 197.9741 0.3156 120
1 D#4 198.0274 198.0930 0.0656 101
1 D#4 198.1504 198.2200 0.0697 111
1 C#4 198.2733 198.3471 0.0738 112
1 C#4 198.3963 198.4864 0.0902 113
1 B3 198.5192 198.6012 0.0820 116
1 E4 198.6422 198.7692 0.1270 120
1 E4 198.8881 198.9905 0.1025 117
1 D#4 199.0110 199.2077 0.1967 110
1 C#4 199.2569 199.5848 0.3279 114
1 E4 199.7487 199.9372 0.1885 109
1 D#4 199.9946 200.1135 0.1189 118
1 C#4 200.2405 200.3594 0.1189 99
1 B3 200.3635 200.5356 0.1721 115
1 E4 200.6094 200.7364 0.1270 108
1 D#4 200.8553 200.9823 0.1270 113
1 C#4 201.1012 201.4823 0.3811 111
1 E4 201.5930 201.9086 0.3156 120
1 D#4 201.9618 202.0274 0.0656 101
1 D#4 202.0848 202.1545 0.0697 111
1 C#4 202.2077 202.2815 0.0738 112
1 C#4 202.3307 202.4209 0.0902 113
1 B3 202.4536 202.5356 0.0820 116
1 E4 202.5766 202.7036 0.1270 120
1 E4 202.8225 202.9250 0.1025 117
1 D#4 202.9454 203.1422 0.1967 110
1 C#4 203.1913 203.5192 0.3279 114
1 C#4 203.6872 204.2528 0.5656 116
1 B3 204.2569 204.7774 0.5205 103
1 F#3 204.7815 205.2774 0.4959 98
1 E3 205.2938 205.7733 0.4795 107
1 F#3 205.8471 206.4127 0.5656 116
1 G#3 206.4249 208.7405 2.3156 96
1 F#3 209.5848 209.7897 0.2049 111
1 F#3 209.8307 210.0315 0.2008 101
1 C#3 210.0930 210.3020 0.2090 111
1 B2 210.3225 210.4618 0.1393 99
1 C#3 210.4454 210.5643 0.1189 104
1 F#3 210.5602 210.9331 0.3730 111
1 G#3 211.0602 211.5069 0.4467 104
1 B3 211.5520 211.9864 0.4344 112
1 G#3 212.0438 212.4987 0.4549 116
1 F#3 212.5356 212.7569 0.2213 111
1 G#3 212.7815 212.8799 0.0984 111
1 F#3 213.0274 213.1340 0.1066 116
1 E3 213.1504 213.2856 0.1352 107
1 G#3 213.3963 214.2569 0.8607 116
1 F#3 214.7487 214.9208 0.1721 120
1 F#3 214.9946 215.1708 0.1762 107
1 G#3 215.2405 215.3307 0.0902 111
1 A3 215.3635 215.6749 0.3115 112
1 G#3 215.7323 215.9331 0.2008 101
1 F#3 215.9782 216.2036 0.2254 111
1 E3 216.2241 216.4618 0.2377 107
1 G#3 216.4700 216.9249 0.4549 116
1 C#3 216.9618 217.4004 0.4385 116
1 E3 217.4536 218.1585 0.7049 109
1 C#3 218.1913 218.3184 0.1270 104
1 F#3 218.4372 218.9004 0.4631 104
1 G#3 218.9290 219.3430 0.4139 107
1 B3 219.4208 219.9045 0.4836 107
1 G#3 219.9126 220.3184 0.4057 101
1 F#3 220.4045 220.6217 0.2172 116
1 G#3 220.6504 220.7897 0.1393 101
1 F#3 220.8963 220.9946 0.0984 116
1 E3 221.0192 221.2118 0.1926 103
1 G#3 221.2651 222.2733 1.0082 112
1 F#3 222.6176 222.7200 0.1025 107
1 F#3 222.8635 223.0725 0.2090 111
1 G#3 223.1094 223.2528 0.1434 107
1 A3 223.3553 223.5971 0.2418 112
1 G#3 223.6012 223.7979 0.1967 107
1 F#3 223.8471 223.9454 0.0984 104
1 E3 223.9700 224.2815 0.3115 112
1 G#3 224.3389 224.5602 0.2213 113
1 F#3 224.5848 224.7200 0.1352 101
1 F#3 224.8307 225.0479 0.2172 120
1 C#3 225.0766 225.2774 0.2008 98
1 E3 225.3225 226.1012 0.7787 111
1 F#4 226.3061 226.6708 0.3648 111
1 G#4 226.7979 227.2446 0.4467 104
1 B4 227.2897 227.7241 0.4344 112
1 G#4 227.7815 228.2364 0.4549 116
1 F#4 228.2733 228.4946 0.2213 111
1 G#4 228.5192 228.6176 0.0984 111
1 F#4 228.7651 228.8717 0.1066 116
1 E4 228.8881 229.0233 0.1352 107
1 G#4 229.1340 229.9946 0.8607 116
1 F#4 230.4864 230.6585 0.1721 120
1 F#4 230.7323 230.9085 0.1762 107
1 G#4 230.9782 231.0684 0.0902 111
1 A4 231.1012 231.4126 0.3115 112
1 G#4 231.4700 231.6708 0.2008 101
1 F#4 231.7159 231.9413 0.2254 111
1 E4 231.9618 232.1995 0.2377 107
1 G#4 232.2077 232.6626 0.4549 116
1 C#4 232.6995 233.1380 0.4385 116
1 E4 233.1913 233.8962 0.7049 109
1 C#4 233.9290 234.0561 0.1270 104
1 F#4 234.1749 234.6380 0.4631 104
1 G#4 234.6667 235.0807 0.4139 107
1 B4 235.1585 235.6421 0.4836 107
1 G#4 235.6503 236.0561 0.4057 101
1 F#4 236.1421 236.3594 0.2172 116
1 G#4 236.3880 236.5274 0.1393 101
1 F#4 236.6339 236.7323 0.0984 116
1 E4 236.7569 236.9495 0.1926 103
1 G#4 237.0028 238.0110 1.0082 112
1 F#4 238.3553 238.4577 0.1025 107
1 F#4 238.6012 238.8102 0.2090 111
1 G#4 238.8471 238.9905 0.1434 107
1 A4 239.0930 239.3348 0.2418 112
1 G#4 239.3389 239.5356 0.1967 107
1 F#4 239.5848 239.6831 0.0984 104
1 E4 239.7077 240.0192 0.3115 112
1 G#4 240.0766 240.2856 0.2090 120
1 F#4 240.3225 240.5561 0.2336 96
1 G#4 241.0602 241.2897 0.2295 120
1 F#4 241.3061 241.4823 0.1762 107
1 F#4 241.5520 241.7610 0.2090 120
1 E4 241.7979 241.9167 0.1189 120
1 C#4 241.9208 242.0397 0.1189 120
1 E4 242.0438 242.2323 0.1885 109
1 D#4 242.2897 242.4085 0.1189 118
1 C#4 242.5356 242.6544 0.1189 99
1 B3 242.6585 242.8307 0.1721 115
1 E4 242.9044 243.0315 0.1270 108
1 D#4 243.1503 243.2774 0.1270 113
1 C#4 243.3962 243.7774 0.3811 111
1 E4 243.8880 244.2036 0.3156 120
1 D#4 244.2569 244.3225 0.0656 101
1 D#4 244.3798 244.4495 0.0697 111
1 C#4 244.5028 244.5766 0.0738 112
1 C#4 244.6257 244.7159 0.0902 113
1 B3 244.7487 244.8307 0.0820 116
1 E4 244.8716 244.9987 0.1270 120
1 E4 245.1176 245.2200 0.1025 117
1 D#4 245.2405 245.4372 0.1967 110
1 C#4 245.4864 245.8143 0.3279 114
1 E4 245.9782 246.1667 0.1885 109
1 D#4 246.2241 246.3430 0.1189 118
1 C#4 246.4700 246.5889 0.1189 99
1 B3 246.5930 246.7651 0.1721 115
1 E4 246.8389 246.9659 0.1270 108
1 D#4 247.0848 247.2118 0.1270 113
1 C#4 247.3307 247.7118 0.3811 111
1 E4 247.8225 248.1380 0.3156 120
1 D#4 248.1913 248.2569 0.0656 101
1 D#4 248.3143 248.3839 0.0697 111
1 C#4 248.4372 248.5110 0.0738 112
1 C#4 248.5602 248.6503 0.0902 113
1 B3 248.6831 248.7651 0.0820 116
1 E4 248.8061 248.9331 0.1270 120
1 E4 249.0520 249.1544 0.1025 117
1 D#4 249.1749 249.3716 0.1967 110
1 C#4 249.4208 249.7487 0.3279 114
1 E4 249.9126 250.1012 0.1885 109
1 D#4 250.1585 250.2774 0.1189 118
1 C#4 250.4044 250.5233 0.1189 99
1 B3 250.5274 250.6995 0.1721 115
1 E4 250.7733 250.9003 0.1270 108
1 D#4 251.0192 251.1462 0.1270 113
1 C#4 251.2651 251.6462 0.3811 111
1 E4 251.7569 252.0725 0.3156 120
1 D#4 252.1257 252.1913 0.0656 101
1 D#4 252.2487 252.3184 0.0697 111
1 C#4 252.3716 252.4454 0.0738 112
1 C#4 252.4946 252.5848 0.0902 113
1 B3 252.6175 252.6995 0.0820 116
1 E4 252.7405 252.8675 0.1270 120
1 E4 252.9864 253.0889 0.1025 117
1 D#4 253.1093 253.3061 0.1967 110
1 C#4 253.3553 253.6831 0.3279 114
1 E4 253.8471 254.0356 0.1885 109
1 D#4 254.0930 254.2118 0.1189 118
1 C#4 254.3389 254.4577 0.1189 99
1 B3 254.4618 254.6339 0.1721 115
1 E4 254.7077 254.8348 0.1270 108
1 D#4 254.9536 255.0807 0.1270 113
1 C#4 255.1995 255.5807 0.3811 111
1 E4 255.6913 256.0069 0.3156 120
1 D#4 256.0602 256.1257 0.0656 101
1 D#4 256.1831 256.2528 0.0697 111
1 C#4 256.3061 256.3798 0.0738 112
1 C#4 256.4290 256.5192 0.0902 113
1 B3 256.5520 256.6339 0.0820 116
1 E4 256.6749 256.8020 0.1270 120
1 E4 256.9208 257.0233 0.1025 117
1 D#4 257.0438 257.2405 0.1967 110
1 C#4 257.2897 257.6175 0.3279 114
2 C#3 4.4610 5.5297 1.0688 92
2 G#3 4.7398 5.1487 0.4089 77
2 C#4 5.0186 5.7203 0.7017 71
2 E4 5.0186 5.7203 0.7017 91
2 G#3 5.2974 5.5762 0.2788 82
2 C#3 5.5762 6.4777 0.9015 93
2 G#3 5.8550 6.4638 0.6087 96
2 E4 6.1338 6.4870 0.3532 93
2 C#4 6.1338 6.5102 0.3764 65
2 E3 6.6915 7.5604 0.8690 87
2 B3 6.9703 7.3002 0.3299 68
2 G#4 7.2491 7.8020 0.5530 82
2 E4 7.2491 7.8067 0.5576 87
2 B3 7.5279 7.8206 0.2928 95
2 E3 7.8067 8.7314 0.9247 89
2 B3 8.0855 8.4108 0.3253 75
2 G#4 8.3643 8.8336 0.4693 82
2 E4 8.3643 8.8429 0.4786 89
2 B3 8.6431 8.8615 0.2184 81
2 B2 8.9219 9.8327 0.9108 91
2 B3 9.2007 9.6422 0.4414 85
2 F#4 9.4796 10.0465 0.5669 80
2 D#4 9.4796 10.0976 0.6180 77
2 B3 9.7584 10.0604 0.3020 87
2 B2 10.0372 10.7435 0.7063 91
2 B3 10.3160 10.8783 0.5623 81
2 D#4 10.5948 10.8643 0.2695 77
2 F#4 10.5948 10.8643 0.2695 80
2 A2 11.1524 12.0771 0.9247 97
2 A3 11.4312 11.8076 0.3764 89
2 E4 11.7100 12.2723 0.5623 95
2 C#4 11.7100 12.3420 0.6320 77
2 A3 11.9889 12.2816 0.2928 91
2 A2 12.2677 13.0809 0.8132 95
2 A3 12.5465 12.8764 0.3299 95
2 E4 12.8253 13.1180 0.2928 91
2 C#4 12.8253 13.1180 0.2928 80
2 A3 13.1041 13.2296 0.1255 103
2 C#3 13.3829 14.4517 1.0688 92
2 G#3 13.6617 14.0706 0.4089 77
2 C#4 13.9405 14.6422 0.7017 71
2 E4 13.9405 14.6422 0.7017 91
2 G#3 14.2193 14.4981 0.2788 82
2 C#3 14.4981 15.3996 0.9015 93
2 G#3 14.7770 15.3857 0.6087 96
2 E4 15.0558 15.4089 0.3532 93
2 C#4 15.0558 15.4322 0.3764 65
2 E3 15.6134 16.4823 0.8690 87
2 B3 15.8922 16.2221 0.3299 68
2 G#4 16.1710 16.7240 0.5530 82
2 E4 16.1710 16.7286 0.5576 87
2 B3 16.4498 16.7426 0.2928 95
2 E3 16.7286 17.6534 0.9247 89
2 B3 17.0074 17.3327 0.3253 75
2 G#4 17.2863 17.7556 0.4693 82
2 E4 17.2863 17.7649 0.4786 89
2 B3 17.5651 17.7835 0.2184 81
2 B2 17.8439 18.7547 0.9108 91
2 B3 18.1227 18.5641 0.4414 85
2 F#4 18.4015 18.9684 0.5669 80
2 D#4 18.4015 19.0195 0.6180 77
2 B3 18.6803 18.9823 0.3020 87
2 B2 18.9591 19.6654 0.7063 91
2 B3 19.2379 19.8002 0.5623 81
2 F#4 19.5167 19.7863 0.2695 80
2 D#4 19.5167 19.7863 0.2695 77
2 A2 20.0744 20.9991 0.9247 97
2 A3 20.3532 20.7296 0.3764 89
2 E4 20.6320 21.1942 0.5623 95
2 C#4 20.6320 21.2639 0.6320 77
2 A3 20.9108 21.2035 0.2928 91
2 A2 21.1896 22.0028 0.8132 95
2 A3 21.4684 21.7983 0.3299 95
2 C#4 21.7472 22.0400 0.2928 80
2 E4 21.7472 22.0400 0.2928 91
2 A3 22.0260 22.1515 0.1255 103
2 A2 22.3048 23.2667 0.9619 80
2 A3 22.5837 22.9647 0.3810 83
2 E4 22.8625 23.5409 0.6784 83
2 C#4 22.8625 23.6942 0.8318 74
2 A3 23.1413 23.4712 0.3299 85
2 A2 23.4201 25.3021 1.8820 93
2 A3 23.6989 25.3671 1.6682 83
2 E4 23.9777 24.3355 0.3578 91
2 C#4 23.9777 24.3541 0.3764 74
2 C#3 26.6341 27.0070 0.3730 90
2 G#4 26.8800 27.0480 0.1680 90
2 C#4 26.8800 27.0644 0.1844 90
2 E4 26.8800 27.0767 0.1967 90
2 C#3 27.1259 27.4373 0.3115 90
2 G#4 27.3718 27.5849 0.2131 90
2 C#4 27.3718 27.6095 0.2377 90
2 E4 27.3718 27.6177 0.2459 90
2 C#3 27.6177 27.9578 0.3402 90
2 G#4 27.8636 28.0644 0.2008 90
2 C#4 27.8636 28.1013 0.2377 90
2 E4 27.8636 28.1013 0.2377 90
2 G#4 28.1095 28.3800 0.2705 90
2 C#3 28.1095 28.4046 0.2951 90
2 C#4 28.1095 28.4169 0.3074 90
2 E4 28.1095 28.4169 0.3074 90
2 E3 28.6013 28.9005 0.2992 90
2 G#4 28.8472 29.0685 0.2213 90
2 B3 28.8472 29.0767 0.2295 90
2 E4 28.8472 29.1095 0.2623 90
2 E3 29.0931 29.3718 0.2787 90
2 G#4 29.3390 29.5480 0.2090 90
2 B3 29.3390 29.5767 0.2377 90
2 E4 29.3390 29.6013 0.2623 90
2 E3 29.5849 29.9005 0.3156 90
2 G#4 29.8308 30.0357 0.2049 90
2 B3 29.8308 30.0685 0.2377 90
2 E4 29.8308 30.1218 0.2910 90
2 E3 30.0767 30.4210 0.3443 90
2 G#4 30.3226 30.5521 0.2295 90
2 B3 30.3226 30.5767 0.2541 90
2 E4 30.3226 30.5890 0.2664 90
2 B2 30.5685 30.9005 0.3320 90
2 B3 30.8144 31.0480 0.2336 90
2 D#4 30.8144 31.0562 0.2418 90
2 F#4 30.8144 31.0562 0.2418 90
2 B2 31.0603 31.3636 0.3033 90
2 F#4 31.3062 31.5357 0.2295 90
2 D#4 31.3062 31.5439 0.2377 90
2 B3 31.3062 31.5562 0.2500 90
2 B2 31.5521 31.8882 0.3361 90
2 F#4 31.7980 32.0152 0.2172 90
2 B3 31.7980 32.0521 0.2541 90
2 D#4 31.7980 32.0521 0.2541 90
2 B2 32.0439 32.4701 0.4262 90
2 D#4 32.2898 32.4783 0.1885 90
2 F#4 32.2898 32.4947 0.2049 90
2 B3 32.2898 32.4988 0.2090 90
2 A2 32.5357 32.8513 0.3156 90
2 C#4 32.7816 33.0029 0.2213 90
2 A3 32.7816 33.0193 0.2377 90
2 E4 32.7816 33.0193 0.2377 90
2 A2 33.0275 33.3308 0.3033 90
2 C#4 33.2734 33.5111 0.2377 90
2 A3 33.2734 33.5316 0.2582 90
2 E4 33.2734 33.5316 0.2582 90
2 A2 33.5193 33.8636 0.3443 90
2 C#4 33.7652 33.9701 0.2049 90
2 G#4 33.7652 33.9742 0.2090 90
2 A3 33.7652 33.9783 0.2131 90
2 E4 33.7652 33.9824 0.2172 90
2 A2 34.0111 34.3267 0.3156 90
2 A3 34.2570 34.4701 0.2131 90
2 C#4 34.2570 34.4783 0.2213 90
2 G#4 34.2570 34.4865 0.2295 90
2 E4 34.2570 34.4988 0.2418 90
2 C#3 34.5029 34.8390 0.3361 90
2 G#4 34.7488 34.8677 0.1189 90
2 C#4 34.7488 34.8677 0.1189 90
2 E4 34.7488 34.8759 0.1270 90
2 E4 34.8718 34.8759 0.0041 96
2 G#4 34.8718 34.9906 0.1189 96
2 C#4 34.8718 34.9906 0.1189 96
2 C#3 34.9947 35.3062 0.3115 90
2 G#4 35.2406 35.3595 0.1189 90
2 C#4 35.2406 35.3595 0.1189 90
2 E4 35.2406 35.3677 0.1270 90
2 E4 35.3636 35.3677 0.0041 96
2 G#4 35.3636 35.4824 0.1189 96
2 C#4 35.3636 35.4824 0.1189 96
2 C#3 35.4865 35.8103 0.3238 90
2 G#4 35.7324 35.8513 0.1189 90
2 C#4 35.7324 35.8513 0.1189 90
2 E4 35.7324 35.8595 0.1270 90
2 E4 35.8554 35.8595 0.0041 96
2 G#4 35.8554 35.9742 0.1189 96
2 C#4 35.8554 35.9742 0.1189 96
2 C#3 35.9783 36.3964 0.4180 90
2 G#4 36.2242 36.3431 0.1189 90
2 C#4 36.2242 36.3431 0.1189 90
2 E4 36.2242 36.3513 0.1270 90
2 E4 36.3472 36.3513 0.0041 96
2 C#4 36.3472 36.4660 0.1189 96
2 G#4 36.3472 36.4660 0.1189 96
2 E3 36.4701 36.7775 0.3074 90
2 G#4 36.7160 36.8349 0.1189 90
2 B3 36.7160 36.8349 0.1189 90
2 E4 36.7160 36.8431 0.1270 90
2 E4 36.8390 36.8431 0.0041 96
2 G#4 36.8390 36.9578 0.1189 96
2 B3 36.8390 36.9578 0.1189 96
2 E3 36.9619 37.2652 0.3033 90
2 G#4 37.2078 37.3267 0.1189 90
2 B3 37.2078 37.3267 0.1189 90
2 E4 37.2078 37.3349 0.1270 90
2 E4 37.3308 37.3349 0.0041 96
2 G#4 37.3308 37.4496 0.1189 96
2 B3 37.3308 37.4496 0.1189 96
2 E3 37.4537 37.7488 0.2951 90
2 G#4 37.6996 37.8185 0.1189 90
2 E4 37.6996 37.8185 0.1189 90
2 B3 37.6996 37.8185 0.1189 90
2 B3 37.8226 37.9414 0.1189 96
2 G#4 37.8226 37.9414 0.1189 96
2 E4 37.8226 37.9496 0.1270 96
2 E3 37.9455 38.3103 0.3648 90
2 G#4 38.1914 38.3103 0.1189 90
2 B3 38.1914 38.3103 0.1189 90
2 E4 38.1914 38.3185 0.1270 90
2 E4 38.3144 38.3185 0.0041 96
2 B3 38.3144 38.4332 0.1189 96
2 G#4 38.3144 38.4332 0.1189 96
2 B2 38.4373 38.7775 0.3402 90
2 F#4 38.6832 38.8021 0.1189 90
2 B3 38.6832 38.8021 0.1189 90
2 G#4 38.6832 38.8021 0.1189 78
2 D#4 38.6832 38.8103 0.1270 90
2 D#4 38.8062 38.8103 0.0041 96
2 F#4 38.8062 38.9250 0.1189 96
2 B3 38.8062 38.9250 0.1189 96
2 G#4 38.8062 38.9250 0.1189 84
2 B2 38.9291 39.2078 0.2787 90
2 F#4 39.1750 39.2939 0.1189 90
2 B3 39.1750 39.2939 0.1189 90
2 G#4 39.1750 39.2939 0.1189 78
2 D#4 39.1750 39.3021 0.1270 90
2 D#4 39.2980 39.3021 0.0041 96
2 F#4 39.2980 39.4168 0.1189 96
2 B3 39.2980 39.4168 0.1189 96
2 G#4 39.2980 39.4168 0.1189 84
2 B2 39.4209 39.6996 0.2787 90
2 F#4 39.6668 39.7857 0.1189 90
2 B3 39.6668 39.7857 0.1189 90
2 G#4 39.6668 39.7857 0.1189 78
2 D#4 39.6668 39.7939 0.1270 90
2 D#4 39.7898 39.7939 0.0041 96
2 F#4 39.7898 39.9087 0.1189 96
2 B3 39.7898 39.9087 0.1189 96
2 G#4 39.7898 39.9087 0.1189 84
2 B2 39.9127 40.2488 0.3361 90
2 F#4 40.1587 40.2775 0.1189 90
2 B3 40.1587 40.2775 0.1189 90
2 G#4 40.1587 40.2775 0.1189 78
2 D#4 40.1587 40.2857 0.1270 90
2 D#4 40.2816 40.2857 0.0041 96
2 B3 40.2816 40.4005 0.1189 96
2 F#4 40.2816 40.4005 0.1189 96
2 G#4 40.2816 40.4005 0.1189 84
2 A2 40.4046 40.6996 0.2951 90
2 E4 40.6505 40.7693 0.1189 90
2 A3 40.6505 40.7693 0.1189 90
2 C#4 40.6505 40.7775 0.1270 90
2 C#4 40.7734 40.7775 0.0041 96
2 A3 40.7734 40.8923 0.1189 96
2 E4 40.7734 40.8923 0.1189 96
2 A2 40.8964 41.2242 0.3279 90
2 E4 41.1423 41.2611 0.1189 90
2 A3 41.1423 41.2611 0.1189 90
2 C#4 41.1423 41.2693 0.1270 90
2 C#4 41.2652 41.2693 0.0041 96
2 E4 41.2652 41.3841 0.1189 96
2 A3 41.2652 41.3841 0.1189 96
2 A2 41.3882 41.7119 0.3238 90
2 E4 41.6341 41.7529 0.1189 90
2 A3 41.6341 41.7529 0.1189 90
2 G#4 41.6341 41.7529 0.1189 83
2 C#4 41.6341 41.7611 0.1270 90
2 C#4 41.7570 41.7611 0.0041 96
2 E4 41.7570 41.8759 0.1189 96
2 A3 41.7570 41.8759 0.1189 96
2 G#4 41.7570 41.8759 0.1189 89
2 A2 41.8800 42.1668 0.2869 90
2 A3 42.1259 42.2447 0.1189 90
2 G#4 42.1259 42.2447 0.1189 83
2 E4 42.1259 42.2447 0.1189 90
2 C#4 42.1259 42.2529 0.1270 90
2 C#4 42.2488 42.2529 0.0041 96
2 E4 42.2488 42.3677 0.1189 96
2 G#4 42.2488 42.3677 0.1189 89
2 A3 42.2488 42.3677 0.1189 96
2 G#4 42.6177 42.8103 0.1926 90
2 C#4 42.6177 42.8267 0.2090 90
2 E4 42.6177 42.8472 0.2295 90
2 G#4 43.1095 43.3185 0.2090 90
2 C#4 43.1095 43.3472 0.2377 90
2 E4 43.1095 43.3595 0.2500 90
2 G#4 43.6013 43.7816 0.1803 90
2 C#4 43.6013 43.8390 0.2377 90
2 E4 43.6013 43.8554 0.2541 90
2 G#4 44.0931 44.2734 0.1803 90
2 E4 44.0931 44.2857 0.1926 90
2 C#4 44.0931 44.3021 0.2090 90
2 G#4 44.5849 44.7939 0.2090 90
2 B3 44.5849 44.8144 0.2295 90
2 E4 44.5849 44.8308 0.2459 90
2 G#4 45.0767 45.2857 0.2090 90
2 B3 45.0767 45.3103 0.2336 90
2 E4 45.0767 45.3431 0.2664 90
2 G#4 45.5685 45.7447 0.1762 90
2 B3 45.5685 45.7734 0.2049 90
2 E4 45.5685 45.8267 0.2582 90
2 G#4 46.0603 46.2160 0.1557 90
2 B3 46.0603 46.2570 0.1967 90
2 E4 46.0603 46.2898 0.2295 90
2 F#4 46.5521 46.7611 0.2090 90
2 D#4 46.5521 46.7652 0.2131 90
2 B3 46.5521 46.7734 0.2213 90
2 F#4 47.0439 47.2734 0.2295 90
2 D#4 47.0439 47.2816 0.2377 90
2 B3 47.0439 47.2857 0.2418 90
2 F#4 47.5357 47.7529 0.2172 90
2 D#4 47.5357 47.7652 0.2295 90
2 B3 47.5357 47.7652 0.2295 90
2 F#4 48.0275 48.2160 0.1885 90
2 D#4 48.0275 48.2283 0.2008 90
2 B3 48.0275 48.2365 0.2090 90
2 C#4 48.5193 48.7406 0.2213 90
2 A3 48.5193 48.7693 0.2500 90
2 E4 48.5193 48.7734 0.2541 90
2 C#4 49.0111 49.2242 0.2131 90
2 E4 49.0111 49.2406 0.2295 90
2 A3 49.0111 49.2447 0.2336 90
2 G#4 49.5029 49.6791 0.1762 90
2 C#4 49.5029 49.6791 0.1762 90
2 A3 49.5029 49.6914 0.1885 90
2 E4 49.5029 49.7119 0.2090 90
2 A3 49.9947 50.1750 0.1803 90
2 C#4 49.9947 50.1914 0.1967 90
2 G#4 49.9947 50.2037 0.2090 90
2 E4 49.9947 50.2201 0.2254 90
2 G#4 50.4865 50.6791 0.1926 90
2 C#4 50.4865 50.6955 0.2090 90
2 E4 50.4865 50.7160 0.2295 90
2 G#4 50.9783 51.1873 0.2090 90
2 C#4 50.9783 51.2160 0.2377 90
2 E4 50.9783 51.2283 0.2500 90
2 G#4 51.4701 51.6504 0.1803 90
2 C#4 51.4701 51.7078 0.2377 90
2 E4 51.4701 51.7242 0.2541 90
2 G#4 51.9619 52.1423 0.1803 90
2 E4 51.9619 52.1545 0.1926 90
2 C#4 51.9619 52.1709 0.2090 90
2 G#4 52.4537 52.6627 0.2090 90
2 B3 52.4537 52.6832 0.2295 90
2 E4 52.4537 52.6996 0.2459 90
2 G#4 52.9455 53.1545 0.2090 90
2 B3 52.9455 53.1791 0.2336 90
2 E4 52.9455 53.2119 0.2664 90
2 G#4 53.4373 53.6136 0.1762 90
2 B3 53.4373 53.6422 0.2049 90
2 E4 53.4373 53.6955 0.2582 90
2 G#4 53.9291 54.0849 0.1557 90
2 B3 53.9291 54.1259 0.1967 90
2 E4 53.9291 54.1586 0.2295 90
2 F#4 54.4209 54.6300 0.2090 90
2 D#4 54.4209 54.6341 0.2131 90
2 B3 54.4209 54.6422 0.2213 90
2 F#4 54.9127 55.1422 0.2295 90
2 D#4 54.9127 55.1504 0.2377 90
2 B3 54.9127 55.1545 0.2418 90
2 F#4 55.4045 55.6218 0.2172 90
2 D#4 55.4045 55.6341 0.2295 90
2 B3 55.4045 55.6341 0.2295 90
2 F#4 55.8963 56.0849 0.1885 90
2 D#4 55.8963 56.0972 0.2008 90
2 B3 55.8963 56.1054 0.2090 90
2 C#4 56.3881 56.6095 0.2213 90
2 A3 56.3881 56.6381 0.2500 90
2 E4 56.3881 56.6422 0.2541 90
2 C#4 56.8800 57.0931 0.2131 90
2 E4 56.8800 57.1095 0.2295 90
2 A3 56.8800 57.1136 0.2336 90
2 G#4 57.3718 57.5480 0.1762 90
2 C#4 57.3718 57.5480 0.1762 90
2 A3 57.3718 57.5603 0.1885 90
2 E4 57.3718 57.5808 0.2090 90
2 A3 57.8636 58.0439 0.1803 90
2 C#4 57.8636 58.0603 0.1967 90
2 G#4 57.8636 58.0726 0.2090 90
2 E4 57.8636 58.0890 0.2254 90
2 G#4 58.3554 58.5480 0.1926 90
2 C#4 58.3554 58.5644 0.2090 90
2 E4 58.3554 58.5849 0.2295 90
2 G#4 58.8472 59.0562 0.2090 90
2 C#4 58.8472 59.0849 0.2377 90
2 E4 58.8472 59.0972 0.2500 90
2 G#4 59.3390 59.5193 0.1803 90
2 C#4 59.3390 59.5767 0.2377 90
2 E4 59.3390 59.5931 0.2541 90
2 G#4 59.8308 60.0111 0.1803 90
2 E4 59.8308 60.0234 0.1926 90
2 C#4 59.8308 60.0398 0.2090 90
2 G#4 60.3226 60.5316 0.2090 90
2 B3 60.3226 60.5521 0.2295 90
2 E4 60.3226 60.5685 0.2459 90
2 G#4 60.8144 61.0234 0.2090 90
2 B3 60.8144 61.0480 0.2336 90
2 E4 60.8144 61.0808 0.2664 90
2 G#4 61.3062 61.4824 0.1762 90
2 B3 61.3062 61.5111 0.2049 90
2 E4 61.3062 61.5644 0.2582 90
2 G#4 61.7980 61.9537 0.1557 90
2 B3 61.7980 61.9947 0.1967 90
2 E4 61.7980 62.0275 0.2295 90
2 F#4 62.2898 62.4988 0.2090 90
2 D#4 62.2898 62.5029 0.2131 90
2 B3 62.2898 62.5111 0.2213 90
2 F#4 62.7816 63.0111 0.2295 90
2 D#4 62.7816 63.0193 0.2377 90
2 B3 62.7816 63.0234 0.2418 90
2 F#4 63.2734 63.4906 0.2172 90
2 B3 63.2734 63.5029 0.2295 90
2 D#4 63.2734 63.5029 0.2295 90
2 F#4 63.7652 63.9537 0.1885 90
2 D#4 63.7652 63.9660 0.2008 90
2 B3 63.7652 63.9742 0.2090 90
2 C#4 64.2570 64.4783 0.2213 90
2 A3 64.2570 64.5070 0.2500 90
2 E4 64.2570 64.5111 0.2541 90
2 C#4 64.7488 64.9619 0.2131 90
2 E4 64.7488 64.9783 0.2295 90
2 A3 64.7488 64.9824 0.2336 90
2 G#4 65.2406 65.4168 0.1762 90
2 C#4 65.2406 65.4168 0.1762 90
2 A3 65.2406 65.4291 0.1885 90
2 E4 65.2406 65.4496 0.2090 90
2 A3 65.7324 65.9127 0.1803 90
2 C#4 65.7324 65.9291 0.1967 90
2 G#4 65.7324 65.9414 0.2090 90
2 E4 65.7324 65.9578 0.2254 90
2 G#4 66.2242 66.4168 0.1926 90
2 C#4 66.2242 66.4332 0.2090 90
2 E4 66.2242 66.4537 0.2295 90
2 G#4 66.7160 66.9250 0.2090 90
2 C#4 66.7160 66.9537 0.2377 90
2 E4 66.7160 66.9660 0.2500 90
2 G#4 67.2078 67.3881 0.1803 90
2 C#4 67.2078 67.4455 0.2377 90
2 E4 67.2078 67.4619 0.2541 90
2 G#4 67.6996 67.8799 0.1803 90
2 E4 67.6996 67.8922 0.1926 90
2 C#4 67.6996 67.9086 0.2090 90
2 G#4 68.1914 68.4004 0.2090 90
2 B3 68.1914 68.4209 0.2295 90
2 E4 68.1914 68.4373 0.2459 90
2 G#4 68.6832 68.8922 0.2090 90
2 B3 68.6832 68.9168 0.2336 90
2 E4 68.6832 68.9496 0.2664 90
2 G#4 69.1750 69.3513 0.1762 90
2 B3 69.1750 69.3799 0.2049 90
2 E4 69.1750 69.4332 0.2582 90
2 G#4 69.6668 69.8226 0.1557 90
2 B3 69.6668 69.8636 0.1967 90
2 E4 69.6668 69.8963 0.2295 90
2 F#4 70.1586 70.3677 0.2090 90
2 D#4 70.1586 70.3717 0.2131 90
2 B3 70.1586 70.3799 0.2213 90
2 F#4 70.6504 70.8799 0.2295 90
2 D#4 70.6504 70.8881 0.2377 90
2 B3 70.6504 70.8922 0.2418 90
2 F#4 71.1422 71.3595 0.2172 90
2 B3 71.1422 71.3717 0.2295 90
2 D#4 71.1422 71.3717 0.2295 90
2 F#4 71.6340 71.8226 0.1885 90
2 D#4 71.6340 71.8349 0.2008 90
2 B3 71.6340 71.8431 0.2090 90
2 C#4 72.1258 72.3472 0.2213 90
2 A3 72.1258 72.3758 0.2500 90
2 E4 72.1258 72.3799 0.2541 90
2 C#4 72.6176 72.8308 0.2131 90
2 E4 72.6176 72.8472 0.2295 90
2 A3 72.6176 72.8513 0.2336 90
2 G#4 73.1095 73.2857 0.1762 90
2 C#4 73.1095 73.2857 0.1762 90
2 A3 73.1095 73.2980 0.1885 90
2 E4 73.1095 73.3185 0.2090 90
2 A3 73.6013 73.7816 0.1803 90
2 C#4 73.6013 73.7980 0.1967 90
2 G#4 73.6013 73.8103 0.2090 90
2 E4 73.6013 73.8267 0.2254 90
2 C#4 74.0931 74.3144 0.2213 90
2 A3 74.0931 74.3431 0.2500 90
2 E4 74.0931 74.3472 0.2541 90
2 C#4 74.5849 74.7980 0.2131 90
2 E4 74.5849 74.8144 0.2295 90
2 A3 74.5849 74.8185 0.2336 90
2 C#4 75.0767 75.2529 0.1762 90
2 G#4 75.0767 75.2529 0.1762 90
2 A3 75.0767 75.2652 0.1885 90
2 E4 75.0767 75.2857 0.2090 90
2 A3 75.5685 75.7488 0.1803 90
2 C#4 75.5685 75.7652 0.1967 90
2 G#4 75.5685 75.7775 0.2090 90
2 E4 75.5685 75.7939 0.2254 90
2 C#4 76.0603 76.2816 0.2213 90
2 A3 76.0603 76.3103 0.2500 90
2 E4 76.0603 76.3144 0.2541 90
2 C#4 76.5521 76.7652 0.2131 90
2 E4 76.5521 76.7816 0.2295 90
2 A3 76.5521 76.7857 0.2336 90
2 C#4 77.0439 77.2201 0.1762 90
2 G#4 77.0439 77.2201 0.1762 90
2 A3 77.0439 77.2324 0.1885 90
2 E4 77.0439 77.2529 0.2090 90
2 A3 77.5357 77.7160 0.1803 90
2 C#4 77.5357 77.7324 0.1967 90
2 G#4 77.5357 77.7447 0.2090 90
2 E4 77.5357 77.7611 0.2254 90
2 C#3 81.7160 82.0521 0.3361 90
2 G#4 81.9619 82.1545 0.1926 90
2 C#4 81.9619 82.1709 0.2090 90
2 E4 81.9619 82.1914 0.2295 90
2 C#3 82.2078 82.5193 0.3115 90
2 G#4 82.4537 82.6627 0.2090 90
2 C#4 82.4537 82.6914 0.2377 90
2 E4 82.4537 82.7037 0.2500 90
2 C#3 82.6996 83.0234 0.3238 90
2 G#4 82.9455 83.1258 0.1803 90
2 C#4 82.9455 83.1832 0.2377 90
2 E4 82.9455 83.1996 0.2541 90
2 C#3 83.1914 83.6094 0.4180 90
2 G#4 83.4373 83.6176 0.1803 90
2 E4 83.4373 83.6299 0.1926 90
2 C#4 83.4373 83.6463 0.2090 90
2 E3 83.6832 83.9906 0.3074 90
2 G#4 83.9291 84.1381 0.2090 90
2 B3 83.9291 84.1586 0.2295 90
2 E4 83.9291 84.1750 0.2459 90
2 E3 84.1750 84.4783 0.3033 90
2 G#4 84.4209 84.6299 0.2090 90
2 B3 84.4209 84.6545 0.2336 90
2 E4 84.4209 84.6873 0.2664 90
2 E3 84.6668 84.9619 0.2951 90
2 B3 84.9127 85.0316 0.1189 90
2 G#4 84.9127 85.0316 0.1189 90
2 E4 84.9127 85.0398 0.1270 90
2 E4 85.0357 85.0398 0.0041 96
2 G#4 85.0357 85.1545 0.1189 96
2 B3 85.0357 85.1545 0.1189 96
2 E3 85.1586 85.5234 0.3648 90
2 G#4 85.4045 85.5603 0.1557 90
2 B3 85.4045 85.6012 0.1967 90
2 E4 85.4045 85.6340 0.2295 90
2 B2 85.6504 85.9906 0.3402 90
2 F#4 85.8963 86.1053 0.2090 90
2 D#4 85.8963 86.1094 0.2131 90
2 B3 85.8963 86.1176 0.2213 90
2 B2 86.1422 86.4209 0.2787 90
2 F#4 86.3881 86.6176 0.2295 90
2 D#4 86.3881 86.6258 0.2377 90
2 B3 86.3881 86.6299 0.2418 90
2 B2 86.6340 86.9127 0.2787 90
2 F#4 86.8799 87.0971 0.2172 90
2 B3 86.8799 87.1094 0.2295 90
2 D#4 86.8799 87.1094 0.2295 90
2 B2 87.1258 87.4619 0.3361 90
2 F#4 87.3717 87.5603 0.1885 90
2 D#4 87.3717 87.5726 0.2008 90
2 B3 87.3717 87.5808 0.2090 90
2 A2 87.6176 87.9127 0.2951 90
2 C#4 87.8635 88.0849 0.2213 90
2 A3 87.8635 88.1135 0.2500 90
2 E4 87.8635 88.1176 0.2541 90
2 A2 88.1094 88.4373 0.3279 90
2 C#4 88.3553 88.5685 0.2131 90
2 E4 88.3553 88.5849 0.2295 90
2 A3 88.3553 88.5890 0.2336 90
2 A2 88.6012 88.9250 0.3238 90
2 G#4 88.8471 89.0234 0.1762 90
2 C#4 88.8471 89.0234 0.1762 90
2 A3 88.8471 89.0357 0.1885 90
2 E4 88.8471 89.0562 0.2090 90
2 A2 89.0930 89.3799 0.2869 90
2 A3 89.3390 89.5193 0.1803 90
2 C#4 89.3390 89.5357 0.1967 90
2 G#4 89.3390 89.5480 0.2090 90
2 E4 89.3390 89.5644 0.2254 90
2 C#3 89.5849 89.9209 0.3361 90
2 G#4 89.8308 90.0234 0.1926 90
2 C#4 89.8308 90.0398 0.2090 90
2 E4 89.8308 90.0603 0.2295 90
2 C#3 90.0767 90.3881 0.3115 90
2 G#4 90.3226 90.5316 0.2090 90
2 C#4 90.3226 90.5603 0.2377 90
2 E4 90.3226 90.5726 0.2500 90
2 C#3 90.5685 90.8922 0.3238 90
2 G#4 90.8144 90.9947 0.1803 90
2 C#4 90.8144 91.0521 0.2377 90
2 E4 90.8144 91.0685 0.2541 90
2 C#3 91.0603 91.4783 0.4180 90
2 G#4 91.3062 91.4865 0.1803 90
2 E4 91.3062 91.4988 0.1926 90
2 C#4 91.3062 91.5152 0.2090 90
2 E3 91.5521 91.8594 0.3074 90
2 G#4 91.7980 92.0070 0.2090 90
2 B3 91.7980 92.0275 0.2295 90
2 E4 91.7980 92.0439 0.2459 90
2 E3 92.0439 92.3471 0.3033 90
2 G#4 92.2898 92.4988 0.2090 90
2 B3 92.2898 92.5234 0.2336 90
2 E4 92.2898 92.5562 0.2664 90
2 E3 92.5357 92.8308 0.2951 90
2 G#4 92.7816 92.9578 0.1762 90
2 B3 92.7816 92.9865 0.2049 90
2 E4 92.7816 93.0398 0.2582 90
2 E3 93.0275 93.3922 0.3648 90
2 G#4 93.2734 93.4291 0.1557 90
2 B3 93.2734 93.4701 0.1967 90
2 E4 93.2734 93.5029 0.2295 90
2 B2 93.5193 93.8594 0.3402 90
2 F#4 93.7652 93.9742 0.2090 90
2 D#4 93.7652 93.9783 0.2131 90
2 B3 93.7652 93.9865 0.2213 90
2 B2 94.0111 94.2898 0.2787 90
2 F#4 94.2570 94.4865 0.2295 90
2 D#4 94.2570 94.4947 0.2377 90
2 B3 94.2570 94.4988 0.2418 90
2 B2 94.5029 94.7816 0.2787 90
2 F#4 94.7488 94.9660 0.2172 90
2 B3 94.7488 94.9783 0.2295 90
2 D#4 94.7488 94.9783 0.2295 90
2 B2 94.9947 95.3308 0.3361 90
2 F#4 95.2406 95.4291 0.1885 90
2 D#4 95.2406 95.4414 0.2008 90
2 B3 95.2406 95.4496 0.2090 90
2 A2 95.4865 95.7816 0.2951 90
2 C#4 95.7324 95.9537 0.2213 90
2 A3 95.7324 95.9824 0.2500 90
2 E4 95.7324 95.9865 0.2541 90
2 A2 95.9783 96.3062 0.3279 90
2 C#4 96.2242 96.4373 0.2131 90
2 E4 96.2242 96.4537 0.2295 90
2 A3 96.2242 96.4578 0.2336 90
2 A2 96.4701 96.7939 0.3238 90
2 G#4 96.7160 96.8922 0.1762 90
2 C#4 96.7160 96.8922 0.1762 90
2 A3 96.7160 96.9045 0.1885 90
2 E4 96.7160 96.9250 0.2090 90
2 A2 96.9619 97.2488 0.2869 90
2 A3 97.2078 97.3881 0.1803 90
2 C#4 97.2078 97.4045 0.1967 90
2 G#4 97.2078 97.4168 0.2090 90
2 E4 97.2078 97.4332 0.2254 90
2 C#3 97.4537 97.7898 0.3361 90
2 G#4 97.6996 97.8185 0.1189 90
2 C#4 97.6996 97.8185 0.1189 90
2 E4 97.6996 97.8267 0.1270 90
2 E4 97.8226 97.8267 0.0041 96
2 G#4 97.8226 97.9414 0.1189 96
2 C#4 97.8226 97.9414 0.1189 96
2 C#3 97.9455 98.2570 0.3115 90
2 G#4 98.1914 98.3103 0.1189 90
2 C#4 98.1914 98.3103 0.1189 90
2 E4 98.1914 98.3185 0.1270 90
2 E4 98.3144 98.3185 0.0041 96
2 G#4 98.3144 98.4332 0.1189 96
2 C#4 98.3144 98.4332 0.1189 96
2 C#3 98.4373 98.7611 0.3238 90
2 G#4 98.6832 98.8021 0.1189 90
2 C#4 98.6832 98.8021 0.1189 90
2 E4 98.6832 98.8103 0.1270 90
2 E4 98.8062 98.8103 0.0041 96
2 G#4 98.8062 98.9250 0.1189 96
2 C#4 98.8062 98.9250 0.1189 96
2 C#3 98.9291 99.3471 0.4180 90
2 G#4 99.1750 99.2939 0.1189 90
2 C#4 99.1750 99.2939 0.1189 90
2 E4 99.1750 99.3021 0.1270 90
2 E4 99.2980 99.3021 0.0041 96
2 G#4 99.2980 99.4168 0.1189 96
2 C#4 99.2980 99.4168 0.1189 96
2 E3 99.4209 99.7283 0.3074 90
2 B3 99.6668 99.7857 0.1189 90
2 G#4 99.6668 99.7857 0.1189 90
2 E4 99.6668 99.7939 0.1270 90
2 E4 99.7898 99.7939 0.0041 96
2 G#4 99.7898 99.9086 0.1189 96
2 B3 99.7898 99.9086 0.1189 96
2 E3 99.9127 100.2160 0.3033 90
2 G#4 100.1586 100.2775 0.1189 90
2 B3 100.1586 100.2775 0.1189 90
2 E4 100.1586 100.2857 0.1270 90
2 E4 100.2816 100.2857 0.0041 96
2 B3 100.2816 100.4004 0.1189 96
2 G#4 100.2816 100.4004 0.1189 96
2 E3 100.4045 100.6996 0.2951 90
2 G#4 100.6504 100.7693 0.1189 90
2 E4 100.6504 100.7693 0.1189 90
2 B3 100.6504 100.7693 0.1189 90
2 B3 100.7734 100.8922 0.1189 96
2 G#4 100.7734 100.8922 0.1189 96
2 E4 100.7734 100.9004 0.1270 96
2 E3 100.8963 101.2611 0.3648 90
2 G#4 101.1422 101.2611 0.1189 90
2 B3 101.1422 101.2611 0.1189 90
2 E4 101.1422 101.2693 0.1270 90
2 E4 101.2652 101.2693 0.0041 96
2 B3 101.2652 101.3840 0.1189 96
2 G#4 101.2652 101.3840 0.1189 96
2 B2 101.3881 101.7283 0.3402 90
2 B3 101.6340 101.7529 0.1189 90
2 G#4 101.6340 101.7529 0.1189 78
2 F#4 101.6340 101.7529 0.1189 90
2 D#4 101.6340 101.7611 0.1270 90
2 D#4 101.7570 101.7611 0.0041 96
2 G#4 101.7570 101.8758 0.1189 84
2 F#4 101.7570 101.8758 0.1189 96
2 B3 101.7570 101.8758 0.1189 96
2 B2 101.8799 102.1586 0.2787 90
2 F#4 102.1258 102.2447 0.1189 90
2 B3 102.1258 102.2447 0.1189 90
2 G#4 102.1258 102.2447 0.1189 78
2 D#4 102.1258 102.2529 0.1270 90
2 D#4 102.2488 102.2529 0.0041 96
2 F#4 102.2488 102.3676 0.1189 96
2 B3 102.2488 102.3676 0.1189 96
2 G#4 102.2488 102.3676 0.1189 84
2 B2 102.3717 102.6504 0.2787 90
2 B3 102.6176 102.7365 0.1189 90
2 G#4 102.6176 102.7365 0.1189 78
2 F#4 102.6176 102.7365 0.1189 90
2 D#4 102.6176 102.7447 0.1270 90
2 D#4 102.7406 102.7447 0.0041 96
2 F#4 102.7406 102.8594 0.1189 96
2 G#4 102.7406 102.8594 0.1189 84
2 B3 102.7406 102.8594 0.1189 96
2 B2 102.8635 103.1996 0.3361 90
2 B3 103.1094 103.2283 0.1189 90
2 G#4 103.1094 103.2283 0.1189 78
2 F#4 103.1094 103.2283 0.1189 90
2 D#4 103.1094 103.2365 0.1270 90
2 D#4 103.2324 103.2365 0.0041 96
2 B3 103.2324 103.3512 0.1189 96
2 G#4 103.2324 103.3512 0.1189 84
2 F#4 103.2324 103.3512 0.1189 96
2 A2 103.3553 103.6504 0.2951 90
2 E4 103.6012 103.7201 0.1189 90
2 A3 103.6012 103.7201 0.1189 90
2 C#4 103.6012 103.7283 0.1270 90
2 C#4 103.7242 103.7283 0.0041 96
2 E4 103.7242 103.8430 0.1189 96
2 A3 103.7242 103.8430 0.1189 96
2 A2 103.8471 104.1750 0.3279 90
2 E4 104.0930 104.2119 0.1189 90
2 A3 104.0930 104.2119 0.1189 90
2 C#4 104.0930 104.2201 0.1270 90
2 C#4 104.2160 104.2201 0.0041 96
2 E4 104.2160 104.3348 0.1189 96
2 A3 104.2160 104.3348 0.1189 96
2 A2 104.3389 104.6627 0.3238 90
2 G#4 104.5848 104.7037 0.1189 83
2 E4 104.5848 104.7037 0.1189 90
2 A3 104.5848 104.7037 0.1189 90
2 C#4 104.5848 104.7119 0.1270 90
2 C#4 104.7078 104.7119 0.0041 96
2 E4 104.7078 104.8266 0.1189 96
2 G#4 104.7078 104.8266 0.1189 89
2 A3 104.7078 104.8266 0.1189 96
2 A2 104.8307 105.1176 0.2869 90
2 G#4 105.0766 105.1955 0.1189 83
2 E4 105.0766 105.1955 0.1189 90
2 A3 105.0766 105.1955 0.1189 90
2 C#4 105.0766 105.2037 0.1270 90
2 C#4 105.1996 105.2037 0.0041 96
2 E4 105.1996 105.3184 0.1189 96
2 G#4 105.1996 105.3184 0.1189 89
2 A3 105.1996 105.3184 0.1189 96
2 C#3 105.3225 105.6586 0.3361 90
2 G#4 105.5684 105.6873 0.1189 90
2 C#4 105.5684 105.6873 0.1189 90
2 E4 105.5684 105.6955 0.1270 90
2 E4 105.6914 105.6955 0.0041 96
2 G#4 105.6914 105.8103 0.1189 96
2 C#4 105.6914 105.8103 0.1189 96
2 C#3 105.8144 106.1258 0.3115 90
2 G#4 106.0603 106.1791 0.1189 90
2 C#4 106.0603 106.1791 0.1189 90
2 E4 106.0603 106.1873 0.1270 90
2 E4 106.1832 106.1873 0.0041 96
2 G#4 106.1832 106.3021 0.1189 96
2 C#4 106.1832 106.3021 0.1189 96
2 C#3 106.3062 106.6299 0.3238 90
2 G#4 106.5521 106.6709 0.1189 90
2 C#4 106.5521 106.6709 0.1189 90
2 E4 106.5521 106.6791 0.1270 90
2 E4 106.6750 106.6791 0.0041 96
2 G#4 106.6750 106.7939 0.1189 96
2 C#4 106.6750 106.7939 0.1189 96
2 C#3 106.7980 107.2160 0.4180 90
2 G#4 107.0439 107.1627 0.1189 90
2 C#4 107.0439 107.1627 0.1189 90
2 E4 107.0439 107.1709 0.1270 90
2 E4 107.1668 107.1709 0.0041 96
2 G#4 107.1668 107.2857 0.1189 96
2 C#4 107.1668 107.2857 0.1189 96
2 E3 107.2898 107.5971 0.3074 90
2 B3 107.5357 107.6545 0.1189 90
2 G#4 107.5357 107.6545 0.1189 90
2 E4 107.5357 107.6627 0.1270 90
2 E4 107.6586 107.6627 0.0041 96
2 G#4 107.6586 107.7775 0.1189 96
2 B3 107.6586 107.7775 0.1189 96
2 E3 107.7816 108.0848 0.3033 90
2 G#4 108.0275 108.1463 0.1189 90
2 B3 108.0275 108.1463 0.1189 90
2 E4 108.0275 108.1545 0.1270 90
2 E4 108.1504 108.1545 0.0041 96
2 B3 108.1504 108.2693 0.1189 96
2 G#4 108.1504 108.2693 0.1189 96
2 E3 108.2734 108.5684 0.2951 90
2 G#4 108.5193 108.6381 0.1189 90
2 E4 108.5193 108.6381 0.1189 90
2 B3 108.5193 108.6381 0.1189 90
2 B3 108.6422 108.7611 0.1189 96
2 G#4 108.6422 108.7611 0.1189 96
2 E4 108.6422 108.7693 0.1270 96
2 E3 108.7652 109.1299 0.3648 90
2 G#4 109.0111 109.1299 0.1189 90
2 B3 109.0111 109.1299 0.1189 90
2 E4 109.0111 109.1381 0.1270 90
2 E4 109.1340 109.1381 0.0041 96
2 B3 109.1340 109.2529 0.1189 96
2 G#4 109.1340 109.2529 0.1189 96
2 B2 109.2570 109.5971 0.3402 90
2 F#4 109.5029 109.6217 0.1189 90
2 B3 109.5029 109.6217 0.1189 90
2 G#4 109.5029 109.6217 0.1189 78
2 D#4 109.5029 109.6299 0.1270 90
2 D#4 109.6258 109.6299 0.0041 96
2 F#4 109.6258 109.7447 0.1189 96
2 B3 109.6258 109.7447 0.1189 96
2 G#4 109.6258 109.7447 0.1189 84
2 B2 109.7488 110.0275 0.2787 90
2 B3 109.9947 110.1135 0.1189 90
2 G#4 109.9947 110.1135 0.1189 78
2 F#4 109.9947 110.1135 0.1189 90
2 D#4 109.9947 110.1217 0.1270 90
2 D#4 110.1176 110.1217 0.0041 96
2 G#4 110.1176 110.2365 0.1189 84
2 F#4 110.1176 110.2365 0.1189 96
2 B3 110.1176 110.2365 0.1189 96
2 B2 110.2406 110.5193 0.2787 90
2 G#4 110.4865 110.6053 0.1189 78
2 B3 110.4865 110.6053 0.1189 90
2 F#4 110.4865 110.6053 0.1189 90
2 D#4 110.4865 110.6135 0.1270 90
2 D#4 110.6094 110.6135 0.0041 96
2 G#4 110.6094 110.7283 0.1189 84
2 F#4 110.6094 110.7283 0.1189 96
2 B3 110.6094 110.7283 0.1189 96
2 B2 110.7324 111.0684 0.3361 90
2 G#4 110.9783 111.0971 0.1189 78
2 F#4 110.9783 111.0971 0.1189 90
2 B3 110.9783 111.0971 0.1189 90
2 D#4 110.9783 111.1053 0.1270 90
2 D#4 111.1012 111.1053 0.0041 96
2 G#4 111.1012 111.2201 0.1189 84
2 B3 111.1012 111.2201 0.1189 96
2 F#4 111.1012 111.2201 0.1189 96
2 A2 111.2242 111.5193 0.2951 90
2 A3 111.4701 111.5889 0.1189 90
2 E4 111.4701 111.5889 0.1189 90
2 C#4 111.4701 111.5971 0.1270 90
2 C#4 111.5930 111.5971 0.0041 96
2 E4 111.5930 111.7119 0.1189 96
2 A3 111.5930 111.7119 0.1189 96
2 A2 111.7160 112.0439 0.3279 90
2 E4 111.9619 112.0807 0.1189 90
2 A3 111.9619 112.0807 0.1189 90
2 C#4 111.9619 112.0889 0.1270 90
2 C#4 112.0848 112.0889 0.0041 96
2 E4 112.0848 112.2037 0.1189 96
2 A3 112.0848 112.2037 0.1189 96
2 A2 112.2078 112.5316 0.3238 90
2 A3 112.4537 112.5725 0.1189 90
2 G#4 112.4537 112.5725 0.1189 83
2 E4 112.4537 112.5725 0.1189 90
2 C#4 112.4537 112.5807 0.1270 90
2 C#4 112.5766 112.5807 0.0041 96
2 G#4 112.5766 112.6955 0.1189 89
2 A3 112.5766 112.6955 0.1189 96
2 E4 112.5766 112.6955 0.1189 96
2 A2 112.6996 112.9865 0.2869 90
2 A3 112.9455 113.0643 0.1189 90
2 G#4 112.9455 113.0643 0.1189 83
2 E4 112.9455 113.0643 0.1189 90
2 C#4 112.9455 113.0725 0.1270 90
2 C#4 113.0684 113.0725 0.0041 96
2 G#4 113.0684 113.1873 0.1189 89
2 A3 113.0684 113.1873 0.1189 96
2 E4 113.0684 113.1873 0.1189 96
2 C#3 113.1914 113.5275 0.3361 90
2 G#4 113.4373 113.5562 0.1189 90
2 C#4 113.4373 113.5562 0.1189 90
2 E4 113.4373 113.5643 0.1270 90
2 E4 113.5602 113.5643 0.0041 96
2 C#4 113.5602 113.6791 0.1189 96
2 G#4 113.5602 113.6791 0.1189 96
2 C#3 113.6832 113.9947 0.3115 90
2 G#4 113.9291 114.0480 0.1189 90
2 C#4 113.9291 114.0480 0.1189 90
2 E4 113.9291 114.0561 0.1270 90
2 E4 114.0521 114.0561 0.0041 96
2 C#4 114.0521 114.1709 0.1189 96
2 G#4 114.0521 114.1709 0.1189 96
2 C#3 114.1750 114.4988 0.3238 90
2 C#4 114.4209 114.5398 0.1189 90
2 G#4 114.4209 114.5398 0.1189 90
2 E4 114.4209 114.5480 0.1270 90
2 E4 114.5439 114.5480 0.0041 96
2 C#4 114.5439 114.6627 0.1189 96
2 G#4 114.5439 114.6627 0.1189 96
2 C#3 114.6668 115.0848 0.4180 90
2 G#4 114.9127 115.0316 0.1189 90
2 C#4 114.9127 115.0316 0.1189 90
2 E4 114.9127 115.0398 0.1270 90
2 E4 115.0357 115.0398 0.0041 96
2 G#4 115.0357 115.1545 0.1189 96
2 C#4 115.0357 115.1545 0.1189 96
2 E3 115.1586 115.4660 0.3074 90
2 B3 115.4045 115.5234 0.1189 90
2 G#4 115.4045 115.5234 0.1189 90
2 E4 115.4045 115.5316 0.1270 90
2 E4 115.5275 115.5316 0.0041 96
2 B3 115.5275 115.6463 0.1189 96
2 G#4 115.5275 115.6463 0.1189 96
2 E3 115.6504 115.9537 0.3033 90
2 G#4 115.8963 116.0152 0.1189 90
2 B3 115.8963 116.0152 0.1189 90
2 E4 115.8963 116.0234 0.1270 90
2 E4 116.0193 116.0234 0.0041 96
2 B3 116.0193 116.1381 0.1189 96
2 G#4 116.0193 116.1381 0.1189 96
2 E3 116.1422 116.4373 0.2951 90
2 G#4 116.3881 116.5070 0.1189 90
2 E4 116.3881 116.5070 0.1189 90
2 B3 116.3881 116.5070 0.1189 90
2 G#4 116.5111 116.6299 0.1189 96
2 B3 116.5111 116.6299 0.1189 96
2 E4 116.5111 116.6381 0.1270 96
2 E3 116.6340 116.9988 0.3648 90
2 G#4 116.8799 116.9988 0.1189 90
2 B3 116.8799 116.9988 0.1189 90
2 E4 116.8799 117.0070 0.1270 90
2 E4 117.0029 117.0070 0.0041 96
2 B3 117.0029 117.1217 0.1189 96
2 G#4 117.0029 117.1217 0.1189 96
2 B2 117.1258 117.4660 0.3402 90
2 F#4 117.3717 117.4906 0.1189 90
2 B3 117.3717 117.4906 0.1189 90
2 G#4 117.3717 117.4906 0.1189 78
2 D#4 117.3717 117.4988 0.1270 90
2 D#4 117.4947 117.4988 0.0041 96
2 G#4 117.4947 117.6135 0.1189 84
2 B3 117.4947 117.6135 0.1189 96
2 F#4 117.4947 117.6135 0.1189 96
2 B2 117.6176 117.8963 0.2787 90
2 G#4 117.8635 117.9824 0.1189 78
2 B3 117.8635 117.9824 0.1189 90
2 F#4 117.8635 117.9824 0.1189 90
2 D#4 117.8635 117.9906 0.1270 90
2 D#4 117.9865 117.9906 0.0041 96
2 G#4 117.9865 118.1053 0.1189 84
2 B3 117.9865 118.1053 0.1189 96
2 F#4 117.9865 118.1053 0.1189 96
2 B2 118.1094 118.3881 0.2787 90
2 G#4 118.3553 118.4742 0.1189 78
2 B3 118.3553 118.4742 0.1189 90
2 F#4 118.3553 118.4742 0.1189 90
2 D#4 118.3553 118.4824 0.1270 90
2 D#4 118.4783 118.4824 0.0041 96
2 G#4 118.4783 118.5971 0.1189 84
2 B3 118.4783 118.5971 0.1189 96
2 F#4 118.4783 118.5971 0.1189 96
2 B2 118.6012 118.9373 0.3361 90
2 B3 118.8471 118.9660 0.1189 90
2 G#4 118.8471 118.9660 0.1189 78
2 F#4 118.8471 118.9660 0.1189 90
2 D#4 118.8471 118.9742 0.1270 90
2 D#4 118.9701 118.9742 0.0041 96
2 F#4 118.9701 119.0889 0.1189 96
2 B3 118.9701 119.0889 0.1189 96
2 G#4 118.9701 119.0889 0.1189 84
2 A2 119.0930 119.3881 0.2951 90
2 A3 119.3389 119.4578 0.1189 90
2 E4 119.3389 119.4578 0.1189 90
2 C#4 119.3389 119.4660 0.1270 90
2 C#4 119.4619 119.4660 0.0041 96
2 A3 119.4619 119.5807 0.1189 96
2 E4 119.4619 119.5807 0.1189 96
2 A2 119.5848 119.9127 0.3279 90
2 A3 119.8307 119.9496 0.1189 90
2 E4 119.8307 119.9496 0.1189 90
2 C#4 119.8307 119.9578 0.1270 90
2 C#4 119.9537 119.9578 0.0041 96
2 A3 119.9537 120.0725 0.1189 96
2 E4 119.9537 120.0725 0.1189 96
2 A2 120.0766 120.4004 0.3238 90
2 A3 120.3225 120.4414 0.1189 90
2 E4 120.3225 120.4414 0.1189 90
2 G#4 120.3225 120.4414 0.1189 83
2 C#4 120.3225 120.4496 0.1270 90
2 C#4 120.4455 120.4496 0.0041 96
2 G#4 120.4455 120.5643 0.1189 89
2 A3 120.4455 120.5643 0.1189 96
2 E4 120.4455 120.5643 0.1189 96
2 A2 120.5684 120.8553 0.2869 90
2 E4 120.8143 120.9332 0.1189 90
2 A3 120.8143 120.9332 0.1189 90
2 G#4 120.8143 120.9332 0.1189 83
2 C#4 120.8143 120.9414 0.1270 90
2 C#4 120.9373 120.9414 0.0041 96
2 E4 120.9373 121.0561 0.1189 96
2 G#4 120.9373 121.0561 0.1189 89
2 A3 120.9373 121.0561 0.1189 96
2 C#3 121.0602 121.3963 0.3361 90
2 G#3 121.3061 121.4988 0.1926 90
2 C#4 121.3061 121.5152 0.2090 90
2 E4 121.3061 121.5357 0.2295 90
2 C#3 121.5520 121.8635 0.3115 90
2 G#3 121.7979 122.0070 0.2090 90
2 C#4 121.7979 122.0357 0.2377 90
2 E4 121.7979 122.0479 0.2500 90
2 C#3 122.0439 122.3676 0.3238 90
2 G#3 122.2898 122.4701 0.1803 90
2 C#4 122.2898 122.5275 0.2377 90
2 E4 122.2898 122.5438 0.2541 90
2 C#3 122.5357 122.9004 0.3648 90
2 G#3 122.7816 122.9619 0.1803 90
2 E4 122.7816 122.9742 0.1926 90
2 C#4 122.7816 122.9906 0.2090 90
2 E3 123.0275 123.3348 0.3074 90
2 G#4 123.2734 123.4824 0.2090 90
2 B3 123.2734 123.5029 0.2295 90
2 E4 123.2734 123.5193 0.2459 90
2 E3 123.5193 123.8225 0.3033 90
2 G#4 123.7652 123.9742 0.2090 90
2 B3 123.7652 123.9988 0.2336 90
2 E4 123.7652 124.0316 0.2664 90
2 E3 124.0111 124.3061 0.2951 90
2 G#4 124.2570 124.4127 0.1557 90
2 B3 124.2570 124.4537 0.1967 90
2 E4 124.2570 124.4865 0.2295 90
2 E3 124.5029 124.8676 0.3648 90
2 G#4 124.7488 124.9045 0.1557 90
2 B3 124.7488 124.9455 0.1967 90
2 E4 124.7488 124.9783 0.2295 90
2 B2 124.9947 125.3348 0.3402 90
2 F#4 125.2406 125.4496 0.2090 90
2 D#4 125.2406 125.4537 0.2131 90
2 B3 125.2406 125.4619 0.2213 90
2 B2 125.4865 125.7652 0.2787 90
2 F#4 125.7324 125.9619 0.2295 90
2 D#4 125.7324 125.9701 0.2377 90
2 B3 125.7324 125.9742 0.2418 90
2 B2 125.9783 126.2570 0.2787 90
2 F#4 126.2242 126.4414 0.2172 90
2 D#4 126.2242 126.4537 0.2295 90
2 B3 126.2242 126.4537 0.2295 90
2 B2 126.4701 126.8061 0.3361 90
2 F#4 126.7160 126.9045 0.1885 90
2 D#4 126.7160 126.9168 0.2008 90
2 B3 126.7160 126.9250 0.2090 90
2 A2 126.9619 127.2570 0.2951 90
2 C#4 127.2078 127.4291 0.2213 90
2 A3 127.2078 127.4578 0.2500 90
2 E4 127.2078 127.4619 0.2541 90
2 A2 127.4537 127.7816 0.3279 90
2 C#4 127.6996 127.9127 0.2131 90
2 E4 127.6996 127.9291 0.2295 90
2 A3 127.6996 127.9332 0.2336 90
2 A2 127.9455 128.2693 0.3238 90
2 G#4 129.1750 129.3676 0.1926 90
2 C#4 129.1750 129.3840 0.2090 90
2 E4 129.1750 129.4045 0.2295 90
2 G#4 129.6668 129.8758 0.2090 90
2 C#4 129.6668 129.9045 0.2377 90
2 E4 129.6668 129.9168 0.2500 90
2 G#4 130.1586 130.3389 0.1803 90
2 C#4 130.1586 130.3963 0.2377 90
2 E4 130.1586 130.4127 0.2541 90
2 G#4 130.6504 130.8307 0.1803 90
2 E4 130.6504 130.8430 0.1926 90
2 C#4 130.6504 130.8594 0.2090 90
2 G#4 131.1422 131.3512 0.2090 90
2 B3 131.1422 131.3717 0.2295 90
2 E4 131.1422 131.3881 0.2459 90
2 G#4 131.6340 131.8430 0.2090 90
2 B3 131.6340 131.8676 0.2336 90
2 E4 131.6340 131.9004 0.2664 90
2 G#4 132.1258 132.3020 0.1762 90
2 B3 132.1258 132.3307 0.2049 90
2 E4 132.1258 132.3840 0.2582 90
2 G#4 132.6176 132.7734 0.1557 90
2 B3 132.6176 132.8143 0.1967 90
2 E4 132.6176 132.8471 0.2295 90
2 F#4 133.1094 133.3184 0.2090 90
2 D#4 133.1094 133.3225 0.2131 90
2 B3 133.1094 133.3307 0.2213 90
2 F#4 133.6012 133.8307 0.2295 90
2 D#4 133.6012 133.8389 0.2377 90
2 B3 133.6012 133.8430 0.2418 90
2 F#4 134.0930 134.3102 0.2172 90
2 B3 134.0930 134.3225 0.2295 90
2 D#4 134.0930 134.3225 0.2295 90
2 F#4 134.5848 134.7734 0.1885 90
2 D#4 134.5848 134.7856 0.2008 90
2 B3 134.5848 134.7938 0.2090 90
2 C#4 135.0766 135.2979 0.2213 90
2 A3 135.0766 135.3266 0.2500 90
2 E4 135.0766 135.3307 0.2541 90
2 C#4 135.5684 135.7815 0.2131 90
2 E4 135.5684 135.7979 0.2295 90
2 A3 135.5684 135.8020 0.2336 90
2 C#4 136.0602 136.2365 0.1762 90
2 G#4 136.0602 136.2365 0.1762 90
2 A3 136.0602 136.2488 0.1885 90
2 E4 136.0602 136.2693 0.2090 90
2 A3 136.5520 136.7324 0.1803 90
2 C#4 136.5520 136.7488 0.1967 90
2 G#4 136.5520 136.7611 0.2090 90
2 E4 136.5520 136.7774 0.2254 90
2 G#4 137.0438 137.2365 0.1926 90
2 C#4 137.0438 137.2529 0.2090 90
2 E4 137.0438 137.2733 0.2295 90
2 G#4 137.5356 137.7447 0.2090 90
2 C#4 137.5356 137.7733 0.2377 90
2 E4 137.5356 137.7856 0.2500 90
2 G#4 138.0274 138.2078 0.1803 90
2 C#4 138.0274 138.2652 0.2377 90
2 E4 138.0274 138.2815 0.2541 90
2 G#4 138.5193 138.6996 0.1803 90
2 E4 138.5193 138.7119 0.1926 90
2 C#4 138.5193 138.7283 0.2090 90
2 G#4 139.0111 139.2201 0.2090 90
2 B3 139.0111 139.2406 0.2295 90
2 E4 139.0111 139.2570 0.2459 90
2 G#4 139.5029 139.7119 0.2090 90
2 B3 139.5029 139.7365 0.2336 90
2 E4 139.5029 139.7693 0.2664 90
2 G#4 139.9947 140.1709 0.1762 90
2 B3 139.9947 140.1996 0.2049 90
2 E4 139.9947 140.2529 0.2582 90
2 G#4 140.4865 140.6422 0.1557 90
2 B3 140.4865 140.6832 0.1967 90
2 E4 140.4865 140.7160 0.2295 90
2 F#4 140.9783 141.1873 0.2090 90
2 D#4 140.9783 141.1914 0.2131 90
2 B3 140.9783 141.1996 0.2213 90
2 F#4 141.4701 141.6996 0.2295 90
2 D#4 141.4701 141.7078 0.2377 90
2 B3 141.4701 141.7119 0.2418 90
2 F#4 141.9619 142.1791 0.2172 90
2 B3 141.9619 142.1914 0.2295 90
2 D#4 141.9619 142.1914 0.2295 90
2 F#4 142.4537 142.6422 0.1885 90
2 D#4 142.4537 142.6545 0.2008 90
2 B3 142.4537 142.6627 0.2090 90
2 C#4 142.9455 143.1668 0.2213 90
2 A3 142.9455 143.1955 0.2500 90
2 E4 142.9455 143.1996 0.2541 90
2 C#4 143.4373 143.6504 0.2131 90
2 E4 143.4373 143.6668 0.2295 90
2 A3 143.4373 143.6709 0.2336 90
2 G#4 143.9291 144.1053 0.1762 90
2 C#4 143.9291 144.1053 0.1762 90
2 A3 143.9291 144.1176 0.1885 90
2 E4 143.9291 144.1381 0.2090 90
2 A3 144.4209 144.6012 0.1803 90
2 C#4 144.4209 144.6176 0.1967 90
2 G#4 144.4209 144.6299 0.2090 90
2 E4 144.4209 144.6463 0.2254 90
2 C#4 144.9127 145.1340 0.2213 90
2 A3 144.9127 145.1627 0.2500 90
2 E4 144.9127 145.1668 0.2541 90
2 C#4 145.4045 145.6176 0.2131 90
2 E4 145.4045 145.6340 0.2295 90
2 A3 145.4045 145.6381 0.2336 90
2 C#4 145.8963 146.0725 0.1762 90
2 G#4 145.8963 146.0725 0.1762 90
2 A3 145.8963 146.0848 0.1885 90
2 E4 145.8963 146.1053 0.2090 90
2 A3 146.3881 146.5684 0.1803 90
2 C#4 146.3881 146.5848 0.1967 90
2 G#4 146.3881 146.5971 0.2090 90
2 E4 146.3881 146.6135 0.2254 90
2 C#4 146.8799 147.1012 0.2213 90
2 A3 146.8799 147.1299 0.2500 90
2 E4 146.8799 147.1340 0.2541 90
2 C#4 147.3717 147.5848 0.2131 90
2 E4 147.3717 147.6012 0.2295 90
2 A3 147.3717 147.6053 0.2336 90
2 C#4 147.8635 148.0397 0.1762 90
2 G#4 147.8635 148.0397 0.1762 90
2 A3 147.8635 148.0520 0.1885 90
2 E4 147.8635 148.0725 0.2090 90
2 A3 148.3553 148.5356 0.1803 90
2 C#4 148.3553 148.5520 0.1967 90
2 G#4 148.3553 148.5643 0.2090 90
2 E4 148.3553 148.5807 0.2254 90
2 C#3 152.5356 152.8717 0.3361 90
2 G#4 152.7815 152.9742 0.1926 90
2 C#4 152.7815 152.9906 0.2090 90
2 E4 152.7815 153.0110 0.2295 90
2 C#3 153.0274 153.3389 0.3115 90
2 G#4 153.2733 153.4824 0.2090 90
2 C#4 153.2733 153.5110 0.2377 90
2 E4 153.2733 153.5233 0.2500 90
2 C#3 153.5192 153.8430 0.3238 90
2 G#4 153.7651 153.9455 0.1803 90
2 C#4 153.7651 154.0028 0.2377 90
2 E4 153.7651 154.0192 0.2541 90
2 C#3 154.0110 154.4291 0.4180 90
2 G#4 154.2569 154.4373 0.1803 90
2 E4 154.2569 154.4496 0.1926 90
2 C#4 154.2569 154.4660 0.2090 90
2 E3 154.5028 154.8102 0.3074 90
2 G#4 154.7487 154.9578 0.2090 90
2 B3 154.7487 154.9783 0.2295 90
2 E4 154.7487 154.9947 0.2459 90
2 E3 154.9947 155.2979 0.3033 90
2 G#4 155.2406 155.4496 0.2090 90
2 B3 155.2406 155.4742 0.2336 90
2 E4 155.2406 155.5069 0.2664 90
2 E3 155.4865 155.7815 0.2951 90
2 B3 155.7324 155.8512 0.1189 90
2 G#4 155.7324 155.8512 0.1189 90
2 E4 155.7324 155.8594 0.1270 90
2 E4 155.8553 155.8594 0.0041 96
2 G#4 155.8553 155.9742 0.1189 96
2 B3 155.8553 155.9742 0.1189 96
2 E3 155.9783 156.3430 0.3648 90
2 G#4 156.2242 156.3799 0.1557 90
2 B3 156.2242 156.4209 0.1967 90
2 E4 156.2242 156.4537 0.2295 90
2 B2 156.4701 156.8102 0.3402 90
2 F#4 156.7160 156.9250 0.2090 90
2 D#4 156.7160 156.9291 0.2131 90
2 B3 156.7160 156.9373 0.2213 90
2 B2 156.9619 157.2406 0.2787 90
2 F#4 157.2078 157.4373 0.2295 90
2 D#4 157.2078 157.4455 0.2377 90
2 B3 157.2078 157.4496 0.2418 90
2 B2 157.4537 157.7324 0.2787 90
2 F#4 157.6996 157.9168 0.2172 90
2 B3 157.6996 157.9291 0.2295 90
2 D#4 157.6996 157.9291 0.2295 90
2 B2 157.9455 158.2815 0.3361 90
2 F#4 158.1914 158.3799 0.1885 90
2 D#4 158.1914 158.3922 0.2008 90
2 B3 158.1914 158.4004 0.2090 90
2 A2 158.4373 158.7324 0.2951 90
2 C#4 158.6832 158.9045 0.2213 90
2 A3 158.6832 158.9332 0.2500 90
2 E4 158.6832 158.9373 0.2541 90
2 A2 158.9291 159.2569 0.3279 90
2 C#4 159.1750 159.3881 0.2131 90
2 E4 159.1750 159.4045 0.2295 90
2 A3 159.1750 159.4086 0.2336 90
2 A2 159.4209 159.7446 0.3238 90
2 G#4 159.6668 159.8430 0.1762 90
2 C#4 159.6668 159.8430 0.1762 90
2 A3 159.6668 159.8553 0.1885 90
2 E4 159.6668 159.8758 0.2090 90
2 A2 159.9127 160.1996 0.2869 90
2 A3 160.1586 160.3389 0.1803 90
2 C#4 160.1586 160.3553 0.1967 90
2 G#4 160.1586 160.3676 0.2090 90
2 E4 160.1586 160.3840 0.2254 90
2 C#3 160.4045 160.7405 0.3361 90
2 G#4 160.6504 160.8430 0.1926 90
2 C#4 160.6504 160.8594 0.2090 90
2 E4 160.6504 160.8799 0.2295 90
2 C#3 160.8963 161.2078 0.3115 90
2 G#4 161.1422 161.3512 0.2090 90
2 C#4 161.1422 161.3799 0.2377 90
2 E4 161.1422 161.3922 0.2500 90
2 C#3 161.3881 161.7119 0.3238 90
2 G#4 161.6340 161.8143 0.1803 90
2 C#4 161.6340 161.8717 0.2377 90
2 E4 161.6340 161.8881 0.2541 90
2 C#3 161.8799 162.2979 0.4180 90
2 G#4 162.1258 162.3061 0.1803 90
2 E4 162.1258 162.3184 0.1926 90
2 C#4 162.1258 162.3348 0.2090 90
2 E3 162.3717 162.6791 0.3074 90
2 G#4 162.6176 162.8266 0.2090 90
2 B3 162.6176 162.8471 0.2295 90
2 E4 162.6176 162.8635 0.2459 90
2 E3 162.8635 163.1668 0.3033 90
2 G#4 163.1094 163.3184 0.2090 90
2 B3 163.1094 163.3430 0.2336 90
2 E4 163.1094 163.3758 0.2664 90
2 E3 163.3553 163.6504 0.2951 90
2 G#4 163.6012 163.7774 0.1762 90
2 B3 163.6012 163.8061 0.2049 90
2 E4 163.6012 163.8594 0.2582 90
2 E3 163.8471 164.2119 0.3648 90
2 G#4 164.0930 164.2487 0.1557 90
2 B3 164.0930 164.2897 0.1967 90
2 E4 164.0930 164.3225 0.2295 90
2 B2 164.3389 164.6791 0.3402 90
2 F#4 164.5848 164.7938 0.2090 90
2 D#4 164.5848 164.7979 0.2131 90
2 B3 164.5848 164.8061 0.2213 90
2 B2 164.8307 165.1094 0.2787 90
2 F#4 165.0766 165.3061 0.2295 90
2 D#4 165.0766 165.3143 0.2377 90
2 B3 165.0766 165.3184 0.2418 90
2 B2 165.3225 165.6012 0.2787 90
2 F#4 165.5684 165.7856 0.2172 90
2 B3 165.5684 165.7979 0.2295 90
2 D#4 165.5684 165.7979 0.2295 90
2 B2 165.8143 166.1504 0.3361 90
2 F#4 166.0602 166.2487 0.1885 90
2 D#4 166.0602 166.2610 0.2008 90
2 B3 166.0602 166.2692 0.2090 90
2 A2 166.3061 166.6012 0.2951 90
2 C#4 166.5520 166.7733 0.2213 90
2 A3 166.5520 166.8020 0.2500 90
2 E4 166.5520 166.8061 0.2541 90
2 A2 166.7979 167.1258 0.3279 90
2 C#4 167.0438 167.2569 0.2131 90
2 E4 167.0438 167.2733 0.2295 90
2 A3 167.0438 167.2774 0.2336 90
2 A2 167.2897 167.6135 0.3238 90
2 G#4 167.5356 167.7119 0.1762 90
2 C#4 167.5356 167.7119 0.1762 90
2 A3 167.5356 167.7242 0.1885 90
2 E4 167.5356 167.7446 0.2090 90
2 A2 167.7815 168.0684 0.2869 90
2 A3 168.0274 168.2078 0.1803 90
2 C#4 168.0274 168.2242 0.1967 90
2 G#4 168.0274 168.2364 0.2090 90
2 E4 168.0274 168.2528 0.2254 90
2 C#3 168.2733 168.6094 0.3361 90
2 G#4 168.5192 168.6381 0.1189 90
2 C#4 168.5192 168.6381 0.1189 90
2 E4 168.5192 168.6463 0.1270 90
2 E4 168.6422 168.6463 0.0041 96
2 G#4 168.6422 168.7610 0.1189 96
2 C#4 168.6422 168.7610 0.1189 96
2 C#3 168.7651 169.0766 0.3115 90
2 G#4 169.0110 169.1299 0.1189 90
2 C#4 169.0110 169.1299 0.1189 90
2 E4 169.0110 169.1381 0.1270 90
2 E4 169.1340 169.1381 0.0041 96
2 G#4 169.1340 169.2528 0.1189 96
2 C#4 169.1340 169.2528 0.1189 96
2 C#3 169.2569 169.5807 0.3238 90
2 G#4 169.5028 169.6217 0.1189 90
2 C#4 169.5028 169.6217 0.1189 90
2 E4 169.5028 169.6299 0.1270 90
2 E4 169.6258 169.6299 0.0041 96
2 G#4 169.6258 169.7446 0.1189 96
2 C#4 169.6258 169.7446 0.1189 96
2 C#3 169.7487 170.1668 0.4180 90
2 C#4 169.9946 170.1135 0.1189 90
2 G#4 169.9946 170.1135 0.1189 90
2 E4 169.9946 170.1217 0.1270 90
2 E4 170.1176 170.1217 0.0041 96
2 G#4 170.1176 170.2364 0.1189 96
2 C#4 170.1176 170.2364 0.1189 96
2 E3 170.2405 170.5479 0.3074 90
2 G#4 170.4864 170.6053 0.1189 90
2 B3 170.4864 170.6053 0.1189 90
2 E4 170.4864 170.6135 0.1270 90
2 E4 170.6094 170.6135 0.0041 96
2 B3 170.6094 170.7282 0.1189 96
2 G#4 170.6094 170.7282 0.1189 96
2 E3 170.7323 171.0356 0.3033 90
2 G#4 170.9782 171.0971 0.1189 90
2 B3 170.9782 171.0971 0.1189 90
2 E4 170.9782 171.1053 0.1270 90
2 E4 171.1012 171.1053 0.0041 96
2 B3 171.1012 171.2201 0.1189 96
2 G#4 171.1012 171.2201 0.1189 96
2 E3 171.2242 171.5192 0.2951 90
2 G#4 171.4701 171.5889 0.1189 90
2 E4 171.4701 171.5889 0.1189 90
2 B3 171.4701 171.5889 0.1189 90
2 G#4 171.5930 171.7119 0.1189 96
2 B3 171.5930 171.7119 0.1189 96
2 E4 171.5930 171.7201 0.1270 96
2 E3 171.7160 172.0807 0.3648 90
2 G#4 171.9619 172.0807 0.1189 90
2 B3 171.9619 172.0807 0.1189 90
2 E4 171.9619 172.0889 0.1270 90
2 E4 172.0848 172.0889 0.0041 96
2 G#4 172.0848 172.2037 0.1189 96
2 B3 172.0848 172.2037 0.1189 96
2 B2 172.2078 172.5479 0.3402 90
2 G#4 172.4537 172.5725 0.1189 78
2 B3 172.4537 172.5725 0.1189 90
2 F#4 172.4537 172.5725 0.1189 90
2 D#4 172.4537 172.5807 0.1270 90
2 D#4 172.5766 172.5807 0.0041 96
2 F#4 172.5766 172.6955 0.1189 96
2 G#4 172.5766 172.6955 0.1189 84
2 B3 172.5766 172.6955 0.1189 96
2 B2 172.6996 172.9782 0.2787 90
2 G#4 172.9455 173.0643 0.1189 78
2 B3 172.9455 173.0643 0.1189 90
2 F#4 172.9455 173.0643 0.1189 90
2 D#4 172.9455 173.0725 0.1270 90
2 D#4 173.0684 173.0725 0.0041 96
2 G#4 173.0684 173.1873 0.1189 84
2 B3 173.0684 173.1873 0.1189 96
2 F#4 173.0684 173.1873 0.1189 96
2 B2 173.1914 173.4701 0.2787 90
2 B3 173.4373 173.5561 0.1189 90
2 G#4 173.4373 173.5561 0.1189 78
2 F#4 173.4373 173.5561 0.1189 90
2 D#4 173.4373 173.5643 0.1270 90
2 D#4 173.5602 173.5643 0.0041 96
2 F#4 173.5602 173.6791 0.1189 96
2 G#4 173.5602 173.6791 0.1189 84
2 B3 173.5602 173.6791 0.1189 96
2 B2 173.6832 174.0192 0.3361 90
2 G#4 173.9291 174.0479 0.1189 78
2 F#4 173.9291 174.0479 0.1189 90
2 B3 173.9291 174.0479 0.1189 90
2 D#4 173.9291 174.0561 0.1270 90
2 D#4 174.0520 174.0561 0.0041 96
2 F#4 174.0520 174.1709 0.1189 96
2 G#4 174.0520 174.1709 0.1189 84
2 B3 174.0520 174.1709 0.1189 96
2 A2 174.1750 174.4701 0.2951 90
2 E4 174.4209 174.5397 0.1189 90
2 A3 174.4209 174.5397 0.1189 90
2 C#4 174.4209 174.5479 0.1270 90
2 C#4 174.5438 174.5479 0.0041 96
2 E4 174.5438 174.6627 0.1189 96
2 A3 174.5438 174.6627 0.1189 96
2 A2 174.6668 174.9946 0.3279 90
2 E4 174.9127 175.0315 0.1189 90
2 A3 174.9127 175.0315 0.1189 90
2 C#4 174.9127 175.0397 0.1270 90
2 C#4 175.0356 175.0397 0.0041 96
2 E4 175.0356 175.1545 0.1189 96
2 A3 175.0356 175.1545 0.1189 96
2 A2 175.1586 175.4823 0.3238 90
2 G#4 175.4045 175.5233 0.1189 83
2 E4 175.4045 175.5233 0.1189 90
2 A3 175.4045 175.5233 0.1189 90
2 C#4 175.4045 175.5315 0.1270 90
2 C#4 175.5274 175.5315 0.0041 96
2 G#4 175.5274 175.6463 0.1189 89
2 E4 175.5274 175.6463 0.1189 96
2 A3 175.5274 175.6463 0.1189 96
2 A2 175.6504 175.9373 0.2869 90
2 G#4 175.8963 176.0151 0.1189 83
2 A3 175.8963 176.0151 0.1189 90
2 E4 175.8963 176.0151 0.1189 90
2 C#4 175.8963 176.0233 0.1270 90
2 C#4 176.0192 176.0233 0.0041 96
2 A3 176.0192 176.1381 0.1189 96
2 G#4 176.0192 176.1381 0.1189 89
2 E4 176.0192 176.1381 0.1189 96
2 C#3 176.1422 176.4782 0.3361 90
2 G#4 176.3881 176.5069 0.1189 90
2 C#4 176.3881 176.5069 0.1189 90
2 E4 176.3881 176.5151 0.1270 90
2 E4 176.5110 176.5151 0.0041 96
2 G#4 176.5110 176.6299 0.1189 96
2 C#4 176.5110 176.6299 0.1189 96
2 C#3 176.6340 176.9455 0.3115 90
2 G#4 176.8799 176.9987 0.1189 90
2 C#4 176.8799 176.9987 0.1189 90
2 E4 176.8799 177.0069 0.1270 90
2 E4 177.0028 177.0069 0.0041 96
2 G#4 177.0028 177.1217 0.1189 96
2 C#4 177.0028 177.1217 0.1189 96
2 C#3 177.1258 177.4496 0.3238 90
2 G#4 177.3717 177.4905 0.1189 90
2 C#4 177.3717 177.4905 0.1189 90
2 E4 177.3717 177.4987 0.1270 90
2 E4 177.4946 177.4987 0.0041 96
2 G#4 177.4946 177.6135 0.1189 96
2 C#4 177.4946 177.6135 0.1189 96
2 C#3 177.6176 178.0356 0.4180 90
2 C#4 177.8635 177.9823 0.1189 90
2 G#4 177.8635 177.9823 0.1189 90
2 E4 177.8635 177.9905 0.1270 90
2 E4 177.9864 177.9905 0.0041 96
2 G#4 177.9864 178.1053 0.1189 96
2 C#4 177.9864 178.1053 0.1189 96
2 E3 178.1094 178.4168 0.3074 90
2 G#4 178.3553 178.4741 0.1189 90
2 B3 178.3553 178.4741 0.1189 90
2 E4 178.3553 178.4823 0.1270 90
2 E4 178.4782 178.4823 0.0041 96
2 G#4 178.4782 178.5971 0.1189 96
2 B3 178.4782 178.5971 0.1189 96
2 E3 178.6012 178.9045 0.3033 90
2 G#4 178.8471 178.9659 0.1189 90
2 B3 178.8471 178.9659 0.1189 90
2 E4 178.8471 178.9741 0.1270 90
2 E4 178.9700 178.9741 0.0041 96
2 B3 178.9700 179.0889 0.1189 96
2 G#4 178.9700 179.0889 0.1189 96
2 E3 179.0930 179.3881 0.2951 90
2 G#4 179.3389 179.4578 0.1189 90
2 E4 179.3389 179.4578 0.1189 90
2 B3 179.3389 179.4578 0.1189 90
2 G#4 179.4619 179.5807 0.1189 96
2 B3 179.4619 179.5807 0.1189 96
2 E4 179.4619 179.5889 0.1270 96
2 E3 179.5848 179.9496 0.3648 90
2 B3 179.8307 179.9496 0.1189 90
2 G#4 179.8307 179.9496 0.1189 90
2 E4 179.8307 179.9578 0.1270 90
2 E4 179.9537 179.9578 0.0041 96
2 G#4 179.9537 180.0725 0.1189 96
2 B3 179.9537 180.0725 0.1189 96
2 B2 180.0766 180.4168 0.3402 90
2 G#4 180.3225 180.4414 0.1189 78
2 B3 180.3225 180.4414 0.1189 90
2 F#4 180.3225 180.4414 0.1189 90
2 D#4 180.3225 180.4496 0.1270 90
2 D#4 180.4455 180.4496 0.0041 96
2 G#4 180.4455 180.5643 0.1189 84
2 B3 180.4455 180.5643 0.1189 96
2 F#4 180.4455 180.5643 0.1189 96
2 B2 180.5684 180.8471 0.2787 90
2 G#4 180.8143 180.9332 0.1189 78
2 B3 180.8143 180.9332 0.1189 90
2 F#4 180.8143 180.9332 0.1189 90
2 D#4 180.8143 180.9414 0.1270 90
2 D#4 180.9373 180.9414 0.0041 96
2 F#4 180.9373 181.0561 0.1189 96
2 G#4 180.9373 181.0561 0.1189 84
2 B3 180.9373 181.0561 0.1189 96
2 B2 181.0602 181.3389 0.2787 90
2 G#4 181.3061 181.4250 0.1189 78
2 B3 181.3061 181.4250 0.1189 90
2 F#4 181.3061 181.4250 0.1189 90
2 D#4 181.3061 181.4332 0.1270 90
2 D#4 181.4291 181.4332 0.0041 96
2 G#4 181.4291 181.5479 0.1189 84
2 F#4 181.4291 181.5479 0.1189 96
2 B3 181.4291 181.5479 0.1189 96
2 B2 181.5520 181.8881 0.3361 90
2 F#4 181.7979 181.9168 0.1189 90
2 G#4 181.7979 181.9168 0.1189 78
2 B3 181.7979 181.9168 0.1189 90
2 D#4 181.7979 181.9250 0.1270 90
2 D#4 181.9209 181.9250 0.0041 96
2 B3 181.9209 182.0397 0.1189 96
2 F#4 181.9209 182.0397 0.1189 96
2 G#4 181.9209 182.0397 0.1189 84
2 A2 182.0438 182.3389 0.2951 90
2 E4 182.2897 182.4086 0.1189 90
2 A3 182.2897 182.4086 0.1189 90
2 C#4 182.2897 182.4168 0.1270 90
2 C#4 182.4127 182.4168 0.0041 96
2 E4 182.4127 182.5315 0.1189 96
2 A3 182.4127 182.5315 0.1189 96
2 A2 182.5356 182.8635 0.3279 90
2 A3 182.7815 182.9004 0.1189 90
2 E4 182.7815 182.9004 0.1189 90
2 C#4 182.7815 182.9086 0.1270 90
2 C#4 182.9045 182.9086 0.0041 96
2 A3 182.9045 183.0233 0.1189 96
2 E4 182.9045 183.0233 0.1189 96
2 A2 183.0274 183.3512 0.3238 90
2 A3 183.2733 183.3922 0.1189 90
2 G#4 183.2733 183.3922 0.1189 83
2 E4 183.2733 183.3922 0.1189 90
2 C#4 183.2733 183.4004 0.1270 90
2 C#4 183.3963 183.4004 0.0041 96
2 G#4 183.3963 183.5151 0.1189 89
2 A3 183.3963 183.5151 0.1189 96
2 E4 183.3963 183.5151 0.1189 96
2 A2 183.5192 183.8061 0.2869 90
2 A3 183.7651 183.8840 0.1189 90
2 G#4 183.7651 183.8840 0.1189 83
2 E4 183.7651 183.8840 0.1189 90
2 C#4 183.7651 183.8922 0.1270 90
2 C#4 183.8881 183.8922 0.0041 96
2 G#4 183.8881 184.0069 0.1189 89
2 A3 183.8881 184.0069 0.1189 96
2 E4 183.8881 184.0069 0.1189 96
2 C#3 210.5684 210.9045 0.3361 90
2 G#4 210.8143 211.0069 0.1926 90
2 C#4 210.8143 211.0233 0.2090 90
2 E4 210.8143 211.0438 0.2295 90
2 C#3 211.0602 211.3717 0.3115 90
2 G#4 211.3061 211.5151 0.2090 90
2 C#4 211.3061 211.5438 0.2377 90
2 E4 211.3061 211.5561 0.2500 90
2 C#3 211.5520 211.8758 0.3238 90
2 G#4 211.7979 211.9782 0.1803 90
2 C#4 211.7979 212.0356 0.2377 90
2 E4 211.7979 212.0520 0.2541 90
2 C#3 212.0438 212.4618 0.4180 90
2 G#4 212.2897 212.4700 0.1803 90
2 E4 212.2897 212.4823 0.1926 90
2 C#4 212.2897 212.4987 0.2090 90
2 E3 212.5356 212.8430 0.3074 90
2 G#4 212.7815 212.9905 0.2090 90
2 B3 212.7815 213.0110 0.2295 90
2 E4 212.7815 213.0274 0.2459 90
2 E3 213.0274 213.3307 0.3033 90
2 G#4 213.2733 213.4823 0.2090 90
2 B3 213.2733 213.5069 0.2336 90
2 E4 213.2733 213.5397 0.2664 90
2 E3 213.5192 213.8143 0.2951 90
2 B3 213.7651 213.8840 0.1189 90
2 G#4 213.7651 213.8840 0.1189 90
2 E4 213.7651 213.8922 0.1270 90
2 E4 213.8881 213.8922 0.0041 96
2 G#4 213.8881 214.0069 0.1189 96
2 B3 213.8881 214.0069 0.1189 96
2 E3 214.0110 214.3758 0.3648 90
2 G#4 214.2569 214.4127 0.1557 90
2 B3 214.2569 214.4536 0.1967 90
2 E4 214.2569 214.4864 0.2295 90
2 B2 214.5028 214.8430 0.3402 90
2 F#4 214.7487 214.9577 0.2090 90
2 D#4 214.7487 214.9618 0.2131 90
2 B3 214.7487 214.9700 0.2213 90
2 B2 214.9946 215.2733 0.2787 90
2 F#4 215.2405 215.4700 0.2295 90
2 D#4 215.2405 215.4782 0.2377 90
2 B3 215.2405 215.4823 0.2418 90
2 B2 215.4864 215.7651 0.2787 90
2 F#4 215.7323 215.9495 0.2172 90
2 B3 215.7323 215.9618 0.2295 90
2 D#4 215.7323 215.9618 0.2295 90
2 B2 215.9782 216.3143 0.3361 90
2 F#4 216.2241 216.4126 0.1885 90
2 D#4 216.2241 216.4249 0.2008 90
2 B3 216.2241 216.4331 0.2090 90
2 A2 216.4700 216.7651 0.2951 90
2 C#4 216.7159 216.9372 0.2213 90
2 A3 216.7159 216.9659 0.2500 90
2 E4 216.7159 216.9700 0.2541 90
2 A2 216.9618 217.2897 0.3279 90
2 C#4 217.2077 217.4208 0.2131 90
2 E4 217.2077 217.4372 0.2295 90
2 A3 217.2077 217.4413 0.2336 90
2 A2 217.4536 217.7774 0.3238 90
2 G#4 217.6995 217.8758 0.1762 90
2 C#4 217.6995 217.8758 0.1762 90
2 A3 217.6995 217.8881 0.1885 90
2 E4 217.6995 217.9086 0.2090 90
2 A2 217.9454 218.2323 0.2869 90
2 A3 218.1913 218.3717 0.1803 90
2 C#4 218.1913 218.3881 0.1967 90
2 G#4 218.1913 218.4004 0.2090 90
2 E4 218.1913 218.4167 0.2254 90
2 C#3 218.4372 218.7733 0.3361 90
2 G#4 218.6831 218.8758 0.1926 90
2 C#4 218.6831 218.8922 0.2090 90
2 E4 218.6831 218.9126 0.2295 90
2 C#3 218.9290 219.2405 0.3115 90
2 G#4 219.1749 219.3840 0.2090 90
2 C#4 219.1749 219.4126 0.2377 90
2 E4 219.1749 219.4249 0.2500 90
2 C#3 219.4208 219.7446 0.3238 90
2 G#4 219.6667 219.8471 0.1803 90
2 C#4 219.6667 219.9045 0.2377 90
2 E4 219.6667 219.9208 0.2541 90
2 C#3 219.9126 220.3307 0.4180 90
2 G#4 220.1585 220.3389 0.1803 90
2 E4 220.1585 220.3512 0.1926 90
2 C#4 220.1585 220.3676 0.2090 90
2 E3 220.4045 220.7118 0.3074 90
2 G#4 220.6504 220.8594 0.2090 90
2 B3 220.6504 220.8799 0.2295 90
2 E4 220.6504 220.8963 0.2459 90
2 E3 220.8963 221.1995 0.3033 90
2 G#4 221.1422 221.3512 0.2090 90
2 B3 221.1422 221.3758 0.2336 90
2 E4 221.1422 221.4085 0.2664 90
2 E3 221.3881 221.6831 0.2951 90
2 G#4 221.6340 221.8102 0.1762 90
2 B3 221.6340 221.8389 0.2049 90
2 E4 221.6340 221.8922 0.2582 90
2 E3 221.8799 222.2446 0.3648 90
2 G#4 222.1258 222.2815 0.1557 90
2 B3 222.1258 222.3225 0.1967 90
2 E4 222.1258 222.3553 0.2295 90
2 B2 222.3717 222.7118 0.3402 90
2 F#4 222.6176 222.8266 0.2090 90
2 D#4 222.6176 222.8307 0.2131 90
2 B3 222.6176 222.8389 0.2213 90
2 B2 222.8635 223.1422 0.2787 90
2 F#4 223.1094 223.3389 0.2295 90
2 D#4 223.1094 223.3471 0.2377 90
2 B3 223.1094 223.3512 0.2418 90
2 B2 223.3553 223.6340 0.2787 90
2 F#4 223.6012 223.8184 0.2172 90
2 B3 223.6012 223.8307 0.2295 90
2 D#4 223.6012 223.8307 0.2295 90
2 B2 223.8471 224.1831 0.3361 90
2 F#4 224.0930 224.2815 0.1885 90
2 D#4 224.0930 224.2938 0.2008 90
2 B3 224.0930 224.3020 0.2090 90
2 A2 224.3389 224.6340 0.2951 90
2 C#4 224.5848 224.8061 0.2213 90
2 A3 224.5848 224.8348 0.2500 90
2 E4 224.5848 224.8389 0.2541 90
2 A2 224.8307 225.1585 0.3279 90
2 C#4 225.0766 225.2897 0.2131 90
2 E4 225.0766 225.3061 0.2295 90
2 A3 225.0766 225.3102 0.2336 90
2 A2 225.3225 225.6463 0.3238 90
2 G#4 225.5684 225.7446 0.1762 90
2 C#4 225.5684 225.7446 0.1762 90
2 A3 225.5684 225.7569 0.1885 90
2 E4 225.5684 225.7774 0.2090 90
2 A2 225.8143 226.1012 0.2869 90
2 A3 226.0602 226.2405 0.1803 90
2 C#4 226.0602 226.2569 0.1967 90
2 G#4 226.0602 226.2692 0.2090 90
2 E4 226.0602 226.2856 0.2254 90
2 C#3 226.3061 226.6422 0.3361 90
2 G#4 226.5520 226.6708 0.1189 90
2 C#4 226.5520 226.6708 0.1189 90
2 E4 226.5520 226.6790 0.1270 90
2 E4 226.6749 226.6790 0.0041 96
2 C#4 226.6749 226.7938 0.1189 96
2 G#4 226.6749 226.7938 0.1189 96
2 C#3 226.7979 227.1094 0.3115 90
2 G#4 227.0438 227.1626 0.1189 90
2 C#4 227.0438 227.1626 0.1189 90
2 E4 227.0438 227.1708 0.1270 90
2 E4 227.1667 227.1708 0.0041 96
2 G#4 227.1667 227.2856 0.1189 96
2 C#4 227.1667 227.2856 0.1189 96
2 C#3 227.2897 227.6135 0.3238 90
2 G#4 227.5356 227.6544 0.1189 90
2 C#4 227.5356 227.6544 0.1189 90
2 E4 227.5356 227.6626 0.1270 90
2 E4 227.6585 227.6626 0.0041 96
2 G#4 227.6585 227.7774 0.1189 96
2 C#4 227.6585 227.7774 0.1189 96
2 C#3 227.7815 228.1995 0.4180 90
2 C#4 228.0274 228.1462 0.1189 90
2 G#4 228.0274 228.1462 0.1189 90
2 E4 228.0274 228.1544 0.1270 90
2 E4 228.1503 228.1544 0.0041 96
2 G#4 228.1503 228.2692 0.1189 96
2 C#4 228.1503 228.2692 0.1189 96
2 E3 228.2733 228.5807 0.3074 90
2 G#4 228.5192 228.6381 0.1189 90
2 B3 228.5192 228.6381 0.1189 90
2 E4 228.5192 228.6462 0.1270 90
2 E4 228.6422 228.6462 0.0041 96
2 B3 228.6422 228.7610 0.1189 96
2 G#4 228.6422 228.7610 0.1189 96
2 E3 228.7651 229.0684 0.3033 90
2 G#4 229.0110 229.1299 0.1189 90
2 B3 229.0110 229.1299 0.1189 90
2 E4 229.0110 229.1381 0.1270 90
2 E4 229.1340 229.1381 0.0041 96
2 B3 229.1340 229.2528 0.1189 96
2 G#4 229.1340 229.2528 0.1189 96
2 E3 229.2569 229.5520 0.2951 90
2 G#4 229.5028 229.6217 0.1189 90
2 E4 229.5028 229.6217 0.1189 90
2 B3 229.5028 229.6217 0.1189 90
2 G#4 229.6258 229.7446 0.1189 96
2 B3 229.6258 229.7446 0.1189 96
2 E4 229.6258 229.7528 0.1270 96
2 E3 229.7487 230.1135 0.3648 90
2 G#4 229.9946 230.1135 0.1189 90
2 B3 229.9946 230.1135 0.1189 90
2 E4 229.9946 230.1217 0.1270 90
2 E4 230.1176 230.1217 0.0041 96
2 G#4 230.1176 230.2364 0.1189 96
2 B3 230.1176 230.2364 0.1189 96
2 B2 230.2405 230.5807 0.3402 90
2 G#4 230.4864 230.6053 0.1189 78
2 B3 230.4864 230.6053 0.1189 90
2 F#4 230.4864 230.6053 0.1189 90
2 D#4 230.4864 230.6135 0.1270 90
2 D#4 230.6094 230.6135 0.0041 96
2 F#4 230.6094 230.7282 0.1189 96
2 G#4 230.6094 230.7282 0.1189 84
2 B3 230.6094 230.7282 0.1189 96
2 B2 230.7323 231.0110 0.2787 90
2 G#4 230.9782 231.0971 0.1189 78
2 B3 230.9782 231.0971 0.1189 90
2 F#4 230.9782 231.0971 0.1189 90
2 D#4 230.9782 231.1053 0.1270 90
2 D#4 231.1012 231.1053 0.0041 96
2 G#4 231.1012 231.2200 0.1189 84
2 B3 231.1012 231.2200 0.1189 96
2 F#4 231.1012 231.2200 0.1189 96
2 B2 231.2241 231.5028 0.2787 90
2 B3 231.4700 231.5889 0.1189 90
2 G#4 231.4700 231.5889 0.1189 78
2 F#4 231.4700 231.5889 0.1189 90
2 D#4 231.4700 231.5971 0.1270 90
2 D#4 231.5930 231.5971 0.0041 96
2 F#4 231.5930 231.7118 0.1189 96
2 G#4 231.5930 231.7118 0.1189 84
2 B3 231.5930 231.7118 0.1189 96
2 B2 231.7159 232.0520 0.3361 90
2 G#4 231.9618 232.0807 0.1189 78
2 F#4 231.9618 232.0807 0.1189 90
2 B3 231.9618 232.0807 0.1189 90
2 D#4 231.9618 232.0889 0.1270 90
2 D#4 232.0848 232.0889 0.0041 96
2 F#4 232.0848 232.2036 0.1189 96
2 G#4 232.0848 232.2036 0.1189 84
2 B3 232.0848 232.2036 0.1189 96
2 A2 232.2077 232.5028 0.2951 90
2 E4 232.4536 232.5725 0.1189 90
2 A3 232.4536 232.5725 0.1189 90
2 C#4 232.4536 232.5807 0.1270 90
2 C#4 232.5766 232.5807 0.0041 96
2 E4 232.5766 232.6954 0.1189 96
2 A3 232.5766 232.6954 0.1189 96
2 A2 232.6995 233.0274 0.3279 90
2 E4 232.9454 233.0643 0.1189 90
2 A3 232.9454 233.0643 0.1189 90
2 C#4 232.9454 233.0725 0.1270 90
2 C#4 233.0684 233.0725 0.0041 96
2 E4 233.0684 233.1872 0.1189 96
2 A3 233.0684 233.1872 0.1189 96
2 A2 233.1913 233.5151 0.3238 90
2 G#4 233.4372 233.5561 0.1189 83
2 E4 233.4372 233.5561 0.1189 90
2 A3 233.4372 233.5561 0.1189 90
2 C#4 233.4372 233.5643 0.1270 90
2 C#4 233.5602 233.5643 0.0041 96
2 G#4 233.5602 233.6790 0.1189 89
2 E4 233.5602 233.6790 0.1189 96
2 A3 233.5602 233.6790 0.1189 96
2 A2 233.6831 233.9700 0.2869 90
2 A3 233.9290 234.0479 0.1189 90
2 G#4 233.9290 234.0479 0.1189 83
2 E4 233.9290 234.0479 0.1189 90
2 C#4 233.9290 234.0561 0.1270 90
2 C#4 234.0520 234.0561 0.0041 96
2 G#4 234.0520 234.1708 0.1189 89
2 E4 234.0520 234.1708 0.1189 96
2 A3 234.0520 234.1708 0.1189 96
2 C#3 234.1749 234.5110 0.3361 90
2 G#4 234.4208 234.5397 0.1189 90
2 C#4 234.4208 234.5397 0.1189 90
2 E4 234.4208 234.5479 0.1270 90
2 E4 234.5438 234.5479 0.0041 96
2 G#4 234.5438 234.6626 0.1189 96
2 C#4 234.5438 234.6626 0.1189 96
2 C#3 234.6667 234.9782 0.3115 90
2 G#4 234.9126 235.0315 0.1189 90
2 C#4 234.9126 235.0315 0.1189 90
2 E4 234.9126 235.0397 0.1270 90
2 E4 235.0356 235.0397 0.0041 96
2 G#4 235.0356 235.1544 0.1189 96
2 C#4 235.0356 235.1544 0.1189 96
2 C#3 235.1585 235.4823 0.3238 90
2 G#4 235.4044 235.5233 0.1189 90
2 C#4 235.4044 235.5233 0.1189 90
2 E4 235.4044 235.5315 0.1270 90
2 E4 235.5274 235.5315 0.0041 96
2 G#4 235.5274 235.6462 0.1189 96
2 C#4 235.5274 235.6462 0.1189 96
2 C#3 235.6503 236.0684 0.4180 90
2 C#4 235.8962 236.0151 0.1189 90
2 G#4 235.8962 236.0151 0.1189 90
2 E4 235.8962 236.0233 0.1270 90
2 E4 236.0192 236.0233 0.0041 96
2 G#4 236.0192 236.1380 0.1189 96
2 C#4 236.0192 236.1380 0.1189 96
2 E3 236.1421 236.4495 0.3074 90
2 G#4 236.3880 236.5069 0.1189 90
2 B3 236.3880 236.5069 0.1189 90
2 E4 236.3880 236.5151 0.1270 90
2 E4 236.5110 236.5151 0.0041 96
2 G#4 236.5110 236.6299 0.1189 96
2 B3 236.5110 236.6299 0.1189 96
2 E3 236.6339 236.9372 0.3033 90
2 G#4 236.8799 236.9987 0.1189 90
2 B3 236.8799 236.9987 0.1189 90
2 E4 236.8799 237.0069 0.1270 90
2 E4 237.0028 237.0069 0.0041 96
2 B3 237.0028 237.1217 0.1189 96
2 G#4 237.0028 237.1217 0.1189 96
2 E3 237.1258 237.4208 0.2951 90
2 G#4 237.3717 237.4905 0.1189 90
2 E4 237.3717 237.4905 0.1189 90
2 B3 237.3717 237.4905 0.1189 90
2 G#4 237.4946 237.6135 0.1189 96
2 B3 237.4946 237.6135 0.1189 96
2 E4 237.4946 237.6217 0.1270 96
2 E3 237.6176 237.9823 0.3648 90
2 B3 237.8635 237.9823 0.1189 90
2 G#4 237.8635 237.9823 0.1189 90
2 E4 237.8635 237.9905 0.1270 90
2 E4 237.9864 237.9905 0.0041 96
2 G#4 237.9864 238.1053 0.1189 96
2 B3 237.9864 238.1053 0.1189 96
2 B2 238.1094 238.4495 0.3402 90
2 G#4 238.3553 238.4741 0.1189 78
2 B3 238.3553 238.4741 0.1189 90
2 F#4 238.3553 238.4741 0.1189 90
2 D#4 238.3553 238.4823 0.1270 90
2 D#4 238.4782 238.4823 0.0041 96
2 G#4 238.4782 238.5971 0.1189 84
2 B3 238.4782 238.5971 0.1189 96
2 F#4 238.4782 238.5971 0.1189 96
2 B2 238.6012 238.8798 0.2787 90
2 G#4 238.8471 238.9659 0.1189 78
2 B3 238.8471 238.9659 0.1189 90
2 F#4 238.8471 238.9659 0.1189 90
2 D#4 238.8471 238.9741 0.1270 90
2 D#4 238.9700 238.9741 0.0041 96
2 F#4 238.9700 239.0889 0.1189 96
2 G#4 238.9700 239.0889 0.1189 84
2 B3 238.9700 239.0889 0.1189 96
2 B2 239.0930 239.3717 0.2787 90
2 G#4 239.3389 239.4577 0.1189 78
2 B3 239.3389 239.4577 0.1189 90
2 F#4 239.3389 239.4577 0.1189 90
2 D#4 239.3389 239.4659 0.1270 90
2 D#4 239.4618 239.4659 0.0041 96
2 G#4 239.4618 239.5807 0.1189 84
2 F#4 239.4618 239.5807 0.1189 96
2 B3 239.4618 239.5807 0.1189 96
2 B2 239.5848 239.9208 0.3361 90
2 F#4 239.8307 239.9495 0.1189 90
2 G#4 239.8307 239.9495 0.1189 78
2 B3 239.8307 239.9495 0.1189 90
2 D#4 239.8307 239.9577 0.1270 90
2 D#4 239.9536 239.9577 0.0041 96
2 B3 239.9536 240.0725 0.1189 96
2 F#4 239.9536 240.0725 0.1189 96
2 G#4 239.9536 240.0725 0.1189 84
2 A2 240.0766 240.3717 0.2951 90
2 E4 240.3225 240.4413 0.1189 90
2 A3 240.3225 240.4413 0.1189 90
2 C#4 240.3225 240.4495 0.1270 90
2 C#4 240.4454 240.4495 0.0041 96
2 E4 240.4454 240.5643 0.1189 96
2 A3 240.4454 240.5643 0.1189 96
2 A2 240.5684 240.8962 0.3279 90
2 A3 240.8143 240.9331 0.1189 90
2 E4 240.8143 240.9331 0.1189 90
2 C#4 240.8143 240.9413 0.1270 90
2 C#4 240.9372 240.9413 0.0041 96
2 A3 240.9372 241.0561 0.1189 96
2 E4 240.9372 241.0561 0.1189 96
2 A2 241.0602 241.3839 0.3238 90
2 A3 241.3061 241.4249 0.1189 90
2 G#4 241.3061 241.4249 0.1189 83
2 E4 241.3061 241.4249 0.1189 90
2 C#4 241.3061 241.4331 0.1270 90
2 C#4 241.4290 241.4331 0.0041 96
2 E4 241.4290 241.5479 0.1189 96
2 G#4 241.4290 241.5479 0.1189 89
2 A3 241.4290 241.5479 0.1189 96
2 A2 241.5520 241.8389 0.2869 90
2 G#4 241.7979 241.9167 0.1189 83
2 E4 241.7979 241.9167 0.1189 90
2 A3 241.7979 241.9167 0.1189 90
2 C#4 241.7979 241.9249 0.1270 90
2 C#4 241.9208 241.9249 0.0041 96
2 G#4 241.9208 242.0397 0.1189 89
2 E4 241.9208 242.0397 0.1189 96
2 A3 241.9208 242.0397 0.1189 96
2 C#3 242.0438 242.3798 0.3361 90
2 G#4 242.2897 242.4085 0.1189 90
2 C#4 242.2897 242.4085 0.1189 90
2 E4 242.2897 242.4167 0.1270 90
2 E4 242.4126 242.4167 0.0041 96
2 C#4 242.4126 242.5315 0.1189 96
2 G#4 242.4126 242.5315 0.1189 96
2 C#3 242.5356 242.8471 0.3115 90
2 C#4 242.7815 242.9003 0.1189 90
2 G#4 242.7815 242.9003 0.1189 90
2 E4 242.7815 242.9085 0.1270 90
2 E4 242.9044 242.9085 0.0041 96
2 C#4 242.9044 243.0233 0.1189 96
2 G#4 242.9044 243.0233 0.1189 96
2 C#3 243.0274 243.3512 0.3238 90
2 C#4 243.2733 243.3921 0.1189 90
2 G#4 243.2733 243.3921 0.1189 90
2 E4 243.2733 243.4003 0.1270 90
2 E4 243.3962 243.4003 0.0041 96
2 C#4 243.3962 243.5151 0.1189 96
2 G#4 243.3962 243.5151 0.1189 96
2 C#3 243.5192 243.9372 0.4180 90
2 G#4 243.7651 243.8839 0.1189 90
2 C#4 243.7651 243.8839 0.1189 90
2 E4 243.7651 243.8921 0.1270 90
2 E4 243.8880 243.8921 0.0041 96
2 G#4 243.8880 244.0069 0.1189 96
2 C#4 243.8880 244.0069 0.1189 96
2 E3 244.0110 244.3184 0.3074 90
2 G#4 244.2569 244.3757 0.1189 90
2 B3 244.2569 244.3757 0.1189 90
2 E4 244.2569 244.3839 0.1270 90
2 E4 244.3798 244.3839 0.0041 96
2 B3 244.3798 244.4987 0.1189 96
2 G#4 244.3798 244.4987 0.1189 96
2 E3 244.5028 244.8061 0.3033 90
2 B3 244.7487 244.8676 0.1189 90
2 G#4 244.7487 244.8676 0.1189 90
2 E4 244.7487 244.8757 0.1270 90
2 E4 244.8716 244.8757 0.0041 96
2 B3 244.8716 244.9905 0.1189 96
2 G#4 244.8716 244.9905 0.1189 96
2 E3 244.9946 245.2897 0.2951 90
2 G#4 245.2405 245.3594 0.1189 90
2 B3 245.2405 245.3594 0.1189 90
2 E4 245.2405 245.3594 0.1189 90
2 B3 245.3635 245.4823 0.1189 96
2 G#4 245.3635 245.4823 0.1189 96
2 E4 245.3635 245.4905 0.1270 96
2 E3 245.4864 245.8512 0.3648 90
2 B3 245.7323 245.8512 0.1189 90
2 G#4 245.7323 245.8512 0.1189 90
2 E4 245.7323 245.8594 0.1270 90
2 E4 245.8553 245.8594 0.0041 96
2 G#4 245.8553 245.9741 0.1189 96
2 B3 245.8553 245.9741 0.1189 96
2 B2 245.9782 246.3184 0.3402 90
2 G#4 246.2241 246.3430 0.1189 78
2 B3 246.2241 246.3430 0.1189 90
2 F#4 246.2241 246.3430 0.1189 90
2 D#4 246.2241 246.3512 0.1270 90
2 D#4 246.3471 246.3512 0.0041 96
2 G#4 246.3471 246.4659 0.1189 84
2 B3 246.3471 246.4659 0.1189 96
2 F#4 246.3471 246.4659 0.1189 96
2 B2 246.4700 246.7487 0.2787 90
2 F#4 246.7159 246.8348 0.1189 90
2 B3 246.7159 246.8348 0.1189 90
2 G#4 246.7159 246.8348 0.1189 78
2 D#4 246.7159 246.8430 0.1270 90
2 D#4 246.8389 246.8430 0.0041 96
2 G#4 246.8389 246.9577 0.1189 84
2 B3 246.8389 246.9577 0.1189 96
2 F#4 246.8389 246.9577 0.1189 96
2 B2 246.9618 247.2405 0.2787 90
2 B3 247.2077 247.3266 0.1189 90
2 F#4 247.2077 247.3266 0.1189 90
2 G#4 247.2077 247.3266 0.1189 78
2 D#4 247.2077 247.3348 0.1270 90
2 D#4 247.3307 247.3348 0.0041 96
2 G#4 247.3307 247.4495 0.1189 84
2 F#4 247.3307 247.4495 0.1189 96
2 B3 247.3307 247.4495 0.1189 96
2 B2 247.4536 247.7897 0.3361 90
2 B3 247.6995 247.8184 0.1189 90
2 F#4 247.6995 247.8184 0.1189 90
2 G#4 247.6995 247.8184 0.1189 78
2 D#4 247.6995 247.8266 0.1270 90
2 D#4 247.8225 247.8266 0.0041 96
2 G#4 247.8225 247.9413 0.1189 84
2 B3 247.8225 247.9413 0.1189 96
2 F#4 247.8225 247.9413 0.1189 96
2 A2 247.9454 248.2405 0.2951 90
2 A3 248.1913 248.3102 0.1189 90
2 E4 248.1913 248.3102 0.1189 90
2 C#4 248.1913 248.3184 0.1270 90
2 C#4 248.3143 248.3184 0.0041 96
2 A3 248.3143 248.4331 0.1189 96
2 E4 248.3143 248.4331 0.1189 96
2 A2 248.4372 248.7651 0.3279 90
2 A3 248.6831 248.8020 0.1189 90
2 E4 248.6831 248.8020 0.1189 90
2 C#4 248.6831 248.8102 0.1270 90
2 C#4 248.8061 248.8102 0.0041 96
2 A3 248.8061 248.9249 0.1189 96
2 E4 248.8061 248.9249 0.1189 96
2 A2 248.9290 249.2528 0.3238 90
2 G#4 249.1749 249.2938 0.1189 83
2 E4 249.1749 249.2938 0.1189 90
2 A3 249.1749 249.2938 0.1189 90
2 C#4 249.1749 249.3020 0.1270 90
2 C#4 249.2979 249.3020 0.0041 96
2 E4 249.2979 249.4167 0.1189 96
2 A3 249.2979 249.4167 0.1189 96
2 G#4 249.2979 249.4167 0.1189 89
2 A2 249.4208 249.7077 0.2869 90
2 A3 249.6667 249.7856 0.1189 90
2 G#4 249.6667 249.7856 0.1189 83
2 E4 249.6667 249.7856 0.1189 90
2 C#4 249.6667 249.7938 0.1270 90
2 C#4 249.7897 249.7938 0.0041 96
2 G#4 249.7897 249.9085 0.1189 89
2 E4 249.7897 249.9085 0.1189 96
2 A3 249.7897 249.9085 0.1189 96
2 C#3 249.9126 250.2487 0.3361 90
2 C#4 250.1585 250.2774 0.1189 90
2 G#4 250.1585 250.2774 0.1189 90
2 E4 250.1585 250.2856 0.1270 90
2 E4 250.2815 250.2856 0.0041 96
2 C#4 250.2815 250.4003 0.1189 96
2 G#4 250.2815 250.4003 0.1189 96
2 C#3 250.4044 250.7159 0.3115 90
2 C#4 250.6503 250.7692 0.1189 90
2 G#4 250.6503 250.7692 0.1189 90
2 E4 250.6503 250.7774 0.1270 90
2 E4 250.7733 250.7774 0.0041 96
2 C#4 250.7733 250.8921 0.1189 96
2 G#4 250.7733 250.8921 0.1189 96
2 C#3 250.8962 251.2200 0.3238 90
2 C#4 251.1421 251.2610 0.1189 90
2 G#4 251.1421 251.2610 0.1189 90
2 E4 251.1421 251.2692 0.1270 90
2 E4 251.2651 251.2692 0.0041 96
2 C#4 251.2651 251.3839 0.1189 96
2 G#4 251.2651 251.3839 0.1189 96
2 C#3 251.3880 251.8061 0.4180 90
2 G#4 251.6339 251.7528 0.1189 90
2 C#4 251.6339 251.7528 0.1189 90
2 E4 251.6339 251.7610 0.1270 90
2 E4 251.7569 251.7610 0.0041 96
2 G#4 251.7569 251.8757 0.1189 96
2 C#4 251.7569 251.8757 0.1189 96
2 E3 251.8798 252.1872 0.3074 90
2 G#4 252.1257 252.2446 0.1189 90
2 B3 252.1257 252.2446 0.1189 90
2 E4 252.1257 252.2528 0.1270 90
2 E4 252.2487 252.2528 0.0041 96
2 B3 252.2487 252.3675 0.1189 96
2 G#4 252.2487 252.3675 0.1189 96
2 E3 252.3716 252.6749 0.3033 90
2 B3 252.6175 252.7364 0.1189 90
2 G#4 252.6175 252.7364 0.1189 90
2 E4 252.6175 252.7446 0.1270 90
2 E4 252.7405 252.7446 0.0041 96
2 B3 252.7405 252.8593 0.1189 96
2 G#4 252.7405 252.8593 0.1189 96
2 E3 252.8634 253.1585 0.2951 90
2 G#4 253.1093 253.2282 0.1189 90
2 B3 253.1093 253.2282 0.1189 90
2 E4 253.1093 253.2282 0.1189 90
2 B3 253.2323 253.3512 0.1189 96
2 G#4 253.2323 253.3512 0.1189 96
2 E4 253.2323 253.3593 0.1270 96
2 E3 253.3553 253.7200 0.3648 90
2 B3 253.6012 253.7200 0.1189 90
2 G#4 253.6012 253.7200 0.1189 90
2 E4 253.6012 253.7282 0.1270 90
2 E4 253.7241 253.7282 0.0041 96
2 G#4 253.7241 253.8430 0.1189 96
2 B3 253.7241 253.8430 0.1189 96
2 B2 253.8471 254.1872 0.3402 90
2 G#4 254.0930 254.2118 0.1189 78
2 B3 254.0930 254.2118 0.1189 90
2 F#4 254.0930 254.2118 0.1189 90
2 D#4 254.0930 254.2200 0.1270 90
2 D#4 254.2159 254.2200 0.0041 96
2 G#4 254.2159 254.3348 0.1189 84
2 B3 254.2159 254.3348 0.1189 96
2 F#4 254.2159 254.3348 0.1189 96
2 B2 254.3389 254.6175 0.2787 90
2 F#4 254.5848 254.7036 0.1189 90
2 B3 254.5848 254.7036 0.1189 90
2 G#4 254.5848 254.7036 0.1189 78
2 D#4 254.5848 254.7118 0.1270 90
2 D#4 254.7077 254.7118 0.0041 96
2 G#4 254.7077 254.8266 0.1189 84
2 B3 254.7077 254.8266 0.1189 96
2 F#4 254.7077 254.8266 0.1189 96
2 B2 254.8307 255.1093 0.2787 90
2 B3 255.0766 255.1954 0.1189 90
2 F#4 255.0766 255.1954 0.1189 90
2 G#4 255.0766 255.1954 0.1189 78
2 D#4 255.0766 255.2036 0.1270 90
2 D#4 255.1995 255.2036 0.0041 96
2 G#4 255.1995 255.3184 0.1189 84
2 F#4 255.1995 255.3184 0.1189 96
2 B3 255.1995 255.3184 0.1189 96
2 B2 255.3225 255.6585 0.3361 90
2 B3 255.5684 255.6872 0.1189 90
2 F#4 255.5684 255.6872 0.1189 90
2 G#4 255.5684 255.6872 0.1189 78
2 D#4 255.5684 255.6954 0.1270 90
2 D#4 255.6913 255.6954 0.0041 96
2 G#4 255.6913 255.8102 0.1189 84
2 B3 255.6913 255.8102 0.1189 96
2 F#4 255.6913 255.8102 0.1189 96
3 C#3 4.4610 5.5297 1.0688 92
3 G#3 4.7398 5.1487 0.4089 77
3 C#4 5.0186 5.7203 0.7017 71
3 E4 5.0186 5.7203 0.7017 91
3 G#3 5.2974 5.5762 0.2788 82
3 C#3 5.5762 6.4777 0.9015 93
3 G#3 5.8550 6.4638 0.6087 96
3 E4 6.1338 6.4870 0.3532 93
3 C#4 6.1338 6.5102 0.3764 65
3 E3 6.6915 7.5604 0.8690 87
3 B3 6.9703 7.3002 0.3299 68
3 G#4 7.2491 7.8020 0.5530 82
3 E4 7.2491 7.8067 0.5576 87
3 B3 7.5279 7.8206 0.2928 95
3 E3 7.8067 8.7314 0.9247 89
3 B3 8.0855 8.4108 0.3253 75
3 G#4 8.3643 8.8336 0.4693 82
3 E4 8.3643 8.8429 0.4786 89
3 B3 8.6431 8.8615 0.2184 81
3 B2 8.9219 9.8327 0.9108 91
3 B3 9.2007 9.6422 0.4414 85
3 F#4 9.4796 10.0465 0.5669 80
3 D#4 9.4796 10.0976 0.6180 77
3 B3 9.7584 10.0604 0.3020 87
3 B2 10.0372 10.7435 0.7063 91
3 B3 10.3160 10.8783 0.5623 81
3 D#4 10.5948 10.8643 0.2695 77
3 F#4 10.5948 10.8643 0.2695 80
3 A2 11.1524 12.0771 0.9247 97
3 A3 11.4312 11.8076 0.3764 89
3 E4 11.7100 12.2723 0.5623 95
3 C#4 11.7100 12.3420 0.6320 77
3 A3 11.9889 12.2816 0.2928 91
3 A2 12.2677 13.0809 0.8132 95
3 A3 12.5465 12.8764 0.3299 95
3 E4 12.8253 13.1180 0.2928 91
3 C#4 12.8253 13.1180 0.2928 80
3 A3 13.1041 13.2296 0.1255 103
3 C#3 13.3829 14.4517 1.0688 92
3 G#3 13.6617 14.0706 0.4089 77
3 C#4 13.9405 14.6422 0.7017 71
3 E4 13.9405 14.6422 0.7017 91
3 G#3 14.2193 14.4981 0.2788 82
3 C#3 14.4981 15.3996 0.9015 93
3 G#3 14.7770 15.3857 0.6087 96
3 E4 15.0558 15.4089 0.3532 93
3 C#4 15.0558 15.4322 0.3764 65
3 E3 15.6134 16.4823 0.8690 87
3 B3 15.8922 16.2221 0.3299 68
3 G#4 16.1710 16.7240 0.5530 82
3 E4 16.1710 16.7286 0.5576 87
3 B3 16.4498 16.7426 0.2928 95
3 E3 16.7286 17.6534 0.9247 89
3 B3 17.0074 17.3327 0.3253 75
3 G#4 17.2863 17.7556 0.4693 82
3 E4 17.2863 17.7649 0.4786 89
3 B3 17.5651 17.7835 0.2184 81
3 B2 17.8439 18.7547 0.9108 91
3 B3 18.1227 18.5641 0.4414 85
3 F#4 18.4015 18.9684 0.5669 80
3 D#4 18.4015 19.0195 0.6180 77
3 B3 18.6803 18.9823 0.3020 87
3 B2 18.9591 19.6654 0.7063 91
3 B3 19.2379 19.8002 0.5623 81
3 D#4 19.5167 19.7863 0.2695 77
3 F#4 19.5167 19.7863 0.2695 80
3 A2 20.0744 20.9991 0.9247 97
3 A3 20.3532 20.7296 0.3764 89
3 E4 20.6320 21.1942 0.5623 95
3 C#4 20.6320 21.2639 0.6320 77
3 A3 20.9108 21.2035 0.2928 91
3 A2 21.1896 22.0028 0.8132 95
3 A3 21.4684 21.7983 0.3299 95
3 E4 21.7472 22.0400 0.2928 91
3 C#4 21.7472 22.0400 0.2928 80
3 A3 22.0260 22.1515 0.1255 103
3 A2 22.3048 23.2667 0.9619 80
3 A3 22.5837 22.9647 0.3810 83
3 E4 22.8625 23.5409 0.6784 83
3 C#4 22.8625 23.6942 0.8318 74
3 A3 23.1413 23.4712 0.3299 85
3 A2 23.4201 25.3021 1.8820 93
3 A3 23.6989 25.3671 1.6682 83
3 E4 23.9777 24.3355 0.3578 91
3 C#4 23.9777 24.3541 0.3764 74
3 C#3 26.6341 27.0070 0.3730 90
3 G#4 26.8800 27.0480 0.1680 90
3 C#4 26.8800 27.0644 0.1844 90
3 E4 26.8800 27.0767 0.1967 90
3 C#3 27.1259 27.4373 0.3115 90
3 G#4 27.3718 27.5849 0.2131 90
3 C#4 27.3718 27.6095 0.2377 90
3 E4 27.3718 27.6177 0.2459 90
3 C#3 27.6177 27.9578 0.3402 90
3 G#4 27.8636 28.0644 0.2008 90
3 C#4 27.8636 28.1013 0.2377 90
3 E4 27.8636 28.1013 0.2377 90
3 G#4 28.1095 28.3800 0.2705 90
3 C#3 28.1095 28.4046 0.2951 90
3 C#4 28.1095 28.4169 0.3074 90
3 E4 28.1095 28.4169 0.3074 90
3 E3 28.6013 28.9005 0.2992 90
3 G#4 28.8472 29.0685 0.2213 90
3 B3 28.8472 29.0767 0.2295 90
3 E4 28.8472 29.1095 0.2623 90
3 E3 29.0931 29.3718 0.2787 90
3 G#4 29.3390 29.5480 0.2090 90
3 B3 29.3390 29.5767 0.2377 90
3 E4 29.3390 29.6013 0.2623 90
3 E3 29.5849 29.9005 0.3156 90
3 G#4 29.8308 30.0357 0.2049 90
3 B3 29.8308 30.0685 0.2377 90
3 E4 29.8308 30.1218 0.2910 90
3 E3 30.0767 30.4210 0.3443 90
3 G#4 30.3226 30.5521 0.2295 90
3 B3 30.3226 30.5767 0.2541 90
3 E4 30.3226 30.5890 0.2664 90
3 B2 30.5685 30.9005 0.3320 90
3 B3 30.8144 31.0480 0.2336 90
3 D#4 30.8144 31.0562 0.2418 90
3 F#4 30.8144 31.0562 0.2418 90
3 B2 31.0603 31.3636 0.3033 90
3 F#4 31.3062 31.5357 0.2295 90
3 D#4 31.3062 31.5439 0.2377 90
3 B3 31.3062 31.5562 0.2500 90
3 B2 31.5521 31.8882 0.3361 90
3 F#4 31.7980 32.0152 0.2172 90
3 B3 31.7980 32.0521 0.2541 90
3 D#4 31.7980 32.0521 0.2541 90
3 B2 32.0439 32.4701 0.4262 90
3 D#4 32.2898 32.4783 0.1885 90
3 F#4 32.2898 32.4947 0.2049 90
3 B3 32.2898 32.4988 0.2090 90
3 A2 32.5357 32.8513 0.3156 90
3 C#4 32.7816 33.0029 0.2213 90
3 A3 32.7816 33.0193 0.2377 90
3 E4 32.7816 33.0193 0.2377 90
3 A2 33.0275 33.3308 0.3033 90
3 C#4 33.2734 33.5111 0.2377 90
3 A3 33.2734 33.5316 0.2582 90
3 E4 33.2734 33.5316 0.2582 90
3 A2 33.5193 33.8636 0.3443 90
3 C#4 33.7652 33.9701 0.2049 90
3 G#4 33.7652 33.9742 0.2090 90
3 A3 33.7652 33.9783 0.2131 90
3 E4 33.7652 33.9824 0.2172 90
3 A2 34.0111 34.3267 0.3156 90
3 A3 34.2570 34.4701 0.2131 90
3 C#4 34.2570 34.4783 0.2213 90
3 G#4 34.2570 34.4865 0.2295 90
3 E4 34.2570 34.4988 0.2418 90
3 C#3 34.5029 34.8390 0.3361 90
3 G#4 34.7488 34.8677 0.1189 90
3 C#4 34.7488 34.8677 0.1189 90
3 E4 34.7488 34.8759 0.1270 90
3 E4 34.8718 34.8759 0.0041 96
3 G#4 34.8718 34.9906 0.1189 96
3 C#4 34.8718 34.9906 0.1189 96
3 C#3 34.9947 35.3062 0.3115 90
3 G#4 35.2406 35.3595 0.1189 90
3 C#4 35.2406 35.3595 0.1189 90
3 E4 35.2406 35.3677 0.1270 90
3 E4 35.3636 35.3677 0.0041 96
3 G#4 35.3636 35.4824 0.1189 96
3 C#4 35.3636 35.4824 0.1189 96
3 C#3 35.4865 35.8103 0.3238 90
3 G#4 35.7324 35.8513 0.1189 90
3 C#4 35.7324 35.8513 0.1189 90
3 E4 35.7324 35.8595 0.1270 90
3 E4 35.8554 35.8595 0.0041 96
3 G#4 35.8554 35.9742 0.1189 96
3 C#4 35.8554 35.9742 0.1189 96
3 C#3 35.9783 36.3964 0.4180 90
3 G#4 36.2242 36.3431 0.1189 90
3 C#4 36.2242 36.3431 0.1189 90
3 E4 36.2242 36.3513 0.1270 90
3 E4 36.3472 36.3513 0.0041 96
3 C#4 36.3472 36.4660 0.1189 96
3 G#4 36.3472 36.4660 0.1189 96
3 E3 36.4701 36.7775 0.3074 90
3 G#4 36.7160 36.8349 0.1189 90
3 B3 36.7160 36.8349 0.1189 90
3 E4 36.7160 36.8431 0.1270 90
3 E4 36.8390 36.8431 0.0041 96
3 G#4 36.8390 36.9578 0.1189 96
3 B3 36.8390 36.9578 0.1189 96
3 E3 36.9619 37.2652 0.3033 90
3 G#4 37.2078 37.3267 0.1189 90
3 B3 37.2078 37.3267 0.1189 90
3 E4 37.2078 37.3349 0.1270 90
3 E4 37.3308 37.3349 0.0041 96
3 G#4 37.3308 37.4496 0.1189 96
3 B3 37.3308 37.4496 0.1189 96
3 E3 37.4537 37.7488 0.2951 90
3 G#4 37.6996 37.8185 0.1189 90
3 E4 37.6996 37.8185 0.1189 90
3 B3 37.6996 37.8185 0.1189 90
3 G#4 37.8226 37.9414 0.1189 96
3 B3 37.8226 37.9414 0.1189 96
3 E4 37.8226 37.9496 0.1270 96
3 E3 37.9455 38.3103 0.3648 90
3 G#4 38.1914 38.3103 0.1189 90
3 B3 38.1914 38.3103 0.1189 90
3 E4 38.1914 38.3185 0.1270 90
3 E4 38.3144 38.3185 0.0041 96
3 G#4 38.3144 38.4332 0.1189 96
3 B3 38.3144 38.4332 0.1189 96
3 B2 38.4373 38.7775 0.3402 90
3 F#4 38.6832 38.8021 0.1189 90
3 B3 38.6832 38.8021 0.1189 90
3 G#4 38.6832 38.8021 0.1189 78
3 D#4 38.6832 38.8103 0.1270 90
3 D#4 38.8062 38.8103 0.0041 96
3 G#4 38.8062 38.9250 0.1189 84
3 F#4 38.8062 38.9250 0.1189 96
3 B3 38.8062 38.9250 0.1189 96
3 B2 38.9291 39.2078 0.2787 90
3 F#4 39.1750 39.2939 0.1189 90
3 B3 39.1750 39.2939 0.1189 90
3 G#4 39.1750 39.2939 0.1189 78
3 D#4 39.1750 39.3021 0.1270 90
3 D#4 39.2980 39.3021 0.0041 96
3 G#4 39.2980 39.4168 0.1189 84
3 F#4 39.2980 39.4168 0.1189 96
3 B3 39.2980 39.4168 0.1189 96
3 B2 39.4209 39.6996 0.2787 90
3 F#4 39.6668 39.7857 0.1189 90
3 B3 39.6668 39.7857 0.1189 90
3 G#4 39.6668 39.7857 0.1189 78
3 D#4 39.6668 39.7939 0.1270 90
3 D#4 39.7898 39.7939 0.0041 96
3 G#4 39.7898 39.9087 0.1189 84
3 F#4 39.7898 39.9087 0.1189 96
3 B3 39.7898 39.9087 0.1189 96
3 B2 39.9127 40.2488 0.3361 90
3 F#4 40.1587 40.2775 0.1189 90
3 B3 40.1587 40.2775 0.1189 90
3 G#4 40.1587 40.2775 0.1189 78
3 D#4 40.1587 40.2857 0.1270 90
3 D#4 40.2816 40.2857 0.0041 96
3 B3 40.2816 40.4005 0.1189 96
3 F#4 40.2816 40.4005 0.1189 96
3 G#4 40.2816 40.4005 0.1189 84
3 A2 40.4046 40.6996 0.2951 90
3 E4 40.6505 40.7693 0.1189 90
3 A3 40.6505 40.7693 0.1189 90
3 C#4 40.6505 40.7775 0.1270 90
3 C#4 40.7734 40.7775 0.0041 96
3 A3 40.7734 40.8923 0.1189 96
3 E4 40.7734 40.8923 0.1189 96
3 A2 40.8964 41.2242 0.3279 90
3 E4 41.1423 41.2611 0.1189 90
3 A3 41.1423 41.2611 0.1189 90
3 C#4 41.1423 41.2693 0.1270 90
3 C#4 41.2652 41.2693 0.0041 96
3 E4 41.2652 41.3841 0.1189 96
3 A3 41.2652 41.3841 0.1189 96
3 A2 41.3882 41.7119 0.3238 90
3 E4 41.6341 41.7529 0.1189 90
3 A3 41.6341 41.7529 0.1189 90
3 G#4 41.6341 41.7529 0.1189 83
3 C#4 41.6341 41.7611 0.1270 90
3 C#4 41.7570 41.7611 0.0041 96
3 G#4 41.7570 41.8759 0.1189 89
3 E4 41.7570 41.8759 0.1189 96
3 A3 41.7570 41.8759 0.1189 96
3 A2 41.8800 42.1668 0.2869 90
3 E4 42.1259 42.2447 0.1189 90
3 A3 42.1259 42.2447 0.1189 90
3 G#4 42.1259 42.2447 0.1189 83
3 C#4 42.1259 42.2529 0.1270 90
3 C#4 42.2488 42.2529 0.0041 96
3 G#4 42.2488 42.3677 0.1189 89
3 E4 42.2488 42.3677 0.1189 96
3 A3 42.2488 42.3677 0.1189 96
3 G#4 42.6177 42.8103 0.1926 90
3 C#4 42.6177 42.8267 0.2090 90
3 E4 42.6177 42.8472 0.2295 90
3 G#4 43.1095 43.3185 0.2090 90
3 C#4 43.1095 43.3472 0.2377 90
3 E4 43.1095 43.3595 0.2500 90
3 G#4 43.6013 43.7816 0.1803 90
3 C#4 43.6013 43.8390 0.2377 90
3 E4 43.6013 43.8554 0.2541 90
3 G#4 44.0931 44.2734 0.1803 90
3 E4 44.0931 44.2857 0.1926 90
3 C#4 44.0931 44.3021 0.2090 90
3 G#4 44.5849 44.7939 0.2090 90
3 B3 44.5849 44.8144 0.2295 90
3 E4 44.5849 44.8308 0.2459 90
3 G#4 45.0767 45.2857 0.2090 90
3 B3 45.0767 45.3103 0.2336 90
3 E4 45.0767 45.3431 0.2664 90
3 G#4 45.5685 45.7447 0.1762 90
3 B3 45.5685 45.7734 0.2049 90
3 E4 45.5685 45.8267 0.2582 90
3 G#4 46.0603 46.2160 0.1557 90
3 B3 46.0603 46.2570 0.1967 90
3 E4 46.0603 46.2898 0.2295 90
3 F#4 46.5521 46.7611 0.2090 90
3 D#4 46.5521 46.7652 0.2131 90
3 B3 46.5521 46.7734 0.2213 90
3 F#4 47.0439 47.2734 0.2295 90
3 D#4 47.0439 47.2816 0.2377 90
3 B3 47.0439 47.2857 0.2418 90
3 F#4 47.5357 47.7529 0.2172 90
3 B3 47.5357 47.7652 0.2295 90
3 D#4 47.5357 47.7652 0.2295 90
3 F#4 48.0275 48.2160 0.1885 90
3 D#4 48.0275 48.2283 0.2008 90
3 B3 48.0275 48.2365 0.2090 90
3 C#4 48.5193 48.7406 0.2213 90
3 A3 48.5193 48.7693 0.2500 90
3 E4 48.5193 48.7734 0.2541 90
3 C#4 49.0111 49.2242 0.2131 90
3 E4 49.0111 49.2406 0.2295 90
3 A3 49.0111 49.2447 0.2336 90
3 G#4 49.5029 49.6791 0.1762 90
3 C#4 49.5029 49.6791 0.1762 90
3 A3 49.5029 49.6914 0.1885 90
3 E4 49.5029 49.7119 0.2090 90
3 A3 49.9947 50.1750 0.1803 90
3 C#4 49.9947 50.1914 0.1967 90
3 G#4 49.9947 50.2037 0.2090 90
3 E4 49.9947 50.2201 0.2254 90
3 G#4 50.4865 50.6791 0.1926 90
3 C#4 50.4865 50.6955 0.2090 90
3 E4 50.4865 50.7160 0.2295 90
3 G#4 50.9783 51.1873 0.2090 90
3 C#4 50.9783 51.2160 0.2377 90
3 E4 50.9783 51.2283 0.2500 90
3 G#4 51.4701 51.6504 0.1803 90
3 C#4 51.4701 51.7078 0.2377 90
3 E4 51.4701 51.7242 0.2541 90
3 G#4 51.9619 52.1423 0.1803 90
3 E4 51.9619 52.1545 0.1926 90
3 C#4 51.9619 52.1709 0.2090 90
3 G#4 52.4537 52.6627 0.2090 90
3 B3 52.4537 52.6832 0.2295 90
3 E4 52.4537 52.6996 0.2459 90
3 G#4 52.9455 53.1545 0.2090 90
3 B3 52.9455 53.1791 0.2336 90
3 E4 52.9455 53.2119 0.2664 90
3 G#4 53.4373 53.6136 0.1762 90
3 B3 53.4373 53.6422 0.2049 90
3 E4 53.4373 53.6955 0.2582 90
3 G#4 53.9291 54.0849 0.1557 90
3 B3 53.9291 54.1259 0.1967 90
3 E4 53.9291 54.1586 0.2295 90
3 F#4 54.4209 54.6300 0.2090 90
3 D#4 54.4209 54.6341 0.2131 90
3 B3 54.4209 54.6422 0.2213 90
3 F#4 54.9127 55.1422 0.2295 90
3 D#4 54.9127 55.1504 0.2377 90
3 B3 54.9127 55.1545 0.2418 90
3 F#4 55.4045 55.6218 0.2172 90
3 B3 55.4045 55.6341 0.2295 90
3 D#4 55.4045 55.6341 0.2295 90
3 F#4 55.8963 56.0849 0.1885 90
3 D#4 55.8963 56.0972 0.2008 90
3 B3 55.8963 56.1054 0.2090 90
3 C#4 56.3881 56.6095 0.2213 90
3 A3 56.3881 56.6381 0.2500 90
3 E4 56.3881 56.6422 0.2541 90
3 C#4 56.8800 57.0931 0.2131 90
3 E4 56.8800 57.1095 0.2295 90
3 A3 56.8800 57.1136 0.2336 90
3 G#4 57.3718 57.5480 0.1762 90
3 C#4 57.3718 57.5480 0.1762 90
3 A3 57.3718 57.5603 0.1885 90
3 E4 57.3718 57.5808 0.2090 90
3 A3 57.8636 58.0439 0.1803 90
3 C#4 57.8636 58.0603 0.1967 90
3 G#4 57.8636 58.0726 0.2090 90
3 E4 57.8636 58.0890 0.2254 90
3 G#4 58.3554 58.5480 0.1926 90
3 C#4 58.3554 58.5644 0.2090 90
3 E4 58.3554 58.5849 0.2295 90
3 G#4 58.8472 59.0562 0.2090 90
3 C#4 58.8472 59.0849 0.2377 90
3 E4 58.8472 59.0972 0.2500 90
3 G#4 59.3390 59.5193 0.1803 90
3 C#4 59.3390 59.5767 0.2377 90
3 E4 59.3390 59.5931 0.2541 90
3 G#4 59.8308 60.0111 0.1803 90
3 E4 59.8308 60.0234 0.1926 90
3 C#4 59.8308 60.0398 0.2090 90
3 G#4 60.3226 60.5316 0.2090 90
3 B3 60.3226 60.5521 0.2295 90
3 E4 60.3226 60.5685 0.2459 90
3 G#4 60.8144 61.0234 0.2090 90
3 B3 60.8144 61.0480 0.2336 90
3 E4 60.8144 61.0808 0.2664 90
3 G#4 61.3062 61.4824 0.1762 90
3 B3 61.3062 61.5111 0.2049 90
3 E4 61.3062 61.5644 0.2582 90
3 G#4 61.7980 61.9537 0.1557 90
3 B3 61.7980 61.9947 0.1967 90
3 E4 61.7980 62.0275 0.2295 90
3 F#4 62.2898 62.4988 0.2090 90
3 D#4 62.2898 62.5029 0.2131 90
3 B3 62.2898 62.5111 0.2213 90
3 F#4 62.7816 63.0111 0.2295 90
3 D#4 62.7816 63.0193 0.2377 90
3 B3 62.7816 63.0234 0.2418 90
3 F#4 63.2734 63.4906 0.2172 90
3 B3 63.2734 63.5029 0.2295 90
3 D#4 63.2734 63.5029 0.2295 90
3 F#4 63.7652 63.9537 0.1885 90
3 D#4 63.7652 63.9660 0.2008 90
3 B3 63.7652 63.9742 0.2090 90
3 C#4 64.2570 64.4783 0.2213 90
3 A3 64.2570 64.5070 0.2500 90
3 E4 64.2570 64.5111 0.2541 90
3 C#4 64.7488 64.9619 0.2131 90
3 E4 64.7488 64.9783 0.2295 90
3 A3 64.7488 64.9824 0.2336 90
3 G#4 65.2406 65.4168 0.1762 90
3 C#4 65.2406 65.4168 0.1762 90
3 A3 65.2406 65.4291 0.1885 90
3 E4 65.2406 65.4496 0.2090 90
3 A3 65.7324 65.9127 0.1803 90
3 C#4 65.7324 65.9291 0.1967 90
3 G#4 65.7324 65.9414 0.2090 90
3 E4 65.7324 65.9578 0.2254 90
3 G#4 66.2242 66.4168 0.1926 90
3 C#4 66.2242 66.4332 0.2090 90
3 E4 66.2242 66.4537 0.2295 90
3 G#4 66.7160 66.9250 0.2090 90
3 C#4 66.7160 66.9537 0.2377 90
3 E4 66.7160 66.9660 0.2500 90
3 G#4 67.2078 67.3881 0.1803 90
3 C#4 67.2078 67.4455 0.2377 90
3 E4 67.2078 67.4619 0.2541 90
3 G#4 67.6996 67.8799 0.1803 90
3 E4 67.6996 67.8922 0.1926 90
3 C#4 67.6996 67.9086 0.2090 90
3 G#4 68.1914 68.4004 0.2090 90
3 B3 68.1914 68.4209 0.2295 90
3 E4 68.1914 68.4373 0.2459 90
3 G#4 68.6832 68.8922 0.2090 90
3 B3 68.6832 68.9168 0.2336 90
3 E4 68.6832 68.9496 0.2664 90
3 G#4 69.1750 69.3513 0.1762 90
3 B3 69.1750 69.3799 0.2049 90
3 E4 69.1750 69.4332 0.2582 90
3 G#4 69.6668 69.8226 0.1557 90
3 B3 69.6668 69.8636 0.1967 90
3 E4 69.6668 69.8963 0.2295 90
3 F#4 70.1586 70.3677 0.2090 90
3 D#4 70.1586 70.3717 0.2131 90
3 B3 70.1586 70.3799 0.2213 90
3 F#4 70.6504 70.8799 0.2295 90
3 D#4 70.6504 70.8881 0.2377 90
3 B3 70.6504 70.8922 0.2418 90
3 F#4 71.1422 71.3595 0.2172 90
3 B3 71.1422 71.3717 0.2295 90
3 D#4 71.1422 71.3717 0.2295 90
3 F#4 71.6340 71.8226 0.1885 90
3 D#4 71.6340 71.8349 0.2008 90
3 B3 71.6340 71.8431 0.2090 90
3 C#4 72.1258 72.3472 0.2213 90
3 A3 72.1258 72.3758 0.2500 90
3 E4 72.1258 72.3799 0.2541 90
3 C#4 72.6176 72.8308 0.2131 90
3 E4 72.6176 72.8472 0.2295 90
3 A3 72.6176 72.8513 0.2336 90
3 G#4 73.1095 73.2857 0.1762 90
3 C#4 73.1095 73.2857 0.1762 90
3 A3 73.1095 73.2980 0.1885 90
3 E4 73.1095 73.3185 0.2090 90
3 A3 73.6013 73.7816 0.1803 90
3 C#4 73.6013 73.7980 0.1967 90
3 G#4 73.6013 73.8103 0.2090 90
3 E4 73.6013 73.8267 0.2254 90
3 C#4 74.0931 74.3144 0.2213 90
3 A3 74.0931 74.3431 0.2500 90
3 E4 74.0931 74.3472 0.2541 90
3 C#4 74.5849 74.7980 0.2131 90
3 E4 74.5849 74.8144 0.2295 90
3 A3 74.5849 74.8185 0.2336 90
3 G#4 75.0767 75.2529 0.1762 90
3 C#4 75.0767 75.2529 0.1762 90
3 A3 75.0767 75.2652 0.1885 90
3 E4 75.0767 75.2857 0.2090 90
3 A3 75.5685 75.7488 0.1803 90
3 C#4 75.5685 75.7652 0.1967 90
3 G#4 75.5685 75.7775 0.2090 90
3 E4 75.5685 75.7939 0.2254 90
3 C#4 76.0603 76.2816 0.2213 90
3 A3 76.0603 76.3103 0.2500 90
3 E4 76.0603 76.3144 0.2541 90
3 C#4 76.5521 76.7652 0.2131 90
3 E4 76.5521 76.7816 0.2295 90
3 A3 76.5521 76.7857 0.2336 90
3 C#4 77.0439 77.2201 0.1762 90
3 G#4 77.0439 77.2201 0.1762 90
3 A3 77.0439 77.2324 0.1885 90
3 E4 77.0439 77.2529 0.2090 90
3 A3 77.5357 77.7160 0.1803 90
3 C#4 77.5357 77.7324 0.1967 90
3 G#4 77.5357 77.7447 0.2090 90
3 E4 77.5357 77.7611 0.2254 90
3 C#3 81.7160 82.0521 0.3361 90
3 G#4 81.9619 82.1545 0.1926 90
3 C#4 81.9619 82.1709 0.2090 90
3 E4 81.9619 82.1914 0.2295 90
3 C#3 82.2078 82.5193 0.3115 90
3 G#4 82.4537 82.6627 0.2090 90
3 C#4 82.4537 82.6914 0.2377 90
3 E4 82.4537 82.7037 0.2500 90
3 C#3 82.6996 83.0234 0.3238 90
3 G#4 82.9455 83.1258 0.1803 90
3 C#4 82.9455 83.1832 0.2377 90
3 E4 82.9455 83.1996 0.2541 90
3 C#3 83.1914 83.6094 0.4180 90
3 G#4 83.4373 83.6176 0.1803 90
3 E4 83.4373 83.6299 0.1926 90
3 C#4 83.4373 83.6463 0.2090 90
3 E3 83.6832 83.9906 0.3074 90
3 G#4 83.9291 84.1381 0.2090 90
3 B3 83.9291 84.1586 0.2295 90
3 E4 83.9291 84.1750 0.2459 90
3 E3 84.1750 84.4783 0.3033 90
3 G#4 84.4209 84.6299 0.2090 90
3 B3 84.4209 84.6545 0.2336 90
3 E4 84.4209 84.6873 0.2664 90
3 E3 84.6668 84.9619 0.2951 90
3 G#4 84.9127 85.0316 0.1189 90
3 B3 84.9127 85.0316 0.1189 90
3 E4 84.9127 85.0398 0.1270 90
3 E4 85.0357 85.0398 0.0041 96
3 G#4 85.0357 85.1545 0.1189 96
3 B3 85.0357 85.1545 0.1189 96
3 E3 85.1586 85.5234 0.3648 90
3 G#4 85.4045 85.5603 0.1557 90
3 B3 85.4045 85.6012 0.1967 90
3 E4 85.4045 85.6340 0.2295 90
3 B2 85.6504 85.9906 0.3402 90
3 F#4 85.8963 86.1053 0.2090 90
3 D#4 85.8963 86.1094 0.2131 90
3 B3 85.8963 86.1176 0.2213 90
3 B2 86.1422 86.4209 0.2787 90
3 F#4 86.3881 86.6176 0.2295 90
3 D#4 86.3881 86.6258 0.2377 90
3 B3 86.3881 86.6299 0.2418 90
3 B2 86.6340 86.9127 0.2787 90
3 F#4 86.8799 87.0971 0.2172 90
3 B3 86.8799 87.1094 0.2295 90
3 D#4 86.8799 87.1094 0.2295 90
3 B2 87.1258 87.4619 0.3361 90
3 F#4 87.3717 87.5603 0.1885 90
3 D#4 87.3717 87.5726 0.2008 90
3 B3 87.3717 87.5808 0.2090 90
3 A2 87.6176 87.9127 0.2951 90
3 C#4 87.8635 88.0849 0.2213 90
3 A3 87.8635 88.1135 0.2500 90
3 E4 87.8635 88.1176 0.2541 90
3 A2 88.1094 88.4373 0.3279 90
3 C#4 88.3553 88.5685 0.2131 90
3 E4 88.3553 88.5849 0.2295 90
3 A3 88.3553 88.5890 0.2336 90
3 A2 88.6012 88.9250 0.3238 90
3 C#4 88.8471 89.0234 0.1762 90
3 G#4 88.8471 89.0234 0.1762 90
3 A3 88.8471 89.0357 0.1885 90
3 E4 88.8471 89.0562 0.2090 90
3 A2 89.0930 89.3799 0.2869 90
3 A3 89.3390 89.5193 0.1803 90
3 C#4 89.3390 89.5357 0.1967 90
3 G#4 89.3390 89.5480 0.2090 90
3 E4 89.3390 89.5644 0.2254 90
3 C#3 89.5849 89.9209 0.3361 90
3 G#4 89.8308 90.0234 0.1926 90
3 C#4 89.8308 90.0398 0.2090 90
3 E4 89.8308 90.0603 0.2295 90
3 C#3 90.0767 90.3881 0.3115 90
3 G#4 90.3226 90.5316 0.2090 90
3 C#4 90.3226 90.5603 0.2377 90
3 E4 90.3226 90.5726 0.2500 90
3 C#3 90.5685 90.8922 0.3238 90
3 G#4 90.8144 90.9947 0.1803 90
3 C#4 90.8144 91.0521 0.2377 90
3 E4 90.8144 91.0685 0.2541 90
3 C#3 91.0603 91.4783 0.4180 90
3 G#4 91.3062 91.4865 0.1803 90
3 E4 91.3062 91.4988 0.1926 90
3 C#4 91.3062 91.5152 0.2090 90
3 E3 91.5521 91.8594 0.3074 90
3 G#4 91.7980 92.0070 0.2090 90
3 B3 91.7980 92.0275 0.2295 90
3 E4 91.7980 92.0439 0.2459 90
3 E3 92.0439 92.3471 0.3033 90
3 G#4 92.2898 92.4988 0.2090 90
3 B3 92.2898 92.5234 0.2336 90
3 E4 92.2898 92.5562 0.2664 90
3 E3 92.5357 92.8308 0.2951 90
3 G#4 92.7816 92.9578 0.1762 90
3 B3 92.7816 92.9865 0.2049 90
3 E4 92.7816 93.0398 0.2582 90
3 E3 93.0275 93.3922 0.3648 90
3 G#4 93.2734 93.4291 0.1557 90
3 B3 93.2734 93.4701 0.1967 90
3 E4 93.2734 93.5029 0.2295 90
3 B2 93.5193 93.8594 0.3402 90
3 F#4 93.7652 93.9742 0.2090 90
3 D#4 93.7652 93.9783 0.2131 90
3 B3 93.7652 93.9865 0.2213 90
3 B2 94.0111 94.2898 0.2787 90
3 F#4 94.2570 94.4865 0.2295 90
3 D#4 94.2570 94.4947 0.2377 90
3 B3 94.2570 94.4988 0.2418 90
3 B2 94.5029 94.7816 0.2787 90
3 F#4 94.7488 94.9660 0.2172 90
3 D#4 94.7488 94.9783 0.2295 90
3 B3 94.7488 94.9783 0.2295 90
3 B2 94.9947 95.3308 0.3361 90
3 F#4 95.2406 95.4291 0.1885 90
3 D#4 95.2406 95.4414 0.2008 90
3 B3 95.2406 95.4496 0.2090 90
3 A2 95.4865 95.7816 0.2951 90
3 C#4 95.7324 95.9537 0.2213 90
3 A3 95.7324 95.9824 0.2500 90
3 E4 95.7324 95.9865 0.2541 90
3 A2 95.9783 96.3062 0.3279 90
3 C#4 96.2242 96.4373 0.2131 90
3 E4 96.2242 96.4537 0.2295 90
3 A3 96.2242 96.4578 0.2336 90
3 A2 96.4701 96.7939 0.3238 90
3 C#4 96.7160 96.8922 0.1762 90
3 G#4 96.7160 96.8922 0.1762 90
3 A3 96.7160 96.9045 0.1885 90
3 E4 96.7160 96.9250 0.2090 90
3 A2 96.9619 97.2488 0.2869 90
3 A3 97.2078 97.3881 0.1803 90
3 C#4 97.2078 97.4045 0.1967 90
3 G#4 97.2078 97.4168 0.2090 90
3 E4 97.2078 97.4332 0.2254 90
3 C#3 97.4537 97.7898 0.3361 90
3 C#4 97.6996 97.8185 0.1189 90
3 G#4 97.6996 97.8185 0.1189 90
3 E4 97.6996 97.8267 0.1270 90
3 E4 97.8226 97.8267 0.0041 96
3 G#4 97.8226 97.9414 0.1189 96
3 C#4 97.8226 97.9414 0.1189 96
3 C#3 97.9455 98.2570 0.3115 90
3 C#4 98.1914 98.3103 0.1189 90
3 G#4 98.1914 98.3103 0.1189 90
3 E4 98.1914 98.3185 0.1270 90
3 E4 98.3144 98.3185 0.0041 96
3 G#4 98.3144 98.4332 0.1189 96
3 C#4 98.3144 98.4332 0.1189 96
3 C#3 98.4373 98.7611 0.3238 90
3 C#4 98.6832 98.8021 0.1189 90
3 G#4 98.6832 98.8021 0.1189 90
3 E4 98.6832 98.8103 0.1270 90
3 E4 98.8062 98.8103 0.0041 96
3 G#4 98.8062 98.9250 0.1189 96
3 C#4 98.8062 98.9250 0.1189 96
3 C#3 98.9291 99.3471 0.4180 90
3 C#4 99.1750 99.2939 0.1189 90
3 G#4 99.1750 99.2939 0.1189 90
3 E4 99.1750 99.3021 0.1270 90
3 E4 99.2980 99.3021 0.0041 96
3 C#4 99.2980 99.4168 0.1189 96
3 G#4 99.2980 99.4168 0.1189 96
3 E3 99.4209 99.7283 0.3074 90
3 G#4 99.6668 99.7857 0.1189 90
3 B3 99.6668 99.7857 0.1189 90
3 E4 99.6668 99.7939 0.1270 90
3 E4 99.7898 99.7939 0.0041 96
3 G#4 99.7898 99.9086 0.1189 96
3 B3 99.7898 99.9086 0.1189 96
3 E3 99.9127 100.2160 0.3033 90
3 B3 100.1586 100.2775 0.1189 90
3 G#4 100.1586 100.2775 0.1189 90
3 E4 100.1586 100.2857 0.1270 90
3 E4 100.2816 100.2857 0.0041 96
3 G#4 100.2816 100.4004 0.1189 96
3 B3 100.2816 100.4004 0.1189 96
3 E3 100.4045 100.6996 0.2951 90
3 E4 100.6504 100.7693 0.1189 90
3 B3 100.6504 100.7693 0.1189 90
3 G#4 100.6504 100.7693 0.1189 90
3 G#4 100.7734 100.8922 0.1189 96
3 B3 100.7734 100.8922 0.1189 96
3 E4 100.7734 100.9004 0.1270 96
3 E3 100.8963 101.2611 0.3648 90
3 G#4 101.1422 101.2611 0.1189 90
3 B3 101.1422 101.2611 0.1189 90
3 E4 101.1422 101.2693 0.1270 90
3 E4 101.2652 101.2693 0.0041 96
3 G#4 101.2652 101.3840 0.1189 96
3 B3 101.2652 101.3840 0.1189 96
3 B2 101.3881 101.7283 0.3402 90
3 F#4 101.6340 101.7529 0.1189 90
3 B3 101.6340 101.7529 0.1189 90
3 G#4 101.6340 101.7529 0.1189 78
3 D#4 101.6340 101.7611 0.1270 90
3 D#4 101.7570 101.7611 0.0041 96
3 F#4 101.7570 101.8758 0.1189 96
3 B3 101.7570 101.8758 0.1189 96
3 G#4 101.7570 101.8758 0.1189 84
3 B2 101.8799 102.1586 0.2787 90
3 B3 102.1258 102.2447 0.1189 90
3 F#4 102.1258 102.2447 0.1189 90
3 G#4 102.1258 102.2447 0.1189 78
3 D#4 102.1258 102.2529 0.1270 90
3 D#4 102.2488 102.2529 0.0041 96
3 B3 102.2488 102.3676 0.1189 96
3 F#4 102.2488 102.3676 0.1189 96
3 G#4 102.2488 102.3676 0.1189 84
3 B2 102.3717 102.6504 0.2787 90
3 F#4 102.6176 102.7365 0.1189 90
3 B3 102.6176 102.7365 0.1189 90
3 G#4 102.6176 102.7365 0.1189 78
3 D#4 102.6176 102.7447 0.1270 90
3 D#4 102.7406 102.7447 0.0041 96
3 B3 102.7406 102.8594 0.1189 96
3 G#4 102.7406 102.8594 0.1189 84
3 F#4 102.7406 102.8594 0.1189 96
3 B2 102.8635 103.1996 0.3361 90
3 F#4 103.1094 103.2283 0.1189 90
3 B3 103.1094 103.2283 0.1189 90
3 G#4 103.1094 103.2283 0.1189 78
3 D#4 103.1094 103.2365 0.1270 90
3 D#4 103.2324 103.2365 0.0041 96
3 B3 103.2324 103.3512 0.1189 96
3 G#4 103.2324 103.3512 0.1189 84
3 F#4 103.2324 103.3512 0.1189 96
3 A2 103.3553 103.6504 0.2951 90
3 A3 103.6012 103.7201 0.1189 90
3 E4 103.6012 103.7201 0.1189 90
3 C#4 103.6012 103.7283 0.1270 90
3 C#4 103.7242 103.7283 0.0041 96
3 E4 103.7242 103.8430 0.1189 96
3 A3 103.7242 103.8430 0.1189 96
3 A2 103.8471 104.1750 0.3279 90
3 A3 104.0930 104.2119 0.1189 90
3 E4 104.0930 104.2119 0.1189 90
3 C#4 104.0930 104.2201 0.1270 90
3 C#4 104.2160 104.2201 0.0041 96
3 E4 104.2160 104.3348 0.1189 96
3 A3 104.2160 104.3348 0.1189 96
3 A2 104.3389 104.6627 0.3238 90
3 A3 104.5848 104.7037 0.1189 90
3 G#4 104.5848 104.7037 0.1189 83
3 E4 104.5848 104.7037 0.1189 90
3 C#4 104.5848 104.7119 0.1270 90
3 C#4 104.7078 104.7119 0.0041 96
3 A3 104.7078 104.8266 0.1189 96
3 E4 104.7078 104.8266 0.1189 96
3 G#4 104.7078 104.8266 0.1189 89
3 A2 104.8307 105.1176 0.2869 90
3 A3 105.0766 105.1955 0.1189 90
3 G#4 105.0766 105.1955 0.1189 83
3 E4 105.0766 105.1955 0.1189 90
3 C#4 105.0766 105.2037 0.1270 90
3 C#4 105.1996 105.2037 0.0041 96
3 A3 105.1996 105.3184 0.1189 96
3 E4 105.1996 105.3184 0.1189 96
3 G#4 105.1996 105.3184 0.1189 89
3 C#3 105.3225 105.6586 0.3361 90
3 G#4 105.5684 105.6873 0.1189 90
3 C#4 105.5684 105.6873 0.1189 90
3 E4 105.5684 105.6955 0.1270 90
3 E4 105.6914 105.6955 0.0041 96
3 G#4 105.6914 105.8103 0.1189 96
3 C#4 105.6914 105.8103 0.1189 96
3 C#3 105.8144 106.1258 0.3115 90
3 C#4 106.0603 106.1791 0.1189 90
3 G#4 106.0603 106.1791 0.1189 90
3 E4 106.0603 106.1873 0.1270 90
3 E4 106.1832 106.1873 0.0041 96
3 G#4 106.1832 106.3021 0.1189 96
3 C#4 106.1832 106.3021 0.1189 96
3 C#3 106.3062 106.6299 0.3238 90
3 C#4 106.5521 106.6709 0.1189 90
3 G#4 106.5521 106.6709 0.1189 90
3 E4 106.5521 106.6791 0.1270 90
3 E4 106.6750 106.6791 0.0041 96
3 G#4 106.6750 106.7939 0.1189 96
3 C#4 106.6750 106.7939 0.1189 96
3 C#3 106.7980 107.2160 0.4180 90
3 C#4 107.0439 107.1627 0.1189 90
3 G#4 107.0439 107.1627 0.1189 90
3 E4 107.0439 107.1709 0.1270 90
3 E4 107.1668 107.1709 0.0041 96
3 C#4 107.1668 107.2857 0.1189 96
3 G#4 107.1668 107.2857 0.1189 96
3 E3 107.2898 107.5971 0.3074 90
3 B3 107.5357 107.6545 0.1189 90
3 G#4 107.5357 107.6545 0.1189 90
3 E4 107.5357 107.6627 0.1270 90
3 E4 107.6586 107.6627 0.0041 96
3 B3 107.6586 107.7775 0.1189 96
3 G#4 107.6586 107.7775 0.1189 96
3 E3 107.7816 108.0848 0.3033 90
3 B3 108.0275 108.1463 0.1189 90
3 G#4 108.0275 108.1463 0.1189 90
3 E4 108.0275 108.1545 0.1270 90
3 E4 108.1504 108.1545 0.0041 96
3 G#4 108.1504 108.2693 0.1189 96
3 B3 108.1504 108.2693 0.1189 96
3 E3 108.2734 108.5684 0.2951 90
3 E4 108.5193 108.6381 0.1189 90
3 B3 108.5193 108.6381 0.1189 90
3 G#4 108.5193 108.6381 0.1189 90
3 G#4 108.6422 108.7611 0.1189 96
3 B3 108.6422 108.7611 0.1189 96
3 E4 108.6422 108.7693 0.1270 96
3 E3 108.7652 109.1299 0.3648 90
3 B3 109.0111 109.1299 0.1189 90
3 G#4 109.0111 109.1299 0.1189 90
3 E4 109.0111 109.1381 0.1270 90
3 E4 109.1340 109.1381 0.0041 96
3 B3 109.1340 109.2529 0.1189 96
3 G#4 109.1340 109.2529 0.1189 96
3 B2 109.2570 109.5971 0.3402 90
3 B3 109.5029 109.6217 0.1189 90
3 F#4 109.5029 109.6217 0.1189 90
3 G#4 109.5029 109.6217 0.1189 78
3 D#4 109.5029 109.6299 0.1270 90
3 D#4 109.6258 109.6299 0.0041 96
3 G#4 109.6258 109.7447 0.1189 84
3 F#4 109.6258 109.7447 0.1189 96
3 B3 109.6258 109.7447 0.1189 96
3 B2 109.7488 110.0275 0.2787 90
3 F#4 109.9947 110.1135 0.1189 90
3 B3 109.9947 110.1135 0.1189 90
3 G#4 109.9947 110.1135 0.1189 78
3 D#4 109.9947 110.1217 0.1270 90
3 D#4 110.1176 110.1217 0.0041 96
3 F#4 110.1176 110.2365 0.1189 96
3 B3 110.1176 110.2365 0.1189 96
3 G#4 110.1176 110.2365 0.1189 84
3 B2 110.2406 110.5193 0.2787 90
3 F#4 110.4865 110.6053 0.1189 90
3 B3 110.4865 110.6053 0.1189 90
3 G#4 110.4865 110.6053 0.1189 78
3 D#4 110.4865 110.6135 0.1270 90
3 D#4 110.6094 110.6135 0.0041 96
3 B3 110.6094 110.7283 0.1189 96
3 F#4 110.6094 110.7283 0.1189 96
3 G#4 110.6094 110.7283 0.1189 84
3 B2 110.7324 111.0684 0.3361 90
3 F#4 110.9783 111.0971 0.1189 90
3 B3 110.9783 111.0971 0.1189 90
3 G#4 110.9783 111.0971 0.1189 78
3 D#4 110.9783 111.1053 0.1270 90
3 D#4 111.1012 111.1053 0.0041 96
3 G#4 111.1012 111.2201 0.1189 84
3 B3 111.1012 111.2201 0.1189 96
3 F#4 111.1012 111.2201 0.1189 96
3 A2 111.2242 111.5193 0.2951 90
3 A3 111.4701 111.5889 0.1189 90
3 E4 111.4701 111.5889 0.1189 90
3 C#4 111.4701 111.5971 0.1270 90
3 C#4 111.5930 111.5971 0.0041 96
3 A3 111.5930 111.7119 0.1189 96
3 E4 111.5930 111.7119 0.1189 96
3 A2 111.7160 112.0439 0.3279 90
3 E4 111.9619 112.0807 0.1189 90
3 A3 111.9619 112.0807 0.1189 90
3 C#4 111.9619 112.0889 0.1270 90
3 C#4 112.0848 112.0889 0.0041 96
3 E4 112.0848 112.2037 0.1189 96
3 A3 112.0848 112.2037 0.1189 96
3 A2 112.2078 112.5316 0.3238 90
3 A3 112.4537 112.5725 0.1189 90
3 E4 112.4537 112.5725 0.1189 90
3 G#4 112.4537 112.5725 0.1189 83
3 C#4 112.4537 112.5807 0.1270 90
3 C#4 112.5766 112.5807 0.0041 96
3 A3 112.5766 112.6955 0.1189 96
3 E4 112.5766 112.6955 0.1189 96
3 G#4 112.5766 112.6955 0.1189 89
3 A2 112.6996 112.9865 0.2869 90
3 A3 112.9455 113.0643 0.1189 90
3 E4 112.9455 113.0643 0.1189 90
3 G#4 112.9455 113.0643 0.1189 83
3 C#4 112.9455 113.0725 0.1270 90
3 C#4 113.0684 113.0725 0.0041 96
3 E4 113.0684 113.1873 0.1189 96
3 G#4 113.0684 113.1873 0.1189 89
3 A3 113.0684 113.1873 0.1189 96
3 C#3 113.1914 113.5275 0.3361 90
3 G#4 113.4373 113.5562 0.1189 90
3 C#4 113.4373 113.5562 0.1189 90
3 E4 113.4373 113.5643 0.1270 90
3 E4 113.5602 113.5643 0.0041 96
3 C#4 113.5602 113.6791 0.1189 96
3 G#4 113.5602 113.6791 0.1189 96
3 C#3 113.6832 113.9947 0.3115 90
3 G#4 113.9291 114.0480 0.1189 90
3 C#4 113.9291 114.0480 0.1189 90
3 E4 113.9291 114.0561 0.1270 90
3 E4 114.0521 114.0561 0.0041 96
3 G#4 114.0521 114.1709 0.1189 96
3 C#4 114.0521 114.1709 0.1189 96
3 C#3 114.1750 114.4988 0.3238 90
3 G#4 114.4209 114.5398 0.1189 90
3 C#4 114.4209 114.5398 0.1189 90
3 E4 114.4209 114.5480 0.1270 90
3 E4 114.5439 114.5480 0.0041 96
3 G#4 114.5439 114.6627 0.1189 96
3 C#4 114.5439 114.6627 0.1189 96
3 C#3 114.6668 115.0848 0.4180 90
3 G#4 114.9127 115.0316 0.1189 90
3 C#4 114.9127 115.0316 0.1189 90
3 E4 114.9127 115.0398 0.1270 90
3 E4 115.0357 115.0398 0.0041 96
3 G#4 115.0357 115.1545 0.1189 96
3 C#4 115.0357 115.1545 0.1189 96
3 E3 115.1586 115.4660 0.3074 90
3 G#4 115.4045 115.5234 0.1189 90
3 B3 115.4045 115.5234 0.1189 90
3 E4 115.4045 115.5316 0.1270 90
3 E4 115.5275 115.5316 0.0041 96
3 G#4 115.5275 115.6463 0.1189 96
3 B3 115.5275 115.6463 0.1189 96
3 E3 115.6504 115.9537 0.3033 90
3 G#4 115.8963 116.0152 0.1189 90
3 B3 115.8963 116.0152 0.1189 90
3 E4 115.8963 116.0234 0.1270 90
3 E4 116.0193 116.0234 0.0041 96
3 G#4 116.0193 116.1381 0.1189 96
3 B3 116.0193 116.1381 0.1189 96
3 E3 116.1422 116.4373 0.2951 90
3 E4 116.3881 116.5070 0.1189 90
3 G#4 116.3881 116.5070 0.1189 90
3 B3 116.3881 116.5070 0.1189 90
3 B3 116.5111 116.6299 0.1189 96
3 G#4 116.5111 116.6299 0.1189 96
3 E4 116.5111 116.6381 0.1270 96
3 E3 116.6340 116.9988 0.3648 90
3 G#4 116.8799 116.9988 0.1189 90
3 B3 116.8799 116.9988 0.1189 90
3 E4 116.8799 117.0070 0.1270 90
3 E4 117.0029 117.0070 0.0041 96
3 B3 117.0029 117.1217 0.1189 96
3 G#4 117.0029 117.1217 0.1189 96
3 B2 117.1258 117.4660 0.3402 90
3 F#4 117.3717 117.4906 0.1189 90
3 B3 117.3717 117.4906 0.1189 90
3 G#4 117.3717 117.4906 0.1189 78
3 D#4 117.3717 117.4988 0.1270 90
3 D#4 117.4947 117.4988 0.0041 96
3 F#4 117.4947 117.6135 0.1189 96
3 B3 117.4947 117.6135 0.1189 96
3 G#4 117.4947 117.6135 0.1189 84
3 B2 117.6176 117.8963 0.2787 90
3 G#4 117.8635 117.9824 0.1189 78
3 F#4 117.8635 117.9824 0.1189 90
3 B3 117.8635 117.9824 0.1189 90
3 D#4 117.8635 117.9906 0.1270 90
3 D#4 117.9865 117.9906 0.0041 96
3 G#4 117.9865 118.1053 0.1189 84
3 F#4 117.9865 118.1053 0.1189 96
3 B3 117.9865 118.1053 0.1189 96
3 B2 118.1094 118.3881 0.2787 90
3 G#4 118.3553 118.4742 0.1189 78
3 F#4 118.3553 118.4742 0.1189 90
3 B3 118.3553 118.4742 0.1189 90
3 D#4 118.3553 118.4824 0.1270 90
3 D#4 118.4783 118.4824 0.0041 96
3 G#4 118.4783 118.5971 0.1189 84
3 F#4 118.4783 118.5971 0.1189 96
3 B3 118.4783 118.5971 0.1189 96
3 B2 118.6012 118.9373 0.3361 90
3 G#4 118.8471 118.9660 0.1189 78
3 F#4 118.8471 118.9660 0.1189 90
3 B3 118.8471 118.9660 0.1189 90
3 D#4 118.8471 118.9742 0.1270 90
3 D#4 118.9701 118.9742 0.0041 96
3 F#4 118.9701 119.0889 0.1189 96
3 B3 118.9701 119.0889 0.1189 96
3 G#4 118.9701 119.0889 0.1189 84
3 A2 119.0930 119.3881 0.2951 90
3 E4 119.3389 119.4578 0.1189 90
3 A3 119.3389 119.4578 0.1189 90
3 C#4 119.3389 119.4660 0.1270 90
3 C#4 119.4619 119.4660 0.0041 96
3 E4 119.4619 119.5807 0.1189 96
3 A3 119.4619 119.5807 0.1189 96
3 A2 119.5848 119.9127 0.3279 90
3 E4 119.8307 119.9496 0.1189 90
3 A3 119.8307 119.9496 0.1189 90
3 C#4 119.8307 119.9578 0.1270 90
3 C#4 119.9537 119.9578 0.0041 96
3 E4 119.9537 120.0725 0.1189 96
3 A3 119.9537 120.0725 0.1189 96
3 A2 120.0766 120.4004 0.3238 90
3 E4 120.3225 120.4414 0.1189 90
3 A3 120.3225 120.4414 0.1189 90
3 G#4 120.3225 120.4414 0.1189 83
3 C#4 120.3225 120.4496 0.1270 90
3 C#4 120.4455 120.4496 0.0041 96
3 G#4 120.4455 120.5643 0.1189 89
3 E4 120.4455 120.5643 0.1189 96
3 A3 120.4455 120.5643 0.1189 96
3 A2 120.5684 120.8553 0.2869 90
3 E4 120.8143 120.9332 0.1189 90
3 A3 120.8143 120.9332 0.1189 90
3 G#4 120.8143 120.9332 0.1189 83
3 C#4 120.8143 120.9414 0.1270 90
3 C#4 120.9373 120.9414 0.0041 96
3 E4 120.9373 121.0561 0.1189 96
3 G#4 120.9373 121.0561 0.1189 89
3 A3 120.9373 121.0561 0.1189 96
3 C#3 121.0602 121.3963 0.3361 90
3 G#3 121.3061 121.4988 0.1926 90
3 C#4 121.3061 121.5152 0.2090 90
3 E4 121.3061 121.5357 0.2295 90
3 C#3 121.5520 121.8635 0.3115 90
3 G#3 121.7979 122.0070 0.2090 90
3 C#4 121.7979 122.0357 0.2377 90
3 E4 121.7979 122.0479 0.2500 90
3 C#3 122.0439 122.3676 0.3238 90
3 G#3 122.2898 122.4701 0.1803 90
3 C#4 122.2898 122.5275 0.2377 90
3 E4 122.2898 122.5438 0.2541 90
3 C#3 122.5357 122.9004 0.3648 90
3 G#3 122.7816 122.9619 0.1803 90
3 E4 122.7816 122.9742 0.1926 90
3 C#4 122.7816 122.9906 0.2090 90
3 E3 123.0275 123.3348 0.3074 90
3 G#4 123.2734 123.4824 0.2090 90
3 B3 123.2734 123.5029 0.2295 90
3 E4 123.2734 123.5193 0.2459 90
3 E3 123.5193 123.8225 0.3033 90
3 G#4 123.7652 123.9742 0.2090 90
3 B3 123.7652 123.9988 0.2336 90
3 E4 123.7652 124.0316 0.2664 90
3 E3 124.0111 124.3061 0.2951 90
3 G#4 124.2570 124.4127 0.1557 90
3 B3 124.2570 124.4537 0.1967 90
3 E4 124.2570 124.4865 0.2295 90
3 E3 124.5029 124.8676 0.3648 90
3 G#4 124.7488 124.9045 0.1557 90
3 B3 124.7488 124.9455 0.1967 90
3 E4 124.7488 124.9783 0.2295 90
3 B2 124.9947 125.3348 0.3402 90
3 F#4 125.2406 125.4496 0.2090 90
3 D#4 125.2406 125.4537 0.2131 90
3 B3 125.2406 125.4619 0.2213 90
3 B2 125.4865 125.7652 0.2787 90
3 F#4 125.7324 125.9619 0.2295 90
3 D#4 125.7324 125.9701 0.2377 90
3 B3 125.7324 125.9742 0.2418 90
3 B2 125.9783 126.2570 0.2787 90
3 F#4 126.2242 126.4414 0.2172 90
3 B3 126.2242 126.4537 0.2295 90
3 D#4 126.2242 126.4537 0.2295 90
3 B2 126.4701 126.8061 0.3361 90
3 F#4 126.7160 126.9045 0.1885 90
3 D#4 126.7160 126.9168 0.2008 90
3 B3 126.7160 126.9250 0.2090 90
3 A2 126.9619 127.2570 0.2951 90
3 C#4 127.2078 127.4291 0.2213 90
3 A3 127.2078 127.4578 0.2500 90
3 E4 127.2078 127.4619 0.2541 90
3 A2 127.4537 127.7816 0.3279 90
3 C#4 127.6996 127.9127 0.2131 90
3 E4 127.6996 127.9291 0.2295 90
3 A3 127.6996 127.9332 0.2336 90
3 A2 127.9455 128.2693 0.3238 90
3 G#4 129.1750 129.3676 0.1926 90
3 C#4 129.1750 129.3840 0.2090 90
3 E4 129.1750 129.4045 0.2295 90
3 G#4 129.6668 129.8758 0.2090 90
3 C#4 129.6668 129.9045 0.2377 90
3 E4 129.6668 129.9168 0.2500 90
3 G#4 130.1586 130.3389 0.1803 90
3 C#4 130.1586 130.3963 0.2377 90
3 E4 130.1586 130.4127 0.2541 90
3 G#4 130.6504 130.8307 0.1803 90
3 E4 130.6504 130.8430 0.1926 90
3 C#4 130.6504 130.8594 0.2090 90
3 G#4 131.1422 131.3512 0.2090 90
3 B3 131.1422 131.3717 0.2295 90
3 E4 131.1422 131.3881 0.2459 90
3 G#4 131.6340 131.8430 0.2090 90
3 B3 131.6340 131.8676 0.2336 90
3 E4 131.6340 131.9004 0.2664 90
3 G#4 132.1258 132.3020 0.1762 90
3 B3 132.1258 132.3307 0.2049 90
3 E4 132.1258 132.3840 0.2582 90
3 G#4 132.6176 132.7734 0.1557 90
3 B3 132.6176 132.8143 0.1967 90
3 E4 132.6176 132.8471 0.2295 90
3 F#4 133.1094 133.3184 0.2090 90
3 D#4 133.1094 133.3225 0.2131 90
3 B3 133.1094 133.3307 0.2213 90
3 F#4 133.6012 133.8307 0.2295 90
3 D#4 133.6012 133.8389 0.2377 90
3 B3 133.6012 133.8430 0.2418 90
3 F#4 134.0930 134.3102 0.2172 90
3 B3 134.0930 134.3225 0.2295 90
3 D#4 134.0930 134.3225 0.2295 90
3 F#4 134.5848 134.7734 0.1885 90
3 D#4 134.5848 134.7856 0.2008 90
3 B3 134.5848 134.7938 0.2090 90
3 C#4 135.0766 135.2979 0.2213 90
3 A3 135.0766 135.3266 0.2500 90
3 E4 135.0766 135.3307 0.2541 90
3 C#4 135.5684 135.7815 0.2131 90
3 E4 135.5684 135.7979 0.2295 90
3 A3 135.5684 135.8020 0.2336 90
3 G#4 136.0602 136.2365 0.1762 90
3 C#4 136.0602 136.2365 0.1762 90
3 A3 136.0602 136.2488 0.1885 90
3 E4 136.0602 136.2693 0.2090 90
3 A3 136.5520 136.7324 0.1803 90
3 C#4 136.5520 136.7488 0.1967 90
3 G#4 136.5520 136.7611 0.2090 90
3 E4 136.5520 136.7774 0.2254 90
3 G#4 137.0438 137.2365 0.1926 90
3 C#4 137.0438 137.2529 0.2090 90
3 E4 137.0438 137.2733 0.2295 90
3 G#4 137.5356 137.7447 0.2090 90
3 C#4 137.5356 137.7733 0.2377 90
3 E4 137.5356 137.7856 0.2500 90
3 G#4 138.0274 138.2078 0.1803 90
3 C#4 138.0274 138.2652 0.2377 90
3 E4 138.0274 138.2815 0.2541 90
3 G#4 138.5193 138.6996 0.1803 90
3 E4 138.5193 138.7119 0.1926 90
3 C#4 138.5193 138.7283 0.2090 90
3 G#4 139.0111 139.2201 0.2090 90
3 B3 139.0111 139.2406 0.2295 90
3 E4 139.0111 139.2570 0.2459 90
3 G#4 139.5029 139.7119 0.2090 90
3 B3 139.5029 139.7365 0.2336 90
3 E4 139.5029 139.7693 0.2664 90
3 G#4 139.9947 140.1709 0.1762 90
3 B3 139.9947 140.1996 0.2049 90
3 E4 139.9947 140.2529 0.2582 90
3 G#4 140.4865 140.6422 0.1557 90
3 B3 140.4865 140.6832 0.1967 90
3 E4 140.4865 140.7160 0.2295 90
3 F#4 140.9783 141.1873 0.2090 90
3 D#4 140.9783 141.1914 0.2131 90
3 B3 140.9783 141.1996 0.2213 90
3 F#4 141.4701 141.6996 0.2295 90
3 D#4 141.4701 141.7078 0.2377 90
3 B3 141.4701 141.7119 0.2418 90
3 F#4 141.9619 142.1791 0.2172 90
3 B3 141.9619 142.1914 0.2295 90
3 D#4 141.9619 142.1914 0.2295 90
3 F#4 142.4537 142.6422 0.1885 90
3 D#4 142.4537 142.6545 0.2008 90
3 B3 142.4537 142.6627 0.2090 90
3 C#4 142.9455 143.1668 0.2213 90
3 A3 142.9455 143.1955 0.2500 90
3 E4 142.9455 143.1996 0.2541 90
3 C#4 143.4373 143.6504 0.2131 90
3 E4 143.4373 143.6668 0.2295 90
3 A3 143.4373 143.6709 0.2336 90
3 G#4 143.9291 144.1053 0.1762 90
3 C#4 143.9291 144.1053 0.1762 90
3 A3 143.9291 144.1176 0.1885 90
3 E4 143.9291 144.1381 0.2090 90
3 A3 144.4209 144.6012 0.1803 90
3 C#4 144.4209 144.6176 0.1967 90
3 G#4 144.4209 144.6299 0.2090 90
3 E4 144.4209 144.6463 0.2254 90
3 C#4 144.9127 145.1340 0.2213 90
3 A3 144.9127 145.1627 0.2500 90
3 E4 144.9127 145.1668 0.2541 90
3 C#4 145.4045 145.6176 0.2131 90
3 E4 145.4045 145.6340 0.2295 90
3 A3 145.4045 145.6381 0.2336 90
3 G#4 145.8963 146.0725 0.1762 90
3 C#4 145.8963 146.0725 0.1762 90
3 A3 145.8963 146.0848 0.1885 90
3 E4 145.8963 146.1053 0.2090 90
3 A3 146.3881 146.5684 0.1803 90
3 C#4 146.3881 146.5848 0.1967 90
3 G#4 146.3881 146.5971 0.2090 90
3 E4 146.3881 146.6135 0.2254 90
3 C#4 146.8799 147.1012 0.2213 90
3 A3 146.8799 147.1299 0.2500 90
3 E4 146.8799 147.1340 0.2541 90
3 C#4 147.3717 147.5848 0.2131 90
3 E4 147.3717 147.6012 0.2295 90
3 A3 147.3717 147.6053 0.2336 90
3 C#4 147.8635 148.0397 0.1762 90
3 G#4 147.8635 148.0397 0.1762 90
3 A3 147.8635 148.0520 0.1885 90
3 E4 147.8635 148.0725 0.2090 90
3 A3 148.3553 148.5356 0.1803 90
3 C#4 148.3553 148.5520 0.1967 90
3 G#4 148.3553 148.5643 0.2090 90
3 E4 148.3553 148.5807 0.2254 90
3 C#3 152.5356 152.8717 0.3361 90
3 G#4 152.7815 152.9742 0.1926 90
3 C#4 152.7815 152.9906 0.2090 90
3 E4 152.7815 153.0110 0.2295 90
3 C#3 153.0274 153.3389 0.3115 90
3 G#4 153.2733 153.4824 0.2090 90
3 C#4 153.2733 153.5110 0.2377 90
3 E4 153.2733 153.5233 0.2500 90
3 C#3 153.5192 153.8430 0.3238 90
3 G#4 153.7651 153.9455 0.1803 90
3 C#4 153.7651 154.0028 0.2377 90
3 E4 153.7651 154.0192 0.2541 90
3 C#3 154.0110 154.4291 0.4180 90
3 G#4 154.2569 154.4373 0.1803 90
3 E4 154.2569 154.4496 0.1926 90
3 C#4 154.2569 154.4660 0.2090 90
3 E3 154.5028 154.8102 0.3074 90
3 G#4 154.7487 154.9578 0.2090 90
3 B3 154.7487 154.9783 0.2295 90
3 E4 154.7487 154.9947 0.2459 90
3 E3 154.9947 155.2979 0.3033 90
3 G#4 155.2406 155.4496 0.2090 90
3 B3 155.2406 155.4742 0.2336 90
3 E4 155.2406 155.5069 0.2664 90
3 E3 155.4865 155.7815 0.2951 90
3 G#4 155.7324 155.8512 0.1189 90
3 B3 155.7324 155.8512 0.1189 90
3 E4 155.7324 155.8594 0.1270 90
3 E4 155.8553 155.8594 0.0041 96
3 G#4 155.8553 155.9742 0.1189 96
3 B3 155.8553 155.9742 0.1189 96
3 E3 155.9783 156.3430 0.3648 90
3 G#4 156.2242 156.3799 0.1557 90
3 B3 156.2242 156.4209 0.1967 90
3 E4 156.2242 156.4537 0.2295 90
3 B2 156.4701 156.8102 0.3402 90
3 F#4 156.7160 156.9250 0.2090 90
3 D#4 156.7160 156.9291 0.2131 90
3 B3 156.7160 156.9373 0.2213 90
3 B2 156.9619 157.2406 0.2787 90
3 F#4 157.2078 157.4373 0.2295 90
3 D#4 157.2078 157.4455 0.2377 90
3 B3 157.2078 157.4496 0.2418 90
3 B2 157.4537 157.7324 0.2787 90
3 F#4 157.6996 157.9168 0.2172 90
3 B3 157.6996 157.9291 0.2295 90
3 D#4 157.6996 157.9291 0.2295 90
3 B2 157.9455 158.2815 0.3361 90
3 F#4 158.1914 158.3799 0.1885 90
3 D#4 158.1914 158.3922 0.2008 90
3 B3 158.1914 158.4004 0.2090 90
3 A2 158.4373 158.7324 0.2951 90
3 C#4 158.6832 158.9045 0.2213 90
3 A3 158.6832 158.9332 0.2500 90
3 E4 158.6832 158.9373 0.2541 90
3 A2 158.9291 159.2569 0.3279 90
3 C#4 159.1750 159.3881 0.2131 90
3 E4 159.1750 159.4045 0.2295 90
3 A3 159.1750 159.4086 0.2336 90
3 A2 159.4209 159.7446 0.3238 90
3 C#4 159.6668 159.8430 0.1762 90
3 G#4 159.6668 159.8430 0.1762 90
3 A3 159.6668 159.8553 0.1885 90
3 E4 159.6668 159.8758 0.2090 90
3 A2 159.9127 160.1996 0.2869 90
3 A3 160.1586 160.3389 0.1803 90
3 C#4 160.1586 160.3553 0.1967 90
3 G#4 160.1586 160.3676 0.2090 90
3 E4 160.1586 160.3840 0.2254 90
3 C#3 160.4045 160.7405 0.3361 90
3 G#4 160.6504 160.8430 0.1926 90
3 C#4 160.6504 160.8594 0.2090 90
3 E4 160.6504 160.8799 0.2295 90
3 C#3 160.8963 161.2078 0.3115 90
3 G#4 161.1422 161.3512 0.2090 90
3 C#4 161.1422 161.3799 0.2377 90
3 E4 161.1422 161.3922 0.2500 90
3 C#3 161.3881 161.7119 0.3238 90
3 G#4 161.6340 161.8143 0.1803 90
3 C#4 161.6340 161.8717 0.2377 90
3 E4 161.6340 161.8881 0.2541 90
3 C#3 161.8799 162.2979 0.4180 90
3 G#4 162.1258 162.3061 0.1803 90
3 E4 162.1258 162.3184 0.1926 90
3 C#4 162.1258 162.3348 0.2090 90
3 E3 162.3717 162.6791 0.3074 90
3 G#4 162.6176 162.8266 0.2090 90
3 B3 162.6176 162.8471 0.2295 90
3 E4 162.6176 162.8635 0.2459 90
3 E3 162.8635 163.1668 0.3033 90
3 G#4 163.1094 163.3184 0.2090 90
3 B3 163.1094 163.3430 0.2336 90
3 E4 163.1094 163.3758 0.2664 90
3 E3 163.3553 163.6504 0.2951 90
3 G#4 163.6012 163.7774 0.1762 90
3 B3 163.6012 163.8061 0.2049 90
3 E4 163.6012 163.8594 0.2582 90
3 E3 163.8471 164.2119 0.3648 90
3 G#4 164.0930 164.2487 0.1557 90
3 B3 164.0930 164.2897 0.1967 90
3 E4 164.0930 164.3225 0.2295 90
3 B2 164.3389 164.6791 0.3402 90
3 F#4 164.5848 164.7938 0.2090 90
3 D#4 164.5848 164.7979 0.2131 90
3 B3 164.5848 164.8061 0.2213 90
3 B2 164.8307 165.1094 0.2787 90
3 F#4 165.0766 165.3061 0.2295 90
3 D#4 165.0766 165.3143 0.2377 90
3 B3 165.0766 165.3184 0.2418 90
3 B2 165.3225 165.6012 0.2787 90
3 F#4 165.5684 165.7856 0.2172 90
3 D#4 165.5684 165.7979 0.2295 90
3 B3 165.5684 165.7979 0.2295 90
3 B2 165.8143 166.1504 0.3361 90
3 F#4 166.0602 166.2487 0.1885 90
3 D#4 166.0602 166.2610 0.2008 90
3 B3 166.0602 166.2692 0.2090 90
3 A2 166.3061 166.6012 0.2951 90
3 C#4 166.5520 166.7733 0.2213 90
3 A3 166.5520 166.8020 0.2500 90
3 E4 166.5520 166.8061 0.2541 90
3 A2 166.7979 167.1258 0.3279 90
3 C#4 167.0438 167.2569 0.2131 90
3 E4 167.0438 167.2733 0.2295 90
3 A3 167.0438 167.2774 0.2336 90
3 A2 167.2897 167.6135 0.3238 90
3 G#4 167.5356 167.7119 0.1762 90
3 C#4 167.5356 167.7119 0.1762 90
3 A3 167.5356 167.7242 0.1885 90
3 E4 167.5356 167.7446 0.2090 90
3 A2 167.7815 168.0684 0.2869 90
3 A3 168.0274 168.2078 0.1803 90
3 C#4 168.0274 168.2242 0.1967 90
3 G#4 168.0274 168.2364 0.2090 90
3 E4 168.0274 168.2528 0.2254 90
3 C#3 168.2733 168.6094 0.3361 90
3 C#4 168.5192 168.6381 0.1189 90
3 G#4 168.5192 168.6381 0.1189 90
3 E4 168.5192 168.6463 0.1270 90
3 E4 168.6422 168.6463 0.0041 96
3 C#4 168.6422 168.7610 0.1189 96
3 G#4 168.6422 168.7610 0.1189 96
3 C#3 168.7651 169.0766 0.3115 90
3 C#4 169.0110 169.1299 0.1189 90
3 G#4 169.0110 169.1299 0.1189 90
3 E4 169.0110 169.1381 0.1270 90
3 E4 169.1340 169.1381 0.0041 96
3 C#4 169.1340 169.2528 0.1189 96
3 G#4 169.1340 169.2528 0.1189 96
3 C#3 169.2569 169.5807 0.3238 90
3 C#4 169.5028 169.6217 0.1189 90
3 G#4 169.5028 169.6217 0.1189 90
3 E4 169.5028 169.6299 0.1270 90
3 E4 169.6258 169.6299 0.0041 96
3 C#4 169.6258 169.7446 0.1189 96
3 G#4 169.6258 169.7446 0.1189 96
3 C#3 169.7487 170.1668 0.4180 90
3 C#4 169.9946 170.1135 0.1189 90
3 G#4 169.9946 170.1135 0.1189 90
3 E4 169.9946 170.1217 0.1270 90
3 E4 170.1176 170.1217 0.0041 96
3 G#4 170.1176 170.2364 0.1189 96
3 C#4 170.1176 170.2364 0.1189 96
3 E3 170.2405 170.5479 0.3074 90
3 B3 170.4864 170.6053 0.1189 90
3 G#4 170.4864 170.6053 0.1189 90
3 E4 170.4864 170.6135 0.1270 90
3 E4 170.6094 170.6135 0.0041 96
3 G#4 170.6094 170.7282 0.1189 96
3 B3 170.6094 170.7282 0.1189 96
3 E3 170.7323 171.0356 0.3033 90
3 B3 170.9782 171.0971 0.1189 90
3 G#4 170.9782 171.0971 0.1189 90
3 E4 170.9782 171.1053 0.1270 90
3 E4 171.1012 171.1053 0.0041 96
3 B3 171.1012 171.2201 0.1189 96
3 G#4 171.1012 171.2201 0.1189 96
3 E3 171.2242 171.5192 0.2951 90
3 B3 171.4701 171.5889 0.1189 90
3 E4 171.4701 171.5889 0.1189 90
3 G#4 171.4701 171.5889 0.1189 90
3 B3 171.5930 171.7119 0.1189 96
3 G#4 171.5930 171.7119 0.1189 96
3 E4 171.5930 171.7201 0.1270 96
3 E3 171.7160 172.0807 0.3648 90
3 B3 171.9619 172.0807 0.1189 90
3 G#4 171.9619 172.0807 0.1189 90
3 E4 171.9619 172.0889 0.1270 90
3 E4 172.0848 172.0889 0.0041 96
3 G#4 172.0848 172.2037 0.1189 96
3 B3 172.0848 172.2037 0.1189 96
3 B2 172.2078 172.5479 0.3402 90
3 G#4 172.4537 172.5725 0.1189 78
3 F#4 172.4537 172.5725 0.1189 90
3 B3 172.4537 172.5725 0.1189 90
3 D#4 172.4537 172.5807 0.1270 90
3 D#4 172.5766 172.5807 0.0041 96
3 B3 172.5766 172.6955 0.1189 96
3 F#4 172.5766 172.6955 0.1189 96
3 G#4 172.5766 172.6955 0.1189 84
3 B2 172.6996 172.9782 0.2787 90
3 F#4 172.9455 173.0643 0.1189 90
3 B3 172.9455 173.0643 0.1189 90
3 G#4 172.9455 173.0643 0.1189 78
3 D#4 172.9455 173.0725 0.1270 90
3 D#4 173.0684 173.0725 0.0041 96
3 G#4 173.0684 173.1873 0.1189 84
3 F#4 173.0684 173.1873 0.1189 96
3 B3 173.0684 173.1873 0.1189 96
3 B2 173.1914 173.4701 0.2787 90
3 G#4 173.4373 173.5561 0.1189 78
3 F#4 173.4373 173.5561 0.1189 90
3 B3 173.4373 173.5561 0.1189 90
3 D#4 173.4373 173.5643 0.1270 90
3 D#4 173.5602 173.5643 0.0041 96
3 F#4 173.5602 173.6791 0.1189 96
3 G#4 173.5602 173.6791 0.1189 84
3 B3 173.5602 173.6791 0.1189 96
3 B2 173.6832 174.0192 0.3361 90
3 B3 173.9291 174.0479 0.1189 90
3 F#4 173.9291 174.0479 0.1189 90
3 G#4 173.9291 174.0479 0.1189 78
3 D#4 173.9291 174.0561 0.1270 90
3 D#4 174.0520 174.0561 0.0041 96
3 B3 174.0520 174.1709 0.1189 96
3 G#4 174.0520 174.1709 0.1189 84
3 F#4 174.0520 174.1709 0.1189 96
3 A2 174.1750 174.4701 0.2951 90
3 A3 174.4209 174.5397 0.1189 90
3 E4 174.4209 174.5397 0.1189 90
3 C#4 174.4209 174.5479 0.1270 90
3 C#4 174.5438 174.5479 0.0041 96
3 A3 174.5438 174.6627 0.1189 96
3 E4 174.5438 174.6627 0.1189 96
3 A2 174.6668 174.9946 0.3279 90
3 A3 174.9127 175.0315 0.1189 90
3 E4 174.9127 175.0315 0.1189 90
3 C#4 174.9127 175.0397 0.1270 90
3 C#4 175.0356 175.0397 0.0041 96
3 A3 175.0356 175.1545 0.1189 96
3 E4 175.0356 175.1545 0.1189 96
3 A2 175.1586 175.4823 0.3238 90
3 A3 175.4045 175.5233 0.1189 90
3 G#4 175.4045 175.5233 0.1189 83
3 E4 175.4045 175.5233 0.1189 90
3 C#4 175.4045 175.5315 0.1270 90
3 C#4 175.5274 175.5315 0.0041 96
3 E4 175.5274 175.6463 0.1189 96
3 A3 175.5274 175.6463 0.1189 96
3 G#4 175.5274 175.6463 0.1189 89
3 A2 175.6504 175.9373 0.2869 90
3 G#4 175.8963 176.0151 0.1189 83
3 E4 175.8963 176.0151 0.1189 90
3 A3 175.8963 176.0151 0.1189 90
3 C#4 175.8963 176.0233 0.1270 90
3 C#4 176.0192 176.0233 0.0041 96
3 G#4 176.0192 176.1381 0.1189 89
3 A3 176.0192 176.1381 0.1189 96
3 E4 176.0192 176.1381 0.1189 96
3 C#3 176.1422 176.4782 0.3361 90
3 C#4 176.3881 176.5069 0.1189 90
3 G#4 176.3881 176.5069 0.1189 90
3 E4 176.3881 176.5151 0.1270 90
3 E4 176.5110 176.5151 0.0041 96
3 C#4 176.5110 176.6299 0.1189 96
3 G#4 176.5110 176.6299 0.1189 96
3 C#3 176.6340 176.9455 0.3115 90
3 C#4 176.8799 176.9987 0.1189 90
3 G#4 176.8799 176.9987 0.1189 90
3 E4 176.8799 177.0069 0.1270 90
3 E4 177.0028 177.0069 0.0041 96
3 C#4 177.0028 177.1217 0.1189 96
3 G#4 177.0028 177.1217 0.1189 96
3 C#3 177.1258 177.4496 0.3238 90
3 C#4 177.3717 177.4905 0.1189 90
3 G#4 177.3717 177.4905 0.1189 90
3 E4 177.3717 177.4987 0.1270 90
3 E4 177.4946 177.4987 0.0041 96
3 C#4 177.4946 177.6135 0.1189 96
3 G#4 177.4946 177.6135 0.1189 96
3 C#3 177.6176 178.0356 0.4180 90
3 C#4 177.8635 177.9823 0.1189 90
3 G#4 177.8635 177.9823 0.1189 90
3 E4 177.8635 177.9905 0.1270 90
3 E4 177.9864 177.9905 0.0041 96
3 C#4 177.9864 178.1053 0.1189 96
3 G#4 177.9864 178.1053 0.1189 96
3 E3 178.1094 178.4168 0.3074 90
3 B3 178.3553 178.4741 0.1189 90
3 G#4 178.3553 178.4741 0.1189 90
3 E4 178.3553 178.4823 0.1270 90
3 E4 178.4782 178.4823 0.0041 96
3 B3 178.4782 178.5971 0.1189 96
3 G#4 178.4782 178.5971 0.1189 96
3 E3 178.6012 178.9045 0.3033 90
3 B3 178.8471 178.9659 0.1189 90
3 G#4 178.8471 178.9659 0.1189 90
3 E4 178.8471 178.9741 0.1270 90
3 E4 178.9700 178.9741 0.0041 96
3 B3 178.9700 179.0889 0.1189 96
3 G#4 178.9700 179.0889 0.1189 96
3 E3 179.0930 179.3881 0.2951 90
3 B3 179.3389 179.4578 0.1189 90
3 E4 179.3389 179.4578 0.1189 90
3 G#4 179.3389 179.4578 0.1189 90
3 B3 179.4619 179.5807 0.1189 96
3 G#4 179.4619 179.5807 0.1189 96
3 E4 179.4619 179.5889 0.1270 96
3 E3 179.5848 179.9496 0.3648 90
3 B3 179.8307 179.9496 0.1189 90
3 G#4 179.8307 179.9496 0.1189 90
3 E4 179.8307 179.9578 0.1270 90
3 E4 179.9537 179.9578 0.0041 96
3 G#4 179.9537 180.0725 0.1189 96
3 B3 179.9537 180.0725 0.1189 96
3 B2 180.0766 180.4168 0.3402 90
3 B3 180.3225 180.4414 0.1189 90
3 G#4 180.3225 180.4414 0.1189 78
3 F#4 180.3225 180.4414 0.1189 90
3 D#4 180.3225 180.4496 0.1270 90
3 D#4 180.4455 180.4496 0.0041 96
3 B3 180.4455 180.5643 0.1189 96
3 F#4 180.4455 180.5643 0.1189 96
3 G#4 180.4455 180.5643 0.1189 84
3 B2 180.5684 180.8471 0.2787 90
3 B3 180.8143 180.9332 0.1189 90
3 G#4 180.8143 180.9332 0.1189 78
3 F#4 180.8143 180.9332 0.1189 90
3 D#4 180.8143 180.9414 0.1270 90
3 D#4 180.9373 180.9414 0.0041 96
3 B3 180.9373 181.0561 0.1189 96
3 F#4 180.9373 181.0561 0.1189 96
3 G#4 180.9373 181.0561 0.1189 84
3 B2 181.0602 181.3389 0.2787 90
3 G#4 181.3061 181.4250 0.1189 78
3 F#4 181.3061 181.4250 0.1189 90
3 B3 181.3061 181.4250 0.1189 90
3 D#4 181.3061 181.4332 0.1270 90
3 D#4 181.4291 181.4332 0.0041 96
3 F#4 181.4291 181.5479 0.1189 96
3 G#4 181.4291 181.5479 0.1189 84
3 B3 181.4291 181.5479 0.1189 96
3 B2 181.5520 181.8881 0.3361 90
3 B3 181.7979 181.9168 0.1189 90
3 F#4 181.7979 181.9168 0.1189 90
3 G#4 181.7979 181.9168 0.1189 78
3 D#4 181.7979 181.9250 0.1270 90
3 D#4 181.9209 181.9250 0.0041 96
3 G#4 181.9209 182.0397 0.1189 84
3 F#4 181.9209 182.0397 0.1189 96
3 B3 181.9209 182.0397 0.1189 96
3 A2 182.0438 182.3389 0.2951 90
3 A3 182.2897 182.4086 0.1189 90
3 E4 182.2897 182.4086 0.1189 90
3 C#4 182.2897 182.4168 0.1270 90
3 C#4 182.4127 182.4168 0.0041 96
3 A3 182.4127 182.5315 0.1189 96
3 E4 182.4127 182.5315 0.1189 96
3 A2 182.5356 182.8635 0.3279 90
3 E4 182.7815 182.9004 0.1189 90
3 A3 182.7815 182.9004 0.1189 90
3 C#4 182.7815 182.9086 0.1270 90
3 C#4 182.9045 182.9086 0.0041 96
3 E4 182.9045 183.0233 0.1189 96
3 A3 182.9045 183.0233 0.1189 96
3 A2 183.0274 183.3512 0.3238 90
3 A3 183.2733 183.3922 0.1189 90
3 E4 183.2733 183.3922 0.1189 90
3 G#4 183.2733 183.3922 0.1189 83
3 C#4 183.2733 183.4004 0.1270 90
3 C#4 183.3963 183.4004 0.0041 96
3 A3 183.3963 183.5151 0.1189 96
3 E4 183.3963 183.5151 0.1189 96
3 G#4 183.3963 183.5151 0.1189 89
3 A2 183.5192 183.8061 0.2869 90
3 A3 183.7651 183.8840 0.1189 90
3 E4 183.7651 183.8840 0.1189 90
3 G#4 183.7651 183.8840 0.1189 83
3 C#4 183.7651 183.8922 0.1270 90
3 C#4 183.8881 183.8922 0.0041 96
3 E4 183.8881 184.0069 0.1189 96
3 G#4 183.8881 184.0069 0.1189 89
3 A3 183.8881 184.0069 0.1189 96
3 C#3 210.5684 210.9045 0.3361 90
3 G#4 210.8143 211.0069 0.1926 90
3 C#4 210.8143 211.0233 0.2090 90
3 E4 210.8143 211.0438 0.2295 90
3 C#3 211.0602 211.3717 0.3115 90
3 G#4 211.3061 211.5151 0.2090 90
3 C#4 211.3061 211.5438 0.2377 90
3 E4 211.3061 211.5561 0.2500 90
3 C#3 211.5520 211.8758 0.3238 90
3 G#4 211.7979 211.9782 0.1803 90
3 C#4 211.7979 212.0356 0.2377 90
3 E4 211.7979 212.0520 0.2541 90
3 C#3 212.0438 212.4618 0.4180 90
3 G#4 212.2897 212.4700 0.1803 90
3 E4 212.2897 212.4823 0.1926 90
3 C#4 212.2897 212.4987 0.2090 90
3 E3 212.5356 212.8430 0.3074 90
3 G#4 212.7815 212.9905 0.2090 90
3 B3 212.7815 213.0110 0.2295 90
3 E4 212.7815 213.0274 0.2459 90
3 E3 213.0274 213.3307 0.3033 90
3 G#4 213.2733 213.4823 0.2090 90
3 B3 213.2733 213.5069 0.2336 90
3 E4 213.2733 213.5397 0.2664 90
3 E3 213.5192 213.8143 0.2951 90
3 G#4 213.7651 213.8840 0.1189 90
3 B3 213.7651 213.8840 0.1189 90
3 E4 213.7651 213.8922 0.1270 90
3 E4 213.8881 213.8922 0.0041 96
3 G#4 213.8881 214.0069 0.1189 96
3 B3 213.8881 214.0069 0.1189 96
3 E3 214.0110 214.3758 0.3648 90
3 G#4 214.2569 214.4127 0.1557 90
3 B3 214.2569 214.4536 0.1967 90
3 E4 214.2569 214.4864 0.2295 90
3 B2 214.5028 214.8430 0.3402 90
3 F#4 214.7487 214.9577 0.2090 90
3 D#4 214.7487 214.9618 0.2131 90
3 B3 214.7487 214.9700 0.2213 90
3 B2 214.9946 215.2733 0.2787 90
3 F#4 215.2405 215.4700 0.2295 90
3 D#4 215.2405 215.4782 0.2377 90
3 B3 215.2405 215.4823 0.2418 90
3 B2 215.4864 215.7651 0.2787 90
3 F#4 215.7323 215.9495 0.2172 90
3 B3 215.7323 215.9618 0.2295 90
3 D#4 215.7323 215.9618 0.2295 90
3 B2 215.9782 216.3143 0.3361 90
3 F#4 216.2241 216.4126 0.1885 90
3 D#4 216.2241 216.4249 0.2008 90
3 B3 216.2241 216.4331 0.2090 90
3 A2 216.4700 216.7651 0.2951 90
3 C#4 216.7159 216.9372 0.2213 90
3 A3 216.7159 216.9659 0.2500 90
3 E4 216.7159 216.9700 0.2541 90
3 A2 216.9618 217.2897 0.3279 90
3 C#4 217.2077 217.4208 0.2131 90
3 E4 217.2077 217.4372 0.2295 90
3 A3 217.2077 217.4413 0.2336 90
3 A2 217.4536 217.7774 0.3238 90
3 C#4 217.6995 217.8758 0.1762 90
3 G#4 217.6995 217.8758 0.1762 90
3 A3 217.6995 217.8881 0.1885 90
3 E4 217.6995 217.9086 0.2090 90
3 A2 217.9454 218.2323 0.2869 90
3 A3 218.1913 218.3717 0.1803 90
3 C#4 218.1913 218.3881 0.1967 90
3 G#4 218.1913 218.4004 0.2090 90
3 E4 218.1913 218.4167 0.2254 90
3 C#3 218.4372 218.7733 0.3361 90
3 G#4 218.6831 218.8758 0.1926 90
3 C#4 218.6831 218.8922 0.2090 90
3 E4 218.6831 218.9126 0.2295 90
3 C#3 218.9290 219.2405 0.3115 90
3 G#4 219.1749 219.3840 0.2090 90
3 C#4 219.1749 219.4126 0.2377 90
3 E4 219.1749 219.4249 0.2500 90
3 C#3 219.4208 219.7446 0.3238 90
3 G#4 219.6667 219.8471 0.1803 90
3 C#4 219.6667 219.9045 0.2377 90
3 E4 219.6667 219.9208 0.2541 90
3 C#3 219.9126 220.3307 0.4180 90
3 G#4 220.1585 220.3389 0.1803 90
3 E4 220.1585 220.3512 0.1926 90
3 C#4 220.1585 220.3676 0.2090 90
3 E3 220.4045 220.7118 0.3074 90
3 G#4 220.6504 220.8594 0.2090 90
3 B3 220.6504 220.8799 0.2295 90
3 E4 220.6504 220.8963 0.2459 90
3 E3 220.8963 221.1995 0.3033 90
3 G#4 221.1422 221.3512 0.2090 90
3 B3 221.1422 221.3758 0.2336 90
3 E4 221.1422 221.4085 0.2664 90
3 E3 221.3881 221.6831 0.2951 90
3 G#4 221.6340 221.8102 0.1762 90
3 B3 221.6340 221.8389 0.2049 90
3 E4 221.6340 221.8922 0.2582 90
3 E3 221.8799 222.2446 0.3648 90
3 G#4 222.1258 222.2815 0.1557 90
3 B3 222.1258 222.3225 0.1967 90
3 E4 222.1258 222.3553 0.2295 90
3 B2 222.3717 222.7118 0.3402 90
3 F#4 222.6176 222.8266 0.2090 90
3 D#4 222.6176 222.8307 0.2131 90
3 B3 222.6176 222.8389 0.2213 90
3 B2 222.8635 223.1422 0.2787 90
3 F#4 223.1094 223.3389 0.2295 90
3 D#4 223.1094 223.3471 0.2377 90
3 B3 223.1094 223.3512 0.2418 90
3 B2 223.3553 223.6340 0.2787 90
3 F#4 223.6012 223.8184 0.2172 90
3 D#4 223.6012 223.8307 0.2295 90
3 B3 223.6012 223.8307 0.2295 90
3 B2 223.8471 224.1831 0.3361 90
3 F#4 224.0930 224.2815 0.1885 90
3 D#4 224.0930 224.2938 0.2008 90
3 B3 224.0930 224.3020 0.2090 90
3 A2 224.3389 224.6340 0.2951 90
3 C#4 224.5848 224.8061 0.2213 90
3 A3 224.5848 224.8348 0.2500 90
3 E4 224.5848 224.8389 0.2541 90
3 A2 224.8307 225.1585 0.3279 90
3 C#4 225.0766 225.2897 0.2131 90
3 E4 225.0766 225.3061 0.2295 90
3 A3 225.0766 225.3102 0.2336 90
3 A2 225.3225 225.6463 0.3238 90
3 G#4 225.5684 225.7446 0.1762 90
3 C#4 225.5684 225.7446 0.1762 90
3 A3 225.5684 225.7569 0.1885 90
3 E4 225.5684 225.7774 0.2090 90
3 A2 225.8143 226.1012 0.2869 90
3 A3 226.0602 226.2405 0.1803 90
3 C#4 226.0602 226.2569 0.1967 90
3 G#4 226.0602 226.2692 0.2090 90
3 E4 226.0602 226.2856 0.2254 90
3 C#3 226.3061 226.6422 0.3361 90
3 C#4 226.5520 226.6708 0.1189 90
3 G#4 226.5520 226.6708 0.1189 90
3 E4 226.5520 226.6790 0.1270 90
3 E4 226.6749 226.6790 0.0041 96
3 G#4 226.6749 226.7938 0.1189 96
3 C#4 226.6749 226.7938 0.1189 96
3 C#3 226.7979 227.1094 0.3115 90
3 C#4 227.0438 227.1626 0.1189 90
3 G#4 227.0438 227.1626 0.1189 90
3 E4 227.0438 227.1708 0.1270 90
3 E4 227.1667 227.1708 0.0041 96
3 C#4 227.1667 227.2856 0.1189 96
3 G#4 227.1667 227.2856 0.1189 96
3 C#3 227.2897 227.6135 0.3238 90
3 C#4 227.5356 227.6544 0.1189 90
3 G#4 227.5356 227.6544 0.1189 90
3 E4 227.5356 227.6626 0.1270 90
3 E4 227.6585 227.6626 0.0041 96
3 C#4 227.6585 227.7774 0.1189 96
3 G#4 227.6585 227.7774 0.1189 96
3 C#3 227.7815 228.1995 0.4180 90
3 C#4 228.0274 228.1462 0.1189 90
3 G#4 228.0274 228.1462 0.1189 90
3 E4 228.0274 228.1544 0.1270 90
3 E4 228.1503 228.1544 0.0041 96
3 C#4 228.1503 228.2692 0.1189 96
3 G#4 228.1503 228.2692 0.1189 96
3 E3 228.2733 228.5807 0.3074 90
3 B3 228.5192 228.6381 0.1189 90
3 G#4 228.5192 228.6381 0.1189 90
3 E4 228.5192 228.6462 0.1270 90
3 E4 228.6422 228.6462 0.0041 96
3 G#4 228.6422 228.7610 0.1189 96
3 B3 228.6422 228.7610 0.1189 96
3 E3 228.7651 229.0684 0.3033 90
3 B3 229.0110 229.1299 0.1189 90
3 G#4 229.0110 229.1299 0.1189 90
3 E4 229.0110 229.1381 0.1270 90
3 E4 229.1340 229.1381 0.0041 96
3 B3 229.1340 229.2528 0.1189 96
3 G#4 229.1340 229.2528 0.1189 96
3 E3 229.2569 229.5520 0.2951 90
3 B3 229.5028 229.6217 0.1189 90
3 E4 229.5028 229.6217 0.1189 90
3 G#4 229.5028 229.6217 0.1189 90
3 B3 229.6258 229.7446 0.1189 96
3 G#4 229.6258 229.7446 0.1189 96
3 E4 229.6258 229.7528 0.1270 96
3 E3 229.7487 230.1135 0.3648 90
3 B3 229.9946 230.1135 0.1189 90
3 G#4 229.9946 230.1135 0.1189 90
3 E4 229.9946 230.1217 0.1270 90
3 E4 230.1176 230.1217 0.0041 96
3 G#4 230.1176 230.2364 0.1189 96
3 B3 230.1176 230.2364 0.1189 96
3 B2 230.2405 230.5807 0.3402 90
3 G#4 230.4864 230.6053 0.1189 78
3 F#4 230.4864 230.6053 0.1189 90
3 B3 230.4864 230.6053 0.1189 90
3 D#4 230.4864 230.6135 0.1270 90
3 D#4 230.6094 230.6135 0.0041 96
3 B3 230.6094 230.7282 0.1189 96
3 F#4 230.6094 230.7282 0.1189 96
3 G#4 230.6094 230.7282 0.1189 84
3 B2 230.7323 231.0110 0.2787 90
3 F#4 230.9782 231.0971 0.1189 90
3 B3 230.9782 231.0971 0.1189 90
3 G#4 230.9782 231.0971 0.1189 78
3 D#4 230.9782 231.1053 0.1270 90
3 D#4 231.1012 231.1053 0.0041 96
3 G#4 231.1012 231.2200 0.1189 84
3 F#4 231.1012 231.2200 0.1189 96
3 B3 231.1012 231.2200 0.1189 96
3 B2 231.2241 231.5028 0.2787 90
3 G#4 231.4700 231.5889 0.1189 78
3 F#4 231.4700 231.5889 0.1189 90
3 B3 231.4700 231.5889 0.1189 90
3 D#4 231.4700 231.5971 0.1270 90
3 D#4 231.5930 231.5971 0.0041 96
3 F#4 231.5930 231.7118 0.1189 96
3 G#4 231.5930 231.7118 0.1189 84
3 B3 231.5930 231.7118 0.1189 96
3 B2 231.7159 232.0520 0.3361 90
3 B3 231.9618 232.0807 0.1189 90
3 F#4 231.9618 232.0807 0.1189 90
3 G#4 231.9618 232.0807 0.1189 78
3 D#4 231.9618 232.0889 0.1270 90
3 D#4 232.0848 232.0889 0.0041 96
3 B3 232.0848 232.2036 0.1189 96
3 G#4 232.0848 232.2036 0.1189 84
3 F#4 232.0848 232.2036 0.1189 96
3 A2 232.2077 232.5028 0.2951 90
3 A3 232.4536 232.5725 0.1189 90
3 E4 232.4536 232.5725 0.1189 90
3 C#4 232.4536 232.5807 0.1270 90
3 C#4 232.5766 232.5807 0.0041 96
3 A3 232.5766 232.6954 0.1189 96
3 E4 232.5766 232.6954 0.1189 96
3 A2 232.6995 233.0274 0.3279 90
3 A3 232.9454 233.0643 0.1189 90
3 E4 232.9454 233.0643 0.1189 90
3 C#4 232.9454 233.0725 0.1270 90
3 C#4 233.0684 233.0725 0.0041 96
3 A3 233.0684 233.1872 0.1189 96
3 E4 233.0684 233.1872 0.1189 96
3 A2 233.1913 233.5151 0.3238 90
3 A3 233.4372 233.5561 0.1189 90
3 G#4 233.4372 233.5561 0.1189 83
3 E4 233.4372 233.5561 0.1189 90
3 C#4 233.4372 233.5643 0.1270 90
3 C#4 233.5602 233.5643 0.0041 96
3 E4 233.5602 233.6790 0.1189 96
3 A3 233.5602 233.6790 0.1189 96
3 G#4 233.5602 233.6790 0.1189 89
3 A2 233.6831 233.9700 0.2869 90
3 A3 233.9290 234.0479 0.1189 90
3 G#4 233.9290 234.0479 0.1189 83
3 E4 233.9290 234.0479 0.1189 90
3 C#4 233.9290 234.0561 0.1270 90
3 C#4 234.0520 234.0561 0.0041 96
3 G#4 234.0520 234.1708 0.1189 89
3 E4 234.0520 234.1708 0.1189 96
3 A3 234.0520 234.1708 0.1189 96
3 C#3 234.1749 234.5110 0.3361 90
3 C#4 234.4208 234.5397 0.1189 90
3 G#4 234.4208 234.5397 0.1189 90
3 E4 234.4208 234.5479 0.1270 90
3 E4 234.5438 234.5479 0.0041 96
3 C#4 234.5438 234.6626 0.1189 96
3 G#4 234.5438 234.6626 0.1189 96
3 C#3 234.6667 234.9782 0.3115 90
3 C#4 234.9126 235.0315 0.1189 90
3 G#4 234.9126 235.0315 0.1189 90
3 E4 234.9126 235.0397 0.1270 90
3 E4 235.0356 235.0397 0.0041 96
3 C#4 235.0356 235.1544 0.1189 96
3 G#4 235.0356 235.1544 0.1189 96
3 C#3 235.1585 235.4823 0.3238 90
3 C#4 235.4044 235.5233 0.1189 90
3 G#4 235.4044 235.5233 0.1189 90
3 E4 235.4044 235.5315 0.1270 90
3 E4 235.5274 235.5315 0.0041 96
3 C#4 235.5274 235.6462 0.1189 96
3 G#4 235.5274 235.6462 0.1189 96
3 C#3 235.6503 236.0684 0.4180 90
3 C#4 235.8962 236.0151 0.1189 90
3 G#4 235.8962 236.0151 0.1189 90
3 E4 235.8962 236.0233 0.1270 90
3 E4 236.0192 236.0233 0.0041 96
3 C#4 236.0192 236.1380 0.1189 96
3 G#4 236.0192 236.1380 0.1189 96
3 E3 236.1421 236.4495 0.3074 90
3 B3 236.3880 236.5069 0.1189 90
3 G#4 236.3880 236.5069 0.1189 90
3 E4 236.3880 236.5151 0.1270 90
3 E4 236.5110 236.5151 0.0041 96
3 B3 236.5110 236.6299 0.1189 96
3 G#4 236.5110 236.6299 0.1189 96
3 E3 236.6339 236.9372 0.3033 90
3 B3 236.8799 236.9987 0.1189 90
3 G#4 236.8799 236.9987 0.1189 90
3 E4 236.8799 237.0069 0.1270 90
3 E4 237.0028 237.0069 0.0041 96
3 B3 237.0028 237.1217 0.1189 96
3 G#4 237.0028 237.1217 0.1189 96
3 E3 237.1258 237.4208 0.2951 90
3 B3 237.3717 237.4905 0.1189 90
3 E4 237.3717 237.4905 0.1189 90
3 G#4 237.3717 237.4905 0.1189 90
3 B3 237.4946 237.6135 0.1189 96
3 G#4 237.4946 237.6135 0.1189 96
3 E4 237.4946 237.6217 0.1270 96
3 E3 237.6176 237.9823 0.3648 90
3 B3 237.8635 237.9823 0.1189 90
3 G#4 237.8635 237.9823 0.1189 90
3 E4 237.8635 237.9905 0.1270 90
3 E4 237.9864 237.9905 0.0041 96
3 G#4 237.9864 238.1053 0.1189 96
3 B3 237.9864 238.1053 0.1189 96
3 B2 238.1094 238.4495 0.3402 90
3 B3 238.3553 238.4741 0.1189 90
3 G#4 238.3553 238.4741 0.1189 78
3 F#4 238.3553 238.4741 0.1189 90
3 D#4 238.3553 238.4823 0.1270 90
3 D#4 238.4782 238.4823 0.0041 96
3 B3 238.4782 238.5971 0.1189 96
3 F#4 238.4782 238.5971 0.1189 96
3 G#4 238.4782 238.5971 0.1189 84
3 B2 238.6012 238.8798 0.2787 90
3 B3 238.8471 238.9659 0.1189 90
3 G#4 238.8471 238.9659 0.1189 78
3 F#4 238.8471 238.9659 0.1189 90
3 D#4 238.8471 238.9741 0.1270 90
3 D#4 238.9700 238.9741 0.0041 96
3 B3 238.9700 239.0889 0.1189 96
3 F#4 238.9700 239.0889 0.1189 96
3 G#4 238.9700 239.0889 0.1189 84
3 B2 239.0930 239.3717 0.2787 90
3 G#4 239.3389 239.4577 0.1189 78
3 F#4 239.3389 239.4577 0.1189 90
3 B3 239.3389 239.4577 0.1189 90
3 D#4 239.3389 239.4659 0.1270 90
3 D#4 239.4618 239.4659 0.0041 96
3 F#4 239.4618 239.5807 0.1189 96
3 G#4 239.4618 239.5807 0.1189 84
3 B3 239.4618 239.5807 0.1189 96
3 B2 239.5848 239.9208 0.3361 90
3 B3 239.8307 239.9495 0.1189 90
3 F#4 239.8307 239.9495 0.1189 90
3 G#4 239.8307 239.9495 0.1189 78
3 D#4 239.8307 239.9577 0.1270 90
3 D#4 239.9536 239.9577 0.0041 96
3 G#4 239.9536 240.0725 0.1189 84
3 F#4 239.9536 240.0725 0.1189 96
3 B3 239.9536 240.0725 0.1189 96
3 A2 240.0766 240.3717 0.2951 90
3 A3 240.3225 240.4413 0.1189 90
3 E4 240.3225 240.4413 0.1189 90
3 C#4 240.3225 240.4495 0.1270 90
3 C#4 240.4454 240.4495 0.0041 96
3 A3 240.4454 240.5643 0.1189 96
3 E4 240.4454 240.5643 0.1189 96
3 A2 240.5684 240.8962 0.3279 90
3 E4 240.8143 240.9331 0.1189 90
3 A3 240.8143 240.9331 0.1189 90
3 C#4 240.8143 240.9413 0.1270 90
3 C#4 240.9372 240.9413 0.0041 96
3 E4 240.9372 241.0561 0.1189 96
3 A3 240.9372 241.0561 0.1189 96
3 A2 241.0602 241.3839 0.3238 90
3 E4 241.3061 241.4249 0.1189 90
3 A3 241.3061 241.4249 0.1189 90
3 G#4 241.3061 241.4249 0.1189 83
3 C#4 241.3061 241.4331 0.1270 90
3 C#4 241.4290 241.4331 0.0041 96
3 A3 241.4290 241.5479 0.1189 96
3 E4 241.4290 241.5479 0.1189 96
3 G#4 241.4290 241.5479 0.1189 89
3 A2 241.5520 241.8389 0.2869 90
3 A3 241.7979 241.9167 0.1189 90
3 E4 241.7979 241.9167 0.1189 90
3 G#4 241.7979 241.9167 0.1189 83
3 C#4 241.7979 241.9249 0.1270 90
3 C#4 241.9208 241.9249 0.0041 96
3 A3 241.9208 242.0397 0.1189 96
3 E4 241.9208 242.0397 0.1189 96
3 G#4 241.9208 242.0397 0.1189 89
3 C#3 242.0438 242.3798 0.3361 90
3 C#4 242.2897 242.4085 0.1189 90
3 G#4 242.2897 242.4085 0.1189 90
3 E4 242.2897 242.4167 0.1270 90
3 E4 242.4126 242.4167 0.0041 96
3 G#4 242.4126 242.5315 0.1189 96
3 C#4 242.4126 242.5315 0.1189 96
3 C#3 242.5356 242.8471 0.3115 90
3 C#4 242.7815 242.9003 0.1189 90
3 G#4 242.7815 242.9003 0.1189 90
3 E4 242.7815 242.9085 0.1270 90
3 E4 242.9044 242.9085 0.0041 96
3 C#4 242.9044 243.0233 0.1189 96
3 G#4 242.9044 243.0233 0.1189 96
3 C#3 243.0274 243.3512 0.3238 90
3 G#4 243.2733 243.3921 0.1189 90
3 C#4 243.2733 243.3921 0.1189 90
3 E4 243.2733 243.4003 0.1270 90
3 E4 243.3962 243.4003 0.0041 96
3 C#4 243.3962 243.5151 0.1189 96
3 G#4 243.3962 243.5151 0.1189 96
3 C#3 243.5192 243.9372 0.4180 90
3 C#4 243.7651 243.8839 0.1189 90
3 G#4 243.7651 243.8839 0.1189 90
3 E4 243.7651 243.8921 0.1270 90
3 E4 243.8880 243.8921 0.0041 96
3 C#4 243.8880 244.0069 0.1189 96
3 G#4 243.8880 244.0069 0.1189 96
3 E3 244.0110 244.3184 0.3074 90
3 B3 244.2569 244.3757 0.1189 90
3 G#4 244.2569 244.3757 0.1189 90
3 E4 244.2569 244.3839 0.1270 90
3 E4 244.3798 244.3839 0.0041 96
3 G#4 244.3798 244.4987 0.1189 96
3 B3 244.3798 244.4987 0.1189 96
3 E3 244.5028 244.8061 0.3033 90
3 B3 244.7487 244.8676 0.1189 90
3 G#4 244.7487 244.8676 0.1189 90
3 E4 244.7487 244.8757 0.1270 90
3 E4 244.8716 244.8757 0.0041 96
3 G#4 244.8716 244.9905 0.1189 96
3 B3 244.8716 244.9905 0.1189 96
3 E3 244.9946 245.2897 0.2951 90
3 B3 245.2405 245.3594 0.1189 90
3 E4 245.2405 245.3594 0.1189 90
3 G#4 245.2405 245.3594 0.1189 90
3 G#4 245.3635 245.4823 0.1189 96
3 B3 245.3635 245.4823 0.1189 96
3 E4 245.3635 245.4905 0.1270 96
3 E3 245.4864 245.8512 0.3648 90
3 B3 245.7323 245.8512 0.1189 90
3 G#4 245.7323 245.8512 0.1189 90
3 E4 245.7323 245.8594 0.1270 90
3 E4 245.8553 245.8594 0.0041 96
3 B3 245.8553 245.9741 0.1189 96
3 G#4 245.8553 245.9741 0.1189 96
3 B2 245.9782 246.3184 0.3402 90
3 G#4 246.2241 246.3430 0.1189 78
3 F#4 246.2241 246.3430 0.1189 90
3 B3 246.2241 246.3430 0.1189 90
3 D#4 246.2241 246.3512 0.1270 90
3 D#4 246.3471 246.3512 0.0041 96
3 F#4 246.3471 246.4659 0.1189 96
3 B3 246.3471 246.4659 0.1189 96
3 G#4 246.3471 246.4659 0.1189 84
3 B2 246.4700 246.7487 0.2787 90
3 F#4 246.7159 246.8348 0.1189 90
3 B3 246.7159 246.8348 0.1189 90
3 G#4 246.7159 246.8348 0.1189 78
3 D#4 246.7159 246.8430 0.1270 90
3 D#4 246.8389 246.8430 0.0041 96
3 G#4 246.8389 246.9577 0.1189 84
3 F#4 246.8389 246.9577 0.1189 96
3 B3 246.8389 246.9577 0.1189 96
3 B2 246.9618 247.2405 0.2787 90
3 B3 247.2077 247.3266 0.1189 90
3 F#4 247.2077 247.3266 0.1189 90
3 G#4 247.2077 247.3266 0.1189 78
3 D#4 247.2077 247.3348 0.1270 90
3 D#4 247.3307 247.3348 0.0041 96
3 F#4 247.3307 247.4495 0.1189 96
3 B3 247.3307 247.4495 0.1189 96
3 G#4 247.3307 247.4495 0.1189 84
3 B2 247.4536 247.7897 0.3361 90
3 B3 247.6995 247.8184 0.1189 90
3 G#4 247.6995 247.8184 0.1189 78
3 F#4 247.6995 247.8184 0.1189 90
3 D#4 247.6995 247.8266 0.1270 90
3 D#4 247.8225 247.8266 0.0041 96
3 B3 247.8225 247.9413 0.1189 96
3 G#4 247.8225 247.9413 0.1189 84
3 F#4 247.8225 247.9413 0.1189 96
3 A2 247.9454 248.2405 0.2951 90
3 A3 248.1913 248.3102 0.1189 90
3 E4 248.1913 248.3102 0.1189 90
3 C#4 248.1913 248.3184 0.1270 90
3 C#4 248.3143 248.3184 0.0041 96
3 E4 248.3143 248.4331 0.1189 96
3 A3 248.3143 248.4331 0.1189 96
3 A2 248.4372 248.7651 0.3279 90
3 A3 248.6831 248.8020 0.1189 90
3 E4 248.6831 248.8020 0.1189 90
3 C#4 248.6831 248.8102 0.1270 90
3 C#4 248.8061 248.8102 0.0041 96
3 A3 248.8061 248.9249 0.1189 96
3 E4 248.8061 248.9249 0.1189 96
3 A2 248.9290 249.2528 0.3238 90
3 A3 249.1749 249.2938 0.1189 90
3 E4 249.1749 249.2938 0.1189 90
3 G#4 249.1749 249.2938 0.1189 83
3 C#4 249.1749 249.3020 0.1270 90
3 C#4 249.2979 249.3020 0.0041 96
3 E4 249.2979 249.4167 0.1189 96
3 A3 249.2979 249.4167 0.1189 96
3 G#4 249.2979 249.4167 0.1189 89
3 A2 249.4208 249.7077 0.2869 90
3 G#4 249.6667 249.7856 0.1189 83
3 A3 249.6667 249.7856 0.1189 90
3 E4 249.6667 249.7856 0.1189 90
3 C#4 249.6667 249.7938 0.1270 90
3 C#4 249.7897 249.7938 0.0041 96
3 A3 249.7897 249.9085 0.1189 96
3 G#4 249.7897 249.9085 0.1189 89
3 E4 249.7897 249.9085 0.1189 96
3 C#3 249.9126 250.2487 0.3361 90
3 G#4 250.1585 250.2774 0.1189 90
3 C#4 250.1585 250.2774 0.1189 90
3 E4 250.1585 250.2856 0.1270 90
3 E4 250.2815 250.2856 0.0041 96
3 G#4 250.2815 250.4003 0.1189 96
3 C#4 250.2815 250.4003 0.1189 96
3 C#3 250.4044 250.7159 0.3115 90
3 G#4 250.6503 250.7692 0.1189 90
3 C#4 250.6503 250.7692 0.1189 90
3 E4 250.6503 250.7774 0.1270 90
3 E4 250.7733 250.7774 0.0041 96
3 C#4 250.7733 250.8921 0.1189 96
3 G#4 250.7733 250.8921 0.1189 96
3 C#3 250.8962 251.2200 0.3238 90
3 C#4 251.1421 251.2610 0.1189 90
3 G#4 251.1421 251.2610 0.1189 90
3 E4 251.1421 251.2692 0.1270 90
3 E4 251.2651 251.2692 0.0041 96
3 C#4 251.2651 251.3839 0.1189 96
3 G#4 251.2651 251.3839 0.1189 96
3 C#3 251.3880 251.8061 0.4180 90
3 C#4 251.6339 251.7528 0.1189 90
3 G#4 251.6339 251.7528 0.1189 90
3 E4 251.6339 251.7610 0.1270 90
3 E4 251.7569 251.7610 0.0041 96
3 C#4 251.7569 251.8757 0.1189 96
3 G#4 251.7569 251.8757 0.1189 96
3 E3 251.8798 252.1872 0.3074 90
3 B3 252.1257 252.2446 0.1189 90
3 G#4 252.1257 252.2446 0.1189 90
3 E4 252.1257 252.2528 0.1270 90
3 E4 252.2487 252.2528 0.0041 96
3 G#4 252.2487 252.3675 0.1189 96
3 B3 252.2487 252.3675 0.1189 96
3 E3 252.3716 252.6749 0.3033 90
3 B3 252.6175 252.7364 0.1189 90
3 G#4 252.6175 252.7364 0.1189 90
3 E4 252.6175 252.7446 0.1270 90
3 E4 252.7405 252.7446 0.0041 96
3 G#4 252.7405 252.8593 0.1189 96
3 B3 252.7405 252.8593 0.1189 96
3 E3 252.8634 253.1585 0.2951 90
3 B3 253.1093 253.2282 0.1189 90
3 E4 253.1093 253.2282 0.1189 90
3 G#4 253.1093 253.2282 0.1189 90
3 G#4 253.2323 253.3512 0.1189 96
3 B3 253.2323 253.3512 0.1189 96
3 E4 253.2323 253.3593 0.1270 96
3 E3 253.3553 253.7200 0.3648 90
3 B3 253.6012 253.7200 0.1189 90
3 G#4 253.6012 253.7200 0.1189 90
3 E4 253.6012 253.7282 0.1270 90
3 E4 253.7241 253.7282 0.0041 96
3 B3 253.7241 253.8430 0.1189 96
3 G#4 253.7241 253.8430 0.1189 96
3 B2 253.8471 254.1872 0.3402 90
3 G#4 254.0930 254.2118 0.1189 78
3 F#4 254.0930 254.2118 0.1189 90
3 B3 254.0930 254.2118 0.1189 90
3 D#4 254.0930 254.2200 0.1270 90
3 D#4 254.2159 254.2200 0.0041 96
3 F#4 254.2159 254.3348 0.1189 96
3 B3 254.2159 254.3348 0.1189 96
3 G#4 254.2159 254.3348 0.1189 84
3 B2 254.3389 254.6175 0.2787 90
3 F#4 254.5848 254.7036 0.1189 90
3 B3 254.5848 254.7036 0.1189 90
3 G#4 254.5848 254.7036 0.1189 78
3 D#4 254.5848 254.7118 0.1270 90
3 D#4 254.7077 254.7118 0.0041 96
3 G#4 254.7077 254.8266 0.1189 84
3 F#4 254.7077 254.8266 0.1189 96
3 B3 254.7077 254.8266 0.1189 96
3 B2 254.8307 255.1093 0.2787 90
3 B3 255.0766 255.1954 0.1189 90
3 F#4 255.0766 255.1954 0.1189 90
3 G#4 255.0766 255.1954 0.1189 78
3 D#4 255.0766 255.2036 0.1270 90
3 D#4 255.1995 255.2036 0.0041 96
3 F#4 255.1995 255.3184 0.1189 96
3 B3 255.1995 255.3184 0.1189 96
3 G#4 255.1995 255.3184 0.1189 84
3 B2 255.3225 255.6585 0.3361 90
3 B3 255.5684 255.6872 0.1189 90
3 G#4 255.5684 255.6872 0.1189 78
3 F#4 255.5684 255.6872 0.1189 90
3 D#4 255.5684 255.6954 0.1270 90
3 D#4 255.6913 255.6954 0.0041 96
3 B3 255.6913 255.8102 0.1189 96
3 G#4 255.6913 255.8102 0.1189 84
3 F#4 255.6913 255.8102 0.1189 96
4 C#4 13.3829 15.6087 2.2258 51
4 C#3 13.3829 15.6087 2.2258 51
4 E3 15.6134 17.8392 2.2258 51
4 E4 15.6134 17.8439 2.2305 51
4 B2 17.8439 20.0697 2.2258 51
4 B3 17.8439 20.0744 2.2305 51
4 A2 20.0744 24.9210 4.8467 51
4 A3 20.0744 24.9350 4.8606 51
4 C#6 26.6341 28.5972 1.9631 54
4 E6 26.6341 30.5644 3.9303 54
4 G#5 26.6341 30.5644 3.9303 54
4 B5 28.6013 32.5316 3.9303 54
4 D#6 30.5685 32.5111 1.9426 54
4 F#5 30.5685 32.5316 1.9631 54
4 C#6 32.5357 34.4988 1.9631 54
4 A5 32.5357 34.4988 1.9631 54
4 E5 32.5357 34.4988 1.9631 54
4 C#5 34.5029 36.4660 1.9631 54
4 G#4 34.5029 38.4128 3.9098 54
4 E5 34.5029 38.4128 3.9098 54
4 C#6 34.5029 42.3677 7.8647 54
4 B4 36.4701 40.4005 3.9303 54
4 F#4 38.4373 40.3964 1.9590 54
4 D#5 38.4373 40.4005 1.9631 54
4 E4 40.4046 42.3677 1.9631 54
4 C#5 40.4046 42.3677 1.9631 54
4 A4 40.4046 42.3677 1.9631 54
4 C#6 42.3718 44.2980 1.9262 54
4 E6 42.3718 46.2816 3.9098 54
4 G#5 42.3718 46.3021 3.9303 54
4 B5 44.3390 48.2693 3.9303 54
4 D#6 46.3062 48.2488 1.9426 54
4 F#5 46.3062 48.2693 1.9631 54
4 E6 48.2734 50.2365 1.9631 54
4 C#6 48.2734 50.2365 1.9631 54
4 A5 48.2734 50.2365 1.9631 54
4 C#5 50.2406 52.2119 1.9713 54
4 G#5 50.2406 54.1709 3.9303 54
4 E5 50.2406 54.1709 3.9303 54
4 B4 52.2078 54.1709 1.9631 54
4 B4 54.1750 56.1381 1.9631 54
4 F#5 54.1750 56.1381 1.9631 54
4 D#5 54.1750 56.1381 1.9631 54
4 C#5 56.1422 58.1054 1.9631 54
4 A4 56.1422 58.1054 1.9631 54
4 E5 56.1422 58.1054 1.9631 54
4 C#5 58.1095 60.0808 1.9713 54
4 G#5 58.1095 62.0398 3.9303 54
4 E5 58.1095 62.0398 3.9303 54
4 B4 60.0767 62.0398 1.9631 54
4 B4 62.0439 64.0070 1.9631 54
4 F#5 62.0439 64.0070 1.9631 54
4 D#5 62.0439 64.0070 1.9631 54
4 E5 64.0111 65.9742 1.9631 54
4 A4 64.0111 65.9742 1.9631 54
4 C#5 64.0111 65.9742 1.9631 54
4 C#5 65.9783 67.9414 1.9631 54
4 G#4 65.9783 69.9086 3.9303 54
4 E5 65.9783 69.9086 3.9303 54
4 B4 67.9455 71.8758 3.9303 54
4 D#5 69.9127 71.8554 1.9426 54
4 F#4 69.9127 71.8758 1.9631 54
4 C#5 71.8799 77.7775 5.8975 54
4 A4 71.8799 77.7775 5.8975 54
4 E4 71.8799 77.7775 5.8975 54
4 C#5 81.7160 83.6791 1.9631 54
4 E5 81.7160 85.6258 3.9098 54
4 G#4 81.7160 85.6258 3.9098 54
4 C#6 81.7160 89.5808 7.8647 54
4 B4 83.6832 87.6135 3.9303 54
4 F#4 85.6504 87.6094 1.9590 54
4 D#5 85.6504 87.6135 1.9631 54
4 C#5 87.6176 89.5808 1.9631 54
4 A4 87.6176 89.5808 1.9631 54
4 E4 87.6176 89.5808 1.9631 54
4 C#5 89.5849 91.5480 1.9631 54
4 G#4 89.5849 93.4947 3.9098 54
4 E5 89.5849 93.4947 3.9098 54
4 C#6 89.5849 97.4496 7.8647 54
4 B4 91.5521 95.4824 3.9303 54
4 F#4 93.5193 95.4783 1.9590 54
4 D#5 93.5193 95.4824 1.9631 54
4 A4 95.4865 97.4496 1.9631 54
4 C#5 95.4865 97.4496 1.9631 54
4 E4 95.4865 97.4496 1.9631 54
4 C#5 97.4537 99.4168 1.9631 54
4 E5 97.4537 101.3635 3.9098 54
4 G#4 97.4537 101.3635 3.9098 54
4 C#6 97.4537 105.3184 7.8647 54
4 B4 99.4209 103.3512 3.9303 54
4 F#4 101.3881 103.3471 1.9590 54
4 D#5 101.3881 103.3512 1.9631 54
4 E4 103.3553 105.3184 1.9631 54
4 A4 103.3553 105.3184 1.9631 54
4 C#5 103.3553 105.3184 1.9631 54
4 C#5 105.3225 107.2857 1.9631 54
4 G#4 105.3225 109.2324 3.9098 54
4 E5 105.3225 109.2324 3.9098 54
4 C#6 105.3225 113.1873 7.8647 54
4 B4 107.2898 111.2201 3.9303 54
4 F#4 109.2570 111.2160 1.9590 54
4 D#5 109.2570 111.2201 1.9631 54
4 C#5 111.2242 113.1873 1.9631 54
4 A4 111.2242 113.1873 1.9631 54
4 E4 111.2242 113.1873 1.9631 54
4 C#5 113.1914 115.1545 1.9631 54
4 E5 113.1914 117.1012 3.9098 54
4 G#4 113.1914 117.1012 3.9098 54
4 B4 115.1586 119.0889 3.9303 54
4 F#4 117.1258 119.0848 1.9590 54
4 D#5 117.1258 119.0889 1.9631 54
4 A4 119.0930 121.0561 1.9631 54
4 C#5 119.0930 121.0561 1.9631 54
4 E4 119.0930 121.0561 1.9631 54
4 C#4 121.0602 123.0111 1.9508 48
4 C#6 121.0602 123.0234 1.9631 48
4 E6 121.0602 124.9906 3.9303 48
4 G#5 121.0602 124.9906 3.9303 48
4 E4 123.0275 125.0070 1.9795 48
4 B5 123.0275 126.9578 3.9303 48
4 D#6 124.9947 126.9373 1.9426 48
4 F#5 124.9947 126.9578 1.9631 48
4 B3 124.9947 126.9660 1.9713 48
4 A3 126.9619 128.0725 1.1107 48
4 A5 126.9619 128.1996 1.2377 48
4 E6 126.9619 128.1996 1.2377 48
4 C#6 126.9619 128.1996 1.2377 48
4 C#5 128.9291 130.9004 1.9713 54
4 E5 128.9291 132.8594 3.9303 54
4 G#5 128.9291 132.8594 3.9303 54
4 B4 130.8963 132.8594 1.9631 54
4 D#5 132.8635 134.8266 1.9631 54
4 F#5 132.8635 134.8266 1.9631 54
4 B4 132.8635 134.8266 1.9631 54
4 E5 134.8307 136.7938 1.9631 54
4 A4 134.8307 136.7938 1.9631 54
4 C#5 134.8307 136.7938 1.9631 54
4 C#5 136.7979 138.7611 1.9631 54
4 G#4 136.7979 140.7283 3.9303 54
4 E5 136.7979 140.7283 3.9303 54
4 B4 138.7652 142.6955 3.9303 54
4 D#5 140.7324 142.6750 1.9426 54
4 F#4 140.7324 142.6955 1.9631 54
4 C#5 142.6996 148.5971 5.8975 54
4 E4 142.6996 148.5971 5.8975 54
4 A4 142.6996 148.5971 5.8975 54
4 C#5 152.5356 154.4987 1.9631 54
4 G#4 152.5356 156.4455 3.9098 54
4 E5 152.5356 156.4455 3.9098 54
4 C#6 152.5356 160.4004 7.8647 54
4 B4 154.5028 158.4332 3.9303 54
4 F#4 156.4701 158.4291 1.9590 54
4 D#5 156.4701 158.4332 1.9631 54
4 C#5 158.4373 160.4004 1.9631 54
4 A4 158.4373 160.4004 1.9631 54
4 E4 158.4373 160.4004 1.9631 54
4 C#5 160.4045 162.3676 1.9631 54
4 G#4 160.4045 164.3143 3.9098 54
4 E5 160.4045 164.3143 3.9098 54
4 C#6 160.4045 168.2692 7.8647 54
4 B4 162.3717 166.3020 3.9303 54
4 F#4 164.3389 166.2979 1.9590 54
4 D#5 164.3389 166.3020 1.9631 54
4 C#5 166.3061 168.2692 1.9631 54
4 E4 166.3061 168.2692 1.9631 54
4 A4 166.3061 168.2692 1.9631 54
4 C#5 168.2733 170.2364 1.9631 54
4 G#4 168.2733 172.1832 3.9098 54
4 E5 168.2733 172.1832 3.9098 54
4 C#6 168.2733 176.1381 7.8647 54
4 B4 170.2405 174.1709 3.9303 54
4 F#4 172.2078 174.1668 1.9590 54
4 D#5 172.2078 174.1709 1.9631 54
4 A4 174.1750 176.1381 1.9631 54
4 E4 174.1750 176.1381 1.9631 54
4 C#5 174.1750 176.1381 1.9631 54
4 C#5 176.1422 178.1053 1.9631 54
4 G#4 176.1422 180.0520 3.9098 54
4 E5 176.1422 180.0520 3.9098 54
4 C#6 176.1422 184.0069 7.8647 54
4 B4 178.1094 182.0397 3.9303 54
4 F#4 180.0766 182.0356 1.9590 54
4 D#5 180.0766 182.0397 1.9631 54
4 E4 182.0438 184.0069 1.9631 54
4 C#5 182.0438 184.0069 1.9631 54
4 A4 182.0438 184.0069 1.9631 54
4 C#5 210.5684 212.5315 1.9631 54
4 G#4 210.5684 214.4782 3.9098 54
4 E5 210.5684 214.4782 3.9098 54
4 C#6 210.5684 218.4331 7.8647 54
4 B4 212.5356 216.4659 3.9303 54
4 F#4 214.5028 216.4618 1.9590 54
4 D#5 214.5028 216.4659 1.9631 54
4 C#5 216.4700 218.4331 1.9631 54
4 A4 216.4700 218.4331 1.9631 54
4 E4 216.4700 218.4331 1.9631 54
4 C#5 218.4372 220.4004 1.9631 54
4 G#4 218.4372 222.3471 3.9098 54
4 E5 218.4372 222.3471 3.9098 54
4 C#6 218.4372 226.3020 7.8647 54
4 B4 220.4045 224.3348 3.9303 54
4 F#4 222.3717 224.3307 1.9590 54
4 D#5 222.3717 224.3348 1.9631 54
4 A4 224.3389 226.3020 1.9631 54
4 E4 224.3389 226.3020 1.9631 54
4 C#5 224.3389 226.3020 1.9631 54
4 C#5 226.3061 228.2692 1.9631 54
4 G#4 226.3061 230.2159 3.9098 54
4 E5 226.3061 230.2159 3.9098 54
4 C#6 226.3061 234.1708 7.8647 54
4 B4 228.2733 232.2036 3.9303 54
4 F#4 230.2405 232.1995 1.9590 54
4 D#5 230.2405 232.2036 1.9631 54
4 C#5 232.2077 234.1708 1.9631 54
4 A4 232.2077 234.1708 1.9631 54
4 E4 232.2077 234.1708 1.9631 54
4 C#5 234.1749 236.1380 1.9631 54
4 G#4 234.1749 238.0848 3.9098 54
4 E5 234.1749 238.0848 3.9098 54
4 C#6 234.1749 242.0397 7.8647 54
4 B4 236.1421 240.0725 3.9303 54
4 F#4 238.1094 240.0684 1.9590 54
4 D#5 238.1094 240.0725 1.9631 54
4 C#5 240.0766 242.0397 1.9631 54
4 E4 240.0766 242.0397 1.9631 54
4 A4 240.0766 242.0397 1.9631 54
4 C#5 242.0438 244.0069 1.9631 54
4 G#4 242.0438 245.9536 3.9098 54
4 E5 242.0438 245.9536 3.9098 54
4 C#6 242.0438 249.9085 7.8647 54
4 B4 244.0110 247.9413 3.9303 54
4 F#4 245.9782 247.9372 1.9590 54
4 D#5 245.9782 247.9413 1.9631 54
4 E4 247.9454 249.9085 1.9631 54
4 A4 247.9454 249.9085 1.9631 54
4 C#5 247.9454 249.9085 1.9631 54
4 C#5 249.9126 251.8757 1.9631 54
4 E5 249.9126 253.8225 3.9098 54
4 G#4 249.9126 253.8225 3.9098 54
4 C#6 249.9126 255.7979 5.8852 54
4 B4 251.8798 255.8102 3.9303 54
4 F#4 253.8471 255.8061 1.9590 54
4 D#5 253.8471 255.8102 1.9631 54
5 A4 26.1382 26.7693 0.6311 90
5 A4 33.5193 34.6914 1.1721 90
5 A4 57.6177 58.2406 0.6230 90
5 A4 64.9947 66.1668 1.1721 90
5 A4 77.2898 77.9701 0.6803 90
5 A4 81.2242 81.9045 0.6803 90
5 A4 104.8307 105.5111 0.6803 90
5 A4 120.5684 121.2488 0.6803 90
5 A4 128.4373 129.1176 0.6803 90
5 A4 136.3061 136.9865 0.6803 90
5 A4 152.0438 152.7242 0.6803 90
5 A4 175.6504 176.3307 0.6803 90
5 A4 209.9536 210.6340 0.6803 90
5 A4 225.8143 226.4946 0.6803 90
6 C#4 26.6341 27.1218 0.4877 92
6 C#2 26.6341 28.5603 1.9262 92
6 C#1 26.6341 28.5890 1.9549 92
6 G#3 27.1259 27.6136 0.4877 92
6 C#4 27.6177 28.1054 0.4877 92
6 C#4 28.1095 28.5972 0.4877 92
6 E4 28.6013 29.0890 0.4877 92
6 E2 28.6013 30.5193 1.9180 92
6 E1 28.6013 30.5439 1.9426 92
6 B3 29.0931 29.5808 0.4877 92
6 B3 29.5849 30.0726 0.4877 92
6 B3 30.0767 30.5644 0.4877 92
6 D#4 30.5685 31.0562 0.4877 92
6 B0 30.5685 32.4865 1.9180 92
6 B1 30.5685 32.5152 1.9467 92
6 B3 31.0603 31.5480 0.4877 92
6 B3 31.5521 32.0398 0.4877 92
6 B3 32.0439 32.5316 0.4877 92
6 C#4 32.5357 33.0234 0.4877 92
6 A1 32.5357 34.4988 1.9631 92
6 A2 32.5357 34.4988 1.9631 92
6 A3 33.0275 33.5152 0.4877 92
6 A3 33.5193 34.0070 0.4877 92
6 A3 34.0111 34.4988 0.4877 92
6 C#4 34.5029 34.9906 0.4877 92
6 C#2 34.5029 36.4291 1.9262 92
6 C#1 34.5029 36.4578 1.9549 92
6 G#3 34.9947 35.4824 0.4877 92
6 C#4 35.4865 35.9742 0.4877 92
6 C#4 35.9783 36.4660 0.4877 92
6 E4 36.4701 36.9578 0.4877 92
6 E2 36.4701 38.3882 1.9180 92
6 E1 36.4701 38.4128 1.9426 92
6 B3 36.9619 37.4496 0.4877 92
6 B3 37.4537 37.9414 0.4877 92
6 B3 37.9455 38.4332 0.4877 92
6 D#4 38.4373 38.9250 0.4877 92
6 B0 38.4373 40.3554 1.9180 92
6 B1 38.4373 40.3841 1.9467 92
6 B3 38.9291 39.4168 0.4877 92
6 B3 39.4209 39.9087 0.4877 92
6 B3 39.9127 40.4005 0.4877 92
6 C#4 40.4046 40.8923 0.4877 92
6 A2 40.4046 42.3677 1.9631 92
6 A1 40.4046 42.3677 1.9631 92
6 A3 40.8964 41.3841 0.4877 92
6 A3 41.3882 41.8759 0.4877 92
6 A3 41.8800 42.3677 0.4877 92
6 C#3 42.3718 44.3349 1.9631 100
6 C#2 42.3718 44.3349 1.9631 92
6 C#1 42.3718 44.3349 1.9631 92
6 E3 44.3390 46.3021 1.9631 100
6 E1 44.3390 46.3021 1.9631 92
6 E2 44.3390 46.3021 1.9631 92
6 B0 46.3062 48.2693 1.9631 92
6 B2 46.3062 48.2693 1.9631 100
6 B1 46.3062 48.2693 1.9631 92
6 A1 48.2734 50.2365 1.9631 92
6 A2 48.2734 50.2365 1.9631 100
6 A0 48.2734 50.2365 1.9631 92
6 C#3 50.2406 52.2037 1.9631 100
6 C#1 50.2406 52.2037 1.9631 92
6 C#2 50.2406 52.2037 1.9631 92
6 E1 52.2078 54.1709 1.9631 92
6 E3 52.2078 54.1709 1.9631 100
6 E2 52.2078 54.1709 1.9631 92
6 B1 54.1750 56.1381 1.9631 92
6 B0 54.1750 56.1381 1.9631 92
6 B2 54.1750 56.1381 1.9631 100
6 A1 56.1422 58.1054 1.9631 92
6 A0 56.1422 58.1054 1.9631 92
6 A2 56.1422 58.1054 1.9631 100
6 C#3 58.1095 60.0726 1.9631 100
6 C#1 58.1095 60.0726 1.9631 92
6 C#2 58.1095 60.0726 1.9631 92
6 E3 60.0767 62.0398 1.9631 100
6 E1 60.0767 62.0398 1.9631 92
6 E2 60.0767 62.0398 1.9631 92
6 B2 62.0439 64.0070 1.9631 100
6 B1 62.0439 64.0070 1.9631 92
6 B0 62.0439 64.0070 1.9631 92
6 A2 64.0111 65.9742 1.9631 100
6 A1 64.0111 65.9742 1.9631 92
6 A0 64.0111 65.9742 1.9631 92
6 C#2 65.9783 67.9414 1.9631 92
6 C#3 65.9783 67.9414 1.9631 100
6 C#1 65.9783 67.9414 1.9631 92
6 E1 67.9455 69.9086 1.9631 92
6 E2 67.9455 69.9086 1.9631 92
6 E3 67.9455 69.9086 1.9631 100
6 B2 69.9127 71.8758 1.9631 100
6 B0 69.9127 71.8758 1.9631 92
6 B1 69.9127 71.8758 1.9631 92
6 A2 71.8799 73.8431 1.9631 100
6 A0 71.8799 73.8431 1.9631 92
6 A1 71.8799 73.8431 1.9631 92
6 A0 73.8472 75.7078 1.8607 92
6 A1 73.8472 75.7242 1.8770 92
6 A2 73.8472 75.7283 1.8811 100
6 A2 75.8144 77.7406 1.9262 100
6 A0 75.8144 77.7447 1.9303 92
6 A1 75.8144 77.7652 1.9508 92
6 C#4 81.7160 82.2037 0.4877 92
6 C#2 81.7160 83.6422 1.9262 92
6 C#1 81.7160 83.6709 1.9549 92
6 G#3 82.2078 82.6955 0.4877 92
6 C#4 82.6996 83.1873 0.4877 92
6 C#4 83.1914 83.6791 0.4877 92
6 E4 83.6832 84.1709 0.4877 92
6 E2 83.6832 85.6012 1.9180 92
6 E1 83.6832 85.6258 1.9426 92
6 B3 84.1750 84.6627 0.4877 92
6 B3 84.6668 85.1545 0.4877 92
6 B3 85.1586 85.6463 0.4877 92
6 D#4 85.6504 86.1381 0.4877 92
6 B0 85.6504 87.5685 1.9180 92
6 B1 85.6504 87.5971 1.9467 92
6 B3 86.1422 86.6299 0.4877 92
6 B3 86.6340 87.1217 0.4877 92
6 B3 87.1258 87.6135 0.4877 92
6 C#4 87.6176 88.1053 0.4877 92
6 A2 87.6176 89.5808 1.9631 92
6 A1 87.6176 89.5808 1.9631 92
6 A3 88.1094 88.5971 0.4877 92
6 A3 88.6012 89.0890 0.4877 92
6 A3 89.0930 89.5808 0.4877 92
6 C#4 89.5849 90.0726 0.4877 92
6 C#2 89.5849 91.5111 1.9262 92
6 C#1 89.5849 91.5398 1.9549 92
6 G#3 90.0767 90.5644 0.4877 92
6 C#4 90.5685 91.0562 0.4877 92
6 C#4 91.0603 91.5480 0.4877 92
6 E4 91.5521 92.0398 0.4877 92
6 E2 91.5521 93.4701 1.9180 92
6 E1 91.5521 93.4947 1.9426 92
6 B3 92.0439 92.5316 0.4877 92
6 B3 92.5357 93.0234 0.4877 92
6 B3 93.0275 93.5152 0.4877 92
6 D#4 93.5193 94.0070 0.4877 92
6 B0 93.5193 95.4373 1.9180 92
6 B1 93.5193 95.4660 1.9467 92
6 B3 94.0111 94.4988 0.4877 92
6 B3 94.5029 94.9906 0.4877 92
6 B3 94.9947 95.4824 0.4877 92
6 C#4 95.4865 95.9742 0.4877 92
6 A1 95.4865 97.4496 1.9631 92
6 A2 95.4865 97.4496 1.9631 92
6 A3 95.9783 96.4660 0.4877 92
6 A3 96.4701 96.9578 0.4877 92
6 A3 96.9619 97.4496 0.4877 92
6 C#4 97.4537 97.9414 0.4877 92
6 C#2 97.4537 99.3799 1.9262 92
6 C#1 97.4537 99.4086 1.9549 92
6 G#3 97.9455 98.4332 0.4877 92
6 C#4 98.4373 98.9250 0.4877 92
6 C#4 98.9291 99.4168 0.4877 92
6 E4 99.4209 99.9086 0.4877 92
6 E2 99.4209 101.3389 1.9180 92
6 E1 99.4209 101.3635 1.9426 92
6 B3 99.9127 100.4004 0.4877 92
6 B3 100.4045 100.8922 0.4877 92
6 B3 100.8963 101.3840 0.4877 92
6 D#4 101.3881 101.8758 0.4877 92
6 B0 101.3881 103.3062 1.9180 92
6 B1 101.3881 103.3348 1.9467 92
6 B3 101.8799 102.3676 0.4877 92
6 B3 102.3717 102.8594 0.4877 92
6 B3 102.8635 103.3512 0.4877 92
6 C#4 103.3553 103.8430 0.4877 92
6 A1 103.3553 105.3184 1.9631 92
6 A2 103.3553 105.3184 1.9631 92
6 A3 103.8471 104.3348 0.4877 92
6 A3 104.3389 104.8266 0.4877 92
6 A3 104.8307 105.3184 0.4877 92
6 C#4 105.3225 105.8103 0.4877 92
6 C#2 105.3225 107.2488 1.9262 92
6 C#1 105.3225 107.2775 1.9549 92
6 G#3 105.8144 106.3021 0.4877 92
6 C#4 106.3062 106.7939 0.4877 92
6 C#4 106.7980 107.2857 0.4877 92
6 E4 107.2898 107.7775 0.4877 92
6 E2 107.2898 109.2078 1.9180 92
6 E1 107.2898 109.2324 1.9426 92
6 B3 107.7816 108.2693 0.4877 92
6 B3 108.2734 108.7611 0.4877 92
6 B3 108.7652 109.2529 0.4877 92
6 D#4 109.2570 109.7447 0.4877 92
6 B0 109.2570 111.1750 1.9180 92
6 B1 109.2570 111.2037 1.9467 92
6 B3 109.7488 110.2365 0.4877 92
6 B3 110.2406 110.7283 0.4877 92
6 B3 110.7324 111.2201 0.4877 92
6 C#4 111.2242 111.7119 0.4877 92
6 A2 111.2242 113.1873 1.9631 92
6 A1 111.2242 113.1873 1.9631 92
6 A3 111.7160 112.2037 0.4877 92
6 A3 112.2078 112.6955 0.4877 92
6 A3 112.6996 113.1873 0.4877 92
6 C#1 113.1914 115.1545 1.9631 92
6 C#3 113.1914 115.1545 1.9631 100
6 C#2 113.1914 115.1545 1.9631 92
6 E2 115.1586 117.1217 1.9631 92
6 E1 115.1586 117.1217 1.9631 92
6 E3 115.1586 117.1217 1.9631 100
6 B2 117.1258 119.0889 1.9631 100
6 B1 117.1258 119.0889 1.9631 92
6 B0 117.1258 119.0889 1.9631 92
6 A2 119.0930 121.0561 1.9631 100
6 A0 119.0930 121.0561 1.9631 92
6 A1 119.0930 121.0561 1.9631 92
6 C#2 128.9291 130.8922 1.9631 92
6 C#3 128.9291 130.8922 1.9631 100
6 C#1 128.9291 130.8922 1.9631 92
6 E3 130.8963 132.8594 1.9631 100
6 E2 130.8963 132.8594 1.9631 92
6 E1 130.8963 132.8594 1.9631 92
6 B0 132.8635 134.8266 1.9631 92
6 B1 132.8635 134.8266 1.9631 92
6 B2 132.8635 134.8266 1.9631 100
6 A2 134.8307 136.7938 1.9631 100
6 A1 134.8307 136.7938 1.9631 92
6 A0 134.8307 136.7938 1.9631 92
6 C#2 136.7979 138.7611 1.9631 92
6 C#3 136.7979 138.7611 1.9631 100
6 C#1 136.7979 138.7611 1.9631 92
6 E1 138.7652 140.7283 1.9631 92
6 E2 138.7652 140.7283 1.9631 92
6 E3 138.7652 140.7283 1.9631 100
6 B1 140.7324 142.6955 1.9631 92
6 B2 140.7324 142.6955 1.9631 100
6 B0 140.7324 142.6955 1.9631 92
6 A2 142.6996 144.6627 1.9631 100
6 A0 142.6996 144.6627 1.9631 92
6 A1 142.6996 144.6627 1.9631 92
6 A1 144.6668 146.6299 1.9631 92
6 A2 144.6668 146.6299 1.9631 100
6 A0 144.6668 146.6299 1.9631 92
6 A0 146.6340 148.4947 1.8607 92
6 A1 146.6340 148.5110 1.8770 92
6 A2 146.6340 148.5151 1.8811 100
6 C#4 152.5356 153.0233 0.4877 92
6 C#2 152.5356 154.4619 1.9262 92
6 C#1 152.5356 154.4906 1.9549 92
6 G#3 153.0274 153.5151 0.4877 92
6 C#4 153.5192 154.0069 0.4877 92
6 C#4 154.0110 154.4987 0.4877 92
6 E4 154.5028 154.9906 0.4877 92
6 E2 154.5028 156.4209 1.9180 92
6 E1 154.5028 156.4455 1.9426 92
6 B3 154.9947 155.4824 0.4877 92
6 B3 155.4865 155.9742 0.4877 92
6 B3 155.9783 156.4660 0.4877 92
6 D#4 156.4701 156.9578 0.4877 92
6 B0 156.4701 158.3881 1.9180 92
6 B1 156.4701 158.4168 1.9467 92
6 B3 156.9619 157.4496 0.4877 92
6 B3 157.4537 157.9414 0.4877 92
6 B3 157.9455 158.4332 0.4877 92
6 C#4 158.4373 158.9250 0.4877 92
6 A2 158.4373 160.4004 1.9631 92
6 A1 158.4373 160.4004 1.9631 92
6 A3 158.9291 159.4168 0.4877 92
6 A3 159.4209 159.9086 0.4877 92
6 A3 159.9127 160.4004 0.4877 92
6 C#4 160.4045 160.8922 0.4877 92
6 C#2 160.4045 162.3307 1.9262 92
6 C#1 160.4045 162.3594 1.9549 92
6 G#3 160.8963 161.3840 0.4877 92
6 C#4 161.3881 161.8758 0.4877 92
6 C#4 161.8799 162.3676 0.4877 92
6 E4 162.3717 162.8594 0.4877 92
6 E2 162.3717 164.2897 1.9180 92
6 E1 162.3717 164.3143 1.9426 92
6 B3 162.8635 163.3512 0.4877 92
6 B3 163.3553 163.8430 0.4877 92
6 B3 163.8471 164.3348 0.4877 92
6 D#4 164.3389 164.8266 0.4877 92
6 B0 164.3389 166.2569 1.9180 92
6 B1 164.3389 166.2856 1.9467 92
6 B3 164.8307 165.3184 0.4877 92
6 B3 165.3225 165.8102 0.4877 92
6 B3 165.8143 166.3020 0.4877 92
6 C#4 166.3061 166.7938 0.4877 92
6 A2 166.3061 168.2692 1.9631 92
6 A1 166.3061 168.2692 1.9631 92
6 A3 166.7979 167.2856 0.4877 92
6 A3 167.2897 167.7774 0.4877 92
6 A3 167.7815 168.2692 0.4877 92
6 C#4 168.2733 168.7610 0.4877 92
6 C#2 168.2733 170.1996 1.9262 92
6 C#1 168.2733 170.2282 1.9549 92
6 G#3 168.7651 169.2528 0.4877 92
6 C#4 169.2569 169.7446 0.4877 92
6 C#4 169.7487 170.2364 0.4877 92
6 E4 170.2405 170.7282 0.4877 92
6 E2 170.2405 172.1586 1.9180 92
6 E1 170.2405 172.1832 1.9426 92
6 B3 170.7323 171.2201 0.4877 92
6 B3 171.2242 171.7119 0.4877 92
6 B3 171.7160 172.2037 0.4877 92
6 D#4 172.2078 172.6955 0.4877 92
6 B0 172.2078 174.1258 1.9180 92
6 B1 172.2078 174.1545 1.9467 92
6 B3 172.6996 173.1873 0.4877 92
6 B3 173.1914 173.6791 0.4877 92
6 B3 173.6832 174.1709 0.4877 92
6 C#4 174.1750 174.6627 0.4877 92
6 A1 174.1750 176.1381 1.9631 92
6 A2 174.1750 176.1381 1.9631 92
6 A3 174.6668 175.1545 0.4877 92
6 A3 175.1586 175.6463 0.4877 92
6 A3 175.6504 176.1381 0.4877 92
6 C#4 176.1422 176.6299 0.4877 92
6 C#2 176.1422 178.0684 1.9262 92
6 C#1 176.1422 178.0971 1.9549 92
6 G#3 176.6340 177.1217 0.4877 92
6 C#4 177.1258 177.6135 0.4877 92
6 C#4 177.6176 178.1053 0.4877 92
6 E4 178.1094 178.5971 0.4877 92
6 E2 178.1094 180.0274 1.9180 92
6 E1 178.1094 180.0520 1.9426 92
6 B3 178.6012 179.0889 0.4877 92
6 B3 179.0930 179.5807 0.4877 92
6 B3 179.5848 180.0725 0.4877 92
6 D#4 180.0766 180.5643 0.4877 92
6 B0 180.0766 181.9946 1.9180 92
6 B1 180.0766 182.0233 1.9467 92
6 B3 180.5684 181.0561 0.4877 92
6 B3 181.0602 181.5479 0.4877 92
6 B3 181.5520 182.0397 0.4877 92
6 C#4 182.0438 182.5315 0.4877 92
6 A1 182.0438 184.0069 1.9631 92
6 A2 182.0438 184.0069 1.9631 92
6 A3 182.5356 183.0233 0.4877 92
6 A3 183.0274 183.5151 0.4877 92
6 A3 183.5192 184.0069 0.4877 92
6 G#3 184.0110 187.7979 3.7869 61
6 A1 184.0110 187.8020 3.7910 87
6 A3 184.0110 187.8061 3.7951 87
6 C#5 196.3061 196.6299 0.3238 96
6 C#4 196.3061 196.6422 0.3361 96
6 C#5 197.2897 197.6094 0.3197 96
6 C#4 197.2897 197.6176 0.3279 96
6 C#5 198.2733 198.5848 0.3115 96
6 C#4 198.2733 198.5930 0.3197 96
6 C#5 199.2569 199.5479 0.2910 96
6 C#4 199.2569 199.5561 0.2992 96
6 C#1 199.7487 200.3225 0.5738 96
6 C#2 199.7487 200.3266 0.5779 96
6 C#5 200.2405 200.5602 0.3197 96
6 C#4 200.2405 200.5684 0.3279 96
6 C#1 200.7323 201.2692 0.5369 96
6 C#2 200.7323 201.3020 0.5697 96
6 C#5 201.2241 201.5397 0.3156 96
6 C#4 201.2241 201.5725 0.3484 96
6 C#1 201.7159 202.3020 0.5861 96
6 C#2 201.7159 202.3061 0.5902 96
6 C#5 202.2077 202.5069 0.2992 96
6 C#4 202.2077 202.5192 0.3115 96
6 C#1 202.6995 203.2692 0.5697 96
6 C#2 202.6995 203.3184 0.6189 96
6 C#5 203.1913 203.5069 0.3156 96
6 C#4 203.1913 203.5233 0.3320 96
6 C#4 203.6831 205.8594 2.1762 92
6 A3 203.6831 205.8594 2.1762 92
6 E4 203.6831 205.8635 2.1803 92
6 A1 203.6831 205.8635 2.1803 92
6 A2 203.6831 205.8635 2.1803 92
6 F#3 205.8717 210.5520 4.6803 92
6 A3 205.8717 210.5561 4.6844 92
6 F#2 205.8717 210.5602 4.6885 92
6 C#4 205.8717 210.5602 4.6885 92
6 F#1 205.8717 210.5643 4.6926 92
6 C#4 210.5684 211.0561 0.4877 92
6 C#2 210.5684 212.4946 1.9262 92
6 C#1 210.5684 212.5233 1.9549 92
6 G#3 211.0602 211.5479 0.4877 92
6 C#4 211.5520 212.0397 0.4877 92
6 C#4 212.0438 212.5315 0.4877 92
6 E4 212.5356 213.0233 0.4877 92
6 E2 212.5356 214.4536 1.9180 92
6 E1 212.5356 214.4782 1.9426 92
6 B3 213.0274 213.5151 0.4877 92
6 B3 213.5192 214.0069 0.4877 92
6 B3 214.0110 214.4987 0.4877 92
6 D#4 214.5028 214.9905 0.4877 92
6 B0 214.5028 216.4208 1.9180 92
6 B1 214.5028 216.4495 1.9467 92
6 B3 214.9946 215.4823 0.4877 92
6 B3 215.4864 215.9741 0.4877 92
6 B3 215.9782 216.4659 0.4877 92
6 C#4 216.4700 216.9577 0.4877 92
6 A2 216.4700 218.4331 1.9631 92
6 A1 216.4700 218.4331 1.9631 92
6 A3 216.9618 217.4495 0.4877 92
6 A3 217.4536 217.9413 0.4877 92
6 A3 217.9454 218.4331 0.4877 92
6 C#4 218.4372 218.9249 0.4877 92
6 C#2 218.4372 220.3635 1.9262 92
6 C#1 218.4372 220.3922 1.9549 92
6 G#3 218.9290 219.4167 0.4877 92
6 C#4 219.4208 219.9085 0.4877 92
6 C#4 219.9126 220.4004 0.4877 92
6 E4 220.4045 220.8922 0.4877 92
6 E2 220.4045 222.3225 1.9180 92
6 E1 220.4045 222.3471 1.9426 92
6 B3 220.8963 221.3840 0.4877 92
6 B3 221.3881 221.8758 0.4877 92
6 B3 221.8799 222.3676 0.4877 92
6 D#4 222.3717 222.8594 0.4877 92
6 B0 222.3717 224.2897 1.9180 92
6 B1 222.3717 224.3184 1.9467 92
6 B3 222.8635 223.3512 0.4877 92
6 B3 223.3553 223.8430 0.4877 92
6 B3 223.8471 224.3348 0.4877 92
6 C#4 224.3389 224.8266 0.4877 92
6 A1 224.3389 226.3020 1.9631 92
6 A2 224.3389 226.3020 1.9631 92
6 A3 224.8307 225.3184 0.4877 92
6 A3 225.3225 225.8102 0.4877 92
6 A3 225.8143 226.3020 0.4877 92
6 C#4 226.3061 226.7938 0.4877 92
6 C#2 226.3061 228.2323 1.9262 92
6 C#1 226.3061 228.2610 1.9549 92
6 G#3 226.7979 227.2856 0.4877 92
6 C#4 227.2897 227.7774 0.4877 92
6 C#4 227.7815 228.2692 0.4877 92
6 E4 228.2733 228.7610 0.4877 92
6 E2 228.2733 230.1913 1.9180 92
6 E1 228.2733 230.2159 1.9426 92
6 B3 228.7651 229.2528 0.4877 92
6 B3 229.2569 229.7446 0.4877 92
6 B3 229.7487 230.2364 0.4877 92
6 D#4 230.2405 230.7282 0.4877 92
6 B0 230.2405 232.1585 1.9180 92
6 B1 230.2405 232.1872 1.9467 92
6 B3 230.7323 231.2200 0.4877 92
6 B3 231.2241 231.7118 0.4877 92
6 B3 231.7159 232.2036 0.4877 92
6 C#4 232.2077 232.6954 0.4877 92
6 A1 232.2077 234.1708 1.9631 92
6 A2 232.2077 234.1708 1.9631 92
6 A3 232.6995 233.1872 0.4877 92
6 A3 233.1913 233.6790 0.4877 92
6 A3 233.6831 234.1708 0.4877 92
6 C#4 234.1749 234.6626 0.4877 92
6 C#2 234.1749 236.1012 1.9262 92
6 C#1 234.1749 236.1299 1.9549 92
6 G#3 234.6667 235.1544 0.4877 92
6 C#4 235.1585 235.6462 0.4877 92
6 C#4 235.6503 236.1380 0.4877 92
6 E4 236.1421 236.6299 0.4877 92
6 E2 236.1421 238.0602 1.9180 92
6 E1 236.1421 238.0848 1.9426 92
6 B3 236.6339 237.1217 0.4877 92
6 B3 237.1258 237.6135 0.4877 92
6 B3 237.6176 238.1053 0.4877 92
6 D#4 238.1094 238.5971 0.4877 92
6 B0 238.1094 240.0274 1.9180 92
6 B1 238.1094 240.0561 1.9467 92
6 B3 238.6012 239.0889 0.4877 92
6 B3 239.0930 239.5807 0.4877 92
6 B3 239.5848 240.0725 0.4877 92
6 C#4 240.0766 240.5643 0.4877 92
6 A2 240.0766 242.0397 1.9631 92
6 A1 240.0766 242.0397 1.9631 92
6 A3 240.5684 241.0561 0.4877 92
6 A3 241.0602 241.5479 0.4877 92
6 A3 241.5520 242.0397 0.4877 92
6 C#4 242.0438 242.5315 0.4877 92
6 C#2 242.0438 243.9700 1.9262 92
6 C#1 242.0438 243.9987 1.9549 92
6 C#5 242.5356 242.7938 0.2582 93
6 C#6 242.5356 242.8020 0.2664 93
6 G#3 242.5356 243.0233 0.4877 92
6 C#4 243.0274 243.5151 0.4877 92
6 C#6 243.5192 243.7651 0.2459 93
6 C#5 243.5192 243.7651 0.2459 93
6 C#4 243.5192 244.0069 0.4877 92
6 E4 244.0110 244.4987 0.4877 92
6 E2 244.0110 245.9290 1.9180 92
6 E1 244.0110 245.9536 1.9426 92
6 C#6 244.5028 244.7159 0.2131 93
6 C#5 244.5028 244.7282 0.2254 93
6 B3 244.5028 244.9905 0.4877 92
6 B3 244.9946 245.4823 0.4877 92
6 C#6 245.4864 245.7323 0.2459 93
6 C#5 245.4864 245.7446 0.2582 93
6 B3 245.4864 245.9741 0.4877 92
6 D#4 245.9782 246.4659 0.4877 92
6 B0 245.9782 247.8962 1.9180 92
6 B1 245.9782 247.9249 1.9467 92
6 C#6 246.4700 246.6790 0.2090 93
6 C#5 246.4700 246.6954 0.2254 93
6 B3 246.4700 246.9577 0.4877 92
6 B3 246.9618 247.4495 0.4877 92
6 C#6 247.4536 247.6626 0.2090 93
6 C#5 247.4536 247.6872 0.2336 93
6 B3 247.4536 247.9413 0.4877 92
6 C#4 247.9454 248.4331 0.4877 92
6 A1 247.9454 249.9085 1.9631 92
6 A2 247.9454 249.9085 1.9631 92
6 C#5 248.4372 248.6339 0.1967 93
6 C#6 248.4372 248.6339 0.1967 93
6 A3 248.4372 248.9249 0.4877 92
6 A3 248.9290 249.4167 0.4877 92
6 C#6 249.1749 249.3225 0.1475 93
6 C#5 249.1749 249.3430 0.1680 93
6 C#5 249.4208 249.6216 0.2008 93
6 C#6 249.4208 249.6298 0.2090 93
6 A3 249.4208 249.9085 0.4877 92
6 B5 249.6667 249.8266 0.1598 93
6 B4 249.6667 249.8266 0.1598 93
6 C#4 249.9126 250.4003 0.4877 92
6 C#2 249.9126 251.8389 1.9262 92
6 C#1 249.9126 251.8675 1.9549 92
6 C#5 250.4044 250.6626 0.2582 93
6 C#6 250.4044 250.6708 0.2664 93
6 G#3 250.4044 250.8921 0.4877 92
6 C#4 250.8962 251.3839 0.4877 92
6 C#6 251.3880 251.6339 0.2459 93
6 C#5 251.3880 251.6339 0.2459 93
6 C#4 251.3880 251.8757 0.4877 92
6 E4 251.8798 252.3675 0.4877 92
6 E2 251.8798 253.7979 1.9180 92
6 E1 251.8798 253.8225 1.9426 92
6 C#6 252.3716 252.5848 0.2131 93
6 C#5 252.3716 252.5971 0.2254 93
6 B3 252.3716 252.8593 0.4877 92
6 B3 252.8634 253.3512 0.4877 92
6 C#6 253.3553 253.6012 0.2459 93
6 C#5 253.3553 253.6134 0.2582 93
6 B3 253.3553 253.8430 0.4877 92
6 D#4 253.8471 254.3348 0.4877 92
6 B0 253.8471 255.7651 1.9180 92
6 B1 253.8471 255.7938 1.9467 92
6 C#6 254.3389 254.5479 0.2090 93
6 C#5 254.3389 254.5643 0.2254 93
6 B3 254.3389 254.8266 0.4877 92
6 B3 254.8307 255.3184 0.4877 92
6 C#6 255.3225 255.5315 0.2090 93
6 C#5 255.3225 255.5561 0.2336 93
6 B3 255.3225 255.8102 0.4877 92
7 A1 34.0111 34.2242 0.2131 98
7 B1 34.2570 34.4824 0.2254 90
7 C#2 34.5029 34.9332 0.4303 108
7 C#2 34.9947 35.4250 0.4303 108
7 C#2 35.4865 35.9168 0.4303 110
7 C#2 35.9783 36.1955 0.2172 111
7 D#2 36.2242 36.4455 0.2213 103
7 E2 36.4701 36.9005 0.4303 108
7 E2 36.9619 37.3923 0.4303 108
7 E2 37.4537 37.8841 0.4303 110
7 E2 37.9455 38.1628 0.2172 111
7 F#2 38.1914 38.4128 0.2213 103
7 B1 38.4373 38.8677 0.4303 108
7 B1 38.9291 39.3595 0.4303 108
7 B1 39.4209 39.8513 0.4303 110
7 B1 39.9127 40.1300 0.2172 111
7 C#2 40.1587 40.3800 0.2213 103
7 A1 40.4046 40.8349 0.4303 108
7 A1 40.8964 41.3267 0.4303 108
7 A1 41.3882 41.8185 0.4303 110
7 A1 41.8800 42.0972 0.2172 111
7 B1 42.1259 42.3472 0.2213 103
7 C#2 58.1095 58.5398 0.4303 108
7 C#2 58.6013 59.0316 0.4303 108
7 C#2 59.0931 59.5234 0.4303 110
7 C#2 59.5849 59.8021 0.2172 111
7 D#2 59.8308 60.0521 0.2213 103
7 E2 60.0767 60.5070 0.4303 108
7 E2 60.5685 60.9988 0.4303 108
7 E2 61.0603 61.4906 0.4303 110
7 G#2 61.5521 61.7693 0.2172 111
7 E2 61.7980 62.0193 0.2213 103
7 B2 62.0439 62.4742 0.4303 108
7 B2 62.5357 62.9660 0.4303 108
7 B2 63.0275 63.4578 0.4303 110
7 B2 63.5193 63.9619 0.4426 111
7 A2 64.0111 64.4414 0.4303 108
7 A2 64.5029 64.9332 0.4303 108
7 A2 64.9947 65.4250 0.4303 110
7 A2 65.4865 65.7037 0.2172 111
7 B2 65.7324 65.9619 0.2295 103
7 C#2 65.9783 66.4086 0.4303 108
7 C#2 66.4701 66.9004 0.4303 108
7 C#2 66.9619 67.3922 0.4303 110
7 C#2 67.4537 67.6709 0.2172 111
7 D#2 67.6996 67.9209 0.2213 103
7 E2 67.9455 68.3758 0.4303 108
7 E2 68.4373 68.8677 0.4303 108
7 E2 68.9291 69.3595 0.4303 110
7 G#2 69.4209 69.6381 0.2172 111
7 E2 69.6668 69.8881 0.2213 103
7 B2 69.9127 70.3431 0.4303 108
7 B2 70.4045 70.8349 0.4303 108
7 B2 70.8963 71.3267 0.4303 110
7 B2 71.3881 71.8267 0.4385 111
7 A2 71.8799 72.3103 0.4303 108
7 A2 72.3717 72.8021 0.4303 108
7 A2 72.8636 73.2939 0.4303 110
7 A2 73.3554 73.8431 0.4877 111
7 A1 73.8472 74.2775 0.4303 108
7 A1 74.3390 74.7693 0.4303 108
7 A1 74.8308 75.2611 0.4303 110
7 A1 75.3226 75.7611 0.4385 111
7 A1 75.8144 76.2447 0.4303 108
7 A1 76.3062 76.7365 0.4303 108
7 A1 76.7980 77.2283 0.4303 110
7 A1 77.2898 77.7283 0.4385 111
7 A1 77.7816 79.5849 1.8033 102
7 C#2 81.7160 82.1463 0.4303 108
7 C#2 82.2078 82.6381 0.4303 108
7 C#2 82.6996 83.1299 0.4303 110
7 C#2 83.1914 83.4086 0.2172 111
7 D#2 83.4373 83.6586 0.2213 103
7 E2 83.6832 84.1135 0.4303 108
7 E2 84.1750 84.6053 0.4303 108
7 E2 84.6668 85.0971 0.4303 110
7 E2 85.1586 85.3758 0.2172 111
7 F#2 85.4045 85.6258 0.2213 103
7 B1 85.6504 86.0808 0.4303 108
7 B1 86.1422 86.5726 0.4303 108
7 B1 86.6340 87.0644 0.4303 110
7 B1 87.1258 87.3431 0.2172 111
7 C#2 87.3717 87.5931 0.2213 103
7 A1 87.6176 88.0480 0.4303 108
7 A1 88.1094 88.5398 0.4303 108
7 A1 88.6012 89.0316 0.4303 110
7 A1 89.0930 89.3103 0.2172 111
7 B1 89.3390 89.5603 0.2213 103
7 C#2 89.5849 90.0152 0.4303 108
7 C#2 90.0767 90.5070 0.4303 108
7 C#2 90.5685 90.9988 0.4303 110
7 C#2 91.0603 91.2775 0.2172 111
7 D#2 91.3062 91.5275 0.2213 103
7 E2 91.5521 91.9824 0.4303 108
7 E2 92.0439 92.4742 0.4303 108
7 E2 92.5357 92.9660 0.4303 110
7 G#2 93.0275 93.2447 0.2172 111
7 E2 93.2734 93.4947 0.2213 103
7 B2 93.5193 93.9496 0.4303 108
7 B2 94.0111 94.4414 0.4303 108
7 B2 94.5029 94.9332 0.4303 110
7 F#2 94.9947 95.2119 0.2172 111
7 G#2 95.2406 95.4619 0.2213 103
7 A2 95.4865 95.9168 0.4303 108
7 A2 95.9783 96.4086 0.4303 108
7 A2 96.4701 96.9004 0.4303 110
7 A2 96.9619 97.4496 0.4877 111
7 C#2 97.4537 97.8840 0.4303 108
7 C#2 97.9455 98.3758 0.4303 108
7 C#2 98.4373 98.8676 0.4303 110
7 C#2 98.9291 99.1463 0.2172 111
7 D#2 99.1750 99.3963 0.2213 103
7 E2 99.4209 99.8512 0.4303 108
7 E2 99.9127 100.3430 0.4303 108
7 E2 100.4045 100.8348 0.4303 110
7 E2 100.8963 101.1135 0.2172 111
7 F#2 101.1422 101.3635 0.2213 103
7 B1 101.3881 101.8185 0.4303 108
7 B1 101.8799 102.3103 0.4303 108
7 B1 102.3717 102.8021 0.4303 110
7 B1 102.8635 103.0807 0.2172 111
7 C#2 103.1094 103.3307 0.2213 103
7 A1 103.3553 103.7857 0.4303 108
7 A1 103.8471 104.2775 0.4303 108
7 A1 104.3389 104.7693 0.4303 110
7 A1 104.8307 105.0480 0.2172 111
7 B1 105.0766 105.2980 0.2213 103
7 C#2 105.3225 105.7529 0.4303 108
7 C#2 105.8144 106.2447 0.4303 108
7 C#2 106.3062 106.7365 0.4303 110
7 C#2 106.7980 107.0152 0.2172 111
7 D#2 107.0439 107.2652 0.2213 103
7 E2 107.2898 107.7201 0.4303 108
7 E2 107.7816 108.2119 0.4303 108
7 E2 108.2734 108.7037 0.4303 110
7 G#2 108.7652 108.9824 0.2172 111
7 E2 109.0111 109.2324 0.2213 103
7 B2 109.2570 109.6873 0.4303 108
7 B2 109.7488 110.1791 0.4303 108
7 B2 110.2406 110.6709 0.4303 110
7 F#2 110.7324 110.9496 0.2172 111
7 G#2 110.9783 111.1996 0.2213 103
7 A2 111.2242 111.6545 0.4303 108
7 A2 111.7160 112.1463 0.4303 108
7 A2 112.2078 112.6381 0.4303 110
7 A2 112.6996 113.1873 0.4877 111
7 C#2 113.1914 113.5766 0.3852 104
7 B1 113.6012 113.6504 0.0492 92
7 C#2 113.6832 114.0357 0.3525 101
7 B1 114.0930 114.1381 0.0451 98
7 C#2 114.1750 114.5561 0.3811 101
7 B1 114.5848 114.6504 0.0656 95
7 C#2 114.6668 114.8594 0.1926 105
7 C#2 114.9127 115.1463 0.2336 102
7 E2 115.1586 115.5275 0.3689 104
7 D#2 115.5684 115.6176 0.0492 92
7 E2 115.6504 116.0193 0.3689 103
7 D#2 116.0602 116.1258 0.0656 56
7 E2 116.1422 116.4906 0.3484 104
7 D#2 116.5521 116.6053 0.0533 77
7 E2 116.6340 117.0766 0.4426 104
7 B1 117.1258 117.5234 0.3975 104
7 B1 117.6176 117.9947 0.3770 101
7 B1 118.1094 118.5152 0.4057 103
7 B1 118.6012 118.8266 0.2254 107
7 C#2 118.8471 119.0520 0.2049 88
7 A1 119.0930 119.5275 0.4344 103
7 A1 119.5848 119.9906 0.4057 100
7 A1 120.0766 120.4906 0.4139 103
7 A1 120.5684 120.7979 0.2295 95
7 B1 120.8143 121.0561 0.2418 103
7 C#2 128.9291 129.3594 0.4303 108
7 C#2 129.4209 129.8512 0.4303 108
7 C#2 129.9127 130.3430 0.4303 110
7 C#2 130.4045 130.6217 0.2172 111
7 D#2 130.6504 130.8717 0.2213 103
7 E2 130.8963 131.3266 0.4303 108
7 E2 131.3881 131.8184 0.4303 108
7 E2 131.8799 132.3102 0.4303 110
7 G#2 132.3717 132.5889 0.2172 111
7 E2 132.6176 132.8389 0.2213 103
7 B2 132.8635 133.2938 0.4303 108
7 B2 133.3553 133.7856 0.4303 108
7 B2 133.8471 134.2774 0.4303 110
7 B2 134.3389 134.7815 0.4426 111
7 A2 134.8307 135.2611 0.4303 108
7 A2 135.3225 135.7529 0.4303 108
7 A2 135.8143 136.2447 0.4303 110
7 B2 136.3061 136.7938 0.4877 111
7 C#2 136.7979 137.2283 0.4303 108
7 C#2 137.2897 137.7201 0.4303 108
7 C#2 137.7815 138.2119 0.4303 110
7 C#2 138.2733 138.4906 0.2172 111
7 D#2 138.5193 138.7406 0.2213 103
7 E2 138.7652 139.1955 0.4303 108
7 E2 139.2570 139.6873 0.4303 108
7 E2 139.7488 140.1791 0.4303 110
7 G#2 140.2406 140.4578 0.2172 111
7 E2 140.4865 140.7078 0.2213 103
7 B2 140.7324 141.1627 0.4303 108
7 B2 141.2242 141.6545 0.4303 108
7 B2 141.7160 142.1463 0.4303 110
7 B2 142.2078 142.6463 0.4385 111
7 A2 142.6996 143.1299 0.4303 108
7 A2 143.1914 143.6217 0.4303 108
7 A2 143.6832 144.1135 0.4303 110
7 A2 144.1750 144.6627 0.4877 111
7 A1 144.6668 145.0971 0.4303 108
7 A1 145.1586 145.5889 0.4303 108
7 A1 145.6504 146.0807 0.4303 110
7 A1 146.1422 146.5807 0.4385 111
7 A1 146.6340 147.0643 0.4303 108
7 A1 147.1258 147.5561 0.4303 108
7 A1 147.6176 148.0479 0.4303 110
7 A1 148.1094 148.5479 0.4385 111
7 A1 148.6012 150.4045 1.8033 102
7 C#2 152.5356 152.9660 0.4303 108
7 C#2 153.0274 153.4578 0.4303 108
7 C#2 153.5192 153.9496 0.4303 110
7 C#2 154.0110 154.2283 0.2172 111
7 D#2 154.2569 154.4783 0.2213 103
7 E2 154.5028 154.9332 0.4303 108
7 E2 154.9947 155.4250 0.4303 108
7 E2 155.4865 155.9168 0.4303 110
7 E2 155.9783 156.1955 0.2172 111
7 F#2 156.2242 156.4455 0.2213 103
7 B1 156.4701 156.9004 0.4303 108
7 B1 156.9619 157.3922 0.4303 108
7 B1 157.4537 157.8840 0.4303 110
7 B1 157.9455 158.1627 0.2172 111
7 C#2 158.1914 158.4127 0.2213 103
7 A1 158.4373 158.8676 0.4303 108
7 A1 158.9291 159.3594 0.4303 108
7 A1 159.4209 159.8512 0.4303 110
7 A1 159.9127 160.1299 0.2172 111
7 B1 160.1586 160.3799 0.2213 103
7 C#2 160.4045 160.8348 0.4303 108
7 C#2 160.8963 161.3266 0.4303 108
7 C#2 161.3881 161.8184 0.4303 110
7 C#2 161.8799 162.0971 0.2172 111
7 D#2 162.1258 162.3471 0.2213 103
7 E2 162.3717 162.8020 0.4303 108
7 E2 162.8635 163.2938 0.4303 108
7 E2 163.3553 163.7856 0.4303 110
7 G#2 163.8471 164.0643 0.2172 111
7 E2 164.0930 164.3143 0.2213 103
7 B2 164.3389 164.7692 0.4303 108
7 B2 164.8307 165.2610 0.4303 108
7 B2 165.3225 165.7528 0.4303 110
7 F#2 165.8143 166.0315 0.2172 111
7 G#2 166.0602 166.2815 0.2213 103
7 A2 166.3061 166.7364 0.4303 108
7 A2 166.7979 167.2283 0.4303 108
7 A2 167.2897 167.7201 0.4303 110
7 A2 167.7815 168.2692 0.4877 111
7 C#2 168.2733 168.7037 0.4303 108
7 C#2 168.7651 169.1955 0.4303 108
7 C#2 169.2569 169.6873 0.4303 110
7 C#2 169.7487 169.9660 0.2172 111
7 D#2 169.9946 170.2160 0.2213 103
7 E2 170.2405 170.6709 0.4303 108
7 E2 170.7323 171.1627 0.4303 108
7 E2 171.2242 171.6545 0.4303 110
7 E2 171.7160 171.9332 0.2172 111
7 F#2 171.9619 172.1832 0.2213 103
7 B1 172.2078 172.6381 0.4303 108
7 B1 172.6996 173.1299 0.4303 108
7 B1 173.1914 173.6217 0.4303 110
7 B1 173.6832 173.9004 0.2172 111
7 C#2 173.9291 174.1504 0.2213 103
7 A1 174.1750 174.6053 0.4303 108
7 A1 174.6668 175.0971 0.4303 108
7 A1 175.1586 175.5889 0.4303 110
7 A1 175.6504 175.8676 0.2172 111
7 B1 175.8963 176.1176 0.2213 103
7 C#2 176.1422 176.5725 0.4303 108
7 C#2 176.6340 177.0643 0.4303 108
7 C#2 177.1258 177.5561 0.4303 110
7 C#2 177.6176 177.8348 0.2172 111
7 D#2 177.8635 178.0848 0.2213 103
7 E2 178.1094 178.5397 0.4303 108
7 E2 178.6012 179.0315 0.4303 108
7 E2 179.0930 179.5233 0.4303 110
7 G#2 179.5848 179.8020 0.2172 111
7 E2 179.8307 180.0520 0.2213 103
7 B2 180.0766 180.5069 0.4303 108
7 B2 180.5684 180.9987 0.4303 108
7 B2 181.0602 181.4905 0.4303 110
7 F#2 181.5520 181.7692 0.2172 111
7 G#2 181.7979 182.0192 0.2213 103
7 A2 182.0438 182.4741 0.4303 108
7 A2 182.5356 182.9659 0.4303 108
7 A2 183.0274 183.4577 0.4303 110
7 A2 183.5192 184.0069 0.4877 111
7 C#2 210.5684 210.9987 0.4303 108
7 C#2 211.0602 211.4905 0.4303 108
7 C#2 211.5520 211.9823 0.4303 110
7 C#2 212.0438 212.2610 0.2172 111
7 D#2 212.2897 212.5110 0.2213 103
7 E2 212.5356 212.9659 0.4303 108
7 E2 213.0274 213.4577 0.4303 108
7 E2 213.5192 213.9495 0.4303 110
7 E2 214.0110 214.2282 0.2172 111
7 F#2 214.2569 214.4782 0.2213 103
7 B1 214.5028 214.9331 0.4303 108
7 B1 214.9946 215.4249 0.4303 108
7 B1 215.4864 215.9167 0.4303 110
7 B1 215.9782 216.1954 0.2172 111
7 C#2 216.2241 216.4454 0.2213 103
7 A1 216.4700 216.9004 0.4303 108
7 A1 216.9618 217.3922 0.4303 108
7 A1 217.4536 217.8840 0.4303 110
7 A1 217.9454 218.1626 0.2172 111
7 B1 218.1913 218.4126 0.2213 103
7 C#2 218.4372 218.8676 0.4303 108
7 C#2 218.9290 219.3594 0.4303 108
7 C#2 219.4208 219.8512 0.4303 110
7 C#2 219.9126 220.1299 0.2172 111
7 D#2 220.1585 220.3799 0.2213 103
7 E2 220.4045 220.8348 0.4303 108
7 E2 220.8963 221.3266 0.4303 108
7 E2 221.3881 221.8184 0.4303 110
7 G#2 221.8799 222.0971 0.2172 111
7 E2 222.1258 222.3471 0.2213 103
7 B2 222.3717 222.8020 0.4303 108
7 B2 222.8635 223.2938 0.4303 108
7 B2 223.3553 223.7856 0.4303 110
7 F#2 223.8471 224.0643 0.2172 111
7 G#2 224.0930 224.3143 0.2213 103
7 A2 224.3389 224.7692 0.4303 108
7 A2 224.8307 225.2610 0.4303 108
7 A2 225.3225 225.7528 0.4303 110
7 A2 225.8143 226.3020 0.4877 111
7 C#2 226.3061 226.7364 0.4303 108
7 C#2 226.7979 227.2282 0.4303 108
7 C#2 227.2897 227.7200 0.4303 110
7 C#2 227.7815 227.9987 0.2172 111
7 D#2 228.0274 228.2487 0.2213 103
7 E2 228.2733 228.7036 0.4303 108
7 E2 228.7651 229.1954 0.4303 108
7 E2 229.2569 229.6872 0.4303 110
7 E2 229.7487 229.9659 0.2172 111
7 F#2 229.9946 230.2159 0.2213 103
7 B1 230.2405 230.6708 0.4303 108
7 B1 230.7323 231.1626 0.4303 108
7 B1 231.2241 231.6544 0.4303 110
7 B1 231.7159 231.9331 0.2172 111
7 C#2 231.9618 232.1831 0.2213 103
7 A1 232.2077 232.6380 0.4303 108
7 A1 232.6995 233.1299 0.4303 108
7 A1 233.1913 233.6217 0.4303 110
7 A1 233.6831 233.9003 0.2172 111
7 B1 233.9290 234.1503 0.2213 103
7 C#2 234.1749 234.6053 0.4303 108
7 C#2 234.6667 235.0971 0.4303 108
7 C#2 235.1585 235.5889 0.4303 110
7 C#2 235.6503 235.8676 0.2172 111
7 D#2 235.8962 236.1176 0.2213 103
7 E2 236.1421 236.5725 0.4303 108
7 E2 236.6339 237.0643 0.4303 108
7 E2 237.1258 237.5561 0.4303 110
7 G#2 237.6176 237.8348 0.2172 111
7 E2 237.8635 238.0848 0.2213 103
7 B2 238.1094 238.5397 0.4303 108
7 B2 238.6012 239.0315 0.4303 108
7 B2 239.0930 239.5233 0.4303 110
7 F#2 239.5848 239.8020 0.2172 111
7 G#2 239.8307 240.0520 0.2213 103
7 A2 240.0766 240.5069 0.4303 108
7 A2 240.5684 240.9987 0.4303 108
7 A2 241.0602 241.4905 0.4303 110
7 A2 241.5520 242.0397 0.4877 111
7 C#2 242.0438 242.4741 0.4303 108
7 C#2 242.5356 242.9659 0.4303 108
7 C#2 243.0274 243.4577 0.4303 110
7 C#2 243.5192 243.7364 0.2172 111
7 D#2 243.7651 243.9864 0.2213 103
7 E2 244.0110 244.4413 0.4303 108
7 E2 244.5028 244.9331 0.4303 108
7 E2 244.9946 245.4249 0.4303 110
7 E2 245.4864 245.7036 0.2172 111
7 F#2 245.7323 245.9536 0.2213 103
7 B1 245.9782 246.4085 0.4303 108
7 B1 246.4700 246.9003 0.4303 108
7 B1 246.9618 247.3921 0.4303 110
7 B1 247.4536 247.6708 0.2172 111
7 C#2 247.6995 247.9208 0.2213 103
7 A1 247.9454 248.3757 0.4303 108
7 A1 248.4372 248.8675 0.4303 108
7 A1 248.9290 249.3594 0.4303 110
7 A1 249.4208 249.6380 0.2172 111
7 B1 249.6667 249.8880 0.2213 103
7 C#2 249.9126 250.3430 0.4303 108
7 C#2 250.4044 250.8348 0.4303 108
7 C#2 250.8962 251.3266 0.4303 110
7 C#2 251.3880 251.6053 0.2172 111
7 D#2 251.6339 251.8553 0.2213 103
7 E2 251.8798 252.3102 0.4303 108
7 E2 252.3716 252.8020 0.4303 108
7 E2 252.8634 253.2938 0.4303 110
7 G#2 253.3553 253.5725 0.2172 111
7 E2 253.6012 253.8225 0.2213 103
7 B2 253.8471 254.2774 0.4303 108
7 B2 254.3389 254.7692 0.4303 108
7 B2 254.8307 255.2610 0.4303 110
7 F#2 255.3225 255.5397 0.2172 111
7 G#2 255.5684 255.7897 0.2213 103
8 G#5 34.5029 35.9742 1.4713 84
8 B5 35.9783 36.3431 0.3648 84
8 G#5 36.3472 36.4660 0.1189 84
8 F#5 36.4701 37.9414 1.4713 84
8 B5 37.9455 38.3103 0.3648 84
8 G#5 38.3144 38.4332 0.1189 84
8 F#5 38.4373 39.9087 1.4713 84
8 B5 39.9127 40.2775 0.3648 84
8 G#5 40.2816 40.4005 0.1189 84
8 F#5 40.4046 41.3841 0.9795 84
8 G#5 41.3882 42.3677 0.9795 84
8 G#5 89.5849 91.0562 1.4713 84
8 B5 91.0603 91.4250 0.3648 84
8 G#5 91.4291 91.5480 0.1189 84
8 F#5 91.5521 93.0234 1.4713 84
8 B5 93.0275 93.3922 0.3648 84
8 G#5 93.3963 93.5152 0.1189 84
8 F#5 93.5193 94.9906 1.4713 84
8 B5 94.9947 95.3594 0.3648 84
8 G#5 95.3635 95.4824 0.1189 84
8 F#5 95.4865 96.4660 0.9795 84
8 G#5 96.4701 97.4496 0.9795 84
8 G#5 97.4537 98.9250 1.4713 84
8 B5 98.9291 99.2939 0.3648 84
8 G#5 99.2980 99.4168 0.1189 84
8 F#5 99.4209 100.8922 1.4713 84
8 B5 100.8963 101.2611 0.3648 84
8 G#5 101.2652 101.3840 0.1189 84
8 F#5 101.3881 102.8594 1.4713 84
8 B5 102.8635 103.2283 0.3648 84
8 G#5 103.2324 103.3512 0.1189 84
8 F#5 103.3553 104.3348 0.9795 84
8 G#5 104.3389 105.3184 0.9795 84
8 G#5 105.3225 106.7939 1.4713 84
8 B5 106.7980 107.1627 0.3648 84
8 G#5 107.1668 107.2857 0.1189 84
8 F#5 107.2898 108.7611 1.4713 84
8 B5 108.7652 109.1299 0.3648 84
8 G#5 109.1340 109.2529 0.1189 84
8 F#5 109.2570 110.7283 1.4713 84
8 B5 110.7324 111.0971 0.3648 84
8 G#5 111.1012 111.2201 0.1189 84
8 F#5 111.2242 112.2037 0.9795 84
8 G#5 112.2078 113.1873 0.9795 84
8 G#5 113.1914 114.6627 1.4713 84
8 B5 114.6668 115.0316 0.3648 84
8 G#5 115.0357 115.1545 0.1189 84
8 F#5 115.1586 116.6299 1.4713 84
8 B5 116.6340 116.9988 0.3648 84
8 G#5 117.0029 117.1217 0.1189 84
8 F#5 117.1258 118.5971 1.4713 84
8 B5 118.6012 118.9660 0.3648 84
8 G#5 118.9701 119.0889 0.1189 84
8 F#5 119.0930 120.0725 0.9795 84
8 G#5 120.0766 121.0561 0.9795 84
8 G#5 160.4045 161.8758 1.4713 84
8 B5 161.8799 162.2446 0.3648 84
8 G#5 162.2487 162.3676 0.1189 84
8 F#5 162.3717 163.8430 1.4713 84
8 B5 163.8471 164.2119 0.3648 84
8 G#5 164.2160 164.3348 0.1189 84
8 F#5 164.3389 165.8102 1.4713 84
8 B5 165.8143 166.1791 0.3648 84
8 G#5 166.1832 166.3020 0.1189 84
8 F#5 166.3061 167.2856 0.9795 84
8 G#5 167.2897 168.2692 0.9795 84
8 G#5 168.2733 169.7446 1.4713 84
8 B5 169.7487 170.1135 0.3648 84
8 G#5 170.1176 170.2364 0.1189 84
8 F#5 170.2405 171.7119 1.4713 84
8 B5 171.7160 172.0807 0.3648 84
8 G#5 172.0848 172.2037 0.1189 84
8 F#5 172.2078 173.6791 1.4713 84
8 B5 173.6832 174.0479 0.3648 84
8 G#5 174.0520 174.1709 0.1189 84
8 F#5 174.1750 175.1545 0.9795 84
8 G#5 175.1586 176.1381 0.9795 84
8 G#5 176.1422 177.6135 1.4713 84
8 B5 177.6176 177.9823 0.3648 84
8 G#5 177.9864 178.1053 0.1189 84
8 F#5 178.1094 179.5807 1.4713 84
8 B5 179.5848 179.9496 0.3648 84
8 G#5 179.9537 180.0725 0.1189 84
8 F#5 180.0766 181.5479 1.4713 84
8 B5 181.5520 181.9168 0.3648 84
8 G#5 181.9209 182.0397 0.1189 84
8 F#5 182.0438 183.0233 0.9795 84
8 G#5 183.0274 184.0069 0.9795 84
8 G#5 218.4372 219.9085 1.4713 84
8 B5 219.9126 220.2774 0.3648 84
8 G#5 220.2815 220.4004 0.1189 84
8 F#5 220.4045 221.8758 1.4713 84
8 B5 221.8799 222.2446 0.3648 84
8 G#5 222.2487 222.3676 0.1189 84
8 F#5 222.3717 223.8430 1.4713 84
8 B5 223.8471 224.2118 0.3648 84
8 G#5 224.2159 224.3348 0.1189 84
8 F#5 224.3389 225.3184 0.9795 84
8 G#5 225.3225 226.3020 0.9795 84
8 G#5 226.3061 227.7774 1.4713 84
8 B5 227.7815 228.1462 0.3648 84
8 G#5 228.1503 228.2692 0.1189 84
8 F#5 228.2733 229.7446 1.4713 84
8 B5 229.7487 230.1135 0.3648 84
8 G#5 230.1176 230.2364 0.1189 84
8 F#5 230.2405 231.7118 1.4713 84
8 B5 231.7159 232.0807 0.3648 84
8 G#5 232.0848 232.2036 0.1189 84
8 F#5 232.2077 233.1872 0.9795 84
8 G#5 233.1913 234.1708 0.9795 84
8 G#5 234.1749 235.6462 1.4713 84
8 B5 235.6503 236.0151 0.3648 84
8 G#5 236.0192 236.1380 0.1189 84
8 F#5 236.1421 237.6135 1.4713 84
8 B5 237.6176 237.9823 0.3648 84
8 G#5 237.9864 238.1053 0.1189 84
8 F#5 238.1094 239.5807 1.4713 84
8 B5 239.5848 239.9495 0.3648 84
8 G#5 239.9536 240.0725 0.1189 84
8 F#5 240.0766 241.0561 0.9795 84
8 G#5 241.0602 242.0397 0.9795 84
8 G#5 242.0438 243.5151 1.4713 84
8 B5 243.5192 243.8839 0.3648 84
8 G#5 243.8880 244.0069 0.1189 84
8 F#5 244.0110 245.4823 1.4713 84
8 B5 245.4864 245.8512 0.3648 84
8 G#5 245.8553 245.9741 0.1189 84
8 F#5 245.9782 247.4495 1.4713 84
8 B5 247.4536 247.8184 0.3648 84
8 G#5 247.8225 247.9413 0.1189 84
8 F#5 247.9454 248.9249 0.9795 84
8 G#5 248.9290 249.9085 0.9795 84
8 G#5 249.9126 251.3839 1.4713 84
8 B5 251.3880 251.7528 0.3648 84
8 G#5 251.7569 251.8757 0.1189 84
8 F#5 251.8798 253.3512 1.4713 84
8 B5 253.3553 253.7200 0.3648 84
8 G#5 253.7241 253.8430 0.1189 84
8 F#5 253.8471 255.3184 1.4713 84
8 B5 255.3225 255.6872 0.3648 84
8 G#5 255.6913 255.8102 0.1189 84
9 E4 74.3390 74.6750 0.3361 87
9 D#4 74.7078 74.7775 0.0697 87
9 E4 74.8308 75.1832 0.3525 87
9 E4 75.3226 75.6095 0.2869 87
9 D#4 75.6914 75.7652 0.0738 87
9 E4 75.8144 76.1955 0.3811 87
9 E4 76.3062 76.6627 0.3566 87
9 D#4 76.6750 76.7488 0.0738 87
9 E4 76.7980 77.0480 0.2500 87
9 D#4 77.0439 77.2611 0.2172 87
9 F#4 81.7160 82.0808 0.3648 87
9 G#4 82.2078 82.6545 0.4467 87
9 B4 82.6996 83.1340 0.4344 87
9 G#4 83.1914 83.6463 0.4549 87
9 F#4 83.6832 83.9045 0.2213 87
9 G#4 83.9291 84.0275 0.0984 87
9 F#4 84.1750 84.2816 0.1066 87
9 E4 84.2980 84.4332 0.1352 87
9 G#4 84.5439 85.4045 0.8607 87
9 F#4 85.8963 86.0685 0.1721 87
9 F#4 86.1422 86.3185 0.1762 87
9 G#4 86.3881 86.4783 0.0902 87
9 A4 86.5111 86.8226 0.3115 87
9 G#4 86.8799 87.0808 0.2008 87
9 F#4 87.1258 87.3512 0.2254 87
9 E4 87.3717 87.6094 0.2377 87
9 G#4 87.6176 88.0726 0.4549 87
9 C#4 88.1094 88.5480 0.4385 87
9 E4 88.6012 89.3062 0.7049 87
9 C#4 89.3390 89.4660 0.1270 87
9 F#4 89.5849 90.0480 0.4631 87
9 G#4 90.0767 90.4906 0.4139 87
9 B4 90.5685 91.0521 0.4836 87
9 G#4 91.0603 91.4660 0.4057 87
9 F#4 91.5521 91.7693 0.2172 87
9 G#4 91.7980 91.9373 0.1393 87
9 F#4 92.0439 92.1422 0.0984 87
9 E4 92.1668 92.3594 0.1926 87
9 G#4 92.4127 93.4209 1.0082 87
9 F#4 93.7652 93.8676 0.1025 87
9 F#4 94.0111 94.2201 0.2090 87
9 G#4 94.2570 94.4004 0.1434 87
9 A4 94.5029 94.7693 0.2664 87
9 G#4 94.7488 94.9455 0.1967 87
9 F#4 94.9947 95.0930 0.0984 87
9 E4 95.1176 95.4291 0.3115 87
9 G#4 95.4865 95.7078 0.2213 87
9 F#4 95.7324 95.8676 0.1352 87
9 F#4 95.9783 96.1955 0.2172 87
9 C#4 96.2242 96.4250 0.2008 87
9 E4 96.4701 97.2488 0.7787 87
9 F#3 97.4537 97.8185 0.3648 87
9 G#3 97.9455 98.3922 0.4467 87
9 B3 98.4373 98.8717 0.4344 87
9 G#3 98.9291 99.3840 0.4549 87
9 F#3 99.4209 99.6422 0.2213 87
9 G#3 99.6668 99.7652 0.0984 87
9 F#3 99.9127 100.0193 0.1066 87
9 E3 100.0357 100.1709 0.1352 87
9 G#3 100.2816 101.1422 0.8607 87
9 F#3 101.6340 101.8062 0.1721 87
9 F#3 101.8799 102.0562 0.1762 87
9 G#3 102.1258 102.2160 0.0902 87
9 A3 102.2488 102.5603 0.3115 87
9 G#3 102.6176 102.8185 0.2008 87
9 F#3 102.8635 103.0889 0.2254 87
9 E3 103.1094 103.3471 0.2377 87
9 G#3 103.3553 103.8103 0.4549 87
9 C#3 103.8471 104.2857 0.4385 87
9 E3 104.3389 105.0439 0.7049 87
9 C#3 105.0766 105.2037 0.1270 87
9 F#3 105.3225 105.7857 0.4631 87
9 G#3 105.8144 106.2283 0.4139 87
9 B3 106.3062 106.7898 0.4836 87
9 G#3 106.7980 107.2037 0.4057 87
9 F#3 107.2898 107.5070 0.2172 87
9 G#3 107.5357 107.6750 0.1393 87
9 F#3 107.7816 107.8799 0.0984 87
9 E3 107.9045 108.0971 0.1926 87
9 G#3 108.1504 109.1586 1.0082 87
9 F#3 109.5029 109.6053 0.1025 87
9 F#3 109.7488 109.9578 0.2090 87
9 G#3 109.9947 110.1381 0.1434 87
9 A3 110.2406 110.5070 0.2664 87
9 G#3 110.4865 110.6832 0.1967 87
9 F#3 110.7324 110.8307 0.0984 87
9 E3 110.8553 111.1668 0.3115 87
9 G#3 111.2242 111.4332 0.2090 87
9 F#3 111.4701 111.7037 0.2336 87
9 E4 128.9291 129.3307 0.4016 87
9 G#3 128.9291 129.3963 0.4672 87
9 G#3 129.6668 129.7570 0.0902 87
9 E4 129.6668 129.7652 0.0984 87
9 F#3 129.7897 129.8676 0.0779 87
9 C#4 129.7897 129.8840 0.0943 87
9 G#3 129.9127 130.0316 0.1189 87
9 E4 129.9127 130.0438 0.1311 87
9 G#3 130.1586 130.2734 0.1148 87
9 E4 130.1586 130.2856 0.1270 87
9 E4 130.4045 130.8307 0.4262 87
9 G#3 130.4045 130.8553 0.4508 87
9 G#3 131.6340 131.7201 0.0861 87
9 E4 131.6340 131.7570 0.1230 87
9 C#4 131.7570 131.8430 0.0861 87
9 F#3 131.7570 131.8635 0.1066 87
9 G#3 131.8799 131.9619 0.0820 87
9 E4 131.8799 131.9824 0.1025 87
9 G#3 132.1258 132.2365 0.1107 87
9 E4 132.1258 132.2406 0.1148 87
9 G#3 132.3717 132.7283 0.3566 87
9 E4 132.3717 132.7324 0.3607 87
9 E4 145.1586 145.4947 0.3361 87
9 D#4 145.5274 145.5971 0.0697 87
9 E4 145.6504 146.0029 0.3525 87
9 E4 146.1422 146.4291 0.2869 87
9 D#4 146.5110 146.5848 0.0738 87
9 E4 146.6340 147.0151 0.3811 87
9 E4 147.1258 147.4824 0.3566 87
9 D#4 147.4947 147.5684 0.0738 87
9 E4 147.6176 147.8676 0.2500 87
9 D#4 147.8635 148.0807 0.2172 87
9 F#4 152.5356 152.9004 0.3648 87
9 G#4 153.0274 153.4742 0.4467 87
9 B4 153.5192 153.9537 0.4344 87
9 G#4 154.0110 154.4660 0.4549 87
9 F#4 154.5028 154.7242 0.2213 87
9 G#4 154.7487 154.8471 0.0984 87
9 F#4 154.9947 155.1012 0.1066 87
9 E4 155.1176 155.2528 0.1352 87
9 G#4 155.3635 156.2242 0.8607 87
9 F#4 156.7160 156.8881 0.1721 87
9 F#4 156.9619 157.1381 0.1762 87
9 G#4 157.2078 157.2979 0.0902 87
9 A4 157.3307 157.6422 0.3115 87
9 G#4 157.6996 157.9004 0.2008 87
9 F#4 157.9455 158.1709 0.2254 87
9 E4 158.1914 158.4291 0.2377 87
9 G#4 158.4373 158.8922 0.4549 87
9 C#4 158.9291 159.3676 0.4385 87
9 E4 159.4209 160.1258 0.7049 87
9 C#4 160.1586 160.2856 0.1270 87
9 F#4 160.4045 160.8676 0.4631 87
9 G#4 160.8963 161.3102 0.4139 87
9 B4 161.3881 161.8717 0.4836 87
9 G#4 161.8799 162.2856 0.4057 87
9 F#4 162.3717 162.5889 0.2172 87
9 G#4 162.6176 162.7569 0.1393 87
9 F#4 162.8635 162.9619 0.0984 87
9 E4 162.9865 163.1791 0.1926 87
9 G#4 163.2324 164.2405 1.0082 87
9 F#4 164.5848 164.6873 0.1025 87
9 F#4 164.8307 165.0397 0.2090 87
9 G#4 165.0766 165.2201 0.1434 87
9 A4 165.3225 165.5889 0.2664 87
9 G#4 165.5684 165.7651 0.1967 87
9 F#4 165.8143 165.9127 0.0984 87
9 E4 165.9373 166.2487 0.3115 87
9 G#4 166.3061 166.5274 0.2213 87
9 F#4 166.5520 166.6873 0.1352 87
9 F#4 166.7979 167.0151 0.2172 87
9 C#4 167.0438 167.2446 0.2008 87
9 E4 167.2897 168.0684 0.7787 87
9 F#3 168.2733 168.6381 0.3648 87
9 G#3 168.7651 169.2119 0.4467 87
9 B3 169.2569 169.6914 0.4344 87
9 G#3 169.7487 170.2037 0.4549 87
9 F#3 170.2405 170.4619 0.2213 87
9 G#3 170.4864 170.5848 0.0984 87
9 F#3 170.7323 170.8389 0.1066 87
9 E3 170.8553 170.9905 0.1352 87
9 G#3 171.1012 171.9619 0.8607 87
9 F#3 172.4537 172.6258 0.1721 87
9 F#3 172.6996 172.8758 0.1762 87
9 G#3 172.9455 173.0356 0.0902 87
9 A3 173.0684 173.3799 0.3115 87
9 G#3 173.4373 173.6381 0.2008 87
9 F#3 173.6832 173.9086 0.2254 87
9 E3 173.9291 174.1668 0.2377 87
9 G#3 174.1750 174.6299 0.4549 87
9 C#3 174.6668 175.1053 0.4385 87
9 E3 175.1586 175.8635 0.7049 87
9 C#3 175.8963 176.0233 0.1270 87
9 F#3 176.1422 176.6053 0.4631 87
9 G#3 176.6340 177.0479 0.4139 87
9 B3 177.1258 177.6094 0.4836 87
9 G#3 177.6176 178.0233 0.4057 87
9 F#3 178.1094 178.3266 0.2172 87
9 G#3 178.3553 178.4946 0.1393 87
9 F#3 178.6012 178.6996 0.0984 87
9 E3 178.7241 178.9168 0.1926 87
9 G#3 178.9700 179.9782 1.0082 87
9 F#3 180.3225 180.4250 0.1025 87
9 F#3 180.5684 180.7774 0.2090 87
9 G#3 180.8143 180.9578 0.1434 87
9 A3 181.0602 181.3266 0.2664 87
9 G#3 181.3061 181.5028 0.1967 87
9 F#3 181.5520 181.6504 0.0984 87
9 E3 181.6750 181.9864 0.3115 87
9 G#3 182.0438 182.2528 0.2090 87
9 F#3 182.2897 182.5233 0.2336 87
9 C#4 191.8799 192.0684 0.1885 87
9 G#4 191.8799 192.0684 0.1885 87
9 B3 192.1258 192.2446 0.1189 87
9 F#4 192.1258 192.2446 0.1189 87
9 G#3 192.3717 192.4987 0.1270 87
9 E4 192.3717 192.4987 0.1270 87
9 E4 192.4946 192.4987 0.0041 87
9 E3 192.4946 192.6668 0.1721 87
9 C#4 192.7405 192.8676 0.1270 87
9 G#4 192.7405 192.8676 0.1270 87
9 B3 192.9864 193.1135 0.1270 87
9 F#4 192.9864 193.1135 0.1270 87
9 G#3 193.2323 193.6135 0.3811 87
9 E4 193.2323 193.6135 0.3811 87
9 G#4 193.7241 194.0397 0.3156 87
9 C#4 193.7241 194.0397 0.3156 87
9 B3 194.0930 194.1586 0.0656 87
9 F#4 194.0930 194.1586 0.0656 87
9 B3 194.2159 194.2856 0.0697 87
9 F#4 194.2159 194.2856 0.0697 87
9 G#3 194.3389 194.4127 0.0738 87
9 E4 194.3389 194.4127 0.0738 87
9 G#3 194.4618 194.5520 0.0902 87
9 E4 194.4618 194.5520 0.0902 87
9 E3 194.5848 194.6668 0.0820 87
9 E4 194.5848 194.6668 0.0820 87
9 C#4 194.7077 194.8348 0.1270 87
9 G#4 194.7077 194.8348 0.1270 87
9 C#4 194.9536 195.0561 0.1025 87
9 G#4 194.9536 195.0561 0.1025 87
9 B3 195.0766 195.2733 0.1967 87
9 F#4 195.0766 195.2733 0.1967 87
9 G#3 195.3225 195.6504 0.3279 87
9 E4 195.3225 195.6504 0.3279 87
9 C#4 195.8143 196.0028 0.1885 87
9 G#4 195.8143 196.0028 0.1885 87
9 B3 196.0602 196.1791 0.1189 87
9 F#4 196.0602 196.1791 0.1189 87
9 G#3 196.3061 196.4332 0.1270 87
9 E4 196.3061 196.4332 0.1270 87
9 E4 196.4291 196.4332 0.0041 87
9 E3 196.4291 196.6012 0.1721 87
9 C#4 196.6750 196.8020 0.1270 87
9 G#4 196.6750 196.8020 0.1270 87
9 B3 196.9209 197.0479 0.1270 87
9 F#4 196.9209 197.0479 0.1270 87
9 G#3 197.1668 197.5479 0.3811 87
9 E4 197.1668 197.5479 0.3811 87
9 C#4 197.6586 197.9741 0.3156 87
9 G#4 197.6586 197.9741 0.3156 87
9 B3 198.0274 198.0930 0.0656 87
9 F#4 198.0274 198.0930 0.0656 87
9 B3 198.1504 198.2200 0.0697 87
9 F#4 198.1504 198.2200 0.0697 87
9 G#3 198.2733 198.3471 0.0738 87
9 E4 198.2733 198.3471 0.0738 87
9 E4 198.3963 198.4864 0.0902 87
9 G#3 198.3963 198.4864 0.0902 87
9 E3 198.5192 198.6012 0.0820 87
9 E4 198.5192 198.6012 0.0820 87
9 C#4 198.6422 198.7692 0.1270 87
9 G#4 198.6422 198.7692 0.1270 87
9 C#4 198.8881 198.9905 0.1025 87
9 G#4 198.8881 198.9905 0.1025 87
9 B3 199.0110 199.2077 0.1967 87
9 F#4 199.0110 199.2077 0.1967 87
9 E4 199.2569 199.5848 0.3279 87
9 G#3 199.2569 199.5848 0.3279 87
9 C#4 199.7487 199.9372 0.1885 87
9 G#4 199.7487 199.9372 0.1885 87
9 F#4 199.9946 200.1135 0.1189 87
9 B3 199.9946 200.1135 0.1189 87
9 G#3 200.2405 200.3676 0.1270 87
9 E4 200.2405 200.3676 0.1270 87
9 E4 200.3635 200.3676 0.0041 87
9 E3 200.3635 200.5356 0.1721 87
9 C#4 200.6094 200.7364 0.1270 87
9 G#4 200.6094 200.7364 0.1270 87
9 B3 200.8553 200.9823 0.1270 87
9 F#4 200.8553 200.9823 0.1270 87
9 G#3 201.1012 201.4823 0.3811 87
9 E4 201.1012 201.4823 0.3811 87
9 C#4 201.5930 201.9086 0.3156 87
9 G#4 201.5930 201.9086 0.3156 87
9 B3 201.9618 202.0274 0.0656 87
9 F#4 201.9618 202.0274 0.0656 87
9 B3 202.0848 202.1545 0.0697 87
9 F#4 202.0848 202.1545 0.0697 87
9 G#3 202.2077 202.2815 0.0738 87
9 E4 202.2077 202.2815 0.0738 87
9 E4 202.3307 202.4209 0.0902 87
9 G#3 202.3307 202.4209 0.0902 87
9 E4 202.4536 202.5356 0.0820 87
9 E3 202.4536 202.5356 0.0820 87
9 C#4 202.5766 202.7036 0.1270 87
9 G#4 202.5766 202.7036 0.1270 87
9 G#4 202.8225 202.9250 0.1025 87
9 C#4 202.8225 202.9250 0.1025 87
9 B3 202.9454 203.1422 0.1967 87
9 F#4 202.9454 203.1422 0.1967 87
9 E4 203.1913 203.5192 0.3279 87
9 G#3 203.1913 203.5192 0.3279 87
9 F#4 210.5684 210.9331 0.3648 87
9 G#4 211.0602 211.5069 0.4467 87
9 B4 211.5520 211.9864 0.4344 87
9 G#4 212.0438 212.4987 0.4549 87
9 F#4 212.5356 212.7569 0.2213 87
9 G#4 212.7815 212.8799 0.0984 87
9 F#4 213.0274 213.1340 0.1066 87
9 E4 213.1504 213.2856 0.1352 87
9 G#4 213.3963 214.2569 0.8607 87
9 F#4 214.7487 214.9208 0.1721 87
9 F#4 214.9946 215.1708 0.1762 87
9 G#4 215.2405 215.3307 0.0902 87
9 A4 215.3635 215.6749 0.3115 87
9 G#4 215.7323 215.9331 0.2008 87
9 F#4 215.9782 216.2036 0.2254 87
9 E4 216.2241 216.4618 0.2377 87
9 G#4 216.4700 216.9249 0.4549 87
9 C#4 216.9618 217.4004 0.4385 87
9 E4 217.4536 218.1585 0.7049 87
9 C#4 218.1913 218.3184 0.1270 87
9 F#4 218.4372 218.9004 0.4631 87
9 G#4 218.9290 219.3430 0.4139 87
9 B4 219.4208 219.9045 0.4836 87
9 G#4 219.9126 220.3184 0.4057 87
9 F#4 220.4045 220.6217 0.2172 87
9 G#4 220.6504 220.7897 0.1393 87
9 F#4 220.8963 220.9946 0.0984 87
9 E4 221.0192 221.2118 0.1926 87
9 G#4 221.2651 222.2733 1.0082 87
9 F#4 222.6176 222.7200 0.1025 87
9 F#4 222.8635 223.0725 0.2090 87
9 G#4 223.1094 223.2528 0.1434 87
9 A4 223.3553 223.6217 0.2664 87
9 G#4 223.6012 223.7979 0.1967 87
9 F#4 223.8471 223.9454 0.0984 87
9 E4 223.9700 224.2815 0.3115 87
9 G#4 224.3389 224.5602 0.2213 87
9 F#4 224.5848 224.7200 0.1352 87
9 F#4 224.8307 225.0479 0.2172 87
9 C#4 225.0766 225.2774 0.2008 87
9 E4 225.3225 226.1012 0.7787 87
9 F#3 226.3061 226.6708 0.3648 87
9 G#3 226.7979 227.2446 0.4467 87
9 B3 227.2897 227.7241 0.4344 87
9 G#3 227.7815 228.2364 0.4549 87
9 F#3 228.2733 228.4946 0.2213 87
9 G#3 228.5192 228.6176 0.0984 87
9 F#3 228.7651 228.8717 0.1066 87
9 E3 228.8881 229.0233 0.1352 87
9 G#3 229.1340 229.9946 0.8607 87
9 F#3 230.4864 230.6585 0.1721 87
9 F#3 230.7323 230.9085 0.1762 87
9 G#3 230.9782 231.0684 0.0902 87
9 A3 231.1012 231.4126 0.3115 87
9 G#3 231.4700 231.6708 0.2008 87
9 F#3 231.7159 231.9413 0.2254 87
9 E3 231.9618 232.1995 0.2377 87
9 G#3 232.2077 232.6626 0.4549 87
9 C#3 232.6995 233.1380 0.4385 87
9 E3 233.1913 233.8962 0.7049 87
9 C#3 233.9290 234.0561 0.1270 87
9 F#3 234.1749 234.6380 0.4631 87
9 G#3 234.6667 235.0807 0.4139 87
9 B3 235.1585 235.6421 0.4836 87
9 G#3 235.6503 236.0561 0.4057 87
9 F#3 236.1421 236.3594 0.2172 87
9 G#3 236.3880 236.5274 0.1393 87
9 F#3 236.6339 236.7323 0.0984 87
9 E3 236.7569 236.9495 0.1926 87
9 G#3 237.0028 238.0110 1.0082 87
9 F#3 238.3553 238.4577 0.1025 87
9 F#3 238.6012 238.8102 0.2090 87
9 G#3 238.8471 238.9905 0.1434 87
9 A3 239.0930 239.3594 0.2664 87
9 G#3 239.3389 239.5356 0.1967 87
9 F#3 239.5848 239.6831 0.0984 87
9 E3 239.7077 240.0192 0.3115 87
9 G#3 240.0766 240.2856 0.2090 87
9 F#3 240.3225 240.5561 0.2336 87
9 G#4 242.0438 242.2323 0.1885 87
9 C#4 242.0438 242.2323 0.1885 87
9 F#4 242.2897 242.4085 0.1189 87
9 B3 242.2897 242.4085 0.1189 87
9 G#3 242.5356 242.6626 0.1270 87
9 E4 242.5356 242.6626 0.1270 87
9 E4 242.6585 242.6626 0.0041 87
9 E3 242.6585 242.8307 0.1721 87
9 G#4 242.9044 243.0315 0.1270 87
9 C#4 242.9044 243.0315 0.1270 87
9 F#4 243.1503 243.2774 0.1270 87
9 B3 243.1503 243.2774 0.1270 87
9 E4 243.3962 243.7774 0.3811 87
9 G#3 243.3962 243.7774 0.3811 87
9 C#4 243.8880 244.2036 0.3156 87
9 G#4 243.8880 244.2036 0.3156 87
9 F#4 244.2569 244.3225 0.0656 87
9 B3 244.2569 244.3225 0.0656 87
9 F#4 244.3798 244.4495 0.0697 87
9 B3 244.3798 244.4495 0.0697 87
9 E4 244.5028 244.5766 0.0738 87
9 G#3 244.5028 244.5766 0.0738 87
9 E4 244.6257 244.7159 0.0902 87
9 G#3 244.6257 244.7159 0.0902 87
9 E3 244.7487 244.8307 0.0820 87
9 E4 244.7487 244.8307 0.0820 87
9 C#4 244.8716 244.9987 0.1270 87
9 G#4 244.8716 244.9987 0.1270 87
9 G#4 245.1176 245.2200 0.1025 87
9 C#4 245.1176 245.2200 0.1025 87
9 B3 245.2405 245.4372 0.1967 87
9 F#4 245.2405 245.4372 0.1967 87
9 E4 245.4864 245.8143 0.3279 87
9 G#3 245.4864 245.8143 0.3279 87
9 G#4 245.9782 246.1667 0.1885 87
9 C#4 245.9782 246.1667 0.1885 87
9 F#4 246.2241 246.3430 0.1189 87
9 B3 246.2241 246.3430 0.1189 87
9 E4 246.4700 246.5971 0.1270 87
9 G#3 246.4700 246.5971 0.1270 87
9 E4 246.5930 246.5971 0.0041 87
9 E3 246.5930 246.7651 0.1721 87
9 C#4 246.8389 246.9659 0.1270 87
9 G#4 246.8389 246.9659 0.1270 87
9 F#4 247.0848 247.2118 0.1270 87
9 B3 247.0848 247.2118 0.1270 87
9 E4 247.3307 247.7118 0.3811 87
9 G#3 247.3307 247.7118 0.3811 87
9 C#4 247.8225 248.1380 0.3156 87
9 G#4 247.8225 248.1380 0.3156 87
9 F#4 248.1913 248.2569 0.0656 87
9 B3 248.1913 248.2569 0.0656 87
9 B3 248.3143 248.3839 0.0697 87
9 F#4 248.3143 248.3839 0.0697 87
9 E4 248.4372 248.5110 0.0738 87
9 G#3 248.4372 248.5110 0.0738 87
9 E4 248.5602 248.6503 0.0902 87
9 G#3 248.5602 248.6503 0.0902 87
9 E4 248.6831 248.7651 0.0820 87
9 E3 248.6831 248.7651 0.0820 87
9 C#4 248.8061 248.9331 0.1270 87
9 G#4 248.8061 248.9331 0.1270 87
9 G#4 249.0520 249.1544 0.1025 87
9 C#4 249.0520 249.1544 0.1025 87
9 B3 249.1749 249.3716 0.1967 87
9 F#4 249.1749 249.3716 0.1967 87
9 G#3 249.4208 249.7487 0.3279 87
9 E4 249.4208 249.7487 0.3279 87
9 C#4 249.9126 250.1012 0.1885 87
9 G#4 249.9126 250.1012 0.1885 87
9 F#4 250.1585 250.2774 0.1189 87
9 B3 250.1585 250.2774 0.1189 87
9 E4 250.4044 250.5315 0.1270 87
9 G#3 250.4044 250.5315 0.1270 87
9 E4 250.5274 250.5315 0.0041 87
9 E3 250.5274 250.6995 0.1721 87
9 C#4 250.7733 250.9003 0.1270 87
9 G#4 250.7733 250.9003 0.1270 87
9 F#4 251.0192 251.1462 0.1270 87
9 B3 251.0192 251.1462 0.1270 87
9 E4 251.2651 251.6462 0.3811 87
9 G#3 251.2651 251.6462 0.3811 87
9 G#4 251.7569 252.0725 0.3156 87
9 C#4 251.7569 252.0725 0.3156 87
9 F#4 252.1257 252.1913 0.0656 87
9 B3 252.1257 252.1913 0.0656 87
9 F#4 252.2487 252.3184 0.0697 87
9 B3 252.2487 252.3184 0.0697 87
9 E4 252.3716 252.4454 0.0738 87
9 G#3 252.3716 252.4454 0.0738 87
9 E4 252.4946 252.5848 0.0902 87
9 G#3 252.4946 252.5848 0.0902 87
9 E3 252.6175 252.6995 0.0820 87
9 E4 252.6175 252.6995 0.0820 87
9 C#4 252.7405 252.8675 0.1270 87
9 G#4 252.7405 252.8675 0.1270 87
9 G#4 252.9864 253.0889 0.1025 87
9 C#4 252.9864 253.0889 0.1025 87
9 B3 253.1093 253.3061 0.1967 87
9 F#4 253.1093 253.3061 0.1967 87
9 E4 253.3553 253.6831 0.3279 87
9 G#3 253.3553 253.6831 0.3279 87
9 G#4 253.8471 254.0356 0.1885 87
9 C#4 253.8471 254.0356 0.1885 87
9 F#4 254.0930 254.2118 0.1189 87
9 B3 254.0930 254.2118 0.1189 87
9 E4 254.3389 254.4659 0.1270 87
9 G#3 254.3389 254.4659 0.1270 87
9 E4 254.4618 254.4659 0.0041 87
9 E3 254.4618 254.6339 0.1721 87
9 C#4 254.7077 254.8348 0.1270 87
9 G#4 254.7077 254.8348 0.1270 87
9 F#4 254.9536 255.0807 0.1270 87
9 B3 254.9536 255.0807 0.1270 87
9 E4 255.1995 255.5807 0.3811 87
9 G#3 255.1995 255.5807 0.3811 87
9 C#4 255.6913 256.0069 0.3156 87
9 G#4 255.6913 256.0069 0.3156 87
9 F#4 256.0602 256.1257 0.0656 87
9 B3 256.0602 256.1257 0.0656 87
9 F#4 256.1831 256.2528 0.0697 87
9 B3 256.1831 256.2528 0.0697 87
9 E4 256.3061 256.3798 0.0738 87
9 G#3 256.3061 256.3798 0.0738 87
9 E4 256.4290 256.5192 0.0902 87
9 G#3 256.4290 256.5192 0.0902 87
9 E4 256.5520 256.6339 0.0820 87
9 E3 256.5520 256.6339 0.0820 87
9 G#4 256.6749 256.8020 0.1270 87
9 C#4 256.6749 256.8020 0.1270 87
9 G#4 256.9208 257.0233 0.1025 87
9 C#4 256.9208 257.0233 0.1025 87
9 F#4 257.0438 257.2405 0.1967 87
9 B3 257.0438 257.2405 0.1967 87
9 E4 257.2897 257.6175 0.3279 87
9 G#3 257.2897 257.6175 0.3279 87
10 E4 74.3390 74.6750 0.3361 1
10 D#4 74.7078 74.7775 0.0697 1
10 E4 74.8308 75.1832 0.3525 1
10 E4 75.3226 75.6095 0.2869 1
10 D#4 75.6914 75.7652 0.0738 1
10 E4 75.8144 76.1955 0.3811 1
10 E4 76.3062 76.6627 0.3566 1
10 D#4 76.6750 76.7488 0.0738 1
10 E4 76.7980 77.0480 0.2500 1
10 D#4 77.0439 77.2611 0.2172 1
10 E4 128.9291 129.3307 0.4016 1
10 G#3 128.9291 129.3963 0.4672 1
10 G#3 129.6668 129.7570 0.0902 1
10 E4 129.6668 129.7652 0.0984 1
10 F#3 129.7897 129.8676 0.0779 1
10 C#4 129.7897 129.8840 0.0943 1
10 G#3 129.9127 130.0316 0.1189 1
10 E4 129.9127 130.0438 0.1311 1
10 G#3 130.1586 130.2734 0.1148 1
10 E4 130.1586 130.2856 0.1270 1
10 E4 130.4045 130.8307 0.4262 1
10 G#3 130.4045 130.8553 0.4508 1
10 G#3 131.6340 131.7201 0.0861 1
10 E4 131.6340 131.7570 0.1230 1
10 C#4 131.7570 131.8430 0.0861 1
10 F#3 131.7570 131.8635 0.1066 1
10 G#3 131.8799 131.9619 0.0820 1
10 E4 131.8799 131.9824 0.1025 1
10 G#3 132.1258 132.2365 0.1107 1
10 E4 132.1258 132.2406 0.1148 1
10 G#3 132.3717 132.7283 0.3566 1
10 E4 132.3717 132.7324 0.3607 1
10 E4 145.1586 145.4947 0.3361 1
10 D#4 145.5274 145.5971 0.0697 1
10 E4 145.6504 146.0029 0.3525 1
10 E4 146.1422 146.4291 0.2869 1
10 D#4 146.5110 146.5848 0.0738 1
10 E4 146.6340 147.0151 0.3811 1
10 E4 147.1258 147.4824 0.3566 1
10 D#4 147.4947 147.5684 0.0738 1
10 E4 147.6176 147.8676 0.2500 1
10 D#4 147.8635 148.0807 0.2172 1
10 C#4 191.8799 192.0684 0.1885 1
10 G#4 191.8799 192.0684 0.1885 1
10 F#4 192.1258 192.2446 0.1189 1
10 B3 192.1258 192.2446 0.1189 1
10 E4 192.3717 192.4987 0.1270 1
10 G#3 192.3717 192.4987 0.1270 1
10 E4 192.4946 192.4987 0.0041 1
10 E3 192.4946 192.6668 0.1721 1
10 C#4 192.7405 192.8676 0.1270 1
10 G#4 192.7405 192.8676 0.1270 1
10 B3 192.9864 193.1135 0.1270 1
10 F#4 192.9864 193.1135 0.1270 1
10 G#3 193.2323 193.6135 0.3811 1
10 E4 193.2323 193.6135 0.3811 1
10 C#4 193.7241 194.0397 0.3156 1
10 G#4 193.7241 194.0397 0.3156 1
10 B3 194.0930 194.1586 0.0656 1
10 F#4 194.0930 194.1586 0.0656 1
10 B3 194.2159 194.2856 0.0697 1
10 F#4 194.2159 194.2856 0.0697 1
10 G#3 194.3389 194.4127 0.0738 1
10 E4 194.3389 194.4127 0.0738 1
10 G#3 194.4618 194.5520 0.0902 1
10 E4 194.4618 194.5520 0.0902 1
10 E4 194.5848 194.6668 0.0820 1
10 E3 194.5848 194.6668 0.0820 1
10 C#4 194.7077 194.8348 0.1270 1
10 G#4 194.7077 194.8348 0.1270 1
10 C#4 194.9536 195.0561 0.1025 1
10 G#4 194.9536 195.0561 0.1025 1
10 B3 195.0766 195.2733 0.1967 1
10 F#4 195.0766 195.2733 0.1967 1
10 G#3 195.3225 195.6504 0.3279 1
10 E4 195.3225 195.6504 0.3279 1
10 C#4 195.8143 196.0028 0.1885 1
10 G#4 195.8143 196.0028 0.1885 1
10 F#4 196.0602 196.1791 0.1189 1
10 B3 196.0602 196.1791 0.1189 1
10 G#3 196.3061 196.4332 0.1270 1
10 E4 196.3061 196.4332 0.1270 1
10 E4 196.4291 196.4332 0.0041 1
10 E3 196.4291 196.6012 0.1721 1
10 C#4 196.6750 196.8020 0.1270 1
10 G#4 196.6750 196.8020 0.1270 1
10 B3 196.9209 197.0479 0.1270 1
10 F#4 196.9209 197.0479 0.1270 1
10 G#3 197.1668 197.5479 0.3811 1
10 E4 197.1668 197.5479 0.3811 1
10 G#4 197.6586 197.9741 0.3156 1
10 C#4 197.6586 197.9741 0.3156 1
10 B3 198.0274 198.0930 0.0656 1
10 F#4 198.0274 198.0930 0.0656 1
10 B3 198.1504 198.2200 0.0697 1
10 F#4 198.1504 198.2200 0.0697 1
10 G#3 198.2733 198.3471 0.0738 1
10 E4 198.2733 198.3471 0.0738 1
10 G#3 198.3963 198.4864 0.0902 1
10 E4 198.3963 198.4864 0.0902 1
10 E3 198.5192 198.6012 0.0820 1
10 E4 198.5192 198.6012 0.0820 1
10 G#4 198.6422 198.7692 0.1270 1
10 C#4 198.6422 198.7692 0.1270 1
10 C#4 198.8881 198.9905 0.1025 1
10 G#4 198.8881 198.9905 0.1025 1
10 F#4 199.0110 199.2077 0.1967 1
10 B3 199.0110 199.2077 0.1967 1
10 E4 199.2569 199.5848 0.3279 1
10 G#3 199.2569 199.5848 0.3279 1
10 C#4 199.7487 199.9372 0.1885 1
10 G#4 199.7487 199.9372 0.1885 1
10 F#4 199.9946 200.1135 0.1189 1
10 B3 199.9946 200.1135 0.1189 1
10 G#3 200.2405 200.3676 0.1270 1
10 E4 200.2405 200.3676 0.1270 1
10 E4 200.3635 200.3676 0.0041 1
10 E3 200.3635 200.5356 0.1721 1
10 G#4 200.6094 200.7364 0.1270 1
10 C#4 200.6094 200.7364 0.1270 1
10 F#4 200.8553 200.9823 0.1270 1
10 B3 200.8553 200.9823 0.1270 1
10 E4 201.1012 201.4823 0.3811 1
10 G#3 201.1012 201.4823 0.3811 1
10 C#4 201.5930 201.9086 0.3156 1
10 G#4 201.5930 201.9086 0.3156 1
10 B3 201.9618 202.0274 0.0656 1
10 F#4 201.9618 202.0274 0.0656 1
10 F#4 202.0848 202.1545 0.0697 1
10 B3 202.0848 202.1545 0.0697 1
10 E4 202.2077 202.2815 0.0738 1
10 G#3 202.2077 202.2815 0.0738 1
10 E4 202.3307 202.4209 0.0902 1
10 G#3 202.3307 202.4209 0.0902 1
10 E3 202.4536 202.5356 0.0820 1
10 E4 202.4536 202.5356 0.0820 1
10 C#4 202.5766 202.7036 0.1270 1
10 G#4 202.5766 202.7036 0.1270 1
10 G#4 202.8225 202.9250 0.1025 1
10 C#4 202.8225 202.9250 0.1025 1
10 B3 202.9454 203.1422 0.1967 1
10 F#4 202.9454 203.1422 0.1967 1
10 G#3 203.1913 203.5192 0.3279 1
10 E4 203.1913 203.5192 0.3279 1
10 C#4 242.0438 242.2323 0.1885 1
10 G#4 242.0438 242.2323 0.1885 1
10 B3 242.2897 242.4085 0.1189 1
10 F#4 242.2897 242.4085 0.1189 1
10 E4 242.5356 242.6626 0.1270 1
10 G#3 242.5356 242.6626 0.1270 1
10 E4 242.6585 242.6626 0.0041 1
10 E3 242.6585 242.8307 0.1721 1
10 G#4 242.9044 243.0315 0.1270 1
10 C#4 242.9044 243.0315 0.1270 1
10 F#4 243.1503 243.2774 0.1270 1
10 B3 243.1503 243.2774 0.1270 1
10 E4 243.3962 243.7774 0.3811 1
10 G#3 243.3962 243.7774 0.3811 1
10 C#4 243.8880 244.2036 0.3156 1
10 G#4 243.8880 244.2036 0.3156 1
10 F#4 244.2569 244.3225 0.0656 1
10 B3 244.2569 244.3225 0.0656 1
10 F#4 244.3798 244.4495 0.0697 1
10 B3 244.3798 244.4495 0.0697 1
10 G#3 244.5028 244.5766 0.0738 1
10 E4 244.5028 244.5766 0.0738 1
10 G#3 244.6257 244.7159 0.0902 1
10 E4 244.6257 244.7159 0.0902 1
10 E3 244.7487 244.8307 0.0820 1
10 E4 244.7487 244.8307 0.0820 1
10 G#4 244.8716 244.9987 0.1270 1
10 C#4 244.8716 244.9987 0.1270 1
10 G#4 245.1176 245.2200 0.1025 1
10 C#4 245.1176 245.2200 0.1025 1
10 F#4 245.2405 245.4372 0.1967 1
10 B3 245.2405 245.4372 0.1967 1
10 G#3 245.4864 245.8143 0.3279 1
10 E4 245.4864 245.8143 0.3279 1
10 C#4 245.9782 246.1667 0.1885 1
10 G#4 245.9782 246.1667 0.1885 1
10 F#4 246.2241 246.3430 0.1189 1
10 B3 246.2241 246.3430 0.1189 1
10 G#3 246.4700 246.5971 0.1270 1
10 E4 246.4700 246.5971 0.1270 1
10 E4 246.5930 246.5971 0.0041 1
10 E3 246.5930 246.7651 0.1721 1
10 C#4 246.8389 246.9659 0.1270 1
10 G#4 246.8389 246.9659 0.1270 1
10 F#4 247.0848 247.2118 0.1270 1
10 B3 247.0848 247.2118 0.1270 1
10 G#3 247.3307 247.7118 0.3811 1
10 E4 247.3307 247.7118 0.3811 1
10 G#4 247.8225 248.1380 0.3156 1
10 C#4 247.8225 248.1380 0.3156 1
10 F#4 248.1913 248.2569 0.0656 1
10 B3 248.1913 248.2569 0.0656 1
10 B3 248.3143 248.3839 0.0697 1
10 F#4 248.3143 248.3839 0.0697 1
10 G#3 248.4372 248.5110 0.0738 1
10 E4 248.4372 248.5110 0.0738 1
10 E4 248.5602 248.6503 0.0902 1
10 G#3 248.5602 248.6503 0.0902 1
10 E4 248.6831 248.7651 0.0820 1
10 E3 248.6831 248.7651 0.0820 1
10 C#4 248.8061 248.9331 0.1270 1
10 G#4 248.8061 248.9331 0.1270 1
10 C#4 249.0520 249.1544 0.1025 1
10 G#4 249.0520 249.1544 0.1025 1
10 F#4 249.1749 249.3716 0.1967 1
10 B3 249.1749 249.3716 0.1967 1
10 E4 249.4208 249.7487 0.3279 1
10 G#3 249.4208 249.7487 0.3279 1
10 C#4 249.9126 250.1012 0.1885 1
10 G#4 249.9126 250.1012 0.1885 1
10 B3 250.1585 250.2774 0.1189 1
10 F#4 250.1585 250.2774 0.1189 1
10 G#3 250.4044 250.5315 0.1270 1
10 E4 250.4044 250.5315 0.1270 1
10 E4 250.5274 250.5315 0.0041 1
10 E3 250.5274 250.6995 0.1721 1
10 G#4 250.7733 250.9003 0.1270 1
10 C#4 250.7733 250.9003 0.1270 1
10 F#4 251.0192 251.1462 0.1270 1
10 B3 251.0192 251.1462 0.1270 1
10 G#3 251.2651 251.6462 0.3811 1
10 E4 251.2651 251.6462 0.3811 1
10 C#4 251.7569 252.0725 0.3156 1
10 G#4 251.7569 252.0725 0.3156 1
10 F#4 252.1257 252.1913 0.0656 1
10 B3 252.1257 252.1913 0.0656 1
10 F#4 252.2487 252.3184 0.0697 1
10 B3 252.2487 252.3184 0.0697 1
10 E4 252.3716 252.4454 0.0738 1
10 G#3 252.3716 252.4454 0.0738 1
10 G#3 252.4946 252.5848 0.0902 1
10 E4 252.4946 252.5848 0.0902 1
10 E4 252.6175 252.6995 0.0820 1
10 E3 252.6175 252.6995 0.0820 1
10 C#4 252.7405 252.8675 0.1270 1
10 G#4 252.7405 252.8675 0.1270 1
10 C#4 252.9864 253.0889 0.1025 1
10 G#4 252.9864 253.0889 0.1025 1
10 B3 253.1093 253.3061 0.1967 1
10 F#4 253.1093 253.3061 0.1967 1
10 E4 253.3553 253.6831 0.3279 1
10 G#3 253.3553 253.6831 0.3279 1
10 C#4 253.8471 254.0356 0.1885 1
10 G#4 253.8471 254.0356 0.1885 1
10 B3 254.0930 254.2118 0.1189 1
10 F#4 254.0930 254.2118 0.1189 1
10 G#3 254.3389 254.4659 0.1270 1
10 E4 254.3389 254.4659 0.1270 1
10 E4 254.4618 254.4659 0.0041 1
10 E3 254.4618 254.6339 0.1721 1
10 G#4 254.7077 254.8348 0.1270 1
10 C#4 254.7077 254.8348 0.1270 1
10 B3 254.9536 255.0807 0.1270 1
10 F#4 254.9536 255.0807 0.1270 1
10 E4 255.1995 255.5807 0.3811 1
10 G#3 255.1995 255.5807 0.3811 1
10 C#4 255.6913 256.0069 0.3156 1
10 G#4 255.6913 256.0069 0.3156 1
10 F#4 256.0602 256.1257 0.0656 1
10 B3 256.0602 256.1257 0.0656 1
10 F#4 256.1831 256.2528 0.0697 1
10 B3 256.1831 256.2528 0.0697 1
10 E4 256.3061 256.3798 0.0738 1
10 G#3 256.3061 256.3798 0.0738 1
10 E4 256.4290 256.5192 0.0902 1
10 G#3 256.4290 256.5192 0.0902 1
10 E3 256.5520 256.6339 0.0820 1
10 E4 256.5520 256.6339 0.0820 1
10 C#4 256.6749 256.8020 0.1270 1
10 G#4 256.6749 256.8020 0.1270 1
10 C#4 256.9208 257.0233 0.1025 1
10 G#4 256.9208 257.0233 0.1025 1
10 B3 257.0438 257.2405 0.1967 1
10 F#4 257.0438 257.2405 0.1967 1
10 G#3 257.2897 257.6175 0.3279 1
10 E4 257.2897 257.6175 0.3279 1
11 F#3 151.8430 151.8922 0.0492 25
11 G#3 151.8758 151.9291 0.0533 27
11 A#3 151.9045 151.9578 0.0533 29
11 C4 151.9373 151.9906 0.0533 32
11 C#4 151.9701 152.0192 0.0492 34
11 D#4 152.0028 152.0561 0.0533 38
11 F4 152.0315 152.0889 0.0574 39
11 F#4 152.0643 152.1176 0.0533 43
11 G#4 152.0971 152.1545 0.0574 45
11 A#4 152.1340 152.1873 0.0533 48
11 C5 152.1668 152.2201 0.0533 50
11 C#5 152.2037 152.2528 0.0492 53
11 D#5 152.2365 152.2856 0.0492 55
11 F5 152.2733 152.3266 0.0533 59
11 F#5 152.3061 152.3676 0.0615 62
11 G#5 152.3430 152.4086 0.0656 64
11 A#5 152.3840 152.4496 0.0656 68
11 C6 152.4291 152.4947 0.0656 71
11 C#6 152.4783 152.5397 0.0615 75
12 G#4 167.5356 167.8061 0.2705 80
12 F#4 167.7815 168.0110 0.2295 80
12 E4 168.0274 168.3061 0.2787 80
12 C#4 168.2733 169.3799 1.1066 80
12 G#4 169.5028 169.7160 0.2131 80
12 F#4 169.7487 169.9660 0.2172 80
12 E4 169.9946 170.2528 0.2582 80
12 C#4 170.2405 171.3717 1.1311 80
12 G#4 171.4701 171.7037 0.2336 80
12 F#4 171.7160 171.9455 0.2295 80
12 E4 171.9619 172.2201 0.2582 80
12 C#4 172.2078 173.3307 1.1230 80
12 G#4 173.4373 173.6504 0.2131 80
12 F#4 173.6832 173.9209 0.2377 80
12 E4 173.9291 174.1750 0.2459 80
12 C#4 174.1750 175.3594 1.1844 80
12 G#4 175.4045 175.6381 0.2336 80
12 F#4 175.6504 175.8758 0.2254 80
12 E4 175.8963 176.1422 0.2459 80
12 C#4 176.1422 177.3348 1.1926 80
12 G#4 177.3717 177.5889 0.2172 80
12 F#4 177.6176 177.8553 0.2377 80
12 E4 177.8635 178.1340 0.2705 80
12 C#4 178.1094 179.2364 1.1270 80
12 G#4 179.3389 179.5684 0.2295 80
12 F#4 179.5848 179.8143 0.2295 80
12 E4 179.8307 180.0807 0.2500 80
12 C#4 180.0766 181.2078 1.1311 80
12 G#4 181.3061 181.5151 0.2090 80
12 F#4 181.5520 181.7897 0.2377 80
12 E4 181.7979 182.0561 0.2582 80
12 C#4 182.0438 183.1176 1.0738 80
12 G#4 225.5684 225.8389 0.2705 80
12 F#4 225.8143 226.0438 0.2295 80
12 E4 226.0602 226.3389 0.2787 80
12 C#4 226.3061 227.4126 1.1066 80
12 G#4 227.5356 227.7487 0.2131 80
12 F#4 227.7815 227.9987 0.2172 80
12 E4 228.0274 228.2856 0.2582 80
12 C#4 228.2733 229.4044 1.1311 80
12 G#4 229.5028 229.7364 0.2336 80
12 F#4 229.7487 229.9782 0.2295 80
12 E4 229.9946 230.2528 0.2582 80
12 C#4 230.2405 231.3635 1.1230 80
12 G#4 231.4700 231.6831 0.2131 80
12 F#4 231.7159 231.9536 0.2377 80
12 E4 231.9618 232.2077 0.2459 80
12 C#4 232.2077 233.3921 1.1844 80
12 G#4 233.4372 233.6708 0.2336 80
12 F#4 233.6831 233.9085 0.2254 80
12 E4 233.9290 234.1749 0.2459 80
12 C#4 234.1749 235.3676 1.1926 80
12 G#4 235.4044 235.6217 0.2172 80
12 F#4 235.6503 235.8880 0.2377 80
12 E4 235.8962 236.1667 0.2705 80
12 C#4 236.1421 237.2692 1.1270 80
12 G#4 237.3717 237.6012 0.2295 80
12 F#4 237.6176 237.8471 0.2295 80
12 E4 237.8635 238.1135 0.2500 80
12 C#4 238.1094 239.2405 1.1311 80
12 G#4 239.3389 239.5479 0.2090 80
12 F#4 239.5848 239.8225 0.2377 80
12 E4 239.8307 240.0889 0.2582 80
12 C#4 240.0766 241.1503 1.0738 80
12 G#4 241.3061 241.5766 0.2705 80
12 F#4 241.5520 241.7815 0.2295 80
12 E4 241.7979 242.0766 0.2787 80
12 C#4 242.0438 243.1503 1.1066 80
12 G#4 243.2733 243.4864 0.2131 80
12 F#4 243.5192 243.7364 0.2172 80
12 E4 243.7651 244.0233 0.2582 80
12 C#4 244.0110 245.1421 1.1311 80
12 G#4 245.2405 245.4741 0.2336 80
12 F#4 245.4864 245.7159 0.2295 80
12 E4 245.7323 245.9905 0.2582 80
12 C#4 245.9782 247.1012 1.1230 80
12 G#4 247.2077 247.4208 0.2131 80
12 F#4 247.4536 247.6913 0.2377 80
12 E4 247.6995 247.9454 0.2459 80
12 C#4 247.9454 249.1298 1.1844 80
12 G#4 249.1749 249.4085 0.2336 80
12 F#4 249.4208 249.6462 0.2254 80
12 E4 249.6667 249.9126 0.2459 80
12 C#4 249.9126 251.1053 1.1926 80
12 G#4 251.1421 251.3594 0.2172 80
12 F#4 251.3880 251.6257 0.2377 80
12 E4 251.6339 251.9044 0.2705 80
12 C#4 251.8798 253.0069 1.1270 80
12 G#4 253.1093 253.3389 0.2295 80
12 F#4 253.3553 253.5848 0.2295 80
12 E4 253.6012 253.8512 0.2500 80
12 C#4 253.8471 254.9782 1.1311 80
12 G#4 255.0766 255.2856 0.2090 80
12 F#4 255.3225 255.5602 0.2377 80
12 E4 255.5684 255.8266 0.2582 80
